M48
; DRILL file KiCad 10.0.1-10.0.1~ubuntu24.04.1 date 2026-04-26T13:37:46
; FORMAT={-:-/ absolute / metric / decimal}
; #@! TF.CreationDate,2026-04-26T13:37:46+02:00
; #@! TF.GenerationSoftware,Kicad,Pcbnew,10.0.1-10.0.1~ubuntu24.04.1
; #@! TF.FileFunction,NonPlated,1,2,NPTH
FMAT,2
METRIC
; #@! TA.AperFunction,NonPlated,NPTH,ComponentDrill
T1C1.750
; #@! TA.AperFunction,NonPlated,NPTH,ComponentDrill
T2C3.000
; #@! TA.AperFunction,NonPlated,NPTH,ComponentDrill
T3C4.000
; #@! TA.AperFunction,NonPlated,NPTH,ComponentDrill
T4C4.500
; #@! TA.AperFunction,NonPlated,NPTH,ComponentDrill
T5C5.000
; #@! TA.AperFunction,NonPlated,NPTH,ComponentDrill
T6C6.000
%
G90
G05
T1
X23.964Y-56.446
X23.964Y-82.946
X26.339Y-158.946
X28.714Y-101.946
X31.089Y-120.946
X34.124Y-56.446
X34.124Y-82.946
X35.839Y-139.946
X36.499Y-158.946
X38.874Y-101.946
X41.249Y-120.946
X42.964Y-82.946
X45.999Y-139.946
X50.089Y-158.946
X52.464Y-101.946
X53.124Y-82.946
X57.214Y-120.946
X60.249Y-158.946
X60.464Y-56.446
X61.964Y-82.946
X62.624Y-101.946
X66.714Y-139.946
X67.374Y-120.946
X70.624Y-56.446
X71.464Y-101.946
X72.124Y-82.946
X73.839Y-158.946
X76.214Y-120.946
X76.874Y-139.946
X79.459Y-56.446
X80.964Y-82.946
X81.624Y-101.946
X83.999Y-158.946
X85.714Y-139.946
X86.374Y-120.946
X89.619Y-56.446
X90.464Y-101.946
X91.124Y-82.946
X95.214Y-120.946
X95.874Y-139.946
X98.464Y-56.446
X99.964Y-82.946
X100.624Y-101.946
X104.714Y-139.946
X105.374Y-120.946
X108.624Y-56.446
X109.464Y-101.946
X110.124Y-82.946
X114.214Y-120.946
X114.874Y-139.946
X117.464Y-56.446
X118.964Y-82.946
X119.624Y-101.946
X123.714Y-139.946
X124.374Y-120.946
X127.624Y-56.446
X128.464Y-101.946
X129.124Y-82.946
X133.214Y-120.946
X133.874Y-139.946
X138.014Y-82.946
X138.624Y-101.946
X142.776Y-139.946
X143.374Y-120.946
X145.089Y-158.946
X146.464Y-56.446
X147.464Y-101.946
X148.174Y-82.946
X152.301Y-120.946
X152.936Y-139.946
X155.249Y-158.946
X156.624Y-56.446
X156.964Y-82.946
X157.624Y-101.946
X161.714Y-139.946
X162.461Y-120.946
X165.464Y-56.446
X166.464Y-101.946
X167.124Y-82.946
X171.351Y-120.946
X171.874Y-139.946
X175.624Y-56.446
X175.964Y-82.946
X176.624Y-101.946
X180.714Y-139.946
X181.511Y-120.946
X184.464Y-56.446
X185.464Y-101.946
X186.124Y-82.946
X190.214Y-120.946
X190.874Y-139.946
X194.624Y-56.446
X194.964Y-82.946
X195.624Y-101.946
X199.714Y-139.946
X200.374Y-120.946
X203.464Y-56.446
X204.464Y-101.946
X205.124Y-82.946
X209.214Y-120.946
X209.874Y-139.946
X213.624Y-56.446
X213.964Y-82.946
X214.624Y-101.946
X216.339Y-158.946
X218.714Y-139.946
X219.374Y-120.946
X223.464Y-101.946
X224.124Y-82.946
X226.499Y-158.946
X228.214Y-120.946
X228.874Y-139.946
X232.464Y-56.446
X232.964Y-82.946
X233.624Y-101.946
X237.714Y-139.946
X238.374Y-120.946
X240.089Y-158.946
X242.464Y-101.946
X242.624Y-56.446
X243.124Y-82.946
X247.214Y-120.946
X247.874Y-139.946
X250.249Y-158.946
X251.464Y-56.446
X251.964Y-82.946
X252.624Y-101.946
X257.374Y-120.946
X261.464Y-101.946
X261.624Y-56.446
X262.124Y-82.946
X263.839Y-158.946
X270.464Y-56.446
X271.624Y-101.946
X273.339Y-139.946
X273.999Y-158.946
X278.089Y-120.946
X280.464Y-82.946
X280.624Y-56.446
X283.499Y-139.946
X285.214Y-101.946
X287.589Y-158.946
X288.249Y-120.946
X289.464Y-56.446
X290.624Y-82.946
X295.374Y-101.946
X297.749Y-158.946
X299.624Y-56.446
X312.464Y-56.446
X312.464Y-82.946
X312.464Y-101.946
X312.464Y-158.946
X322.624Y-56.446
X322.624Y-82.946
X322.624Y-101.946
X322.624Y-158.946
X331.464Y-56.446
X331.464Y-82.946
X331.464Y-101.946
X331.464Y-139.896
X331.464Y-158.946
X341.624Y-56.446
X341.624Y-82.946
X341.624Y-101.946
X341.624Y-139.896
X341.624Y-158.946
X350.464Y-56.446
X350.464Y-82.946
X350.464Y-101.946
X350.464Y-158.946
X360.624Y-56.446
X360.624Y-82.946
X360.624Y-101.946
X360.624Y-158.946
T2
X67.044Y-151.946
X306.544Y-71.446
X320.544Y-142.396
T3
X29.044Y-56.446
X29.044Y-82.946
X31.419Y-158.946
X33.794Y-101.946
X36.169Y-120.946
X40.919Y-139.946
X46.544Y-61.496
X48.044Y-82.946
X55.169Y-158.946
X57.544Y-101.946
X62.294Y-120.946
X65.544Y-56.446
X67.044Y-82.946
X71.794Y-139.946
X76.544Y-101.946
X78.919Y-158.946
X81.294Y-120.946
X84.539Y-56.446
X86.044Y-82.946
X90.794Y-139.946
X95.544Y-101.946
X100.294Y-120.946
X103.544Y-56.446
X105.044Y-82.946
X109.794Y-139.946
X114.544Y-101.946
X119.294Y-120.946
X122.544Y-56.446
X124.044Y-82.946
X128.794Y-139.946
X133.544Y-101.946
X138.294Y-120.946
X143.094Y-82.946
X147.856Y-139.946
X150.169Y-158.946
X151.544Y-56.446
X152.544Y-101.946
X157.381Y-120.946
X162.044Y-82.946
X166.794Y-139.946
X170.544Y-56.446
X171.544Y-101.946
X176.431Y-120.946
X181.044Y-82.946
X185.794Y-139.946
X189.544Y-56.446
X190.544Y-101.946
X195.294Y-120.946
X200.044Y-82.946
X204.794Y-139.946
X208.544Y-56.446
X209.544Y-101.946
X214.294Y-120.946
X219.044Y-82.946
X221.419Y-158.946
X223.794Y-139.946
X228.544Y-101.946
X233.294Y-120.946
X237.544Y-56.446
X238.044Y-82.946
X242.794Y-139.946
X245.169Y-158.946
X247.544Y-101.946
X252.294Y-120.946
X256.544Y-56.446
X257.044Y-82.946
X266.544Y-101.946
X268.919Y-158.946
X275.544Y-56.446
X278.419Y-139.946
X283.169Y-120.946
X285.544Y-82.946
X290.294Y-101.946
X292.669Y-158.946
X294.544Y-56.446
X317.544Y-56.446
X317.544Y-82.946
X317.544Y-101.946
X317.544Y-158.946
X336.544Y-56.446
X336.544Y-82.946
X336.544Y-101.946
X336.544Y-139.896
X336.544Y-158.946
X355.544Y-56.446
X355.544Y-82.946
X355.544Y-101.946
X355.544Y-158.946
T4
X161.794Y-111.196
T5
X90.544Y-162.946
X353.544Y-124.946
T6
X67.044Y-111.046
X256.544Y-110.946
M30
