%TF.GenerationSoftware,KiCad,Pcbnew,10.0.1-10.0.1~ubuntu24.04.1*%
%TF.CreationDate,2026-04-26T13:37:46+02:00*%
%TF.ProjectId,emacstkl,656d6163-7374-46b6-9c2e-6b696361645f,rev?*%
%TF.SameCoordinates,Original*%
%TF.FileFunction,Drillmap*%
%TF.FilePolarity,Positive*%
%FSLAX45Y45*%
G04 Gerber Fmt 4.5, Leading zero omitted, Abs format (unit mm)*
G04 Created by KiCad (PCBNEW 10.0.1-10.0.1~ubuntu24.04.1) date 2026-04-26 13:37:46*
%MOMM*%
%LPD*%
G01*
G04 APERTURE LIST*
%ADD10C,0.050000*%
%ADD11C,0.200000*%
%ADD12C,0.175000*%
%ADD13C,0.300000*%
%ADD14C,0.400000*%
%ADD15C,0.450000*%
%ADD16C,0.500000*%
%ADD17C,0.600000*%
G04 APERTURE END LIST*
D10*
X1804375Y-17094641D02*
X1804375Y-4544641D01*
X1804375Y-17094641D02*
X4654376Y-17094641D01*
X4004375Y-4194641D02*
X5404376Y-4194641D01*
X4004375Y-4544641D02*
X1804375Y-4544641D01*
X4004375Y-4544641D02*
X4004375Y-4194641D01*
X4654376Y-16894641D02*
X4654376Y-17094641D01*
X5404376Y-4194641D02*
X5404376Y-4539641D01*
X5404376Y-4539641D02*
X6234375Y-4539641D01*
X5554376Y-16894641D02*
X4654376Y-16894641D01*
X5554376Y-16894641D02*
X5554376Y-17094641D01*
X7904375Y-16894641D02*
X7904375Y-17094641D01*
X7904375Y-17094641D02*
X5554376Y-17094641D01*
X8804376Y-16894641D02*
X7904375Y-16894641D01*
X8804376Y-16894641D02*
X8804376Y-17096974D01*
X11004376Y-16894641D02*
X11004376Y-17094641D01*
X11004376Y-17094641D02*
X8804376Y-17096974D01*
X12004375Y-16894641D02*
X11004376Y-16894641D01*
X12004375Y-16894641D02*
X12004375Y-17094641D01*
X16904376Y-16839641D02*
X16904376Y-17094641D01*
X16904376Y-17094641D02*
X12004375Y-17094641D01*
X18354376Y-16839641D02*
X16904376Y-16839641D01*
X18354376Y-17094641D02*
X18354376Y-16839641D01*
X19104376Y-16989641D02*
X19104376Y-17094641D01*
X19104376Y-17094641D02*
X18354376Y-17094641D01*
X36654376Y-4544641D02*
X6234375Y-4539641D01*
X36654376Y-16994641D02*
X19104376Y-16989641D01*
X36654376Y-16994641D02*
X36654376Y-4544641D01*
D11*
D12*
X2308876Y-5557141D02*
X2483876Y-5732141D01*
X2483876Y-5557141D02*
X2308876Y-5732141D01*
X2308876Y-8207141D02*
X2483876Y-8382141D01*
X2483876Y-8207141D02*
X2308876Y-8382141D01*
X2546376Y-15807141D02*
X2721376Y-15982141D01*
X2721376Y-15807141D02*
X2546376Y-15982141D01*
X2783876Y-10107141D02*
X2958875Y-10282141D01*
X2958875Y-10107141D02*
X2783876Y-10282141D01*
X3021375Y-12007141D02*
X3196375Y-12182141D01*
X3196375Y-12007141D02*
X3021375Y-12182141D01*
X3324875Y-5557141D02*
X3499875Y-5732141D01*
X3499875Y-5557141D02*
X3324875Y-5732141D01*
X3324875Y-8207141D02*
X3499875Y-8382141D01*
X3499875Y-8207141D02*
X3324875Y-8382141D01*
X3496375Y-13907141D02*
X3671375Y-14082141D01*
X3671375Y-13907141D02*
X3496375Y-14082141D01*
X3562375Y-15807141D02*
X3737375Y-15982141D01*
X3737375Y-15807141D02*
X3562375Y-15982141D01*
X3799875Y-10107141D02*
X3974875Y-10282141D01*
X3974875Y-10107141D02*
X3799875Y-10282141D01*
X4037375Y-12007141D02*
X4212376Y-12182141D01*
X4212376Y-12007141D02*
X4037375Y-12182141D01*
X4208876Y-8207141D02*
X4383876Y-8382141D01*
X4383876Y-8207141D02*
X4208876Y-8382141D01*
X4512376Y-13907141D02*
X4687376Y-14082141D01*
X4687376Y-13907141D02*
X4512376Y-14082141D01*
X4921376Y-15807141D02*
X5096376Y-15982141D01*
X5096376Y-15807141D02*
X4921376Y-15982141D01*
X5158876Y-10107141D02*
X5333876Y-10282141D01*
X5333876Y-10107141D02*
X5158876Y-10282141D01*
X5224876Y-8207141D02*
X5399876Y-8382141D01*
X5399876Y-8207141D02*
X5224876Y-8382141D01*
X5633875Y-12007141D02*
X5808875Y-12182141D01*
X5808875Y-12007141D02*
X5633875Y-12182141D01*
X5937375Y-15807141D02*
X6112375Y-15982141D01*
X6112375Y-15807141D02*
X5937375Y-15982141D01*
X5958875Y-5557141D02*
X6133875Y-5732141D01*
X6133875Y-5557141D02*
X5958875Y-5732141D01*
X6108875Y-8207141D02*
X6283875Y-8382141D01*
X6283875Y-8207141D02*
X6108875Y-8382141D01*
X6174875Y-10107141D02*
X6349875Y-10282141D01*
X6349875Y-10107141D02*
X6174875Y-10282141D01*
X6583875Y-13907141D02*
X6758875Y-14082141D01*
X6758875Y-13907141D02*
X6583875Y-14082141D01*
X6649875Y-12007141D02*
X6824875Y-12182141D01*
X6824875Y-12007141D02*
X6649875Y-12182141D01*
X6974875Y-5557141D02*
X7149875Y-5732141D01*
X7149875Y-5557141D02*
X6974875Y-5732141D01*
X7058875Y-10107141D02*
X7233875Y-10282141D01*
X7233875Y-10107141D02*
X7058875Y-10282141D01*
X7124875Y-8207141D02*
X7299875Y-8382141D01*
X7299875Y-8207141D02*
X7124875Y-8382141D01*
X7296375Y-15807141D02*
X7471375Y-15982141D01*
X7471375Y-15807141D02*
X7296375Y-15982141D01*
X7533875Y-12007141D02*
X7708875Y-12182141D01*
X7708875Y-12007141D02*
X7533875Y-12182141D01*
X7599875Y-13907141D02*
X7774875Y-14082141D01*
X7774875Y-13907141D02*
X7599875Y-14082141D01*
X7858437Y-5557141D02*
X8033437Y-5732141D01*
X8033437Y-5557141D02*
X7858437Y-5732141D01*
X8008875Y-8207141D02*
X8183875Y-8382141D01*
X8183875Y-8207141D02*
X8008875Y-8382141D01*
X8074875Y-10107141D02*
X8249875Y-10282141D01*
X8249875Y-10107141D02*
X8074875Y-10282141D01*
X8312375Y-15807141D02*
X8487376Y-15982141D01*
X8487376Y-15807141D02*
X8312375Y-15982141D01*
X8483876Y-13907141D02*
X8658876Y-14082141D01*
X8658876Y-13907141D02*
X8483876Y-14082141D01*
X8549876Y-12007141D02*
X8724876Y-12182141D01*
X8724876Y-12007141D02*
X8549876Y-12182141D01*
X8874437Y-5557141D02*
X9049437Y-5732141D01*
X9049437Y-5557141D02*
X8874437Y-5732141D01*
X8958876Y-10107141D02*
X9133876Y-10282141D01*
X9133876Y-10107141D02*
X8958876Y-10282141D01*
X9024876Y-8207141D02*
X9199876Y-8382141D01*
X9199876Y-8207141D02*
X9024876Y-8382141D01*
X9433876Y-12007141D02*
X9608876Y-12182141D01*
X9608876Y-12007141D02*
X9433876Y-12182141D01*
X9499876Y-13907141D02*
X9674876Y-14082141D01*
X9674876Y-13907141D02*
X9499876Y-14082141D01*
X9758876Y-5557141D02*
X9933876Y-5732141D01*
X9933876Y-5557141D02*
X9758876Y-5732141D01*
X9908876Y-8207141D02*
X10083876Y-8382141D01*
X10083876Y-8207141D02*
X9908876Y-8382141D01*
X9974876Y-10107141D02*
X10149876Y-10282141D01*
X10149876Y-10107141D02*
X9974876Y-10282141D01*
X10383876Y-13907141D02*
X10558876Y-14082141D01*
X10558876Y-13907141D02*
X10383876Y-14082141D01*
X10449876Y-12007141D02*
X10624876Y-12182141D01*
X10624876Y-12007141D02*
X10449876Y-12182141D01*
X10774876Y-5557141D02*
X10949876Y-5732141D01*
X10949876Y-5557141D02*
X10774876Y-5732141D01*
X10858876Y-10107141D02*
X11033876Y-10282141D01*
X11033876Y-10107141D02*
X10858876Y-10282141D01*
X10924876Y-8207141D02*
X11099876Y-8382141D01*
X11099876Y-8207141D02*
X10924876Y-8382141D01*
X11333875Y-12007141D02*
X11508875Y-12182141D01*
X11508875Y-12007141D02*
X11333875Y-12182141D01*
X11399875Y-13907141D02*
X11574875Y-14082141D01*
X11574875Y-13907141D02*
X11399875Y-14082141D01*
X11658875Y-5557141D02*
X11833875Y-5732141D01*
X11833875Y-5557141D02*
X11658875Y-5732141D01*
X11808875Y-8207141D02*
X11983875Y-8382141D01*
X11983875Y-8207141D02*
X11808875Y-8382141D01*
X11874875Y-10107141D02*
X12049875Y-10282141D01*
X12049875Y-10107141D02*
X11874875Y-10282141D01*
X12283875Y-13907141D02*
X12458875Y-14082141D01*
X12458875Y-13907141D02*
X12283875Y-14082141D01*
X12349875Y-12007141D02*
X12524875Y-12182141D01*
X12524875Y-12007141D02*
X12349875Y-12182141D01*
X12674875Y-5557141D02*
X12849875Y-5732141D01*
X12849875Y-5557141D02*
X12674875Y-5732141D01*
X12758875Y-10107141D02*
X12933875Y-10282141D01*
X12933875Y-10107141D02*
X12758875Y-10282141D01*
X12824875Y-8207141D02*
X12999875Y-8382141D01*
X12999875Y-8207141D02*
X12824875Y-8382141D01*
X13233875Y-12007141D02*
X13408875Y-12182141D01*
X13408875Y-12007141D02*
X13233875Y-12182141D01*
X13299875Y-13907141D02*
X13474875Y-14082141D01*
X13474875Y-13907141D02*
X13299875Y-14082141D01*
X13713875Y-8207141D02*
X13888875Y-8382141D01*
X13888875Y-8207141D02*
X13713875Y-8382141D01*
X13774875Y-10107141D02*
X13949875Y-10282141D01*
X13949875Y-10107141D02*
X13774875Y-10282141D01*
X14190125Y-13907141D02*
X14365125Y-14082141D01*
X14365125Y-13907141D02*
X14190125Y-14082141D01*
X14249875Y-12007141D02*
X14424875Y-12182141D01*
X14424875Y-12007141D02*
X14249875Y-12182141D01*
X14421375Y-15807141D02*
X14596375Y-15982141D01*
X14596375Y-15807141D02*
X14421375Y-15982141D01*
X14558875Y-5557141D02*
X14733875Y-5732141D01*
X14733875Y-5557141D02*
X14558875Y-5732141D01*
X14658875Y-10107141D02*
X14833875Y-10282141D01*
X14833875Y-10107141D02*
X14658875Y-10282141D01*
X14729875Y-8207141D02*
X14904875Y-8382141D01*
X14904875Y-8207141D02*
X14729875Y-8382141D01*
X15142625Y-12007141D02*
X15317625Y-12182141D01*
X15317625Y-12007141D02*
X15142625Y-12182141D01*
X15206125Y-13907141D02*
X15381125Y-14082141D01*
X15381125Y-13907141D02*
X15206125Y-14082141D01*
X15437375Y-15807141D02*
X15612375Y-15982141D01*
X15612375Y-15807141D02*
X15437375Y-15982141D01*
X15574875Y-5557141D02*
X15749875Y-5732141D01*
X15749875Y-5557141D02*
X15574875Y-5732141D01*
X15608875Y-8207141D02*
X15783875Y-8382141D01*
X15783875Y-8207141D02*
X15608875Y-8382141D01*
X15674875Y-10107141D02*
X15849875Y-10282141D01*
X15849875Y-10107141D02*
X15674875Y-10282141D01*
X16083875Y-13907141D02*
X16258875Y-14082141D01*
X16258875Y-13907141D02*
X16083875Y-14082141D01*
X16158625Y-12007141D02*
X16333625Y-12182141D01*
X16333625Y-12007141D02*
X16158625Y-12182141D01*
X16458875Y-5557141D02*
X16633875Y-5732141D01*
X16633875Y-5557141D02*
X16458875Y-5732141D01*
X16558875Y-10107141D02*
X16733875Y-10282141D01*
X16733875Y-10107141D02*
X16558875Y-10282141D01*
X16624875Y-8207141D02*
X16799876Y-8382141D01*
X16799876Y-8207141D02*
X16624875Y-8382141D01*
X17047626Y-12007141D02*
X17222626Y-12182141D01*
X17222626Y-12007141D02*
X17047626Y-12182141D01*
X17099876Y-13907141D02*
X17274876Y-14082141D01*
X17274876Y-13907141D02*
X17099876Y-14082141D01*
X17474876Y-5557141D02*
X17649876Y-5732141D01*
X17649876Y-5557141D02*
X17474876Y-5732141D01*
X17508876Y-8207141D02*
X17683876Y-8382141D01*
X17683876Y-8207141D02*
X17508876Y-8382141D01*
X17574876Y-10107141D02*
X17749876Y-10282141D01*
X17749876Y-10107141D02*
X17574876Y-10282141D01*
X17983876Y-13907141D02*
X18158876Y-14082141D01*
X18158876Y-13907141D02*
X17983876Y-14082141D01*
X18063626Y-12007141D02*
X18238626Y-12182141D01*
X18238626Y-12007141D02*
X18063626Y-12182141D01*
X18358876Y-5557141D02*
X18533876Y-5732141D01*
X18533876Y-5557141D02*
X18358876Y-5732141D01*
X18458876Y-10107141D02*
X18633876Y-10282141D01*
X18633876Y-10107141D02*
X18458876Y-10282141D01*
X18524876Y-8207141D02*
X18699876Y-8382141D01*
X18699876Y-8207141D02*
X18524876Y-8382141D01*
X18933876Y-12007141D02*
X19108876Y-12182141D01*
X19108876Y-12007141D02*
X18933876Y-12182141D01*
X18999876Y-13907141D02*
X19174876Y-14082141D01*
X19174876Y-13907141D02*
X18999876Y-14082141D01*
X19374876Y-5557141D02*
X19549876Y-5732141D01*
X19549876Y-5557141D02*
X19374876Y-5732141D01*
X19408876Y-8207141D02*
X19583876Y-8382141D01*
X19583876Y-8207141D02*
X19408876Y-8382141D01*
X19474876Y-10107141D02*
X19649876Y-10282141D01*
X19649876Y-10107141D02*
X19474876Y-10282141D01*
X19883876Y-13907141D02*
X20058876Y-14082141D01*
X20058876Y-13907141D02*
X19883876Y-14082141D01*
X19949876Y-12007141D02*
X20124876Y-12182141D01*
X20124876Y-12007141D02*
X19949876Y-12182141D01*
X20258876Y-5557141D02*
X20433876Y-5732141D01*
X20433876Y-5557141D02*
X20258876Y-5732141D01*
X20358876Y-10107141D02*
X20533876Y-10282141D01*
X20533876Y-10107141D02*
X20358876Y-10282141D01*
X20424876Y-8207141D02*
X20599876Y-8382141D01*
X20599876Y-8207141D02*
X20424876Y-8382141D01*
X20833876Y-12007141D02*
X21008876Y-12182141D01*
X21008876Y-12007141D02*
X20833876Y-12182141D01*
X20899876Y-13907141D02*
X21074876Y-14082141D01*
X21074876Y-13907141D02*
X20899876Y-14082141D01*
X21274876Y-5557141D02*
X21449876Y-5732141D01*
X21449876Y-5557141D02*
X21274876Y-5732141D01*
X21308876Y-8207141D02*
X21483876Y-8382141D01*
X21483876Y-8207141D02*
X21308876Y-8382141D01*
X21374876Y-10107141D02*
X21549876Y-10282141D01*
X21549876Y-10107141D02*
X21374876Y-10282141D01*
X21546376Y-15807141D02*
X21721376Y-15982141D01*
X21721376Y-15807141D02*
X21546376Y-15982141D01*
X21783876Y-13907141D02*
X21958876Y-14082141D01*
X21958876Y-13907141D02*
X21783876Y-14082141D01*
X21849876Y-12007141D02*
X22024876Y-12182141D01*
X22024876Y-12007141D02*
X21849876Y-12182141D01*
X22258876Y-10107141D02*
X22433875Y-10282141D01*
X22433875Y-10107141D02*
X22258876Y-10282141D01*
X22324876Y-8207141D02*
X22499875Y-8382141D01*
X22499875Y-8207141D02*
X22324876Y-8382141D01*
X22562375Y-15807141D02*
X22737375Y-15982141D01*
X22737375Y-15807141D02*
X22562375Y-15982141D01*
X22733875Y-12007141D02*
X22908875Y-12182141D01*
X22908875Y-12007141D02*
X22733875Y-12182141D01*
X22799875Y-13907141D02*
X22974875Y-14082141D01*
X22974875Y-13907141D02*
X22799875Y-14082141D01*
X23158875Y-5557141D02*
X23333875Y-5732141D01*
X23333875Y-5557141D02*
X23158875Y-5732141D01*
X23208875Y-8207141D02*
X23383875Y-8382141D01*
X23383875Y-8207141D02*
X23208875Y-8382141D01*
X23274875Y-10107141D02*
X23449875Y-10282141D01*
X23449875Y-10107141D02*
X23274875Y-10282141D01*
X23683875Y-13907141D02*
X23858875Y-14082141D01*
X23858875Y-13907141D02*
X23683875Y-14082141D01*
X23749875Y-12007141D02*
X23924875Y-12182141D01*
X23924875Y-12007141D02*
X23749875Y-12182141D01*
X23921375Y-15807141D02*
X24096375Y-15982141D01*
X24096375Y-15807141D02*
X23921375Y-15982141D01*
X24158875Y-10107141D02*
X24333875Y-10282141D01*
X24333875Y-10107141D02*
X24158875Y-10282141D01*
X24174875Y-5557141D02*
X24349875Y-5732141D01*
X24349875Y-5557141D02*
X24174875Y-5732141D01*
X24224875Y-8207141D02*
X24399875Y-8382141D01*
X24399875Y-8207141D02*
X24224875Y-8382141D01*
X24633875Y-12007141D02*
X24808875Y-12182141D01*
X24808875Y-12007141D02*
X24633875Y-12182141D01*
X24699875Y-13907141D02*
X24874875Y-14082141D01*
X24874875Y-13907141D02*
X24699875Y-14082141D01*
X24937375Y-15807141D02*
X25112375Y-15982141D01*
X25112375Y-15807141D02*
X24937375Y-15982141D01*
X25058875Y-5557141D02*
X25233875Y-5732141D01*
X25233875Y-5557141D02*
X25058875Y-5732141D01*
X25108875Y-8207141D02*
X25283875Y-8382141D01*
X25283875Y-8207141D02*
X25108875Y-8382141D01*
X25174875Y-10107141D02*
X25349875Y-10282141D01*
X25349875Y-10107141D02*
X25174875Y-10282141D01*
X25649875Y-12007141D02*
X25824875Y-12182141D01*
X25824875Y-12007141D02*
X25649875Y-12182141D01*
X26058875Y-10107141D02*
X26233875Y-10282141D01*
X26233875Y-10107141D02*
X26058875Y-10282141D01*
X26074875Y-5557141D02*
X26249875Y-5732141D01*
X26249875Y-5557141D02*
X26074875Y-5732141D01*
X26124875Y-8207141D02*
X26299875Y-8382141D01*
X26299875Y-8207141D02*
X26124875Y-8382141D01*
X26296375Y-15807141D02*
X26471375Y-15982141D01*
X26471375Y-15807141D02*
X26296375Y-15982141D01*
X26958875Y-5557141D02*
X27133875Y-5732141D01*
X27133875Y-5557141D02*
X26958875Y-5732141D01*
X27074875Y-10107141D02*
X27249875Y-10282141D01*
X27249875Y-10107141D02*
X27074875Y-10282141D01*
X27246375Y-13907141D02*
X27421375Y-14082141D01*
X27421375Y-13907141D02*
X27246375Y-14082141D01*
X27312375Y-15807141D02*
X27487375Y-15982141D01*
X27487375Y-15807141D02*
X27312375Y-15982141D01*
X27721375Y-12007141D02*
X27896375Y-12182141D01*
X27896375Y-12007141D02*
X27721375Y-12182141D01*
X27958875Y-8207141D02*
X28133875Y-8382141D01*
X28133875Y-8207141D02*
X27958875Y-8382141D01*
X27974875Y-5557141D02*
X28149875Y-5732141D01*
X28149875Y-5557141D02*
X27974875Y-5732141D01*
X28262375Y-13907141D02*
X28437375Y-14082141D01*
X28437375Y-13907141D02*
X28262375Y-14082141D01*
X28433875Y-10107141D02*
X28608875Y-10282141D01*
X28608875Y-10107141D02*
X28433875Y-10282141D01*
X28671375Y-15807141D02*
X28846375Y-15982141D01*
X28846375Y-15807141D02*
X28671375Y-15982141D01*
X28737375Y-12007141D02*
X28912375Y-12182141D01*
X28912375Y-12007141D02*
X28737375Y-12182141D01*
X28858875Y-5557141D02*
X29033875Y-5732141D01*
X29033875Y-5557141D02*
X28858875Y-5732141D01*
X28974875Y-8207141D02*
X29149875Y-8382141D01*
X29149875Y-8207141D02*
X28974875Y-8382141D01*
X29449875Y-10107141D02*
X29624875Y-10282141D01*
X29624875Y-10107141D02*
X29449875Y-10282141D01*
X29687375Y-15807141D02*
X29862375Y-15982141D01*
X29862375Y-15807141D02*
X29687375Y-15982141D01*
X29874875Y-5557141D02*
X30049875Y-5732141D01*
X30049875Y-5557141D02*
X29874875Y-5732141D01*
X31158875Y-5557141D02*
X31333875Y-5732141D01*
X31333875Y-5557141D02*
X31158875Y-5732141D01*
X31158875Y-8207141D02*
X31333875Y-8382141D01*
X31333875Y-8207141D02*
X31158875Y-8382141D01*
X31158875Y-10107141D02*
X31333875Y-10282141D01*
X31333875Y-10107141D02*
X31158875Y-10282141D01*
X31158875Y-15807141D02*
X31333875Y-15982141D01*
X31333875Y-15807141D02*
X31158875Y-15982141D01*
X32174875Y-5557141D02*
X32349875Y-5732141D01*
X32349875Y-5557141D02*
X32174875Y-5732141D01*
X32174875Y-8207141D02*
X32349875Y-8382141D01*
X32349875Y-8207141D02*
X32174875Y-8382141D01*
X32174875Y-10107141D02*
X32349875Y-10282141D01*
X32349875Y-10107141D02*
X32174875Y-10282141D01*
X32174875Y-15807141D02*
X32349875Y-15982141D01*
X32349875Y-15807141D02*
X32174875Y-15982141D01*
X33058875Y-5557141D02*
X33233875Y-5732141D01*
X33233875Y-5557141D02*
X33058875Y-5732141D01*
X33058875Y-8207141D02*
X33233875Y-8382141D01*
X33233875Y-8207141D02*
X33058875Y-8382141D01*
X33058875Y-10107141D02*
X33233875Y-10282141D01*
X33233875Y-10107141D02*
X33058875Y-10282141D01*
X33058875Y-13902141D02*
X33233875Y-14077141D01*
X33233875Y-13902141D02*
X33058875Y-14077141D01*
X33058875Y-15807141D02*
X33233875Y-15982141D01*
X33233875Y-15807141D02*
X33058875Y-15982141D01*
X34074876Y-5557141D02*
X34249876Y-5732141D01*
X34249876Y-5557141D02*
X34074876Y-5732141D01*
X34074876Y-8207141D02*
X34249876Y-8382141D01*
X34249876Y-8207141D02*
X34074876Y-8382141D01*
X34074876Y-10107141D02*
X34249876Y-10282141D01*
X34249876Y-10107141D02*
X34074876Y-10282141D01*
X34074876Y-13902141D02*
X34249876Y-14077141D01*
X34249876Y-13902141D02*
X34074876Y-14077141D01*
X34074876Y-15807141D02*
X34249876Y-15982141D01*
X34249876Y-15807141D02*
X34074876Y-15982141D01*
X34958876Y-5557141D02*
X35133876Y-5732141D01*
X35133876Y-5557141D02*
X34958876Y-5732141D01*
X34958876Y-8207141D02*
X35133876Y-8382141D01*
X35133876Y-8207141D02*
X34958876Y-8382141D01*
X34958876Y-10107141D02*
X35133876Y-10282141D01*
X35133876Y-10107141D02*
X34958876Y-10282141D01*
X34958876Y-15807141D02*
X35133876Y-15982141D01*
X35133876Y-15807141D02*
X34958876Y-15982141D01*
X35974876Y-5557141D02*
X36149876Y-5732141D01*
X36149876Y-5557141D02*
X35974876Y-5732141D01*
X35974876Y-8207141D02*
X36149876Y-8382141D01*
X36149876Y-8207141D02*
X35974876Y-8382141D01*
X35974876Y-10107141D02*
X36149876Y-10282141D01*
X36149876Y-10107141D02*
X35974876Y-10282141D01*
X35974876Y-15807141D02*
X36149876Y-15982141D01*
X36149876Y-15807141D02*
X35974876Y-15982141D01*
D13*
X6854375Y-15194641D02*
G75*
G02*
X6554375Y-15194641I-150000J0D01*
G01*
X6554375Y-15194641D02*
G75*
G02*
X6854375Y-15194641I150000J0D01*
G01*
X30804375Y-7144641D02*
G75*
G02*
X30504375Y-7144641I-150000J0D01*
G01*
X30504375Y-7144641D02*
G75*
G02*
X30804375Y-7144641I150000J0D01*
G01*
X32204375Y-14239641D02*
G75*
G02*
X31904375Y-14239641I-150000J0D01*
G01*
X31904375Y-14239641D02*
G75*
G02*
X32204375Y-14239641I150000J0D01*
G01*
D14*
X2904375Y-5444641D02*
X2904375Y-5844641D01*
X2704376Y-5644641D02*
X3104375Y-5644641D01*
X2904375Y-8094641D02*
X2904375Y-8494641D01*
X2704376Y-8294641D02*
X3104375Y-8294641D01*
X3141875Y-15694641D02*
X3141875Y-16094641D01*
X2941875Y-15894641D02*
X3341875Y-15894641D01*
X3379375Y-9994641D02*
X3379375Y-10394641D01*
X3179375Y-10194641D02*
X3579375Y-10194641D01*
X3616875Y-11894641D02*
X3616875Y-12294641D01*
X3416875Y-12094641D02*
X3816875Y-12094641D01*
X4091875Y-13794641D02*
X4091875Y-14194641D01*
X3891875Y-13994641D02*
X4291876Y-13994641D01*
X4654376Y-5949641D02*
X4654376Y-6349641D01*
X4454376Y-6149641D02*
X4854376Y-6149641D01*
X4804376Y-8094641D02*
X4804376Y-8494641D01*
X4604376Y-8294641D02*
X5004376Y-8294641D01*
X5516876Y-15694641D02*
X5516876Y-16094641D01*
X5316876Y-15894641D02*
X5716875Y-15894641D01*
X5754375Y-9994641D02*
X5754375Y-10394641D01*
X5554376Y-10194641D02*
X5954375Y-10194641D01*
X6229375Y-11894641D02*
X6229375Y-12294641D01*
X6029375Y-12094641D02*
X6429375Y-12094641D01*
X6554375Y-5444641D02*
X6554375Y-5844641D01*
X6354375Y-5644641D02*
X6754375Y-5644641D01*
X6704375Y-8094641D02*
X6704375Y-8494641D01*
X6504375Y-8294641D02*
X6904375Y-8294641D01*
X7179375Y-13794641D02*
X7179375Y-14194641D01*
X6979375Y-13994641D02*
X7379375Y-13994641D01*
X7654375Y-9994641D02*
X7654375Y-10394641D01*
X7454375Y-10194641D02*
X7854375Y-10194641D01*
X7891875Y-15694641D02*
X7891875Y-16094641D01*
X7691875Y-15894641D02*
X8091875Y-15894641D01*
X8129375Y-11894641D02*
X8129375Y-12294641D01*
X7929375Y-12094641D02*
X8329375Y-12094641D01*
X8453937Y-5444641D02*
X8453937Y-5844641D01*
X8253937Y-5644641D02*
X8653937Y-5644641D01*
X8604376Y-8094641D02*
X8604376Y-8494641D01*
X8404376Y-8294641D02*
X8804376Y-8294641D01*
X9079376Y-13794641D02*
X9079376Y-14194641D01*
X8879376Y-13994641D02*
X9279376Y-13994641D01*
X9554376Y-9994641D02*
X9554376Y-10394641D01*
X9354376Y-10194641D02*
X9754376Y-10194641D01*
X10029376Y-11894641D02*
X10029376Y-12294641D01*
X9829376Y-12094641D02*
X10229376Y-12094641D01*
X10354376Y-5444641D02*
X10354376Y-5844641D01*
X10154376Y-5644641D02*
X10554376Y-5644641D01*
X10504376Y-8094641D02*
X10504376Y-8494641D01*
X10304376Y-8294641D02*
X10704376Y-8294641D01*
X10979376Y-13794641D02*
X10979376Y-14194641D01*
X10779376Y-13994641D02*
X11179376Y-13994641D01*
X11454375Y-9994641D02*
X11454375Y-10394641D01*
X11254375Y-10194641D02*
X11654375Y-10194641D01*
X11929375Y-11894641D02*
X11929375Y-12294641D01*
X11729375Y-12094641D02*
X12129375Y-12094641D01*
X12254375Y-5444641D02*
X12254375Y-5844641D01*
X12054375Y-5644641D02*
X12454375Y-5644641D01*
X12404375Y-8094641D02*
X12404375Y-8494641D01*
X12204375Y-8294641D02*
X12604375Y-8294641D01*
X12879375Y-13794641D02*
X12879375Y-14194641D01*
X12679375Y-13994641D02*
X13079375Y-13994641D01*
X13354375Y-9994641D02*
X13354375Y-10394641D01*
X13154375Y-10194641D02*
X13554375Y-10194641D01*
X13829375Y-11894641D02*
X13829375Y-12294641D01*
X13629375Y-12094641D02*
X14029375Y-12094641D01*
X14309375Y-8094641D02*
X14309375Y-8494641D01*
X14109375Y-8294641D02*
X14509375Y-8294641D01*
X14785625Y-13794641D02*
X14785625Y-14194641D01*
X14585625Y-13994641D02*
X14985625Y-13994641D01*
X15016875Y-15694641D02*
X15016875Y-16094641D01*
X14816875Y-15894641D02*
X15216875Y-15894641D01*
X15154375Y-5444641D02*
X15154375Y-5844641D01*
X14954375Y-5644641D02*
X15354375Y-5644641D01*
X15254375Y-9994641D02*
X15254375Y-10394641D01*
X15054375Y-10194641D02*
X15454375Y-10194641D01*
X15738125Y-11894641D02*
X15738125Y-12294641D01*
X15538125Y-12094641D02*
X15938125Y-12094641D01*
X16204375Y-8094641D02*
X16204375Y-8494641D01*
X16004375Y-8294641D02*
X16404375Y-8294641D01*
X16679375Y-13794641D02*
X16679375Y-14194641D01*
X16479375Y-13994641D02*
X16879376Y-13994641D01*
X17054376Y-5444641D02*
X17054376Y-5844641D01*
X16854376Y-5644641D02*
X17254376Y-5644641D01*
X17154376Y-9994641D02*
X17154376Y-10394641D01*
X16954376Y-10194641D02*
X17354376Y-10194641D01*
X17643126Y-11894641D02*
X17643126Y-12294641D01*
X17443126Y-12094641D02*
X17843126Y-12094641D01*
X18104376Y-8094641D02*
X18104376Y-8494641D01*
X17904376Y-8294641D02*
X18304376Y-8294641D01*
X18579376Y-13794641D02*
X18579376Y-14194641D01*
X18379376Y-13994641D02*
X18779376Y-13994641D01*
X18954376Y-5444641D02*
X18954376Y-5844641D01*
X18754376Y-5644641D02*
X19154376Y-5644641D01*
X19054376Y-9994641D02*
X19054376Y-10394641D01*
X18854376Y-10194641D02*
X19254376Y-10194641D01*
X19529376Y-11894641D02*
X19529376Y-12294641D01*
X19329376Y-12094641D02*
X19729376Y-12094641D01*
X20004376Y-8094641D02*
X20004376Y-8494641D01*
X19804376Y-8294641D02*
X20204376Y-8294641D01*
X20479376Y-13794641D02*
X20479376Y-14194641D01*
X20279376Y-13994641D02*
X20679376Y-13994641D01*
X20854376Y-5444641D02*
X20854376Y-5844641D01*
X20654376Y-5644641D02*
X21054376Y-5644641D01*
X20954376Y-9994641D02*
X20954376Y-10394641D01*
X20754376Y-10194641D02*
X21154376Y-10194641D01*
X21429376Y-11894641D02*
X21429376Y-12294641D01*
X21229376Y-12094641D02*
X21629376Y-12094641D01*
X21904376Y-8094641D02*
X21904376Y-8494641D01*
X21704376Y-8294641D02*
X22104376Y-8294641D01*
X22141876Y-15694641D02*
X22141876Y-16094641D01*
X21941876Y-15894641D02*
X22341876Y-15894641D01*
X22379375Y-13794641D02*
X22379375Y-14194641D01*
X22179376Y-13994641D02*
X22579375Y-13994641D01*
X22854375Y-9994641D02*
X22854375Y-10394641D01*
X22654375Y-10194641D02*
X23054375Y-10194641D01*
X23329375Y-11894641D02*
X23329375Y-12294641D01*
X23129375Y-12094641D02*
X23529375Y-12094641D01*
X23754375Y-5444641D02*
X23754375Y-5844641D01*
X23554375Y-5644641D02*
X23954375Y-5644641D01*
X23804375Y-8094641D02*
X23804375Y-8494641D01*
X23604375Y-8294641D02*
X24004375Y-8294641D01*
X24279375Y-13794641D02*
X24279375Y-14194641D01*
X24079375Y-13994641D02*
X24479375Y-13994641D01*
X24516875Y-15694641D02*
X24516875Y-16094641D01*
X24316875Y-15894641D02*
X24716875Y-15894641D01*
X24754375Y-9994641D02*
X24754375Y-10394641D01*
X24554375Y-10194641D02*
X24954375Y-10194641D01*
X25229375Y-11894641D02*
X25229375Y-12294641D01*
X25029375Y-12094641D02*
X25429375Y-12094641D01*
X25654375Y-5444641D02*
X25654375Y-5844641D01*
X25454375Y-5644641D02*
X25854375Y-5644641D01*
X25704375Y-8094641D02*
X25704375Y-8494641D01*
X25504375Y-8294641D02*
X25904375Y-8294641D01*
X26654375Y-9994641D02*
X26654375Y-10394641D01*
X26454375Y-10194641D02*
X26854375Y-10194641D01*
X26891875Y-15694641D02*
X26891875Y-16094641D01*
X26691875Y-15894641D02*
X27091875Y-15894641D01*
X27554375Y-5444641D02*
X27554375Y-5844641D01*
X27354375Y-5644641D02*
X27754375Y-5644641D01*
X27841875Y-13794641D02*
X27841875Y-14194641D01*
X27641875Y-13994641D02*
X28041875Y-13994641D01*
X28316875Y-11894641D02*
X28316875Y-12294641D01*
X28116875Y-12094641D02*
X28516875Y-12094641D01*
X28554375Y-8094641D02*
X28554375Y-8494641D01*
X28354375Y-8294641D02*
X28754375Y-8294641D01*
X29029375Y-9994641D02*
X29029375Y-10394641D01*
X28829375Y-10194641D02*
X29229375Y-10194641D01*
X29266875Y-15694641D02*
X29266875Y-16094641D01*
X29066875Y-15894641D02*
X29466875Y-15894641D01*
X29454375Y-5444641D02*
X29454375Y-5844641D01*
X29254375Y-5644641D02*
X29654375Y-5644641D01*
X31754375Y-5444641D02*
X31754375Y-5844641D01*
X31554375Y-5644641D02*
X31954375Y-5644641D01*
X31754375Y-8094641D02*
X31754375Y-8494641D01*
X31554375Y-8294641D02*
X31954375Y-8294641D01*
X31754375Y-9994641D02*
X31754375Y-10394641D01*
X31554375Y-10194641D02*
X31954375Y-10194641D01*
X31754375Y-15694641D02*
X31754375Y-16094641D01*
X31554375Y-15894641D02*
X31954375Y-15894641D01*
X33654376Y-5444641D02*
X33654376Y-5844641D01*
X33454375Y-5644641D02*
X33854376Y-5644641D01*
X33654376Y-8094641D02*
X33654376Y-8494641D01*
X33454375Y-8294641D02*
X33854376Y-8294641D01*
X33654376Y-9994641D02*
X33654376Y-10394641D01*
X33454375Y-10194641D02*
X33854376Y-10194641D01*
X33654376Y-13789641D02*
X33654376Y-14189641D01*
X33454375Y-13989641D02*
X33854376Y-13989641D01*
X33654376Y-15694641D02*
X33654376Y-16094641D01*
X33454375Y-15894641D02*
X33854376Y-15894641D01*
X35554376Y-5444641D02*
X35554376Y-5844641D01*
X35354376Y-5644641D02*
X35754376Y-5644641D01*
X35554376Y-8094641D02*
X35554376Y-8494641D01*
X35354376Y-8294641D02*
X35754376Y-8294641D01*
X35554376Y-9994641D02*
X35554376Y-10394641D01*
X35354376Y-10194641D02*
X35754376Y-10194641D01*
X35554376Y-15694641D02*
X35554376Y-16094641D01*
X35354376Y-15894641D02*
X35754376Y-15894641D01*
D15*
X16338476Y-11278742D02*
X16338476Y-10960541D01*
X16020275Y-10960541D01*
X16020275Y-11278742D01*
X16338476Y-11278742D01*
D16*
X9054376Y-16544641D02*
X9304376Y-16294641D01*
X9054376Y-16044641D01*
X8804376Y-16294641D01*
X9054376Y-16544641D01*
X35354376Y-12744641D02*
X35604376Y-12494641D01*
X35354376Y-12244641D01*
X35104376Y-12494641D01*
X35354376Y-12744641D01*
D17*
X6404375Y-10804641D02*
X7004375Y-11404641D01*
X7004375Y-10804641D02*
X6404375Y-11404641D01*
X7004375Y-11104641D02*
G75*
G02*
X6404375Y-11104641I-300000J0D01*
G01*
X6404375Y-11104641D02*
G75*
G02*
X7004375Y-11104641I300000J0D01*
G01*
X25354375Y-10794641D02*
X25954375Y-11394641D01*
X25954375Y-10794641D02*
X25354375Y-11394641D01*
X25954375Y-11094641D02*
G75*
G02*
X25354375Y-11094641I-300000J0D01*
G01*
X25354375Y-11094641D02*
G75*
G02*
X25954375Y-11094641I300000J0D01*
G01*
D11*
X2062652Y-17410958D02*
X2062652Y-17210958D01*
X2062652Y-17210958D02*
X2110271Y-17210958D01*
X2110271Y-17210958D02*
X2138843Y-17220482D01*
X2138843Y-17220482D02*
X2157890Y-17239530D01*
X2157890Y-17239530D02*
X2167414Y-17258577D01*
X2167414Y-17258577D02*
X2176938Y-17296672D01*
X2176938Y-17296672D02*
X2176938Y-17325244D01*
X2176938Y-17325244D02*
X2167414Y-17363339D01*
X2167414Y-17363339D02*
X2157890Y-17382387D01*
X2157890Y-17382387D02*
X2138843Y-17401434D01*
X2138843Y-17401434D02*
X2110271Y-17410958D01*
X2110271Y-17410958D02*
X2062652Y-17410958D01*
X2262652Y-17410958D02*
X2262652Y-17277625D01*
X2262652Y-17315720D02*
X2272176Y-17296672D01*
X2272176Y-17296672D02*
X2281700Y-17287149D01*
X2281700Y-17287149D02*
X2300748Y-17277625D01*
X2300748Y-17277625D02*
X2319795Y-17277625D01*
X2386462Y-17410958D02*
X2386462Y-17277625D01*
X2386462Y-17210958D02*
X2376938Y-17220482D01*
X2376938Y-17220482D02*
X2386462Y-17230006D01*
X2386462Y-17230006D02*
X2395986Y-17220482D01*
X2395986Y-17220482D02*
X2386462Y-17210958D01*
X2386462Y-17210958D02*
X2386462Y-17230006D01*
X2510271Y-17410958D02*
X2491224Y-17401434D01*
X2491224Y-17401434D02*
X2481700Y-17382387D01*
X2481700Y-17382387D02*
X2481700Y-17210958D01*
X2615033Y-17410958D02*
X2595986Y-17401434D01*
X2595986Y-17401434D02*
X2586462Y-17382387D01*
X2586462Y-17382387D02*
X2586462Y-17210958D01*
X2843605Y-17410958D02*
X2843605Y-17210958D01*
X2843605Y-17210958D02*
X2910271Y-17353815D01*
X2910271Y-17353815D02*
X2976938Y-17210958D01*
X2976938Y-17210958D02*
X2976938Y-17410958D01*
X3157890Y-17410958D02*
X3157890Y-17306196D01*
X3157890Y-17306196D02*
X3148367Y-17287149D01*
X3148367Y-17287149D02*
X3129319Y-17277625D01*
X3129319Y-17277625D02*
X3091224Y-17277625D01*
X3091224Y-17277625D02*
X3072176Y-17287149D01*
X3157890Y-17401434D02*
X3138843Y-17410958D01*
X3138843Y-17410958D02*
X3091224Y-17410958D01*
X3091224Y-17410958D02*
X3072176Y-17401434D01*
X3072176Y-17401434D02*
X3062652Y-17382387D01*
X3062652Y-17382387D02*
X3062652Y-17363339D01*
X3062652Y-17363339D02*
X3072176Y-17344292D01*
X3072176Y-17344292D02*
X3091224Y-17334768D01*
X3091224Y-17334768D02*
X3138843Y-17334768D01*
X3138843Y-17334768D02*
X3157890Y-17325244D01*
X3253128Y-17277625D02*
X3253128Y-17477625D01*
X3253128Y-17287149D02*
X3272176Y-17277625D01*
X3272176Y-17277625D02*
X3310271Y-17277625D01*
X3310271Y-17277625D02*
X3329319Y-17287149D01*
X3329319Y-17287149D02*
X3338843Y-17296672D01*
X3338843Y-17296672D02*
X3348367Y-17315720D01*
X3348367Y-17315720D02*
X3348367Y-17372863D01*
X3348367Y-17372863D02*
X3338843Y-17391911D01*
X3338843Y-17391911D02*
X3329319Y-17401434D01*
X3329319Y-17401434D02*
X3310271Y-17410958D01*
X3310271Y-17410958D02*
X3272176Y-17410958D01*
X3272176Y-17410958D02*
X3253128Y-17401434D01*
X3434081Y-17391911D02*
X3443605Y-17401434D01*
X3443605Y-17401434D02*
X3434081Y-17410958D01*
X3434081Y-17410958D02*
X3424557Y-17401434D01*
X3424557Y-17401434D02*
X3434081Y-17391911D01*
X3434081Y-17391911D02*
X3434081Y-17410958D01*
X3434081Y-17287149D02*
X3443605Y-17296672D01*
X3443605Y-17296672D02*
X3434081Y-17306196D01*
X3434081Y-17306196D02*
X3424557Y-17296672D01*
X3424557Y-17296672D02*
X3434081Y-17287149D01*
X3434081Y-17287149D02*
X3434081Y-17306196D01*
D12*
X1626875Y-17651974D02*
X1801875Y-17826974D01*
X1801875Y-17651974D02*
X1626875Y-17826974D01*
D11*
X2167414Y-17830958D02*
X2053128Y-17830958D01*
X2110271Y-17830958D02*
X2110271Y-17630958D01*
X2110271Y-17630958D02*
X2091224Y-17659530D01*
X2091224Y-17659530D02*
X2072176Y-17678577D01*
X2072176Y-17678577D02*
X2053128Y-17688101D01*
X2253129Y-17811911D02*
X2262652Y-17821434D01*
X2262652Y-17821434D02*
X2253129Y-17830958D01*
X2253129Y-17830958D02*
X2243605Y-17821434D01*
X2243605Y-17821434D02*
X2253129Y-17811911D01*
X2253129Y-17811911D02*
X2253129Y-17830958D01*
X2329319Y-17630958D02*
X2462652Y-17630958D01*
X2462652Y-17630958D02*
X2376938Y-17830958D01*
X2634081Y-17630958D02*
X2538843Y-17630958D01*
X2538843Y-17630958D02*
X2529319Y-17726196D01*
X2529319Y-17726196D02*
X2538843Y-17716672D01*
X2538843Y-17716672D02*
X2557890Y-17707149D01*
X2557890Y-17707149D02*
X2605510Y-17707149D01*
X2605510Y-17707149D02*
X2624557Y-17716672D01*
X2624557Y-17716672D02*
X2634081Y-17726196D01*
X2634081Y-17726196D02*
X2643605Y-17745244D01*
X2643605Y-17745244D02*
X2643605Y-17792863D01*
X2643605Y-17792863D02*
X2634081Y-17811911D01*
X2634081Y-17811911D02*
X2624557Y-17821434D01*
X2624557Y-17821434D02*
X2605510Y-17830958D01*
X2605510Y-17830958D02*
X2557890Y-17830958D01*
X2557890Y-17830958D02*
X2538843Y-17821434D01*
X2538843Y-17821434D02*
X2529319Y-17811911D01*
X2767414Y-17630958D02*
X2786462Y-17630958D01*
X2786462Y-17630958D02*
X2805509Y-17640482D01*
X2805509Y-17640482D02*
X2815033Y-17650006D01*
X2815033Y-17650006D02*
X2824557Y-17669053D01*
X2824557Y-17669053D02*
X2834081Y-17707149D01*
X2834081Y-17707149D02*
X2834081Y-17754768D01*
X2834081Y-17754768D02*
X2824557Y-17792863D01*
X2824557Y-17792863D02*
X2815033Y-17811911D01*
X2815033Y-17811911D02*
X2805509Y-17821434D01*
X2805509Y-17821434D02*
X2786462Y-17830958D01*
X2786462Y-17830958D02*
X2767414Y-17830958D01*
X2767414Y-17830958D02*
X2748367Y-17821434D01*
X2748367Y-17821434D02*
X2738843Y-17811911D01*
X2738843Y-17811911D02*
X2729319Y-17792863D01*
X2729319Y-17792863D02*
X2719795Y-17754768D01*
X2719795Y-17754768D02*
X2719795Y-17707149D01*
X2719795Y-17707149D02*
X2729319Y-17669053D01*
X2729319Y-17669053D02*
X2738843Y-17650006D01*
X2738843Y-17650006D02*
X2748367Y-17640482D01*
X2748367Y-17640482D02*
X2767414Y-17630958D01*
X2919795Y-17830958D02*
X2919795Y-17697625D01*
X2919795Y-17716672D02*
X2929319Y-17707149D01*
X2929319Y-17707149D02*
X2948367Y-17697625D01*
X2948367Y-17697625D02*
X2976938Y-17697625D01*
X2976938Y-17697625D02*
X2995986Y-17707149D01*
X2995986Y-17707149D02*
X3005509Y-17726196D01*
X3005509Y-17726196D02*
X3005509Y-17830958D01*
X3005509Y-17726196D02*
X3015033Y-17707149D01*
X3015033Y-17707149D02*
X3034081Y-17697625D01*
X3034081Y-17697625D02*
X3062652Y-17697625D01*
X3062652Y-17697625D02*
X3081700Y-17707149D01*
X3081700Y-17707149D02*
X3091224Y-17726196D01*
X3091224Y-17726196D02*
X3091224Y-17830958D01*
X3186462Y-17830958D02*
X3186462Y-17697625D01*
X3186462Y-17716672D02*
X3195986Y-17707149D01*
X3195986Y-17707149D02*
X3215033Y-17697625D01*
X3215033Y-17697625D02*
X3243605Y-17697625D01*
X3243605Y-17697625D02*
X3262652Y-17707149D01*
X3262652Y-17707149D02*
X3272176Y-17726196D01*
X3272176Y-17726196D02*
X3272176Y-17830958D01*
X3272176Y-17726196D02*
X3281700Y-17707149D01*
X3281700Y-17707149D02*
X3300748Y-17697625D01*
X3300748Y-17697625D02*
X3329319Y-17697625D01*
X3329319Y-17697625D02*
X3348367Y-17707149D01*
X3348367Y-17707149D02*
X3357890Y-17726196D01*
X3357890Y-17726196D02*
X3357890Y-17830958D01*
X3748367Y-17621434D02*
X3576938Y-17878577D01*
X4005510Y-17630958D02*
X4024557Y-17630958D01*
X4024557Y-17630958D02*
X4043605Y-17640482D01*
X4043605Y-17640482D02*
X4053129Y-17650006D01*
X4053129Y-17650006D02*
X4062652Y-17669053D01*
X4062652Y-17669053D02*
X4072176Y-17707149D01*
X4072176Y-17707149D02*
X4072176Y-17754768D01*
X4072176Y-17754768D02*
X4062652Y-17792863D01*
X4062652Y-17792863D02*
X4053129Y-17811911D01*
X4053129Y-17811911D02*
X4043605Y-17821434D01*
X4043605Y-17821434D02*
X4024557Y-17830958D01*
X4024557Y-17830958D02*
X4005510Y-17830958D01*
X4005510Y-17830958D02*
X3986462Y-17821434D01*
X3986462Y-17821434D02*
X3976938Y-17811911D01*
X3976938Y-17811911D02*
X3967414Y-17792863D01*
X3967414Y-17792863D02*
X3957891Y-17754768D01*
X3957891Y-17754768D02*
X3957891Y-17707149D01*
X3957891Y-17707149D02*
X3967414Y-17669053D01*
X3967414Y-17669053D02*
X3976938Y-17650006D01*
X3976938Y-17650006D02*
X3986462Y-17640482D01*
X3986462Y-17640482D02*
X4005510Y-17630958D01*
X4157891Y-17811911D02*
X4167414Y-17821434D01*
X4167414Y-17821434D02*
X4157891Y-17830958D01*
X4157891Y-17830958D02*
X4148367Y-17821434D01*
X4148367Y-17821434D02*
X4157891Y-17811911D01*
X4157891Y-17811911D02*
X4157891Y-17830958D01*
X4291224Y-17630958D02*
X4310272Y-17630958D01*
X4310272Y-17630958D02*
X4329319Y-17640482D01*
X4329319Y-17640482D02*
X4338843Y-17650006D01*
X4338843Y-17650006D02*
X4348367Y-17669053D01*
X4348367Y-17669053D02*
X4357891Y-17707149D01*
X4357891Y-17707149D02*
X4357891Y-17754768D01*
X4357891Y-17754768D02*
X4348367Y-17792863D01*
X4348367Y-17792863D02*
X4338843Y-17811911D01*
X4338843Y-17811911D02*
X4329319Y-17821434D01*
X4329319Y-17821434D02*
X4310272Y-17830958D01*
X4310272Y-17830958D02*
X4291224Y-17830958D01*
X4291224Y-17830958D02*
X4272176Y-17821434D01*
X4272176Y-17821434D02*
X4262653Y-17811911D01*
X4262653Y-17811911D02*
X4253129Y-17792863D01*
X4253129Y-17792863D02*
X4243605Y-17754768D01*
X4243605Y-17754768D02*
X4243605Y-17707149D01*
X4243605Y-17707149D02*
X4253129Y-17669053D01*
X4253129Y-17669053D02*
X4262653Y-17650006D01*
X4262653Y-17650006D02*
X4272176Y-17640482D01*
X4272176Y-17640482D02*
X4291224Y-17630958D01*
X4529319Y-17630958D02*
X4491224Y-17630958D01*
X4491224Y-17630958D02*
X4472176Y-17640482D01*
X4472176Y-17640482D02*
X4462653Y-17650006D01*
X4462653Y-17650006D02*
X4443605Y-17678577D01*
X4443605Y-17678577D02*
X4434081Y-17716672D01*
X4434081Y-17716672D02*
X4434081Y-17792863D01*
X4434081Y-17792863D02*
X4443605Y-17811911D01*
X4443605Y-17811911D02*
X4453129Y-17821434D01*
X4453129Y-17821434D02*
X4472176Y-17830958D01*
X4472176Y-17830958D02*
X4510272Y-17830958D01*
X4510272Y-17830958D02*
X4529319Y-17821434D01*
X4529319Y-17821434D02*
X4538843Y-17811911D01*
X4538843Y-17811911D02*
X4548367Y-17792863D01*
X4548367Y-17792863D02*
X4548367Y-17745244D01*
X4548367Y-17745244D02*
X4538843Y-17726196D01*
X4538843Y-17726196D02*
X4529319Y-17716672D01*
X4529319Y-17716672D02*
X4510272Y-17707149D01*
X4510272Y-17707149D02*
X4472176Y-17707149D01*
X4472176Y-17707149D02*
X4453129Y-17716672D01*
X4453129Y-17716672D02*
X4443605Y-17726196D01*
X4443605Y-17726196D02*
X4434081Y-17745244D01*
X4662653Y-17716672D02*
X4643605Y-17707149D01*
X4643605Y-17707149D02*
X4634081Y-17697625D01*
X4634081Y-17697625D02*
X4624557Y-17678577D01*
X4624557Y-17678577D02*
X4624557Y-17669053D01*
X4624557Y-17669053D02*
X4634081Y-17650006D01*
X4634081Y-17650006D02*
X4643605Y-17640482D01*
X4643605Y-17640482D02*
X4662653Y-17630958D01*
X4662653Y-17630958D02*
X4700748Y-17630958D01*
X4700748Y-17630958D02*
X4719795Y-17640482D01*
X4719795Y-17640482D02*
X4729319Y-17650006D01*
X4729319Y-17650006D02*
X4738843Y-17669053D01*
X4738843Y-17669053D02*
X4738843Y-17678577D01*
X4738843Y-17678577D02*
X4729319Y-17697625D01*
X4729319Y-17697625D02*
X4719795Y-17707149D01*
X4719795Y-17707149D02*
X4700748Y-17716672D01*
X4700748Y-17716672D02*
X4662653Y-17716672D01*
X4662653Y-17716672D02*
X4643605Y-17726196D01*
X4643605Y-17726196D02*
X4634081Y-17735720D01*
X4634081Y-17735720D02*
X4624557Y-17754768D01*
X4624557Y-17754768D02*
X4624557Y-17792863D01*
X4624557Y-17792863D02*
X4634081Y-17811911D01*
X4634081Y-17811911D02*
X4643605Y-17821434D01*
X4643605Y-17821434D02*
X4662653Y-17830958D01*
X4662653Y-17830958D02*
X4700748Y-17830958D01*
X4700748Y-17830958D02*
X4719795Y-17821434D01*
X4719795Y-17821434D02*
X4729319Y-17811911D01*
X4729319Y-17811911D02*
X4738843Y-17792863D01*
X4738843Y-17792863D02*
X4738843Y-17754768D01*
X4738843Y-17754768D02*
X4729319Y-17735720D01*
X4729319Y-17735720D02*
X4719795Y-17726196D01*
X4719795Y-17726196D02*
X4700748Y-17716672D01*
X4834081Y-17830958D02*
X4872176Y-17830958D01*
X4872176Y-17830958D02*
X4891224Y-17821434D01*
X4891224Y-17821434D02*
X4900748Y-17811911D01*
X4900748Y-17811911D02*
X4919795Y-17783339D01*
X4919795Y-17783339D02*
X4929319Y-17745244D01*
X4929319Y-17745244D02*
X4929319Y-17669053D01*
X4929319Y-17669053D02*
X4919795Y-17650006D01*
X4919795Y-17650006D02*
X4910272Y-17640482D01*
X4910272Y-17640482D02*
X4891224Y-17630958D01*
X4891224Y-17630958D02*
X4853129Y-17630958D01*
X4853129Y-17630958D02*
X4834081Y-17640482D01*
X4834081Y-17640482D02*
X4824557Y-17650006D01*
X4824557Y-17650006D02*
X4815034Y-17669053D01*
X4815034Y-17669053D02*
X4815034Y-17716672D01*
X4815034Y-17716672D02*
X4824557Y-17735720D01*
X4824557Y-17735720D02*
X4834081Y-17745244D01*
X4834081Y-17745244D02*
X4853129Y-17754768D01*
X4853129Y-17754768D02*
X4891224Y-17754768D01*
X4891224Y-17754768D02*
X4910272Y-17745244D01*
X4910272Y-17745244D02*
X4919795Y-17735720D01*
X4919795Y-17735720D02*
X4929319Y-17716672D01*
X5005510Y-17630958D02*
X5005510Y-17669053D01*
X5081700Y-17630958D02*
X5081700Y-17669053D01*
X5376938Y-17907149D02*
X5367415Y-17897625D01*
X5367415Y-17897625D02*
X5348367Y-17869053D01*
X5348367Y-17869053D02*
X5338843Y-17850006D01*
X5338843Y-17850006D02*
X5329319Y-17821434D01*
X5329319Y-17821434D02*
X5319796Y-17773815D01*
X5319796Y-17773815D02*
X5319796Y-17735720D01*
X5319796Y-17735720D02*
X5329319Y-17688101D01*
X5329319Y-17688101D02*
X5338843Y-17659530D01*
X5338843Y-17659530D02*
X5348367Y-17640482D01*
X5348367Y-17640482D02*
X5367415Y-17611911D01*
X5367415Y-17611911D02*
X5376938Y-17602387D01*
X5557891Y-17830958D02*
X5443605Y-17830958D01*
X5500748Y-17830958D02*
X5500748Y-17630958D01*
X5500748Y-17630958D02*
X5481700Y-17659530D01*
X5481700Y-17659530D02*
X5462653Y-17678577D01*
X5462653Y-17678577D02*
X5443605Y-17688101D01*
X5624557Y-17630958D02*
X5757891Y-17630958D01*
X5757891Y-17630958D02*
X5672176Y-17830958D01*
X5919795Y-17697625D02*
X5919795Y-17830958D01*
X5872176Y-17621434D02*
X5824557Y-17764292D01*
X5824557Y-17764292D02*
X5948367Y-17764292D01*
X6176938Y-17830958D02*
X6176938Y-17630958D01*
X6262653Y-17830958D02*
X6262653Y-17726196D01*
X6262653Y-17726196D02*
X6253129Y-17707149D01*
X6253129Y-17707149D02*
X6234081Y-17697625D01*
X6234081Y-17697625D02*
X6205510Y-17697625D01*
X6205510Y-17697625D02*
X6186462Y-17707149D01*
X6186462Y-17707149D02*
X6176938Y-17716672D01*
X6386462Y-17830958D02*
X6367415Y-17821434D01*
X6367415Y-17821434D02*
X6357891Y-17811911D01*
X6357891Y-17811911D02*
X6348367Y-17792863D01*
X6348367Y-17792863D02*
X6348367Y-17735720D01*
X6348367Y-17735720D02*
X6357891Y-17716672D01*
X6357891Y-17716672D02*
X6367415Y-17707149D01*
X6367415Y-17707149D02*
X6386462Y-17697625D01*
X6386462Y-17697625D02*
X6415034Y-17697625D01*
X6415034Y-17697625D02*
X6434081Y-17707149D01*
X6434081Y-17707149D02*
X6443605Y-17716672D01*
X6443605Y-17716672D02*
X6453129Y-17735720D01*
X6453129Y-17735720D02*
X6453129Y-17792863D01*
X6453129Y-17792863D02*
X6443605Y-17811911D01*
X6443605Y-17811911D02*
X6434081Y-17821434D01*
X6434081Y-17821434D02*
X6415034Y-17830958D01*
X6415034Y-17830958D02*
X6386462Y-17830958D01*
X6567415Y-17830958D02*
X6548367Y-17821434D01*
X6548367Y-17821434D02*
X6538843Y-17802387D01*
X6538843Y-17802387D02*
X6538843Y-17630958D01*
X6719796Y-17821434D02*
X6700748Y-17830958D01*
X6700748Y-17830958D02*
X6662653Y-17830958D01*
X6662653Y-17830958D02*
X6643605Y-17821434D01*
X6643605Y-17821434D02*
X6634081Y-17802387D01*
X6634081Y-17802387D02*
X6634081Y-17726196D01*
X6634081Y-17726196D02*
X6643605Y-17707149D01*
X6643605Y-17707149D02*
X6662653Y-17697625D01*
X6662653Y-17697625D02*
X6700748Y-17697625D01*
X6700748Y-17697625D02*
X6719796Y-17707149D01*
X6719796Y-17707149D02*
X6729319Y-17726196D01*
X6729319Y-17726196D02*
X6729319Y-17745244D01*
X6729319Y-17745244D02*
X6634081Y-17764292D01*
X6805510Y-17821434D02*
X6824557Y-17830958D01*
X6824557Y-17830958D02*
X6862653Y-17830958D01*
X6862653Y-17830958D02*
X6881700Y-17821434D01*
X6881700Y-17821434D02*
X6891224Y-17802387D01*
X6891224Y-17802387D02*
X6891224Y-17792863D01*
X6891224Y-17792863D02*
X6881700Y-17773815D01*
X6881700Y-17773815D02*
X6862653Y-17764292D01*
X6862653Y-17764292D02*
X6834081Y-17764292D01*
X6834081Y-17764292D02*
X6815034Y-17754768D01*
X6815034Y-17754768D02*
X6805510Y-17735720D01*
X6805510Y-17735720D02*
X6805510Y-17726196D01*
X6805510Y-17726196D02*
X6815034Y-17707149D01*
X6815034Y-17707149D02*
X6834081Y-17697625D01*
X6834081Y-17697625D02*
X6862653Y-17697625D01*
X6862653Y-17697625D02*
X6881700Y-17707149D01*
X6957891Y-17907149D02*
X6967415Y-17897625D01*
X6967415Y-17897625D02*
X6986462Y-17869053D01*
X6986462Y-17869053D02*
X6995986Y-17850006D01*
X6995986Y-17850006D02*
X7005510Y-17821434D01*
X7005510Y-17821434D02*
X7015034Y-17773815D01*
X7015034Y-17773815D02*
X7015034Y-17735720D01*
X7015034Y-17735720D02*
X7005510Y-17688101D01*
X7005510Y-17688101D02*
X6995986Y-17659530D01*
X6995986Y-17659530D02*
X6986462Y-17640482D01*
X6986462Y-17640482D02*
X6967415Y-17611911D01*
X6967415Y-17611911D02*
X6957891Y-17602387D01*
X7319796Y-17907149D02*
X7310272Y-17897625D01*
X7310272Y-17897625D02*
X7291224Y-17869053D01*
X7291224Y-17869053D02*
X7281700Y-17850006D01*
X7281700Y-17850006D02*
X7272177Y-17821434D01*
X7272177Y-17821434D02*
X7262653Y-17773815D01*
X7262653Y-17773815D02*
X7262653Y-17735720D01*
X7262653Y-17735720D02*
X7272177Y-17688101D01*
X7272177Y-17688101D02*
X7281700Y-17659530D01*
X7281700Y-17659530D02*
X7291224Y-17640482D01*
X7291224Y-17640482D02*
X7310272Y-17611911D01*
X7310272Y-17611911D02*
X7319796Y-17602387D01*
X7395986Y-17697625D02*
X7395986Y-17830958D01*
X7395986Y-17716672D02*
X7405510Y-17707149D01*
X7405510Y-17707149D02*
X7424557Y-17697625D01*
X7424557Y-17697625D02*
X7453129Y-17697625D01*
X7453129Y-17697625D02*
X7472177Y-17707149D01*
X7472177Y-17707149D02*
X7481700Y-17726196D01*
X7481700Y-17726196D02*
X7481700Y-17830958D01*
X7605510Y-17830958D02*
X7586462Y-17821434D01*
X7586462Y-17821434D02*
X7576938Y-17811911D01*
X7576938Y-17811911D02*
X7567415Y-17792863D01*
X7567415Y-17792863D02*
X7567415Y-17735720D01*
X7567415Y-17735720D02*
X7576938Y-17716672D01*
X7576938Y-17716672D02*
X7586462Y-17707149D01*
X7586462Y-17707149D02*
X7605510Y-17697625D01*
X7605510Y-17697625D02*
X7634081Y-17697625D01*
X7634081Y-17697625D02*
X7653129Y-17707149D01*
X7653129Y-17707149D02*
X7662653Y-17716672D01*
X7662653Y-17716672D02*
X7672177Y-17735720D01*
X7672177Y-17735720D02*
X7672177Y-17792863D01*
X7672177Y-17792863D02*
X7662653Y-17811911D01*
X7662653Y-17811911D02*
X7653129Y-17821434D01*
X7653129Y-17821434D02*
X7634081Y-17830958D01*
X7634081Y-17830958D02*
X7605510Y-17830958D01*
X7729319Y-17697625D02*
X7805510Y-17697625D01*
X7757891Y-17630958D02*
X7757891Y-17802387D01*
X7757891Y-17802387D02*
X7767415Y-17821434D01*
X7767415Y-17821434D02*
X7786462Y-17830958D01*
X7786462Y-17830958D02*
X7805510Y-17830958D01*
X8024558Y-17697625D02*
X8024558Y-17897625D01*
X8024558Y-17707149D02*
X8043605Y-17697625D01*
X8043605Y-17697625D02*
X8081700Y-17697625D01*
X8081700Y-17697625D02*
X8100748Y-17707149D01*
X8100748Y-17707149D02*
X8110272Y-17716672D01*
X8110272Y-17716672D02*
X8119796Y-17735720D01*
X8119796Y-17735720D02*
X8119796Y-17792863D01*
X8119796Y-17792863D02*
X8110272Y-17811911D01*
X8110272Y-17811911D02*
X8100748Y-17821434D01*
X8100748Y-17821434D02*
X8081700Y-17830958D01*
X8081700Y-17830958D02*
X8043605Y-17830958D01*
X8043605Y-17830958D02*
X8024558Y-17821434D01*
X8234081Y-17830958D02*
X8215034Y-17821434D01*
X8215034Y-17821434D02*
X8205510Y-17802387D01*
X8205510Y-17802387D02*
X8205510Y-17630958D01*
X8395986Y-17830958D02*
X8395986Y-17726196D01*
X8395986Y-17726196D02*
X8386462Y-17707149D01*
X8386462Y-17707149D02*
X8367415Y-17697625D01*
X8367415Y-17697625D02*
X8329319Y-17697625D01*
X8329319Y-17697625D02*
X8310272Y-17707149D01*
X8395986Y-17821434D02*
X8376939Y-17830958D01*
X8376939Y-17830958D02*
X8329319Y-17830958D01*
X8329319Y-17830958D02*
X8310272Y-17821434D01*
X8310272Y-17821434D02*
X8300748Y-17802387D01*
X8300748Y-17802387D02*
X8300748Y-17783339D01*
X8300748Y-17783339D02*
X8310272Y-17764292D01*
X8310272Y-17764292D02*
X8329319Y-17754768D01*
X8329319Y-17754768D02*
X8376939Y-17754768D01*
X8376939Y-17754768D02*
X8395986Y-17745244D01*
X8462653Y-17697625D02*
X8538843Y-17697625D01*
X8491224Y-17630958D02*
X8491224Y-17802387D01*
X8491224Y-17802387D02*
X8500748Y-17821434D01*
X8500748Y-17821434D02*
X8519796Y-17830958D01*
X8519796Y-17830958D02*
X8538843Y-17830958D01*
X8681701Y-17821434D02*
X8662653Y-17830958D01*
X8662653Y-17830958D02*
X8624558Y-17830958D01*
X8624558Y-17830958D02*
X8605510Y-17821434D01*
X8605510Y-17821434D02*
X8595986Y-17802387D01*
X8595986Y-17802387D02*
X8595986Y-17726196D01*
X8595986Y-17726196D02*
X8605510Y-17707149D01*
X8605510Y-17707149D02*
X8624558Y-17697625D01*
X8624558Y-17697625D02*
X8662653Y-17697625D01*
X8662653Y-17697625D02*
X8681701Y-17707149D01*
X8681701Y-17707149D02*
X8691224Y-17726196D01*
X8691224Y-17726196D02*
X8691224Y-17745244D01*
X8691224Y-17745244D02*
X8595986Y-17764292D01*
X8862653Y-17830958D02*
X8862653Y-17630958D01*
X8862653Y-17821434D02*
X8843605Y-17830958D01*
X8843605Y-17830958D02*
X8805510Y-17830958D01*
X8805510Y-17830958D02*
X8786462Y-17821434D01*
X8786462Y-17821434D02*
X8776939Y-17811911D01*
X8776939Y-17811911D02*
X8767415Y-17792863D01*
X8767415Y-17792863D02*
X8767415Y-17735720D01*
X8767415Y-17735720D02*
X8776939Y-17716672D01*
X8776939Y-17716672D02*
X8786462Y-17707149D01*
X8786462Y-17707149D02*
X8805510Y-17697625D01*
X8805510Y-17697625D02*
X8843605Y-17697625D01*
X8843605Y-17697625D02*
X8862653Y-17707149D01*
X8938843Y-17907149D02*
X8948367Y-17897625D01*
X8948367Y-17897625D02*
X8967415Y-17869053D01*
X8967415Y-17869053D02*
X8976939Y-17850006D01*
X8976939Y-17850006D02*
X8986462Y-17821434D01*
X8986462Y-17821434D02*
X8995986Y-17773815D01*
X8995986Y-17773815D02*
X8995986Y-17735720D01*
X8995986Y-17735720D02*
X8986462Y-17688101D01*
X8986462Y-17688101D02*
X8976939Y-17659530D01*
X8976939Y-17659530D02*
X8967415Y-17640482D01*
X8967415Y-17640482D02*
X8948367Y-17611911D01*
X8948367Y-17611911D02*
X8938843Y-17602387D01*
X1801875Y-18034474D02*
G75*
G02*
X1601875Y-18034474I-100000J0D01*
G01*
X1601875Y-18034474D02*
G75*
G02*
X1801875Y-18034474I100000J0D01*
G01*
X2043605Y-17925958D02*
X2167414Y-17925958D01*
X2167414Y-17925958D02*
X2100748Y-18002149D01*
X2100748Y-18002149D02*
X2129319Y-18002149D01*
X2129319Y-18002149D02*
X2148367Y-18011672D01*
X2148367Y-18011672D02*
X2157890Y-18021196D01*
X2157890Y-18021196D02*
X2167414Y-18040244D01*
X2167414Y-18040244D02*
X2167414Y-18087863D01*
X2167414Y-18087863D02*
X2157890Y-18106911D01*
X2157890Y-18106911D02*
X2148367Y-18116434D01*
X2148367Y-18116434D02*
X2129319Y-18125958D01*
X2129319Y-18125958D02*
X2072176Y-18125958D01*
X2072176Y-18125958D02*
X2053128Y-18116434D01*
X2053128Y-18116434D02*
X2043605Y-18106911D01*
X2253129Y-18106911D02*
X2262652Y-18116434D01*
X2262652Y-18116434D02*
X2253129Y-18125958D01*
X2253129Y-18125958D02*
X2243605Y-18116434D01*
X2243605Y-18116434D02*
X2253129Y-18106911D01*
X2253129Y-18106911D02*
X2253129Y-18125958D01*
X2386462Y-17925958D02*
X2405510Y-17925958D01*
X2405510Y-17925958D02*
X2424557Y-17935482D01*
X2424557Y-17935482D02*
X2434081Y-17945006D01*
X2434081Y-17945006D02*
X2443605Y-17964053D01*
X2443605Y-17964053D02*
X2453129Y-18002149D01*
X2453129Y-18002149D02*
X2453129Y-18049768D01*
X2453129Y-18049768D02*
X2443605Y-18087863D01*
X2443605Y-18087863D02*
X2434081Y-18106911D01*
X2434081Y-18106911D02*
X2424557Y-18116434D01*
X2424557Y-18116434D02*
X2405510Y-18125958D01*
X2405510Y-18125958D02*
X2386462Y-18125958D01*
X2386462Y-18125958D02*
X2367414Y-18116434D01*
X2367414Y-18116434D02*
X2357890Y-18106911D01*
X2357890Y-18106911D02*
X2348367Y-18087863D01*
X2348367Y-18087863D02*
X2338843Y-18049768D01*
X2338843Y-18049768D02*
X2338843Y-18002149D01*
X2338843Y-18002149D02*
X2348367Y-17964053D01*
X2348367Y-17964053D02*
X2357890Y-17945006D01*
X2357890Y-17945006D02*
X2367414Y-17935482D01*
X2367414Y-17935482D02*
X2386462Y-17925958D01*
X2576938Y-17925958D02*
X2595986Y-17925958D01*
X2595986Y-17925958D02*
X2615033Y-17935482D01*
X2615033Y-17935482D02*
X2624557Y-17945006D01*
X2624557Y-17945006D02*
X2634081Y-17964053D01*
X2634081Y-17964053D02*
X2643605Y-18002149D01*
X2643605Y-18002149D02*
X2643605Y-18049768D01*
X2643605Y-18049768D02*
X2634081Y-18087863D01*
X2634081Y-18087863D02*
X2624557Y-18106911D01*
X2624557Y-18106911D02*
X2615033Y-18116434D01*
X2615033Y-18116434D02*
X2595986Y-18125958D01*
X2595986Y-18125958D02*
X2576938Y-18125958D01*
X2576938Y-18125958D02*
X2557890Y-18116434D01*
X2557890Y-18116434D02*
X2548367Y-18106911D01*
X2548367Y-18106911D02*
X2538843Y-18087863D01*
X2538843Y-18087863D02*
X2529319Y-18049768D01*
X2529319Y-18049768D02*
X2529319Y-18002149D01*
X2529319Y-18002149D02*
X2538843Y-17964053D01*
X2538843Y-17964053D02*
X2548367Y-17945006D01*
X2548367Y-17945006D02*
X2557890Y-17935482D01*
X2557890Y-17935482D02*
X2576938Y-17925958D01*
X2767414Y-17925958D02*
X2786462Y-17925958D01*
X2786462Y-17925958D02*
X2805509Y-17935482D01*
X2805509Y-17935482D02*
X2815033Y-17945006D01*
X2815033Y-17945006D02*
X2824557Y-17964053D01*
X2824557Y-17964053D02*
X2834081Y-18002149D01*
X2834081Y-18002149D02*
X2834081Y-18049768D01*
X2834081Y-18049768D02*
X2824557Y-18087863D01*
X2824557Y-18087863D02*
X2815033Y-18106911D01*
X2815033Y-18106911D02*
X2805509Y-18116434D01*
X2805509Y-18116434D02*
X2786462Y-18125958D01*
X2786462Y-18125958D02*
X2767414Y-18125958D01*
X2767414Y-18125958D02*
X2748367Y-18116434D01*
X2748367Y-18116434D02*
X2738843Y-18106911D01*
X2738843Y-18106911D02*
X2729319Y-18087863D01*
X2729319Y-18087863D02*
X2719795Y-18049768D01*
X2719795Y-18049768D02*
X2719795Y-18002149D01*
X2719795Y-18002149D02*
X2729319Y-17964053D01*
X2729319Y-17964053D02*
X2738843Y-17945006D01*
X2738843Y-17945006D02*
X2748367Y-17935482D01*
X2748367Y-17935482D02*
X2767414Y-17925958D01*
X2919795Y-18125958D02*
X2919795Y-17992625D01*
X2919795Y-18011672D02*
X2929319Y-18002149D01*
X2929319Y-18002149D02*
X2948367Y-17992625D01*
X2948367Y-17992625D02*
X2976938Y-17992625D01*
X2976938Y-17992625D02*
X2995986Y-18002149D01*
X2995986Y-18002149D02*
X3005509Y-18021196D01*
X3005509Y-18021196D02*
X3005509Y-18125958D01*
X3005509Y-18021196D02*
X3015033Y-18002149D01*
X3015033Y-18002149D02*
X3034081Y-17992625D01*
X3034081Y-17992625D02*
X3062652Y-17992625D01*
X3062652Y-17992625D02*
X3081700Y-18002149D01*
X3081700Y-18002149D02*
X3091224Y-18021196D01*
X3091224Y-18021196D02*
X3091224Y-18125958D01*
X3186462Y-18125958D02*
X3186462Y-17992625D01*
X3186462Y-18011672D02*
X3195986Y-18002149D01*
X3195986Y-18002149D02*
X3215033Y-17992625D01*
X3215033Y-17992625D02*
X3243605Y-17992625D01*
X3243605Y-17992625D02*
X3262652Y-18002149D01*
X3262652Y-18002149D02*
X3272176Y-18021196D01*
X3272176Y-18021196D02*
X3272176Y-18125958D01*
X3272176Y-18021196D02*
X3281700Y-18002149D01*
X3281700Y-18002149D02*
X3300748Y-17992625D01*
X3300748Y-17992625D02*
X3329319Y-17992625D01*
X3329319Y-17992625D02*
X3348367Y-18002149D01*
X3348367Y-18002149D02*
X3357890Y-18021196D01*
X3357890Y-18021196D02*
X3357890Y-18125958D01*
X3748367Y-17916434D02*
X3576938Y-18173577D01*
X4005510Y-17925958D02*
X4024557Y-17925958D01*
X4024557Y-17925958D02*
X4043605Y-17935482D01*
X4043605Y-17935482D02*
X4053129Y-17945006D01*
X4053129Y-17945006D02*
X4062652Y-17964053D01*
X4062652Y-17964053D02*
X4072176Y-18002149D01*
X4072176Y-18002149D02*
X4072176Y-18049768D01*
X4072176Y-18049768D02*
X4062652Y-18087863D01*
X4062652Y-18087863D02*
X4053129Y-18106911D01*
X4053129Y-18106911D02*
X4043605Y-18116434D01*
X4043605Y-18116434D02*
X4024557Y-18125958D01*
X4024557Y-18125958D02*
X4005510Y-18125958D01*
X4005510Y-18125958D02*
X3986462Y-18116434D01*
X3986462Y-18116434D02*
X3976938Y-18106911D01*
X3976938Y-18106911D02*
X3967414Y-18087863D01*
X3967414Y-18087863D02*
X3957891Y-18049768D01*
X3957891Y-18049768D02*
X3957891Y-18002149D01*
X3957891Y-18002149D02*
X3967414Y-17964053D01*
X3967414Y-17964053D02*
X3976938Y-17945006D01*
X3976938Y-17945006D02*
X3986462Y-17935482D01*
X3986462Y-17935482D02*
X4005510Y-17925958D01*
X4157891Y-18106911D02*
X4167414Y-18116434D01*
X4167414Y-18116434D02*
X4157891Y-18125958D01*
X4157891Y-18125958D02*
X4148367Y-18116434D01*
X4148367Y-18116434D02*
X4157891Y-18106911D01*
X4157891Y-18106911D02*
X4157891Y-18125958D01*
X4357891Y-18125958D02*
X4243605Y-18125958D01*
X4300748Y-18125958D02*
X4300748Y-17925958D01*
X4300748Y-17925958D02*
X4281700Y-17954530D01*
X4281700Y-17954530D02*
X4262653Y-17973577D01*
X4262653Y-17973577D02*
X4243605Y-17983101D01*
X4548367Y-18125958D02*
X4434081Y-18125958D01*
X4491224Y-18125958D02*
X4491224Y-17925958D01*
X4491224Y-17925958D02*
X4472176Y-17954530D01*
X4472176Y-17954530D02*
X4453129Y-17973577D01*
X4453129Y-17973577D02*
X4434081Y-17983101D01*
X4662653Y-18011672D02*
X4643605Y-18002149D01*
X4643605Y-18002149D02*
X4634081Y-17992625D01*
X4634081Y-17992625D02*
X4624557Y-17973577D01*
X4624557Y-17973577D02*
X4624557Y-17964053D01*
X4624557Y-17964053D02*
X4634081Y-17945006D01*
X4634081Y-17945006D02*
X4643605Y-17935482D01*
X4643605Y-17935482D02*
X4662653Y-17925958D01*
X4662653Y-17925958D02*
X4700748Y-17925958D01*
X4700748Y-17925958D02*
X4719795Y-17935482D01*
X4719795Y-17935482D02*
X4729319Y-17945006D01*
X4729319Y-17945006D02*
X4738843Y-17964053D01*
X4738843Y-17964053D02*
X4738843Y-17973577D01*
X4738843Y-17973577D02*
X4729319Y-17992625D01*
X4729319Y-17992625D02*
X4719795Y-18002149D01*
X4719795Y-18002149D02*
X4700748Y-18011672D01*
X4700748Y-18011672D02*
X4662653Y-18011672D01*
X4662653Y-18011672D02*
X4643605Y-18021196D01*
X4643605Y-18021196D02*
X4634081Y-18030720D01*
X4634081Y-18030720D02*
X4624557Y-18049768D01*
X4624557Y-18049768D02*
X4624557Y-18087863D01*
X4624557Y-18087863D02*
X4634081Y-18106911D01*
X4634081Y-18106911D02*
X4643605Y-18116434D01*
X4643605Y-18116434D02*
X4662653Y-18125958D01*
X4662653Y-18125958D02*
X4700748Y-18125958D01*
X4700748Y-18125958D02*
X4719795Y-18116434D01*
X4719795Y-18116434D02*
X4729319Y-18106911D01*
X4729319Y-18106911D02*
X4738843Y-18087863D01*
X4738843Y-18087863D02*
X4738843Y-18049768D01*
X4738843Y-18049768D02*
X4729319Y-18030720D01*
X4729319Y-18030720D02*
X4719795Y-18021196D01*
X4719795Y-18021196D02*
X4700748Y-18011672D01*
X4929319Y-18125958D02*
X4815034Y-18125958D01*
X4872176Y-18125958D02*
X4872176Y-17925958D01*
X4872176Y-17925958D02*
X4853129Y-17954530D01*
X4853129Y-17954530D02*
X4834081Y-17973577D01*
X4834081Y-17973577D02*
X4815034Y-17983101D01*
X5005510Y-17925958D02*
X5005510Y-17964053D01*
X5081700Y-17925958D02*
X5081700Y-17964053D01*
X5376938Y-18202149D02*
X5367415Y-18192625D01*
X5367415Y-18192625D02*
X5348367Y-18164053D01*
X5348367Y-18164053D02*
X5338843Y-18145006D01*
X5338843Y-18145006D02*
X5329319Y-18116434D01*
X5329319Y-18116434D02*
X5319796Y-18068815D01*
X5319796Y-18068815D02*
X5319796Y-18030720D01*
X5319796Y-18030720D02*
X5329319Y-17983101D01*
X5329319Y-17983101D02*
X5338843Y-17954530D01*
X5338843Y-17954530D02*
X5348367Y-17935482D01*
X5348367Y-17935482D02*
X5367415Y-17906911D01*
X5367415Y-17906911D02*
X5376938Y-17897387D01*
X5434081Y-17925958D02*
X5557891Y-17925958D01*
X5557891Y-17925958D02*
X5491224Y-18002149D01*
X5491224Y-18002149D02*
X5519796Y-18002149D01*
X5519796Y-18002149D02*
X5538843Y-18011672D01*
X5538843Y-18011672D02*
X5548367Y-18021196D01*
X5548367Y-18021196D02*
X5557891Y-18040244D01*
X5557891Y-18040244D02*
X5557891Y-18087863D01*
X5557891Y-18087863D02*
X5548367Y-18106911D01*
X5548367Y-18106911D02*
X5538843Y-18116434D01*
X5538843Y-18116434D02*
X5519796Y-18125958D01*
X5519796Y-18125958D02*
X5462653Y-18125958D01*
X5462653Y-18125958D02*
X5443605Y-18116434D01*
X5443605Y-18116434D02*
X5434081Y-18106911D01*
X5795986Y-18125958D02*
X5795986Y-17925958D01*
X5881700Y-18125958D02*
X5881700Y-18021196D01*
X5881700Y-18021196D02*
X5872176Y-18002149D01*
X5872176Y-18002149D02*
X5853129Y-17992625D01*
X5853129Y-17992625D02*
X5824557Y-17992625D01*
X5824557Y-17992625D02*
X5805510Y-18002149D01*
X5805510Y-18002149D02*
X5795986Y-18011672D01*
X6005510Y-18125958D02*
X5986462Y-18116434D01*
X5986462Y-18116434D02*
X5976938Y-18106911D01*
X5976938Y-18106911D02*
X5967415Y-18087863D01*
X5967415Y-18087863D02*
X5967415Y-18030720D01*
X5967415Y-18030720D02*
X5976938Y-18011672D01*
X5976938Y-18011672D02*
X5986462Y-18002149D01*
X5986462Y-18002149D02*
X6005510Y-17992625D01*
X6005510Y-17992625D02*
X6034081Y-17992625D01*
X6034081Y-17992625D02*
X6053129Y-18002149D01*
X6053129Y-18002149D02*
X6062653Y-18011672D01*
X6062653Y-18011672D02*
X6072176Y-18030720D01*
X6072176Y-18030720D02*
X6072176Y-18087863D01*
X6072176Y-18087863D02*
X6062653Y-18106911D01*
X6062653Y-18106911D02*
X6053129Y-18116434D01*
X6053129Y-18116434D02*
X6034081Y-18125958D01*
X6034081Y-18125958D02*
X6005510Y-18125958D01*
X6186462Y-18125958D02*
X6167415Y-18116434D01*
X6167415Y-18116434D02*
X6157891Y-18097387D01*
X6157891Y-18097387D02*
X6157891Y-17925958D01*
X6338843Y-18116434D02*
X6319796Y-18125958D01*
X6319796Y-18125958D02*
X6281700Y-18125958D01*
X6281700Y-18125958D02*
X6262653Y-18116434D01*
X6262653Y-18116434D02*
X6253129Y-18097387D01*
X6253129Y-18097387D02*
X6253129Y-18021196D01*
X6253129Y-18021196D02*
X6262653Y-18002149D01*
X6262653Y-18002149D02*
X6281700Y-17992625D01*
X6281700Y-17992625D02*
X6319796Y-17992625D01*
X6319796Y-17992625D02*
X6338843Y-18002149D01*
X6338843Y-18002149D02*
X6348367Y-18021196D01*
X6348367Y-18021196D02*
X6348367Y-18040244D01*
X6348367Y-18040244D02*
X6253129Y-18059292D01*
X6424557Y-18116434D02*
X6443605Y-18125958D01*
X6443605Y-18125958D02*
X6481700Y-18125958D01*
X6481700Y-18125958D02*
X6500748Y-18116434D01*
X6500748Y-18116434D02*
X6510272Y-18097387D01*
X6510272Y-18097387D02*
X6510272Y-18087863D01*
X6510272Y-18087863D02*
X6500748Y-18068815D01*
X6500748Y-18068815D02*
X6481700Y-18059292D01*
X6481700Y-18059292D02*
X6453129Y-18059292D01*
X6453129Y-18059292D02*
X6434081Y-18049768D01*
X6434081Y-18049768D02*
X6424557Y-18030720D01*
X6424557Y-18030720D02*
X6424557Y-18021196D01*
X6424557Y-18021196D02*
X6434081Y-18002149D01*
X6434081Y-18002149D02*
X6453129Y-17992625D01*
X6453129Y-17992625D02*
X6481700Y-17992625D01*
X6481700Y-17992625D02*
X6500748Y-18002149D01*
X6576938Y-18202149D02*
X6586462Y-18192625D01*
X6586462Y-18192625D02*
X6605510Y-18164053D01*
X6605510Y-18164053D02*
X6615034Y-18145006D01*
X6615034Y-18145006D02*
X6624557Y-18116434D01*
X6624557Y-18116434D02*
X6634081Y-18068815D01*
X6634081Y-18068815D02*
X6634081Y-18030720D01*
X6634081Y-18030720D02*
X6624557Y-17983101D01*
X6624557Y-17983101D02*
X6615034Y-17954530D01*
X6615034Y-17954530D02*
X6605510Y-17935482D01*
X6605510Y-17935482D02*
X6586462Y-17906911D01*
X6586462Y-17906911D02*
X6576938Y-17897387D01*
X6938843Y-18202149D02*
X6929319Y-18192625D01*
X6929319Y-18192625D02*
X6910272Y-18164053D01*
X6910272Y-18164053D02*
X6900748Y-18145006D01*
X6900748Y-18145006D02*
X6891224Y-18116434D01*
X6891224Y-18116434D02*
X6881700Y-18068815D01*
X6881700Y-18068815D02*
X6881700Y-18030720D01*
X6881700Y-18030720D02*
X6891224Y-17983101D01*
X6891224Y-17983101D02*
X6900748Y-17954530D01*
X6900748Y-17954530D02*
X6910272Y-17935482D01*
X6910272Y-17935482D02*
X6929319Y-17906911D01*
X6929319Y-17906911D02*
X6938843Y-17897387D01*
X7015034Y-17992625D02*
X7015034Y-18125958D01*
X7015034Y-18011672D02*
X7024557Y-18002149D01*
X7024557Y-18002149D02*
X7043605Y-17992625D01*
X7043605Y-17992625D02*
X7072177Y-17992625D01*
X7072177Y-17992625D02*
X7091224Y-18002149D01*
X7091224Y-18002149D02*
X7100748Y-18021196D01*
X7100748Y-18021196D02*
X7100748Y-18125958D01*
X7224557Y-18125958D02*
X7205510Y-18116434D01*
X7205510Y-18116434D02*
X7195986Y-18106911D01*
X7195986Y-18106911D02*
X7186462Y-18087863D01*
X7186462Y-18087863D02*
X7186462Y-18030720D01*
X7186462Y-18030720D02*
X7195986Y-18011672D01*
X7195986Y-18011672D02*
X7205510Y-18002149D01*
X7205510Y-18002149D02*
X7224557Y-17992625D01*
X7224557Y-17992625D02*
X7253129Y-17992625D01*
X7253129Y-17992625D02*
X7272177Y-18002149D01*
X7272177Y-18002149D02*
X7281700Y-18011672D01*
X7281700Y-18011672D02*
X7291224Y-18030720D01*
X7291224Y-18030720D02*
X7291224Y-18087863D01*
X7291224Y-18087863D02*
X7281700Y-18106911D01*
X7281700Y-18106911D02*
X7272177Y-18116434D01*
X7272177Y-18116434D02*
X7253129Y-18125958D01*
X7253129Y-18125958D02*
X7224557Y-18125958D01*
X7348367Y-17992625D02*
X7424557Y-17992625D01*
X7376938Y-17925958D02*
X7376938Y-18097387D01*
X7376938Y-18097387D02*
X7386462Y-18116434D01*
X7386462Y-18116434D02*
X7405510Y-18125958D01*
X7405510Y-18125958D02*
X7424557Y-18125958D01*
X7643605Y-17992625D02*
X7643605Y-18192625D01*
X7643605Y-18002149D02*
X7662653Y-17992625D01*
X7662653Y-17992625D02*
X7700748Y-17992625D01*
X7700748Y-17992625D02*
X7719796Y-18002149D01*
X7719796Y-18002149D02*
X7729319Y-18011672D01*
X7729319Y-18011672D02*
X7738843Y-18030720D01*
X7738843Y-18030720D02*
X7738843Y-18087863D01*
X7738843Y-18087863D02*
X7729319Y-18106911D01*
X7729319Y-18106911D02*
X7719796Y-18116434D01*
X7719796Y-18116434D02*
X7700748Y-18125958D01*
X7700748Y-18125958D02*
X7662653Y-18125958D01*
X7662653Y-18125958D02*
X7643605Y-18116434D01*
X7853129Y-18125958D02*
X7834081Y-18116434D01*
X7834081Y-18116434D02*
X7824558Y-18097387D01*
X7824558Y-18097387D02*
X7824558Y-17925958D01*
X8015034Y-18125958D02*
X8015034Y-18021196D01*
X8015034Y-18021196D02*
X8005510Y-18002149D01*
X8005510Y-18002149D02*
X7986462Y-17992625D01*
X7986462Y-17992625D02*
X7948367Y-17992625D01*
X7948367Y-17992625D02*
X7929319Y-18002149D01*
X8015034Y-18116434D02*
X7995986Y-18125958D01*
X7995986Y-18125958D02*
X7948367Y-18125958D01*
X7948367Y-18125958D02*
X7929319Y-18116434D01*
X7929319Y-18116434D02*
X7919796Y-18097387D01*
X7919796Y-18097387D02*
X7919796Y-18078339D01*
X7919796Y-18078339D02*
X7929319Y-18059292D01*
X7929319Y-18059292D02*
X7948367Y-18049768D01*
X7948367Y-18049768D02*
X7995986Y-18049768D01*
X7995986Y-18049768D02*
X8015034Y-18040244D01*
X8081700Y-17992625D02*
X8157891Y-17992625D01*
X8110272Y-17925958D02*
X8110272Y-18097387D01*
X8110272Y-18097387D02*
X8119796Y-18116434D01*
X8119796Y-18116434D02*
X8138843Y-18125958D01*
X8138843Y-18125958D02*
X8157891Y-18125958D01*
X8300748Y-18116434D02*
X8281700Y-18125958D01*
X8281700Y-18125958D02*
X8243605Y-18125958D01*
X8243605Y-18125958D02*
X8224558Y-18116434D01*
X8224558Y-18116434D02*
X8215034Y-18097387D01*
X8215034Y-18097387D02*
X8215034Y-18021196D01*
X8215034Y-18021196D02*
X8224558Y-18002149D01*
X8224558Y-18002149D02*
X8243605Y-17992625D01*
X8243605Y-17992625D02*
X8281700Y-17992625D01*
X8281700Y-17992625D02*
X8300748Y-18002149D01*
X8300748Y-18002149D02*
X8310272Y-18021196D01*
X8310272Y-18021196D02*
X8310272Y-18040244D01*
X8310272Y-18040244D02*
X8215034Y-18059292D01*
X8481701Y-18125958D02*
X8481701Y-17925958D01*
X8481701Y-18116434D02*
X8462653Y-18125958D01*
X8462653Y-18125958D02*
X8424558Y-18125958D01*
X8424558Y-18125958D02*
X8405510Y-18116434D01*
X8405510Y-18116434D02*
X8395986Y-18106911D01*
X8395986Y-18106911D02*
X8386462Y-18087863D01*
X8386462Y-18087863D02*
X8386462Y-18030720D01*
X8386462Y-18030720D02*
X8395986Y-18011672D01*
X8395986Y-18011672D02*
X8405510Y-18002149D01*
X8405510Y-18002149D02*
X8424558Y-17992625D01*
X8424558Y-17992625D02*
X8462653Y-17992625D01*
X8462653Y-17992625D02*
X8481701Y-18002149D01*
X8557891Y-18202149D02*
X8567415Y-18192625D01*
X8567415Y-18192625D02*
X8586462Y-18164053D01*
X8586462Y-18164053D02*
X8595986Y-18145006D01*
X8595986Y-18145006D02*
X8605510Y-18116434D01*
X8605510Y-18116434D02*
X8615034Y-18068815D01*
X8615034Y-18068815D02*
X8615034Y-18030720D01*
X8615034Y-18030720D02*
X8605510Y-17983101D01*
X8605510Y-17983101D02*
X8595986Y-17954530D01*
X8595986Y-17954530D02*
X8586462Y-17935482D01*
X8586462Y-17935482D02*
X8567415Y-17906911D01*
X8567415Y-17906911D02*
X8557891Y-17897387D01*
X1701875Y-18254474D02*
X1701875Y-18454474D01*
X1601875Y-18354474D02*
X1801875Y-18354474D01*
X2148367Y-18312625D02*
X2148367Y-18445958D01*
X2100748Y-18236434D02*
X2053128Y-18379292D01*
X2053128Y-18379292D02*
X2176938Y-18379292D01*
X2253129Y-18426911D02*
X2262652Y-18436434D01*
X2262652Y-18436434D02*
X2253129Y-18445958D01*
X2253129Y-18445958D02*
X2243605Y-18436434D01*
X2243605Y-18436434D02*
X2253129Y-18426911D01*
X2253129Y-18426911D02*
X2253129Y-18445958D01*
X2386462Y-18245958D02*
X2405510Y-18245958D01*
X2405510Y-18245958D02*
X2424557Y-18255482D01*
X2424557Y-18255482D02*
X2434081Y-18265006D01*
X2434081Y-18265006D02*
X2443605Y-18284053D01*
X2443605Y-18284053D02*
X2453129Y-18322149D01*
X2453129Y-18322149D02*
X2453129Y-18369768D01*
X2453129Y-18369768D02*
X2443605Y-18407863D01*
X2443605Y-18407863D02*
X2434081Y-18426911D01*
X2434081Y-18426911D02*
X2424557Y-18436434D01*
X2424557Y-18436434D02*
X2405510Y-18445958D01*
X2405510Y-18445958D02*
X2386462Y-18445958D01*
X2386462Y-18445958D02*
X2367414Y-18436434D01*
X2367414Y-18436434D02*
X2357890Y-18426911D01*
X2357890Y-18426911D02*
X2348367Y-18407863D01*
X2348367Y-18407863D02*
X2338843Y-18369768D01*
X2338843Y-18369768D02*
X2338843Y-18322149D01*
X2338843Y-18322149D02*
X2348367Y-18284053D01*
X2348367Y-18284053D02*
X2357890Y-18265006D01*
X2357890Y-18265006D02*
X2367414Y-18255482D01*
X2367414Y-18255482D02*
X2386462Y-18245958D01*
X2576938Y-18245958D02*
X2595986Y-18245958D01*
X2595986Y-18245958D02*
X2615033Y-18255482D01*
X2615033Y-18255482D02*
X2624557Y-18265006D01*
X2624557Y-18265006D02*
X2634081Y-18284053D01*
X2634081Y-18284053D02*
X2643605Y-18322149D01*
X2643605Y-18322149D02*
X2643605Y-18369768D01*
X2643605Y-18369768D02*
X2634081Y-18407863D01*
X2634081Y-18407863D02*
X2624557Y-18426911D01*
X2624557Y-18426911D02*
X2615033Y-18436434D01*
X2615033Y-18436434D02*
X2595986Y-18445958D01*
X2595986Y-18445958D02*
X2576938Y-18445958D01*
X2576938Y-18445958D02*
X2557890Y-18436434D01*
X2557890Y-18436434D02*
X2548367Y-18426911D01*
X2548367Y-18426911D02*
X2538843Y-18407863D01*
X2538843Y-18407863D02*
X2529319Y-18369768D01*
X2529319Y-18369768D02*
X2529319Y-18322149D01*
X2529319Y-18322149D02*
X2538843Y-18284053D01*
X2538843Y-18284053D02*
X2548367Y-18265006D01*
X2548367Y-18265006D02*
X2557890Y-18255482D01*
X2557890Y-18255482D02*
X2576938Y-18245958D01*
X2767414Y-18245958D02*
X2786462Y-18245958D01*
X2786462Y-18245958D02*
X2805509Y-18255482D01*
X2805509Y-18255482D02*
X2815033Y-18265006D01*
X2815033Y-18265006D02*
X2824557Y-18284053D01*
X2824557Y-18284053D02*
X2834081Y-18322149D01*
X2834081Y-18322149D02*
X2834081Y-18369768D01*
X2834081Y-18369768D02*
X2824557Y-18407863D01*
X2824557Y-18407863D02*
X2815033Y-18426911D01*
X2815033Y-18426911D02*
X2805509Y-18436434D01*
X2805509Y-18436434D02*
X2786462Y-18445958D01*
X2786462Y-18445958D02*
X2767414Y-18445958D01*
X2767414Y-18445958D02*
X2748367Y-18436434D01*
X2748367Y-18436434D02*
X2738843Y-18426911D01*
X2738843Y-18426911D02*
X2729319Y-18407863D01*
X2729319Y-18407863D02*
X2719795Y-18369768D01*
X2719795Y-18369768D02*
X2719795Y-18322149D01*
X2719795Y-18322149D02*
X2729319Y-18284053D01*
X2729319Y-18284053D02*
X2738843Y-18265006D01*
X2738843Y-18265006D02*
X2748367Y-18255482D01*
X2748367Y-18255482D02*
X2767414Y-18245958D01*
X2919795Y-18445958D02*
X2919795Y-18312625D01*
X2919795Y-18331672D02*
X2929319Y-18322149D01*
X2929319Y-18322149D02*
X2948367Y-18312625D01*
X2948367Y-18312625D02*
X2976938Y-18312625D01*
X2976938Y-18312625D02*
X2995986Y-18322149D01*
X2995986Y-18322149D02*
X3005509Y-18341196D01*
X3005509Y-18341196D02*
X3005509Y-18445958D01*
X3005509Y-18341196D02*
X3015033Y-18322149D01*
X3015033Y-18322149D02*
X3034081Y-18312625D01*
X3034081Y-18312625D02*
X3062652Y-18312625D01*
X3062652Y-18312625D02*
X3081700Y-18322149D01*
X3081700Y-18322149D02*
X3091224Y-18341196D01*
X3091224Y-18341196D02*
X3091224Y-18445958D01*
X3186462Y-18445958D02*
X3186462Y-18312625D01*
X3186462Y-18331672D02*
X3195986Y-18322149D01*
X3195986Y-18322149D02*
X3215033Y-18312625D01*
X3215033Y-18312625D02*
X3243605Y-18312625D01*
X3243605Y-18312625D02*
X3262652Y-18322149D01*
X3262652Y-18322149D02*
X3272176Y-18341196D01*
X3272176Y-18341196D02*
X3272176Y-18445958D01*
X3272176Y-18341196D02*
X3281700Y-18322149D01*
X3281700Y-18322149D02*
X3300748Y-18312625D01*
X3300748Y-18312625D02*
X3329319Y-18312625D01*
X3329319Y-18312625D02*
X3348367Y-18322149D01*
X3348367Y-18322149D02*
X3357890Y-18341196D01*
X3357890Y-18341196D02*
X3357890Y-18445958D01*
X3748367Y-18236434D02*
X3576938Y-18493577D01*
X4005510Y-18245958D02*
X4024557Y-18245958D01*
X4024557Y-18245958D02*
X4043605Y-18255482D01*
X4043605Y-18255482D02*
X4053129Y-18265006D01*
X4053129Y-18265006D02*
X4062652Y-18284053D01*
X4062652Y-18284053D02*
X4072176Y-18322149D01*
X4072176Y-18322149D02*
X4072176Y-18369768D01*
X4072176Y-18369768D02*
X4062652Y-18407863D01*
X4062652Y-18407863D02*
X4053129Y-18426911D01*
X4053129Y-18426911D02*
X4043605Y-18436434D01*
X4043605Y-18436434D02*
X4024557Y-18445958D01*
X4024557Y-18445958D02*
X4005510Y-18445958D01*
X4005510Y-18445958D02*
X3986462Y-18436434D01*
X3986462Y-18436434D02*
X3976938Y-18426911D01*
X3976938Y-18426911D02*
X3967414Y-18407863D01*
X3967414Y-18407863D02*
X3957891Y-18369768D01*
X3957891Y-18369768D02*
X3957891Y-18322149D01*
X3957891Y-18322149D02*
X3967414Y-18284053D01*
X3967414Y-18284053D02*
X3976938Y-18265006D01*
X3976938Y-18265006D02*
X3986462Y-18255482D01*
X3986462Y-18255482D02*
X4005510Y-18245958D01*
X4157891Y-18426911D02*
X4167414Y-18436434D01*
X4167414Y-18436434D02*
X4157891Y-18445958D01*
X4157891Y-18445958D02*
X4148367Y-18436434D01*
X4148367Y-18436434D02*
X4157891Y-18426911D01*
X4157891Y-18426911D02*
X4157891Y-18445958D01*
X4357891Y-18445958D02*
X4243605Y-18445958D01*
X4300748Y-18445958D02*
X4300748Y-18245958D01*
X4300748Y-18245958D02*
X4281700Y-18274530D01*
X4281700Y-18274530D02*
X4262653Y-18293577D01*
X4262653Y-18293577D02*
X4243605Y-18303101D01*
X4538843Y-18245958D02*
X4443605Y-18245958D01*
X4443605Y-18245958D02*
X4434081Y-18341196D01*
X4434081Y-18341196D02*
X4443605Y-18331672D01*
X4443605Y-18331672D02*
X4462653Y-18322149D01*
X4462653Y-18322149D02*
X4510272Y-18322149D01*
X4510272Y-18322149D02*
X4529319Y-18331672D01*
X4529319Y-18331672D02*
X4538843Y-18341196D01*
X4538843Y-18341196D02*
X4548367Y-18360244D01*
X4548367Y-18360244D02*
X4548367Y-18407863D01*
X4548367Y-18407863D02*
X4538843Y-18426911D01*
X4538843Y-18426911D02*
X4529319Y-18436434D01*
X4529319Y-18436434D02*
X4510272Y-18445958D01*
X4510272Y-18445958D02*
X4462653Y-18445958D01*
X4462653Y-18445958D02*
X4443605Y-18436434D01*
X4443605Y-18436434D02*
X4434081Y-18426911D01*
X4615034Y-18245958D02*
X4748367Y-18245958D01*
X4748367Y-18245958D02*
X4662653Y-18445958D01*
X4919795Y-18245958D02*
X4824557Y-18245958D01*
X4824557Y-18245958D02*
X4815034Y-18341196D01*
X4815034Y-18341196D02*
X4824557Y-18331672D01*
X4824557Y-18331672D02*
X4843605Y-18322149D01*
X4843605Y-18322149D02*
X4891224Y-18322149D01*
X4891224Y-18322149D02*
X4910272Y-18331672D01*
X4910272Y-18331672D02*
X4919795Y-18341196D01*
X4919795Y-18341196D02*
X4929319Y-18360244D01*
X4929319Y-18360244D02*
X4929319Y-18407863D01*
X4929319Y-18407863D02*
X4919795Y-18426911D01*
X4919795Y-18426911D02*
X4910272Y-18436434D01*
X4910272Y-18436434D02*
X4891224Y-18445958D01*
X4891224Y-18445958D02*
X4843605Y-18445958D01*
X4843605Y-18445958D02*
X4824557Y-18436434D01*
X4824557Y-18436434D02*
X4815034Y-18426911D01*
X5005510Y-18245958D02*
X5005510Y-18284053D01*
X5081700Y-18245958D02*
X5081700Y-18284053D01*
X5376938Y-18522149D02*
X5367415Y-18512625D01*
X5367415Y-18512625D02*
X5348367Y-18484053D01*
X5348367Y-18484053D02*
X5338843Y-18465006D01*
X5338843Y-18465006D02*
X5329319Y-18436434D01*
X5329319Y-18436434D02*
X5319796Y-18388815D01*
X5319796Y-18388815D02*
X5319796Y-18350720D01*
X5319796Y-18350720D02*
X5329319Y-18303101D01*
X5329319Y-18303101D02*
X5338843Y-18274530D01*
X5338843Y-18274530D02*
X5348367Y-18255482D01*
X5348367Y-18255482D02*
X5367415Y-18226911D01*
X5367415Y-18226911D02*
X5376938Y-18217387D01*
X5481700Y-18331672D02*
X5462653Y-18322149D01*
X5462653Y-18322149D02*
X5453129Y-18312625D01*
X5453129Y-18312625D02*
X5443605Y-18293577D01*
X5443605Y-18293577D02*
X5443605Y-18284053D01*
X5443605Y-18284053D02*
X5453129Y-18265006D01*
X5453129Y-18265006D02*
X5462653Y-18255482D01*
X5462653Y-18255482D02*
X5481700Y-18245958D01*
X5481700Y-18245958D02*
X5519796Y-18245958D01*
X5519796Y-18245958D02*
X5538843Y-18255482D01*
X5538843Y-18255482D02*
X5548367Y-18265006D01*
X5548367Y-18265006D02*
X5557891Y-18284053D01*
X5557891Y-18284053D02*
X5557891Y-18293577D01*
X5557891Y-18293577D02*
X5548367Y-18312625D01*
X5548367Y-18312625D02*
X5538843Y-18322149D01*
X5538843Y-18322149D02*
X5519796Y-18331672D01*
X5519796Y-18331672D02*
X5481700Y-18331672D01*
X5481700Y-18331672D02*
X5462653Y-18341196D01*
X5462653Y-18341196D02*
X5453129Y-18350720D01*
X5453129Y-18350720D02*
X5443605Y-18369768D01*
X5443605Y-18369768D02*
X5443605Y-18407863D01*
X5443605Y-18407863D02*
X5453129Y-18426911D01*
X5453129Y-18426911D02*
X5462653Y-18436434D01*
X5462653Y-18436434D02*
X5481700Y-18445958D01*
X5481700Y-18445958D02*
X5519796Y-18445958D01*
X5519796Y-18445958D02*
X5538843Y-18436434D01*
X5538843Y-18436434D02*
X5548367Y-18426911D01*
X5548367Y-18426911D02*
X5557891Y-18407863D01*
X5557891Y-18407863D02*
X5557891Y-18369768D01*
X5557891Y-18369768D02*
X5548367Y-18350720D01*
X5548367Y-18350720D02*
X5538843Y-18341196D01*
X5538843Y-18341196D02*
X5519796Y-18331672D01*
X5672176Y-18331672D02*
X5653129Y-18322149D01*
X5653129Y-18322149D02*
X5643605Y-18312625D01*
X5643605Y-18312625D02*
X5634081Y-18293577D01*
X5634081Y-18293577D02*
X5634081Y-18284053D01*
X5634081Y-18284053D02*
X5643605Y-18265006D01*
X5643605Y-18265006D02*
X5653129Y-18255482D01*
X5653129Y-18255482D02*
X5672176Y-18245958D01*
X5672176Y-18245958D02*
X5710272Y-18245958D01*
X5710272Y-18245958D02*
X5729319Y-18255482D01*
X5729319Y-18255482D02*
X5738843Y-18265006D01*
X5738843Y-18265006D02*
X5748367Y-18284053D01*
X5748367Y-18284053D02*
X5748367Y-18293577D01*
X5748367Y-18293577D02*
X5738843Y-18312625D01*
X5738843Y-18312625D02*
X5729319Y-18322149D01*
X5729319Y-18322149D02*
X5710272Y-18331672D01*
X5710272Y-18331672D02*
X5672176Y-18331672D01*
X5672176Y-18331672D02*
X5653129Y-18341196D01*
X5653129Y-18341196D02*
X5643605Y-18350720D01*
X5643605Y-18350720D02*
X5634081Y-18369768D01*
X5634081Y-18369768D02*
X5634081Y-18407863D01*
X5634081Y-18407863D02*
X5643605Y-18426911D01*
X5643605Y-18426911D02*
X5653129Y-18436434D01*
X5653129Y-18436434D02*
X5672176Y-18445958D01*
X5672176Y-18445958D02*
X5710272Y-18445958D01*
X5710272Y-18445958D02*
X5729319Y-18436434D01*
X5729319Y-18436434D02*
X5738843Y-18426911D01*
X5738843Y-18426911D02*
X5748367Y-18407863D01*
X5748367Y-18407863D02*
X5748367Y-18369768D01*
X5748367Y-18369768D02*
X5738843Y-18350720D01*
X5738843Y-18350720D02*
X5729319Y-18341196D01*
X5729319Y-18341196D02*
X5710272Y-18331672D01*
X5986462Y-18445958D02*
X5986462Y-18245958D01*
X6072176Y-18445958D02*
X6072176Y-18341196D01*
X6072176Y-18341196D02*
X6062653Y-18322149D01*
X6062653Y-18322149D02*
X6043605Y-18312625D01*
X6043605Y-18312625D02*
X6015034Y-18312625D01*
X6015034Y-18312625D02*
X5995986Y-18322149D01*
X5995986Y-18322149D02*
X5986462Y-18331672D01*
X6195986Y-18445958D02*
X6176938Y-18436434D01*
X6176938Y-18436434D02*
X6167415Y-18426911D01*
X6167415Y-18426911D02*
X6157891Y-18407863D01*
X6157891Y-18407863D02*
X6157891Y-18350720D01*
X6157891Y-18350720D02*
X6167415Y-18331672D01*
X6167415Y-18331672D02*
X6176938Y-18322149D01*
X6176938Y-18322149D02*
X6195986Y-18312625D01*
X6195986Y-18312625D02*
X6224557Y-18312625D01*
X6224557Y-18312625D02*
X6243605Y-18322149D01*
X6243605Y-18322149D02*
X6253129Y-18331672D01*
X6253129Y-18331672D02*
X6262653Y-18350720D01*
X6262653Y-18350720D02*
X6262653Y-18407863D01*
X6262653Y-18407863D02*
X6253129Y-18426911D01*
X6253129Y-18426911D02*
X6243605Y-18436434D01*
X6243605Y-18436434D02*
X6224557Y-18445958D01*
X6224557Y-18445958D02*
X6195986Y-18445958D01*
X6376938Y-18445958D02*
X6357891Y-18436434D01*
X6357891Y-18436434D02*
X6348367Y-18417387D01*
X6348367Y-18417387D02*
X6348367Y-18245958D01*
X6529319Y-18436434D02*
X6510272Y-18445958D01*
X6510272Y-18445958D02*
X6472176Y-18445958D01*
X6472176Y-18445958D02*
X6453129Y-18436434D01*
X6453129Y-18436434D02*
X6443605Y-18417387D01*
X6443605Y-18417387D02*
X6443605Y-18341196D01*
X6443605Y-18341196D02*
X6453129Y-18322149D01*
X6453129Y-18322149D02*
X6472176Y-18312625D01*
X6472176Y-18312625D02*
X6510272Y-18312625D01*
X6510272Y-18312625D02*
X6529319Y-18322149D01*
X6529319Y-18322149D02*
X6538843Y-18341196D01*
X6538843Y-18341196D02*
X6538843Y-18360244D01*
X6538843Y-18360244D02*
X6443605Y-18379292D01*
X6615034Y-18436434D02*
X6634081Y-18445958D01*
X6634081Y-18445958D02*
X6672176Y-18445958D01*
X6672176Y-18445958D02*
X6691224Y-18436434D01*
X6691224Y-18436434D02*
X6700748Y-18417387D01*
X6700748Y-18417387D02*
X6700748Y-18407863D01*
X6700748Y-18407863D02*
X6691224Y-18388815D01*
X6691224Y-18388815D02*
X6672176Y-18379292D01*
X6672176Y-18379292D02*
X6643605Y-18379292D01*
X6643605Y-18379292D02*
X6624557Y-18369768D01*
X6624557Y-18369768D02*
X6615034Y-18350720D01*
X6615034Y-18350720D02*
X6615034Y-18341196D01*
X6615034Y-18341196D02*
X6624557Y-18322149D01*
X6624557Y-18322149D02*
X6643605Y-18312625D01*
X6643605Y-18312625D02*
X6672176Y-18312625D01*
X6672176Y-18312625D02*
X6691224Y-18322149D01*
X6767415Y-18522149D02*
X6776938Y-18512625D01*
X6776938Y-18512625D02*
X6795986Y-18484053D01*
X6795986Y-18484053D02*
X6805510Y-18465006D01*
X6805510Y-18465006D02*
X6815034Y-18436434D01*
X6815034Y-18436434D02*
X6824557Y-18388815D01*
X6824557Y-18388815D02*
X6824557Y-18350720D01*
X6824557Y-18350720D02*
X6815034Y-18303101D01*
X6815034Y-18303101D02*
X6805510Y-18274530D01*
X6805510Y-18274530D02*
X6795986Y-18255482D01*
X6795986Y-18255482D02*
X6776938Y-18226911D01*
X6776938Y-18226911D02*
X6767415Y-18217387D01*
X7129319Y-18522149D02*
X7119796Y-18512625D01*
X7119796Y-18512625D02*
X7100748Y-18484053D01*
X7100748Y-18484053D02*
X7091224Y-18465006D01*
X7091224Y-18465006D02*
X7081700Y-18436434D01*
X7081700Y-18436434D02*
X7072177Y-18388815D01*
X7072177Y-18388815D02*
X7072177Y-18350720D01*
X7072177Y-18350720D02*
X7081700Y-18303101D01*
X7081700Y-18303101D02*
X7091224Y-18274530D01*
X7091224Y-18274530D02*
X7100748Y-18255482D01*
X7100748Y-18255482D02*
X7119796Y-18226911D01*
X7119796Y-18226911D02*
X7129319Y-18217387D01*
X7205510Y-18312625D02*
X7205510Y-18445958D01*
X7205510Y-18331672D02*
X7215034Y-18322149D01*
X7215034Y-18322149D02*
X7234081Y-18312625D01*
X7234081Y-18312625D02*
X7262653Y-18312625D01*
X7262653Y-18312625D02*
X7281700Y-18322149D01*
X7281700Y-18322149D02*
X7291224Y-18341196D01*
X7291224Y-18341196D02*
X7291224Y-18445958D01*
X7415034Y-18445958D02*
X7395986Y-18436434D01*
X7395986Y-18436434D02*
X7386462Y-18426911D01*
X7386462Y-18426911D02*
X7376938Y-18407863D01*
X7376938Y-18407863D02*
X7376938Y-18350720D01*
X7376938Y-18350720D02*
X7386462Y-18331672D01*
X7386462Y-18331672D02*
X7395986Y-18322149D01*
X7395986Y-18322149D02*
X7415034Y-18312625D01*
X7415034Y-18312625D02*
X7443605Y-18312625D01*
X7443605Y-18312625D02*
X7462653Y-18322149D01*
X7462653Y-18322149D02*
X7472177Y-18331672D01*
X7472177Y-18331672D02*
X7481700Y-18350720D01*
X7481700Y-18350720D02*
X7481700Y-18407863D01*
X7481700Y-18407863D02*
X7472177Y-18426911D01*
X7472177Y-18426911D02*
X7462653Y-18436434D01*
X7462653Y-18436434D02*
X7443605Y-18445958D01*
X7443605Y-18445958D02*
X7415034Y-18445958D01*
X7538843Y-18312625D02*
X7615034Y-18312625D01*
X7567415Y-18245958D02*
X7567415Y-18417387D01*
X7567415Y-18417387D02*
X7576938Y-18436434D01*
X7576938Y-18436434D02*
X7595986Y-18445958D01*
X7595986Y-18445958D02*
X7615034Y-18445958D01*
X7834081Y-18312625D02*
X7834081Y-18512625D01*
X7834081Y-18322149D02*
X7853129Y-18312625D01*
X7853129Y-18312625D02*
X7891224Y-18312625D01*
X7891224Y-18312625D02*
X7910272Y-18322149D01*
X7910272Y-18322149D02*
X7919796Y-18331672D01*
X7919796Y-18331672D02*
X7929319Y-18350720D01*
X7929319Y-18350720D02*
X7929319Y-18407863D01*
X7929319Y-18407863D02*
X7919796Y-18426911D01*
X7919796Y-18426911D02*
X7910272Y-18436434D01*
X7910272Y-18436434D02*
X7891224Y-18445958D01*
X7891224Y-18445958D02*
X7853129Y-18445958D01*
X7853129Y-18445958D02*
X7834081Y-18436434D01*
X8043605Y-18445958D02*
X8024558Y-18436434D01*
X8024558Y-18436434D02*
X8015034Y-18417387D01*
X8015034Y-18417387D02*
X8015034Y-18245958D01*
X8205510Y-18445958D02*
X8205510Y-18341196D01*
X8205510Y-18341196D02*
X8195986Y-18322149D01*
X8195986Y-18322149D02*
X8176939Y-18312625D01*
X8176939Y-18312625D02*
X8138843Y-18312625D01*
X8138843Y-18312625D02*
X8119796Y-18322149D01*
X8205510Y-18436434D02*
X8186462Y-18445958D01*
X8186462Y-18445958D02*
X8138843Y-18445958D01*
X8138843Y-18445958D02*
X8119796Y-18436434D01*
X8119796Y-18436434D02*
X8110272Y-18417387D01*
X8110272Y-18417387D02*
X8110272Y-18398339D01*
X8110272Y-18398339D02*
X8119796Y-18379292D01*
X8119796Y-18379292D02*
X8138843Y-18369768D01*
X8138843Y-18369768D02*
X8186462Y-18369768D01*
X8186462Y-18369768D02*
X8205510Y-18360244D01*
X8272177Y-18312625D02*
X8348367Y-18312625D01*
X8300748Y-18245958D02*
X8300748Y-18417387D01*
X8300748Y-18417387D02*
X8310272Y-18436434D01*
X8310272Y-18436434D02*
X8329319Y-18445958D01*
X8329319Y-18445958D02*
X8348367Y-18445958D01*
X8491224Y-18436434D02*
X8472177Y-18445958D01*
X8472177Y-18445958D02*
X8434081Y-18445958D01*
X8434081Y-18445958D02*
X8415034Y-18436434D01*
X8415034Y-18436434D02*
X8405510Y-18417387D01*
X8405510Y-18417387D02*
X8405510Y-18341196D01*
X8405510Y-18341196D02*
X8415034Y-18322149D01*
X8415034Y-18322149D02*
X8434081Y-18312625D01*
X8434081Y-18312625D02*
X8472177Y-18312625D01*
X8472177Y-18312625D02*
X8491224Y-18322149D01*
X8491224Y-18322149D02*
X8500748Y-18341196D01*
X8500748Y-18341196D02*
X8500748Y-18360244D01*
X8500748Y-18360244D02*
X8405510Y-18379292D01*
X8672177Y-18445958D02*
X8672177Y-18245958D01*
X8672177Y-18436434D02*
X8653129Y-18445958D01*
X8653129Y-18445958D02*
X8615034Y-18445958D01*
X8615034Y-18445958D02*
X8595986Y-18436434D01*
X8595986Y-18436434D02*
X8586462Y-18426911D01*
X8586462Y-18426911D02*
X8576939Y-18407863D01*
X8576939Y-18407863D02*
X8576939Y-18350720D01*
X8576939Y-18350720D02*
X8586462Y-18331672D01*
X8586462Y-18331672D02*
X8595986Y-18322149D01*
X8595986Y-18322149D02*
X8615034Y-18312625D01*
X8615034Y-18312625D02*
X8653129Y-18312625D01*
X8653129Y-18312625D02*
X8672177Y-18322149D01*
X8748367Y-18522149D02*
X8757891Y-18512625D01*
X8757891Y-18512625D02*
X8776939Y-18484053D01*
X8776939Y-18484053D02*
X8786462Y-18465006D01*
X8786462Y-18465006D02*
X8795986Y-18436434D01*
X8795986Y-18436434D02*
X8805510Y-18388815D01*
X8805510Y-18388815D02*
X8805510Y-18350720D01*
X8805510Y-18350720D02*
X8795986Y-18303101D01*
X8795986Y-18303101D02*
X8786462Y-18274530D01*
X8786462Y-18274530D02*
X8776939Y-18255482D01*
X8776939Y-18255482D02*
X8757891Y-18226911D01*
X8757891Y-18226911D02*
X8748367Y-18217387D01*
X1772587Y-18745186D02*
X1772587Y-18603763D01*
X1631164Y-18603763D01*
X1631164Y-18745186D01*
X1772587Y-18745186D01*
X2148367Y-18632625D02*
X2148367Y-18765958D01*
X2100748Y-18556434D02*
X2053128Y-18699292D01*
X2053128Y-18699292D02*
X2176938Y-18699292D01*
X2253129Y-18746911D02*
X2262652Y-18756434D01*
X2262652Y-18756434D02*
X2253129Y-18765958D01*
X2253129Y-18765958D02*
X2243605Y-18756434D01*
X2243605Y-18756434D02*
X2253129Y-18746911D01*
X2253129Y-18746911D02*
X2253129Y-18765958D01*
X2443605Y-18565958D02*
X2348367Y-18565958D01*
X2348367Y-18565958D02*
X2338843Y-18661196D01*
X2338843Y-18661196D02*
X2348367Y-18651672D01*
X2348367Y-18651672D02*
X2367414Y-18642149D01*
X2367414Y-18642149D02*
X2415033Y-18642149D01*
X2415033Y-18642149D02*
X2434081Y-18651672D01*
X2434081Y-18651672D02*
X2443605Y-18661196D01*
X2443605Y-18661196D02*
X2453129Y-18680244D01*
X2453129Y-18680244D02*
X2453129Y-18727863D01*
X2453129Y-18727863D02*
X2443605Y-18746911D01*
X2443605Y-18746911D02*
X2434081Y-18756434D01*
X2434081Y-18756434D02*
X2415033Y-18765958D01*
X2415033Y-18765958D02*
X2367414Y-18765958D01*
X2367414Y-18765958D02*
X2348367Y-18756434D01*
X2348367Y-18756434D02*
X2338843Y-18746911D01*
X2576938Y-18565958D02*
X2595986Y-18565958D01*
X2595986Y-18565958D02*
X2615033Y-18575482D01*
X2615033Y-18575482D02*
X2624557Y-18585006D01*
X2624557Y-18585006D02*
X2634081Y-18604053D01*
X2634081Y-18604053D02*
X2643605Y-18642149D01*
X2643605Y-18642149D02*
X2643605Y-18689768D01*
X2643605Y-18689768D02*
X2634081Y-18727863D01*
X2634081Y-18727863D02*
X2624557Y-18746911D01*
X2624557Y-18746911D02*
X2615033Y-18756434D01*
X2615033Y-18756434D02*
X2595986Y-18765958D01*
X2595986Y-18765958D02*
X2576938Y-18765958D01*
X2576938Y-18765958D02*
X2557890Y-18756434D01*
X2557890Y-18756434D02*
X2548367Y-18746911D01*
X2548367Y-18746911D02*
X2538843Y-18727863D01*
X2538843Y-18727863D02*
X2529319Y-18689768D01*
X2529319Y-18689768D02*
X2529319Y-18642149D01*
X2529319Y-18642149D02*
X2538843Y-18604053D01*
X2538843Y-18604053D02*
X2548367Y-18585006D01*
X2548367Y-18585006D02*
X2557890Y-18575482D01*
X2557890Y-18575482D02*
X2576938Y-18565958D01*
X2767414Y-18565958D02*
X2786462Y-18565958D01*
X2786462Y-18565958D02*
X2805509Y-18575482D01*
X2805509Y-18575482D02*
X2815033Y-18585006D01*
X2815033Y-18585006D02*
X2824557Y-18604053D01*
X2824557Y-18604053D02*
X2834081Y-18642149D01*
X2834081Y-18642149D02*
X2834081Y-18689768D01*
X2834081Y-18689768D02*
X2824557Y-18727863D01*
X2824557Y-18727863D02*
X2815033Y-18746911D01*
X2815033Y-18746911D02*
X2805509Y-18756434D01*
X2805509Y-18756434D02*
X2786462Y-18765958D01*
X2786462Y-18765958D02*
X2767414Y-18765958D01*
X2767414Y-18765958D02*
X2748367Y-18756434D01*
X2748367Y-18756434D02*
X2738843Y-18746911D01*
X2738843Y-18746911D02*
X2729319Y-18727863D01*
X2729319Y-18727863D02*
X2719795Y-18689768D01*
X2719795Y-18689768D02*
X2719795Y-18642149D01*
X2719795Y-18642149D02*
X2729319Y-18604053D01*
X2729319Y-18604053D02*
X2738843Y-18585006D01*
X2738843Y-18585006D02*
X2748367Y-18575482D01*
X2748367Y-18575482D02*
X2767414Y-18565958D01*
X2919795Y-18765958D02*
X2919795Y-18632625D01*
X2919795Y-18651672D02*
X2929319Y-18642149D01*
X2929319Y-18642149D02*
X2948367Y-18632625D01*
X2948367Y-18632625D02*
X2976938Y-18632625D01*
X2976938Y-18632625D02*
X2995986Y-18642149D01*
X2995986Y-18642149D02*
X3005509Y-18661196D01*
X3005509Y-18661196D02*
X3005509Y-18765958D01*
X3005509Y-18661196D02*
X3015033Y-18642149D01*
X3015033Y-18642149D02*
X3034081Y-18632625D01*
X3034081Y-18632625D02*
X3062652Y-18632625D01*
X3062652Y-18632625D02*
X3081700Y-18642149D01*
X3081700Y-18642149D02*
X3091224Y-18661196D01*
X3091224Y-18661196D02*
X3091224Y-18765958D01*
X3186462Y-18765958D02*
X3186462Y-18632625D01*
X3186462Y-18651672D02*
X3195986Y-18642149D01*
X3195986Y-18642149D02*
X3215033Y-18632625D01*
X3215033Y-18632625D02*
X3243605Y-18632625D01*
X3243605Y-18632625D02*
X3262652Y-18642149D01*
X3262652Y-18642149D02*
X3272176Y-18661196D01*
X3272176Y-18661196D02*
X3272176Y-18765958D01*
X3272176Y-18661196D02*
X3281700Y-18642149D01*
X3281700Y-18642149D02*
X3300748Y-18632625D01*
X3300748Y-18632625D02*
X3329319Y-18632625D01*
X3329319Y-18632625D02*
X3348367Y-18642149D01*
X3348367Y-18642149D02*
X3357890Y-18661196D01*
X3357890Y-18661196D02*
X3357890Y-18765958D01*
X3748367Y-18556434D02*
X3576938Y-18813577D01*
X4005510Y-18565958D02*
X4024557Y-18565958D01*
X4024557Y-18565958D02*
X4043605Y-18575482D01*
X4043605Y-18575482D02*
X4053129Y-18585006D01*
X4053129Y-18585006D02*
X4062652Y-18604053D01*
X4062652Y-18604053D02*
X4072176Y-18642149D01*
X4072176Y-18642149D02*
X4072176Y-18689768D01*
X4072176Y-18689768D02*
X4062652Y-18727863D01*
X4062652Y-18727863D02*
X4053129Y-18746911D01*
X4053129Y-18746911D02*
X4043605Y-18756434D01*
X4043605Y-18756434D02*
X4024557Y-18765958D01*
X4024557Y-18765958D02*
X4005510Y-18765958D01*
X4005510Y-18765958D02*
X3986462Y-18756434D01*
X3986462Y-18756434D02*
X3976938Y-18746911D01*
X3976938Y-18746911D02*
X3967414Y-18727863D01*
X3967414Y-18727863D02*
X3957891Y-18689768D01*
X3957891Y-18689768D02*
X3957891Y-18642149D01*
X3957891Y-18642149D02*
X3967414Y-18604053D01*
X3967414Y-18604053D02*
X3976938Y-18585006D01*
X3976938Y-18585006D02*
X3986462Y-18575482D01*
X3986462Y-18575482D02*
X4005510Y-18565958D01*
X4157891Y-18746911D02*
X4167414Y-18756434D01*
X4167414Y-18756434D02*
X4157891Y-18765958D01*
X4157891Y-18765958D02*
X4148367Y-18756434D01*
X4148367Y-18756434D02*
X4157891Y-18746911D01*
X4157891Y-18746911D02*
X4157891Y-18765958D01*
X4357891Y-18765958D02*
X4243605Y-18765958D01*
X4300748Y-18765958D02*
X4300748Y-18565958D01*
X4300748Y-18565958D02*
X4281700Y-18594530D01*
X4281700Y-18594530D02*
X4262653Y-18613577D01*
X4262653Y-18613577D02*
X4243605Y-18623101D01*
X4424557Y-18565958D02*
X4557891Y-18565958D01*
X4557891Y-18565958D02*
X4472176Y-18765958D01*
X4615034Y-18565958D02*
X4748367Y-18565958D01*
X4748367Y-18565958D02*
X4662653Y-18765958D01*
X4815034Y-18585006D02*
X4824557Y-18575482D01*
X4824557Y-18575482D02*
X4843605Y-18565958D01*
X4843605Y-18565958D02*
X4891224Y-18565958D01*
X4891224Y-18565958D02*
X4910272Y-18575482D01*
X4910272Y-18575482D02*
X4919795Y-18585006D01*
X4919795Y-18585006D02*
X4929319Y-18604053D01*
X4929319Y-18604053D02*
X4929319Y-18623101D01*
X4929319Y-18623101D02*
X4919795Y-18651672D01*
X4919795Y-18651672D02*
X4805510Y-18765958D01*
X4805510Y-18765958D02*
X4929319Y-18765958D01*
X5005510Y-18565958D02*
X5005510Y-18604053D01*
X5081700Y-18565958D02*
X5081700Y-18604053D01*
X5376938Y-18842149D02*
X5367415Y-18832625D01*
X5367415Y-18832625D02*
X5348367Y-18804053D01*
X5348367Y-18804053D02*
X5338843Y-18785006D01*
X5338843Y-18785006D02*
X5329319Y-18756434D01*
X5329319Y-18756434D02*
X5319796Y-18708815D01*
X5319796Y-18708815D02*
X5319796Y-18670720D01*
X5319796Y-18670720D02*
X5329319Y-18623101D01*
X5329319Y-18623101D02*
X5338843Y-18594530D01*
X5338843Y-18594530D02*
X5348367Y-18575482D01*
X5348367Y-18575482D02*
X5367415Y-18546911D01*
X5367415Y-18546911D02*
X5376938Y-18537387D01*
X5557891Y-18765958D02*
X5443605Y-18765958D01*
X5500748Y-18765958D02*
X5500748Y-18565958D01*
X5500748Y-18565958D02*
X5481700Y-18594530D01*
X5481700Y-18594530D02*
X5462653Y-18613577D01*
X5462653Y-18613577D02*
X5443605Y-18623101D01*
X5795986Y-18765958D02*
X5795986Y-18565958D01*
X5881700Y-18765958D02*
X5881700Y-18661196D01*
X5881700Y-18661196D02*
X5872176Y-18642149D01*
X5872176Y-18642149D02*
X5853129Y-18632625D01*
X5853129Y-18632625D02*
X5824557Y-18632625D01*
X5824557Y-18632625D02*
X5805510Y-18642149D01*
X5805510Y-18642149D02*
X5795986Y-18651672D01*
X6005510Y-18765958D02*
X5986462Y-18756434D01*
X5986462Y-18756434D02*
X5976938Y-18746911D01*
X5976938Y-18746911D02*
X5967415Y-18727863D01*
X5967415Y-18727863D02*
X5967415Y-18670720D01*
X5967415Y-18670720D02*
X5976938Y-18651672D01*
X5976938Y-18651672D02*
X5986462Y-18642149D01*
X5986462Y-18642149D02*
X6005510Y-18632625D01*
X6005510Y-18632625D02*
X6034081Y-18632625D01*
X6034081Y-18632625D02*
X6053129Y-18642149D01*
X6053129Y-18642149D02*
X6062653Y-18651672D01*
X6062653Y-18651672D02*
X6072176Y-18670720D01*
X6072176Y-18670720D02*
X6072176Y-18727863D01*
X6072176Y-18727863D02*
X6062653Y-18746911D01*
X6062653Y-18746911D02*
X6053129Y-18756434D01*
X6053129Y-18756434D02*
X6034081Y-18765958D01*
X6034081Y-18765958D02*
X6005510Y-18765958D01*
X6186462Y-18765958D02*
X6167415Y-18756434D01*
X6167415Y-18756434D02*
X6157891Y-18737387D01*
X6157891Y-18737387D02*
X6157891Y-18565958D01*
X6338843Y-18756434D02*
X6319796Y-18765958D01*
X6319796Y-18765958D02*
X6281700Y-18765958D01*
X6281700Y-18765958D02*
X6262653Y-18756434D01*
X6262653Y-18756434D02*
X6253129Y-18737387D01*
X6253129Y-18737387D02*
X6253129Y-18661196D01*
X6253129Y-18661196D02*
X6262653Y-18642149D01*
X6262653Y-18642149D02*
X6281700Y-18632625D01*
X6281700Y-18632625D02*
X6319796Y-18632625D01*
X6319796Y-18632625D02*
X6338843Y-18642149D01*
X6338843Y-18642149D02*
X6348367Y-18661196D01*
X6348367Y-18661196D02*
X6348367Y-18680244D01*
X6348367Y-18680244D02*
X6253129Y-18699292D01*
X6415034Y-18842149D02*
X6424557Y-18832625D01*
X6424557Y-18832625D02*
X6443605Y-18804053D01*
X6443605Y-18804053D02*
X6453129Y-18785006D01*
X6453129Y-18785006D02*
X6462653Y-18756434D01*
X6462653Y-18756434D02*
X6472176Y-18708815D01*
X6472176Y-18708815D02*
X6472176Y-18670720D01*
X6472176Y-18670720D02*
X6462653Y-18623101D01*
X6462653Y-18623101D02*
X6453129Y-18594530D01*
X6453129Y-18594530D02*
X6443605Y-18575482D01*
X6443605Y-18575482D02*
X6424557Y-18546911D01*
X6424557Y-18546911D02*
X6415034Y-18537387D01*
X6776938Y-18842149D02*
X6767415Y-18832625D01*
X6767415Y-18832625D02*
X6748367Y-18804053D01*
X6748367Y-18804053D02*
X6738843Y-18785006D01*
X6738843Y-18785006D02*
X6729319Y-18756434D01*
X6729319Y-18756434D02*
X6719796Y-18708815D01*
X6719796Y-18708815D02*
X6719796Y-18670720D01*
X6719796Y-18670720D02*
X6729319Y-18623101D01*
X6729319Y-18623101D02*
X6738843Y-18594530D01*
X6738843Y-18594530D02*
X6748367Y-18575482D01*
X6748367Y-18575482D02*
X6767415Y-18546911D01*
X6767415Y-18546911D02*
X6776938Y-18537387D01*
X6853129Y-18632625D02*
X6853129Y-18765958D01*
X6853129Y-18651672D02*
X6862653Y-18642149D01*
X6862653Y-18642149D02*
X6881700Y-18632625D01*
X6881700Y-18632625D02*
X6910272Y-18632625D01*
X6910272Y-18632625D02*
X6929319Y-18642149D01*
X6929319Y-18642149D02*
X6938843Y-18661196D01*
X6938843Y-18661196D02*
X6938843Y-18765958D01*
X7062653Y-18765958D02*
X7043605Y-18756434D01*
X7043605Y-18756434D02*
X7034081Y-18746911D01*
X7034081Y-18746911D02*
X7024557Y-18727863D01*
X7024557Y-18727863D02*
X7024557Y-18670720D01*
X7024557Y-18670720D02*
X7034081Y-18651672D01*
X7034081Y-18651672D02*
X7043605Y-18642149D01*
X7043605Y-18642149D02*
X7062653Y-18632625D01*
X7062653Y-18632625D02*
X7091224Y-18632625D01*
X7091224Y-18632625D02*
X7110272Y-18642149D01*
X7110272Y-18642149D02*
X7119796Y-18651672D01*
X7119796Y-18651672D02*
X7129319Y-18670720D01*
X7129319Y-18670720D02*
X7129319Y-18727863D01*
X7129319Y-18727863D02*
X7119796Y-18746911D01*
X7119796Y-18746911D02*
X7110272Y-18756434D01*
X7110272Y-18756434D02*
X7091224Y-18765958D01*
X7091224Y-18765958D02*
X7062653Y-18765958D01*
X7186462Y-18632625D02*
X7262653Y-18632625D01*
X7215034Y-18565958D02*
X7215034Y-18737387D01*
X7215034Y-18737387D02*
X7224557Y-18756434D01*
X7224557Y-18756434D02*
X7243605Y-18765958D01*
X7243605Y-18765958D02*
X7262653Y-18765958D01*
X7481700Y-18632625D02*
X7481700Y-18832625D01*
X7481700Y-18642149D02*
X7500748Y-18632625D01*
X7500748Y-18632625D02*
X7538843Y-18632625D01*
X7538843Y-18632625D02*
X7557891Y-18642149D01*
X7557891Y-18642149D02*
X7567415Y-18651672D01*
X7567415Y-18651672D02*
X7576938Y-18670720D01*
X7576938Y-18670720D02*
X7576938Y-18727863D01*
X7576938Y-18727863D02*
X7567415Y-18746911D01*
X7567415Y-18746911D02*
X7557891Y-18756434D01*
X7557891Y-18756434D02*
X7538843Y-18765958D01*
X7538843Y-18765958D02*
X7500748Y-18765958D01*
X7500748Y-18765958D02*
X7481700Y-18756434D01*
X7691224Y-18765958D02*
X7672177Y-18756434D01*
X7672177Y-18756434D02*
X7662653Y-18737387D01*
X7662653Y-18737387D02*
X7662653Y-18565958D01*
X7853129Y-18765958D02*
X7853129Y-18661196D01*
X7853129Y-18661196D02*
X7843605Y-18642149D01*
X7843605Y-18642149D02*
X7824558Y-18632625D01*
X7824558Y-18632625D02*
X7786462Y-18632625D01*
X7786462Y-18632625D02*
X7767415Y-18642149D01*
X7853129Y-18756434D02*
X7834081Y-18765958D01*
X7834081Y-18765958D02*
X7786462Y-18765958D01*
X7786462Y-18765958D02*
X7767415Y-18756434D01*
X7767415Y-18756434D02*
X7757891Y-18737387D01*
X7757891Y-18737387D02*
X7757891Y-18718339D01*
X7757891Y-18718339D02*
X7767415Y-18699292D01*
X7767415Y-18699292D02*
X7786462Y-18689768D01*
X7786462Y-18689768D02*
X7834081Y-18689768D01*
X7834081Y-18689768D02*
X7853129Y-18680244D01*
X7919796Y-18632625D02*
X7995986Y-18632625D01*
X7948367Y-18565958D02*
X7948367Y-18737387D01*
X7948367Y-18737387D02*
X7957891Y-18756434D01*
X7957891Y-18756434D02*
X7976938Y-18765958D01*
X7976938Y-18765958D02*
X7995986Y-18765958D01*
X8138843Y-18756434D02*
X8119796Y-18765958D01*
X8119796Y-18765958D02*
X8081700Y-18765958D01*
X8081700Y-18765958D02*
X8062653Y-18756434D01*
X8062653Y-18756434D02*
X8053129Y-18737387D01*
X8053129Y-18737387D02*
X8053129Y-18661196D01*
X8053129Y-18661196D02*
X8062653Y-18642149D01*
X8062653Y-18642149D02*
X8081700Y-18632625D01*
X8081700Y-18632625D02*
X8119796Y-18632625D01*
X8119796Y-18632625D02*
X8138843Y-18642149D01*
X8138843Y-18642149D02*
X8148367Y-18661196D01*
X8148367Y-18661196D02*
X8148367Y-18680244D01*
X8148367Y-18680244D02*
X8053129Y-18699292D01*
X8319796Y-18765958D02*
X8319796Y-18565958D01*
X8319796Y-18756434D02*
X8300748Y-18765958D01*
X8300748Y-18765958D02*
X8262653Y-18765958D01*
X8262653Y-18765958D02*
X8243605Y-18756434D01*
X8243605Y-18756434D02*
X8234081Y-18746911D01*
X8234081Y-18746911D02*
X8224558Y-18727863D01*
X8224558Y-18727863D02*
X8224558Y-18670720D01*
X8224558Y-18670720D02*
X8234081Y-18651672D01*
X8234081Y-18651672D02*
X8243605Y-18642149D01*
X8243605Y-18642149D02*
X8262653Y-18632625D01*
X8262653Y-18632625D02*
X8300748Y-18632625D01*
X8300748Y-18632625D02*
X8319796Y-18642149D01*
X8395986Y-18842149D02*
X8405510Y-18832625D01*
X8405510Y-18832625D02*
X8424558Y-18804053D01*
X8424558Y-18804053D02*
X8434081Y-18785006D01*
X8434081Y-18785006D02*
X8443605Y-18756434D01*
X8443605Y-18756434D02*
X8453129Y-18708815D01*
X8453129Y-18708815D02*
X8453129Y-18670720D01*
X8453129Y-18670720D02*
X8443605Y-18623101D01*
X8443605Y-18623101D02*
X8434081Y-18594530D01*
X8434081Y-18594530D02*
X8424558Y-18575482D01*
X8424558Y-18575482D02*
X8405510Y-18546911D01*
X8405510Y-18546911D02*
X8395986Y-18537387D01*
X1701875Y-19094474D02*
X1801875Y-18994474D01*
X1701875Y-18894474D01*
X1601875Y-18994474D01*
X1701875Y-19094474D01*
X2157890Y-18885958D02*
X2062652Y-18885958D01*
X2062652Y-18885958D02*
X2053128Y-18981196D01*
X2053128Y-18981196D02*
X2062652Y-18971672D01*
X2062652Y-18971672D02*
X2081700Y-18962149D01*
X2081700Y-18962149D02*
X2129319Y-18962149D01*
X2129319Y-18962149D02*
X2148367Y-18971672D01*
X2148367Y-18971672D02*
X2157890Y-18981196D01*
X2157890Y-18981196D02*
X2167414Y-19000244D01*
X2167414Y-19000244D02*
X2167414Y-19047863D01*
X2167414Y-19047863D02*
X2157890Y-19066911D01*
X2157890Y-19066911D02*
X2148367Y-19076434D01*
X2148367Y-19076434D02*
X2129319Y-19085958D01*
X2129319Y-19085958D02*
X2081700Y-19085958D01*
X2081700Y-19085958D02*
X2062652Y-19076434D01*
X2062652Y-19076434D02*
X2053128Y-19066911D01*
X2253129Y-19066911D02*
X2262652Y-19076434D01*
X2262652Y-19076434D02*
X2253129Y-19085958D01*
X2253129Y-19085958D02*
X2243605Y-19076434D01*
X2243605Y-19076434D02*
X2253129Y-19066911D01*
X2253129Y-19066911D02*
X2253129Y-19085958D01*
X2386462Y-18885958D02*
X2405510Y-18885958D01*
X2405510Y-18885958D02*
X2424557Y-18895482D01*
X2424557Y-18895482D02*
X2434081Y-18905006D01*
X2434081Y-18905006D02*
X2443605Y-18924053D01*
X2443605Y-18924053D02*
X2453129Y-18962149D01*
X2453129Y-18962149D02*
X2453129Y-19009768D01*
X2453129Y-19009768D02*
X2443605Y-19047863D01*
X2443605Y-19047863D02*
X2434081Y-19066911D01*
X2434081Y-19066911D02*
X2424557Y-19076434D01*
X2424557Y-19076434D02*
X2405510Y-19085958D01*
X2405510Y-19085958D02*
X2386462Y-19085958D01*
X2386462Y-19085958D02*
X2367414Y-19076434D01*
X2367414Y-19076434D02*
X2357890Y-19066911D01*
X2357890Y-19066911D02*
X2348367Y-19047863D01*
X2348367Y-19047863D02*
X2338843Y-19009768D01*
X2338843Y-19009768D02*
X2338843Y-18962149D01*
X2338843Y-18962149D02*
X2348367Y-18924053D01*
X2348367Y-18924053D02*
X2357890Y-18905006D01*
X2357890Y-18905006D02*
X2367414Y-18895482D01*
X2367414Y-18895482D02*
X2386462Y-18885958D01*
X2576938Y-18885958D02*
X2595986Y-18885958D01*
X2595986Y-18885958D02*
X2615033Y-18895482D01*
X2615033Y-18895482D02*
X2624557Y-18905006D01*
X2624557Y-18905006D02*
X2634081Y-18924053D01*
X2634081Y-18924053D02*
X2643605Y-18962149D01*
X2643605Y-18962149D02*
X2643605Y-19009768D01*
X2643605Y-19009768D02*
X2634081Y-19047863D01*
X2634081Y-19047863D02*
X2624557Y-19066911D01*
X2624557Y-19066911D02*
X2615033Y-19076434D01*
X2615033Y-19076434D02*
X2595986Y-19085958D01*
X2595986Y-19085958D02*
X2576938Y-19085958D01*
X2576938Y-19085958D02*
X2557890Y-19076434D01*
X2557890Y-19076434D02*
X2548367Y-19066911D01*
X2548367Y-19066911D02*
X2538843Y-19047863D01*
X2538843Y-19047863D02*
X2529319Y-19009768D01*
X2529319Y-19009768D02*
X2529319Y-18962149D01*
X2529319Y-18962149D02*
X2538843Y-18924053D01*
X2538843Y-18924053D02*
X2548367Y-18905006D01*
X2548367Y-18905006D02*
X2557890Y-18895482D01*
X2557890Y-18895482D02*
X2576938Y-18885958D01*
X2767414Y-18885958D02*
X2786462Y-18885958D01*
X2786462Y-18885958D02*
X2805509Y-18895482D01*
X2805509Y-18895482D02*
X2815033Y-18905006D01*
X2815033Y-18905006D02*
X2824557Y-18924053D01*
X2824557Y-18924053D02*
X2834081Y-18962149D01*
X2834081Y-18962149D02*
X2834081Y-19009768D01*
X2834081Y-19009768D02*
X2824557Y-19047863D01*
X2824557Y-19047863D02*
X2815033Y-19066911D01*
X2815033Y-19066911D02*
X2805509Y-19076434D01*
X2805509Y-19076434D02*
X2786462Y-19085958D01*
X2786462Y-19085958D02*
X2767414Y-19085958D01*
X2767414Y-19085958D02*
X2748367Y-19076434D01*
X2748367Y-19076434D02*
X2738843Y-19066911D01*
X2738843Y-19066911D02*
X2729319Y-19047863D01*
X2729319Y-19047863D02*
X2719795Y-19009768D01*
X2719795Y-19009768D02*
X2719795Y-18962149D01*
X2719795Y-18962149D02*
X2729319Y-18924053D01*
X2729319Y-18924053D02*
X2738843Y-18905006D01*
X2738843Y-18905006D02*
X2748367Y-18895482D01*
X2748367Y-18895482D02*
X2767414Y-18885958D01*
X2919795Y-19085958D02*
X2919795Y-18952625D01*
X2919795Y-18971672D02*
X2929319Y-18962149D01*
X2929319Y-18962149D02*
X2948367Y-18952625D01*
X2948367Y-18952625D02*
X2976938Y-18952625D01*
X2976938Y-18952625D02*
X2995986Y-18962149D01*
X2995986Y-18962149D02*
X3005509Y-18981196D01*
X3005509Y-18981196D02*
X3005509Y-19085958D01*
X3005509Y-18981196D02*
X3015033Y-18962149D01*
X3015033Y-18962149D02*
X3034081Y-18952625D01*
X3034081Y-18952625D02*
X3062652Y-18952625D01*
X3062652Y-18952625D02*
X3081700Y-18962149D01*
X3081700Y-18962149D02*
X3091224Y-18981196D01*
X3091224Y-18981196D02*
X3091224Y-19085958D01*
X3186462Y-19085958D02*
X3186462Y-18952625D01*
X3186462Y-18971672D02*
X3195986Y-18962149D01*
X3195986Y-18962149D02*
X3215033Y-18952625D01*
X3215033Y-18952625D02*
X3243605Y-18952625D01*
X3243605Y-18952625D02*
X3262652Y-18962149D01*
X3262652Y-18962149D02*
X3272176Y-18981196D01*
X3272176Y-18981196D02*
X3272176Y-19085958D01*
X3272176Y-18981196D02*
X3281700Y-18962149D01*
X3281700Y-18962149D02*
X3300748Y-18952625D01*
X3300748Y-18952625D02*
X3329319Y-18952625D01*
X3329319Y-18952625D02*
X3348367Y-18962149D01*
X3348367Y-18962149D02*
X3357890Y-18981196D01*
X3357890Y-18981196D02*
X3357890Y-19085958D01*
X3748367Y-18876434D02*
X3576938Y-19133577D01*
X4005510Y-18885958D02*
X4024557Y-18885958D01*
X4024557Y-18885958D02*
X4043605Y-18895482D01*
X4043605Y-18895482D02*
X4053129Y-18905006D01*
X4053129Y-18905006D02*
X4062652Y-18924053D01*
X4062652Y-18924053D02*
X4072176Y-18962149D01*
X4072176Y-18962149D02*
X4072176Y-19009768D01*
X4072176Y-19009768D02*
X4062652Y-19047863D01*
X4062652Y-19047863D02*
X4053129Y-19066911D01*
X4053129Y-19066911D02*
X4043605Y-19076434D01*
X4043605Y-19076434D02*
X4024557Y-19085958D01*
X4024557Y-19085958D02*
X4005510Y-19085958D01*
X4005510Y-19085958D02*
X3986462Y-19076434D01*
X3986462Y-19076434D02*
X3976938Y-19066911D01*
X3976938Y-19066911D02*
X3967414Y-19047863D01*
X3967414Y-19047863D02*
X3957891Y-19009768D01*
X3957891Y-19009768D02*
X3957891Y-18962149D01*
X3957891Y-18962149D02*
X3967414Y-18924053D01*
X3967414Y-18924053D02*
X3976938Y-18905006D01*
X3976938Y-18905006D02*
X3986462Y-18895482D01*
X3986462Y-18895482D02*
X4005510Y-18885958D01*
X4157891Y-19066911D02*
X4167414Y-19076434D01*
X4167414Y-19076434D02*
X4157891Y-19085958D01*
X4157891Y-19085958D02*
X4148367Y-19076434D01*
X4148367Y-19076434D02*
X4157891Y-19066911D01*
X4157891Y-19066911D02*
X4157891Y-19085958D01*
X4357891Y-19085958D02*
X4243605Y-19085958D01*
X4300748Y-19085958D02*
X4300748Y-18885958D01*
X4300748Y-18885958D02*
X4281700Y-18914530D01*
X4281700Y-18914530D02*
X4262653Y-18933577D01*
X4262653Y-18933577D02*
X4243605Y-18943101D01*
X4453129Y-19085958D02*
X4491224Y-19085958D01*
X4491224Y-19085958D02*
X4510272Y-19076434D01*
X4510272Y-19076434D02*
X4519795Y-19066911D01*
X4519795Y-19066911D02*
X4538843Y-19038339D01*
X4538843Y-19038339D02*
X4548367Y-19000244D01*
X4548367Y-19000244D02*
X4548367Y-18924053D01*
X4548367Y-18924053D02*
X4538843Y-18905006D01*
X4538843Y-18905006D02*
X4529319Y-18895482D01*
X4529319Y-18895482D02*
X4510272Y-18885958D01*
X4510272Y-18885958D02*
X4472176Y-18885958D01*
X4472176Y-18885958D02*
X4453129Y-18895482D01*
X4453129Y-18895482D02*
X4443605Y-18905006D01*
X4443605Y-18905006D02*
X4434081Y-18924053D01*
X4434081Y-18924053D02*
X4434081Y-18971672D01*
X4434081Y-18971672D02*
X4443605Y-18990720D01*
X4443605Y-18990720D02*
X4453129Y-19000244D01*
X4453129Y-19000244D02*
X4472176Y-19009768D01*
X4472176Y-19009768D02*
X4510272Y-19009768D01*
X4510272Y-19009768D02*
X4529319Y-19000244D01*
X4529319Y-19000244D02*
X4538843Y-18990720D01*
X4538843Y-18990720D02*
X4548367Y-18971672D01*
X4719795Y-18885958D02*
X4681700Y-18885958D01*
X4681700Y-18885958D02*
X4662653Y-18895482D01*
X4662653Y-18895482D02*
X4653129Y-18905006D01*
X4653129Y-18905006D02*
X4634081Y-18933577D01*
X4634081Y-18933577D02*
X4624557Y-18971672D01*
X4624557Y-18971672D02*
X4624557Y-19047863D01*
X4624557Y-19047863D02*
X4634081Y-19066911D01*
X4634081Y-19066911D02*
X4643605Y-19076434D01*
X4643605Y-19076434D02*
X4662653Y-19085958D01*
X4662653Y-19085958D02*
X4700748Y-19085958D01*
X4700748Y-19085958D02*
X4719795Y-19076434D01*
X4719795Y-19076434D02*
X4729319Y-19066911D01*
X4729319Y-19066911D02*
X4738843Y-19047863D01*
X4738843Y-19047863D02*
X4738843Y-19000244D01*
X4738843Y-19000244D02*
X4729319Y-18981196D01*
X4729319Y-18981196D02*
X4719795Y-18971672D01*
X4719795Y-18971672D02*
X4700748Y-18962149D01*
X4700748Y-18962149D02*
X4662653Y-18962149D01*
X4662653Y-18962149D02*
X4643605Y-18971672D01*
X4643605Y-18971672D02*
X4634081Y-18981196D01*
X4634081Y-18981196D02*
X4624557Y-19000244D01*
X4834081Y-19085958D02*
X4872176Y-19085958D01*
X4872176Y-19085958D02*
X4891224Y-19076434D01*
X4891224Y-19076434D02*
X4900748Y-19066911D01*
X4900748Y-19066911D02*
X4919795Y-19038339D01*
X4919795Y-19038339D02*
X4929319Y-19000244D01*
X4929319Y-19000244D02*
X4929319Y-18924053D01*
X4929319Y-18924053D02*
X4919795Y-18905006D01*
X4919795Y-18905006D02*
X4910272Y-18895482D01*
X4910272Y-18895482D02*
X4891224Y-18885958D01*
X4891224Y-18885958D02*
X4853129Y-18885958D01*
X4853129Y-18885958D02*
X4834081Y-18895482D01*
X4834081Y-18895482D02*
X4824557Y-18905006D01*
X4824557Y-18905006D02*
X4815034Y-18924053D01*
X4815034Y-18924053D02*
X4815034Y-18971672D01*
X4815034Y-18971672D02*
X4824557Y-18990720D01*
X4824557Y-18990720D02*
X4834081Y-19000244D01*
X4834081Y-19000244D02*
X4853129Y-19009768D01*
X4853129Y-19009768D02*
X4891224Y-19009768D01*
X4891224Y-19009768D02*
X4910272Y-19000244D01*
X4910272Y-19000244D02*
X4919795Y-18990720D01*
X4919795Y-18990720D02*
X4929319Y-18971672D01*
X5005510Y-18885958D02*
X5005510Y-18924053D01*
X5081700Y-18885958D02*
X5081700Y-18924053D01*
X5376938Y-19162149D02*
X5367415Y-19152625D01*
X5367415Y-19152625D02*
X5348367Y-19124053D01*
X5348367Y-19124053D02*
X5338843Y-19105006D01*
X5338843Y-19105006D02*
X5329319Y-19076434D01*
X5329319Y-19076434D02*
X5319796Y-19028815D01*
X5319796Y-19028815D02*
X5319796Y-18990720D01*
X5319796Y-18990720D02*
X5329319Y-18943101D01*
X5329319Y-18943101D02*
X5338843Y-18914530D01*
X5338843Y-18914530D02*
X5348367Y-18895482D01*
X5348367Y-18895482D02*
X5367415Y-18866911D01*
X5367415Y-18866911D02*
X5376938Y-18857387D01*
X5443605Y-18905006D02*
X5453129Y-18895482D01*
X5453129Y-18895482D02*
X5472176Y-18885958D01*
X5472176Y-18885958D02*
X5519796Y-18885958D01*
X5519796Y-18885958D02*
X5538843Y-18895482D01*
X5538843Y-18895482D02*
X5548367Y-18905006D01*
X5548367Y-18905006D02*
X5557891Y-18924053D01*
X5557891Y-18924053D02*
X5557891Y-18943101D01*
X5557891Y-18943101D02*
X5548367Y-18971672D01*
X5548367Y-18971672D02*
X5434081Y-19085958D01*
X5434081Y-19085958D02*
X5557891Y-19085958D01*
X5795986Y-19085958D02*
X5795986Y-18885958D01*
X5881700Y-19085958D02*
X5881700Y-18981196D01*
X5881700Y-18981196D02*
X5872176Y-18962149D01*
X5872176Y-18962149D02*
X5853129Y-18952625D01*
X5853129Y-18952625D02*
X5824557Y-18952625D01*
X5824557Y-18952625D02*
X5805510Y-18962149D01*
X5805510Y-18962149D02*
X5795986Y-18971672D01*
X6005510Y-19085958D02*
X5986462Y-19076434D01*
X5986462Y-19076434D02*
X5976938Y-19066911D01*
X5976938Y-19066911D02*
X5967415Y-19047863D01*
X5967415Y-19047863D02*
X5967415Y-18990720D01*
X5967415Y-18990720D02*
X5976938Y-18971672D01*
X5976938Y-18971672D02*
X5986462Y-18962149D01*
X5986462Y-18962149D02*
X6005510Y-18952625D01*
X6005510Y-18952625D02*
X6034081Y-18952625D01*
X6034081Y-18952625D02*
X6053129Y-18962149D01*
X6053129Y-18962149D02*
X6062653Y-18971672D01*
X6062653Y-18971672D02*
X6072176Y-18990720D01*
X6072176Y-18990720D02*
X6072176Y-19047863D01*
X6072176Y-19047863D02*
X6062653Y-19066911D01*
X6062653Y-19066911D02*
X6053129Y-19076434D01*
X6053129Y-19076434D02*
X6034081Y-19085958D01*
X6034081Y-19085958D02*
X6005510Y-19085958D01*
X6186462Y-19085958D02*
X6167415Y-19076434D01*
X6167415Y-19076434D02*
X6157891Y-19057387D01*
X6157891Y-19057387D02*
X6157891Y-18885958D01*
X6338843Y-19076434D02*
X6319796Y-19085958D01*
X6319796Y-19085958D02*
X6281700Y-19085958D01*
X6281700Y-19085958D02*
X6262653Y-19076434D01*
X6262653Y-19076434D02*
X6253129Y-19057387D01*
X6253129Y-19057387D02*
X6253129Y-18981196D01*
X6253129Y-18981196D02*
X6262653Y-18962149D01*
X6262653Y-18962149D02*
X6281700Y-18952625D01*
X6281700Y-18952625D02*
X6319796Y-18952625D01*
X6319796Y-18952625D02*
X6338843Y-18962149D01*
X6338843Y-18962149D02*
X6348367Y-18981196D01*
X6348367Y-18981196D02*
X6348367Y-19000244D01*
X6348367Y-19000244D02*
X6253129Y-19019292D01*
X6424557Y-19076434D02*
X6443605Y-19085958D01*
X6443605Y-19085958D02*
X6481700Y-19085958D01*
X6481700Y-19085958D02*
X6500748Y-19076434D01*
X6500748Y-19076434D02*
X6510272Y-19057387D01*
X6510272Y-19057387D02*
X6510272Y-19047863D01*
X6510272Y-19047863D02*
X6500748Y-19028815D01*
X6500748Y-19028815D02*
X6481700Y-19019292D01*
X6481700Y-19019292D02*
X6453129Y-19019292D01*
X6453129Y-19019292D02*
X6434081Y-19009768D01*
X6434081Y-19009768D02*
X6424557Y-18990720D01*
X6424557Y-18990720D02*
X6424557Y-18981196D01*
X6424557Y-18981196D02*
X6434081Y-18962149D01*
X6434081Y-18962149D02*
X6453129Y-18952625D01*
X6453129Y-18952625D02*
X6481700Y-18952625D01*
X6481700Y-18952625D02*
X6500748Y-18962149D01*
X6576938Y-19162149D02*
X6586462Y-19152625D01*
X6586462Y-19152625D02*
X6605510Y-19124053D01*
X6605510Y-19124053D02*
X6615034Y-19105006D01*
X6615034Y-19105006D02*
X6624557Y-19076434D01*
X6624557Y-19076434D02*
X6634081Y-19028815D01*
X6634081Y-19028815D02*
X6634081Y-18990720D01*
X6634081Y-18990720D02*
X6624557Y-18943101D01*
X6624557Y-18943101D02*
X6615034Y-18914530D01*
X6615034Y-18914530D02*
X6605510Y-18895482D01*
X6605510Y-18895482D02*
X6586462Y-18866911D01*
X6586462Y-18866911D02*
X6576938Y-18857387D01*
X6938843Y-19162149D02*
X6929319Y-19152625D01*
X6929319Y-19152625D02*
X6910272Y-19124053D01*
X6910272Y-19124053D02*
X6900748Y-19105006D01*
X6900748Y-19105006D02*
X6891224Y-19076434D01*
X6891224Y-19076434D02*
X6881700Y-19028815D01*
X6881700Y-19028815D02*
X6881700Y-18990720D01*
X6881700Y-18990720D02*
X6891224Y-18943101D01*
X6891224Y-18943101D02*
X6900748Y-18914530D01*
X6900748Y-18914530D02*
X6910272Y-18895482D01*
X6910272Y-18895482D02*
X6929319Y-18866911D01*
X6929319Y-18866911D02*
X6938843Y-18857387D01*
X7015034Y-18952625D02*
X7015034Y-19085958D01*
X7015034Y-18971672D02*
X7024557Y-18962149D01*
X7024557Y-18962149D02*
X7043605Y-18952625D01*
X7043605Y-18952625D02*
X7072177Y-18952625D01*
X7072177Y-18952625D02*
X7091224Y-18962149D01*
X7091224Y-18962149D02*
X7100748Y-18981196D01*
X7100748Y-18981196D02*
X7100748Y-19085958D01*
X7224557Y-19085958D02*
X7205510Y-19076434D01*
X7205510Y-19076434D02*
X7195986Y-19066911D01*
X7195986Y-19066911D02*
X7186462Y-19047863D01*
X7186462Y-19047863D02*
X7186462Y-18990720D01*
X7186462Y-18990720D02*
X7195986Y-18971672D01*
X7195986Y-18971672D02*
X7205510Y-18962149D01*
X7205510Y-18962149D02*
X7224557Y-18952625D01*
X7224557Y-18952625D02*
X7253129Y-18952625D01*
X7253129Y-18952625D02*
X7272177Y-18962149D01*
X7272177Y-18962149D02*
X7281700Y-18971672D01*
X7281700Y-18971672D02*
X7291224Y-18990720D01*
X7291224Y-18990720D02*
X7291224Y-19047863D01*
X7291224Y-19047863D02*
X7281700Y-19066911D01*
X7281700Y-19066911D02*
X7272177Y-19076434D01*
X7272177Y-19076434D02*
X7253129Y-19085958D01*
X7253129Y-19085958D02*
X7224557Y-19085958D01*
X7348367Y-18952625D02*
X7424557Y-18952625D01*
X7376938Y-18885958D02*
X7376938Y-19057387D01*
X7376938Y-19057387D02*
X7386462Y-19076434D01*
X7386462Y-19076434D02*
X7405510Y-19085958D01*
X7405510Y-19085958D02*
X7424557Y-19085958D01*
X7643605Y-18952625D02*
X7643605Y-19152625D01*
X7643605Y-18962149D02*
X7662653Y-18952625D01*
X7662653Y-18952625D02*
X7700748Y-18952625D01*
X7700748Y-18952625D02*
X7719796Y-18962149D01*
X7719796Y-18962149D02*
X7729319Y-18971672D01*
X7729319Y-18971672D02*
X7738843Y-18990720D01*
X7738843Y-18990720D02*
X7738843Y-19047863D01*
X7738843Y-19047863D02*
X7729319Y-19066911D01*
X7729319Y-19066911D02*
X7719796Y-19076434D01*
X7719796Y-19076434D02*
X7700748Y-19085958D01*
X7700748Y-19085958D02*
X7662653Y-19085958D01*
X7662653Y-19085958D02*
X7643605Y-19076434D01*
X7853129Y-19085958D02*
X7834081Y-19076434D01*
X7834081Y-19076434D02*
X7824558Y-19057387D01*
X7824558Y-19057387D02*
X7824558Y-18885958D01*
X8015034Y-19085958D02*
X8015034Y-18981196D01*
X8015034Y-18981196D02*
X8005510Y-18962149D01*
X8005510Y-18962149D02*
X7986462Y-18952625D01*
X7986462Y-18952625D02*
X7948367Y-18952625D01*
X7948367Y-18952625D02*
X7929319Y-18962149D01*
X8015034Y-19076434D02*
X7995986Y-19085958D01*
X7995986Y-19085958D02*
X7948367Y-19085958D01*
X7948367Y-19085958D02*
X7929319Y-19076434D01*
X7929319Y-19076434D02*
X7919796Y-19057387D01*
X7919796Y-19057387D02*
X7919796Y-19038339D01*
X7919796Y-19038339D02*
X7929319Y-19019292D01*
X7929319Y-19019292D02*
X7948367Y-19009768D01*
X7948367Y-19009768D02*
X7995986Y-19009768D01*
X7995986Y-19009768D02*
X8015034Y-19000244D01*
X8081700Y-18952625D02*
X8157891Y-18952625D01*
X8110272Y-18885958D02*
X8110272Y-19057387D01*
X8110272Y-19057387D02*
X8119796Y-19076434D01*
X8119796Y-19076434D02*
X8138843Y-19085958D01*
X8138843Y-19085958D02*
X8157891Y-19085958D01*
X8300748Y-19076434D02*
X8281700Y-19085958D01*
X8281700Y-19085958D02*
X8243605Y-19085958D01*
X8243605Y-19085958D02*
X8224558Y-19076434D01*
X8224558Y-19076434D02*
X8215034Y-19057387D01*
X8215034Y-19057387D02*
X8215034Y-18981196D01*
X8215034Y-18981196D02*
X8224558Y-18962149D01*
X8224558Y-18962149D02*
X8243605Y-18952625D01*
X8243605Y-18952625D02*
X8281700Y-18952625D01*
X8281700Y-18952625D02*
X8300748Y-18962149D01*
X8300748Y-18962149D02*
X8310272Y-18981196D01*
X8310272Y-18981196D02*
X8310272Y-19000244D01*
X8310272Y-19000244D02*
X8215034Y-19019292D01*
X8481701Y-19085958D02*
X8481701Y-18885958D01*
X8481701Y-19076434D02*
X8462653Y-19085958D01*
X8462653Y-19085958D02*
X8424558Y-19085958D01*
X8424558Y-19085958D02*
X8405510Y-19076434D01*
X8405510Y-19076434D02*
X8395986Y-19066911D01*
X8395986Y-19066911D02*
X8386462Y-19047863D01*
X8386462Y-19047863D02*
X8386462Y-18990720D01*
X8386462Y-18990720D02*
X8395986Y-18971672D01*
X8395986Y-18971672D02*
X8405510Y-18962149D01*
X8405510Y-18962149D02*
X8424558Y-18952625D01*
X8424558Y-18952625D02*
X8462653Y-18952625D01*
X8462653Y-18952625D02*
X8481701Y-18962149D01*
X8557891Y-19162149D02*
X8567415Y-19152625D01*
X8567415Y-19152625D02*
X8586462Y-19124053D01*
X8586462Y-19124053D02*
X8595986Y-19105006D01*
X8595986Y-19105006D02*
X8605510Y-19076434D01*
X8605510Y-19076434D02*
X8615034Y-19028815D01*
X8615034Y-19028815D02*
X8615034Y-18990720D01*
X8615034Y-18990720D02*
X8605510Y-18943101D01*
X8605510Y-18943101D02*
X8595986Y-18914530D01*
X8595986Y-18914530D02*
X8586462Y-18895482D01*
X8586462Y-18895482D02*
X8567415Y-18866911D01*
X8567415Y-18866911D02*
X8557891Y-18857387D01*
X1601875Y-19214474D02*
X1801875Y-19414474D01*
X1801875Y-19214474D02*
X1601875Y-19414474D01*
X1801875Y-19314474D02*
G75*
G02*
X1601875Y-19314474I-100000J0D01*
G01*
X1601875Y-19314474D02*
G75*
G02*
X1801875Y-19314474I100000J0D01*
G01*
X2148367Y-19205958D02*
X2110271Y-19205958D01*
X2110271Y-19205958D02*
X2091224Y-19215482D01*
X2091224Y-19215482D02*
X2081700Y-19225006D01*
X2081700Y-19225006D02*
X2062652Y-19253577D01*
X2062652Y-19253577D02*
X2053128Y-19291672D01*
X2053128Y-19291672D02*
X2053128Y-19367863D01*
X2053128Y-19367863D02*
X2062652Y-19386911D01*
X2062652Y-19386911D02*
X2072176Y-19396434D01*
X2072176Y-19396434D02*
X2091224Y-19405958D01*
X2091224Y-19405958D02*
X2129319Y-19405958D01*
X2129319Y-19405958D02*
X2148367Y-19396434D01*
X2148367Y-19396434D02*
X2157890Y-19386911D01*
X2157890Y-19386911D02*
X2167414Y-19367863D01*
X2167414Y-19367863D02*
X2167414Y-19320244D01*
X2167414Y-19320244D02*
X2157890Y-19301196D01*
X2157890Y-19301196D02*
X2148367Y-19291672D01*
X2148367Y-19291672D02*
X2129319Y-19282149D01*
X2129319Y-19282149D02*
X2091224Y-19282149D01*
X2091224Y-19282149D02*
X2072176Y-19291672D01*
X2072176Y-19291672D02*
X2062652Y-19301196D01*
X2062652Y-19301196D02*
X2053128Y-19320244D01*
X2253129Y-19386911D02*
X2262652Y-19396434D01*
X2262652Y-19396434D02*
X2253129Y-19405958D01*
X2253129Y-19405958D02*
X2243605Y-19396434D01*
X2243605Y-19396434D02*
X2253129Y-19386911D01*
X2253129Y-19386911D02*
X2253129Y-19405958D01*
X2386462Y-19205958D02*
X2405510Y-19205958D01*
X2405510Y-19205958D02*
X2424557Y-19215482D01*
X2424557Y-19215482D02*
X2434081Y-19225006D01*
X2434081Y-19225006D02*
X2443605Y-19244053D01*
X2443605Y-19244053D02*
X2453129Y-19282149D01*
X2453129Y-19282149D02*
X2453129Y-19329768D01*
X2453129Y-19329768D02*
X2443605Y-19367863D01*
X2443605Y-19367863D02*
X2434081Y-19386911D01*
X2434081Y-19386911D02*
X2424557Y-19396434D01*
X2424557Y-19396434D02*
X2405510Y-19405958D01*
X2405510Y-19405958D02*
X2386462Y-19405958D01*
X2386462Y-19405958D02*
X2367414Y-19396434D01*
X2367414Y-19396434D02*
X2357890Y-19386911D01*
X2357890Y-19386911D02*
X2348367Y-19367863D01*
X2348367Y-19367863D02*
X2338843Y-19329768D01*
X2338843Y-19329768D02*
X2338843Y-19282149D01*
X2338843Y-19282149D02*
X2348367Y-19244053D01*
X2348367Y-19244053D02*
X2357890Y-19225006D01*
X2357890Y-19225006D02*
X2367414Y-19215482D01*
X2367414Y-19215482D02*
X2386462Y-19205958D01*
X2576938Y-19205958D02*
X2595986Y-19205958D01*
X2595986Y-19205958D02*
X2615033Y-19215482D01*
X2615033Y-19215482D02*
X2624557Y-19225006D01*
X2624557Y-19225006D02*
X2634081Y-19244053D01*
X2634081Y-19244053D02*
X2643605Y-19282149D01*
X2643605Y-19282149D02*
X2643605Y-19329768D01*
X2643605Y-19329768D02*
X2634081Y-19367863D01*
X2634081Y-19367863D02*
X2624557Y-19386911D01*
X2624557Y-19386911D02*
X2615033Y-19396434D01*
X2615033Y-19396434D02*
X2595986Y-19405958D01*
X2595986Y-19405958D02*
X2576938Y-19405958D01*
X2576938Y-19405958D02*
X2557890Y-19396434D01*
X2557890Y-19396434D02*
X2548367Y-19386911D01*
X2548367Y-19386911D02*
X2538843Y-19367863D01*
X2538843Y-19367863D02*
X2529319Y-19329768D01*
X2529319Y-19329768D02*
X2529319Y-19282149D01*
X2529319Y-19282149D02*
X2538843Y-19244053D01*
X2538843Y-19244053D02*
X2548367Y-19225006D01*
X2548367Y-19225006D02*
X2557890Y-19215482D01*
X2557890Y-19215482D02*
X2576938Y-19205958D01*
X2767414Y-19205958D02*
X2786462Y-19205958D01*
X2786462Y-19205958D02*
X2805509Y-19215482D01*
X2805509Y-19215482D02*
X2815033Y-19225006D01*
X2815033Y-19225006D02*
X2824557Y-19244053D01*
X2824557Y-19244053D02*
X2834081Y-19282149D01*
X2834081Y-19282149D02*
X2834081Y-19329768D01*
X2834081Y-19329768D02*
X2824557Y-19367863D01*
X2824557Y-19367863D02*
X2815033Y-19386911D01*
X2815033Y-19386911D02*
X2805509Y-19396434D01*
X2805509Y-19396434D02*
X2786462Y-19405958D01*
X2786462Y-19405958D02*
X2767414Y-19405958D01*
X2767414Y-19405958D02*
X2748367Y-19396434D01*
X2748367Y-19396434D02*
X2738843Y-19386911D01*
X2738843Y-19386911D02*
X2729319Y-19367863D01*
X2729319Y-19367863D02*
X2719795Y-19329768D01*
X2719795Y-19329768D02*
X2719795Y-19282149D01*
X2719795Y-19282149D02*
X2729319Y-19244053D01*
X2729319Y-19244053D02*
X2738843Y-19225006D01*
X2738843Y-19225006D02*
X2748367Y-19215482D01*
X2748367Y-19215482D02*
X2767414Y-19205958D01*
X2919795Y-19405958D02*
X2919795Y-19272625D01*
X2919795Y-19291672D02*
X2929319Y-19282149D01*
X2929319Y-19282149D02*
X2948367Y-19272625D01*
X2948367Y-19272625D02*
X2976938Y-19272625D01*
X2976938Y-19272625D02*
X2995986Y-19282149D01*
X2995986Y-19282149D02*
X3005509Y-19301196D01*
X3005509Y-19301196D02*
X3005509Y-19405958D01*
X3005509Y-19301196D02*
X3015033Y-19282149D01*
X3015033Y-19282149D02*
X3034081Y-19272625D01*
X3034081Y-19272625D02*
X3062652Y-19272625D01*
X3062652Y-19272625D02*
X3081700Y-19282149D01*
X3081700Y-19282149D02*
X3091224Y-19301196D01*
X3091224Y-19301196D02*
X3091224Y-19405958D01*
X3186462Y-19405958D02*
X3186462Y-19272625D01*
X3186462Y-19291672D02*
X3195986Y-19282149D01*
X3195986Y-19282149D02*
X3215033Y-19272625D01*
X3215033Y-19272625D02*
X3243605Y-19272625D01*
X3243605Y-19272625D02*
X3262652Y-19282149D01*
X3262652Y-19282149D02*
X3272176Y-19301196D01*
X3272176Y-19301196D02*
X3272176Y-19405958D01*
X3272176Y-19301196D02*
X3281700Y-19282149D01*
X3281700Y-19282149D02*
X3300748Y-19272625D01*
X3300748Y-19272625D02*
X3329319Y-19272625D01*
X3329319Y-19272625D02*
X3348367Y-19282149D01*
X3348367Y-19282149D02*
X3357890Y-19301196D01*
X3357890Y-19301196D02*
X3357890Y-19405958D01*
X3748367Y-19196434D02*
X3576938Y-19453577D01*
X4005510Y-19205958D02*
X4024557Y-19205958D01*
X4024557Y-19205958D02*
X4043605Y-19215482D01*
X4043605Y-19215482D02*
X4053129Y-19225006D01*
X4053129Y-19225006D02*
X4062652Y-19244053D01*
X4062652Y-19244053D02*
X4072176Y-19282149D01*
X4072176Y-19282149D02*
X4072176Y-19329768D01*
X4072176Y-19329768D02*
X4062652Y-19367863D01*
X4062652Y-19367863D02*
X4053129Y-19386911D01*
X4053129Y-19386911D02*
X4043605Y-19396434D01*
X4043605Y-19396434D02*
X4024557Y-19405958D01*
X4024557Y-19405958D02*
X4005510Y-19405958D01*
X4005510Y-19405958D02*
X3986462Y-19396434D01*
X3986462Y-19396434D02*
X3976938Y-19386911D01*
X3976938Y-19386911D02*
X3967414Y-19367863D01*
X3967414Y-19367863D02*
X3957891Y-19329768D01*
X3957891Y-19329768D02*
X3957891Y-19282149D01*
X3957891Y-19282149D02*
X3967414Y-19244053D01*
X3967414Y-19244053D02*
X3976938Y-19225006D01*
X3976938Y-19225006D02*
X3986462Y-19215482D01*
X3986462Y-19215482D02*
X4005510Y-19205958D01*
X4157891Y-19386911D02*
X4167414Y-19396434D01*
X4167414Y-19396434D02*
X4157891Y-19405958D01*
X4157891Y-19405958D02*
X4148367Y-19396434D01*
X4148367Y-19396434D02*
X4157891Y-19386911D01*
X4157891Y-19386911D02*
X4157891Y-19405958D01*
X4243605Y-19225006D02*
X4253129Y-19215482D01*
X4253129Y-19215482D02*
X4272176Y-19205958D01*
X4272176Y-19205958D02*
X4319795Y-19205958D01*
X4319795Y-19205958D02*
X4338843Y-19215482D01*
X4338843Y-19215482D02*
X4348367Y-19225006D01*
X4348367Y-19225006D02*
X4357891Y-19244053D01*
X4357891Y-19244053D02*
X4357891Y-19263101D01*
X4357891Y-19263101D02*
X4348367Y-19291672D01*
X4348367Y-19291672D02*
X4234081Y-19405958D01*
X4234081Y-19405958D02*
X4357891Y-19405958D01*
X4424557Y-19205958D02*
X4548367Y-19205958D01*
X4548367Y-19205958D02*
X4481700Y-19282149D01*
X4481700Y-19282149D02*
X4510272Y-19282149D01*
X4510272Y-19282149D02*
X4529319Y-19291672D01*
X4529319Y-19291672D02*
X4538843Y-19301196D01*
X4538843Y-19301196D02*
X4548367Y-19320244D01*
X4548367Y-19320244D02*
X4548367Y-19367863D01*
X4548367Y-19367863D02*
X4538843Y-19386911D01*
X4538843Y-19386911D02*
X4529319Y-19396434D01*
X4529319Y-19396434D02*
X4510272Y-19405958D01*
X4510272Y-19405958D02*
X4453129Y-19405958D01*
X4453129Y-19405958D02*
X4434081Y-19396434D01*
X4434081Y-19396434D02*
X4424557Y-19386911D01*
X4719795Y-19205958D02*
X4681700Y-19205958D01*
X4681700Y-19205958D02*
X4662653Y-19215482D01*
X4662653Y-19215482D02*
X4653129Y-19225006D01*
X4653129Y-19225006D02*
X4634081Y-19253577D01*
X4634081Y-19253577D02*
X4624557Y-19291672D01*
X4624557Y-19291672D02*
X4624557Y-19367863D01*
X4624557Y-19367863D02*
X4634081Y-19386911D01*
X4634081Y-19386911D02*
X4643605Y-19396434D01*
X4643605Y-19396434D02*
X4662653Y-19405958D01*
X4662653Y-19405958D02*
X4700748Y-19405958D01*
X4700748Y-19405958D02*
X4719795Y-19396434D01*
X4719795Y-19396434D02*
X4729319Y-19386911D01*
X4729319Y-19386911D02*
X4738843Y-19367863D01*
X4738843Y-19367863D02*
X4738843Y-19320244D01*
X4738843Y-19320244D02*
X4729319Y-19301196D01*
X4729319Y-19301196D02*
X4719795Y-19291672D01*
X4719795Y-19291672D02*
X4700748Y-19282149D01*
X4700748Y-19282149D02*
X4662653Y-19282149D01*
X4662653Y-19282149D02*
X4643605Y-19291672D01*
X4643605Y-19291672D02*
X4634081Y-19301196D01*
X4634081Y-19301196D02*
X4624557Y-19320244D01*
X4815034Y-19225006D02*
X4824557Y-19215482D01*
X4824557Y-19215482D02*
X4843605Y-19205958D01*
X4843605Y-19205958D02*
X4891224Y-19205958D01*
X4891224Y-19205958D02*
X4910272Y-19215482D01*
X4910272Y-19215482D02*
X4919795Y-19225006D01*
X4919795Y-19225006D02*
X4929319Y-19244053D01*
X4929319Y-19244053D02*
X4929319Y-19263101D01*
X4929319Y-19263101D02*
X4919795Y-19291672D01*
X4919795Y-19291672D02*
X4805510Y-19405958D01*
X4805510Y-19405958D02*
X4929319Y-19405958D01*
X5005510Y-19205958D02*
X5005510Y-19244053D01*
X5081700Y-19205958D02*
X5081700Y-19244053D01*
X5376938Y-19482149D02*
X5367415Y-19472625D01*
X5367415Y-19472625D02*
X5348367Y-19444053D01*
X5348367Y-19444053D02*
X5338843Y-19425006D01*
X5338843Y-19425006D02*
X5329319Y-19396434D01*
X5329319Y-19396434D02*
X5319796Y-19348815D01*
X5319796Y-19348815D02*
X5319796Y-19310720D01*
X5319796Y-19310720D02*
X5329319Y-19263101D01*
X5329319Y-19263101D02*
X5338843Y-19234530D01*
X5338843Y-19234530D02*
X5348367Y-19215482D01*
X5348367Y-19215482D02*
X5367415Y-19186911D01*
X5367415Y-19186911D02*
X5376938Y-19177387D01*
X5443605Y-19225006D02*
X5453129Y-19215482D01*
X5453129Y-19215482D02*
X5472176Y-19205958D01*
X5472176Y-19205958D02*
X5519796Y-19205958D01*
X5519796Y-19205958D02*
X5538843Y-19215482D01*
X5538843Y-19215482D02*
X5548367Y-19225006D01*
X5548367Y-19225006D02*
X5557891Y-19244053D01*
X5557891Y-19244053D02*
X5557891Y-19263101D01*
X5557891Y-19263101D02*
X5548367Y-19291672D01*
X5548367Y-19291672D02*
X5434081Y-19405958D01*
X5434081Y-19405958D02*
X5557891Y-19405958D01*
X5795986Y-19405958D02*
X5795986Y-19205958D01*
X5881700Y-19405958D02*
X5881700Y-19301196D01*
X5881700Y-19301196D02*
X5872176Y-19282149D01*
X5872176Y-19282149D02*
X5853129Y-19272625D01*
X5853129Y-19272625D02*
X5824557Y-19272625D01*
X5824557Y-19272625D02*
X5805510Y-19282149D01*
X5805510Y-19282149D02*
X5795986Y-19291672D01*
X6005510Y-19405958D02*
X5986462Y-19396434D01*
X5986462Y-19396434D02*
X5976938Y-19386911D01*
X5976938Y-19386911D02*
X5967415Y-19367863D01*
X5967415Y-19367863D02*
X5967415Y-19310720D01*
X5967415Y-19310720D02*
X5976938Y-19291672D01*
X5976938Y-19291672D02*
X5986462Y-19282149D01*
X5986462Y-19282149D02*
X6005510Y-19272625D01*
X6005510Y-19272625D02*
X6034081Y-19272625D01*
X6034081Y-19272625D02*
X6053129Y-19282149D01*
X6053129Y-19282149D02*
X6062653Y-19291672D01*
X6062653Y-19291672D02*
X6072176Y-19310720D01*
X6072176Y-19310720D02*
X6072176Y-19367863D01*
X6072176Y-19367863D02*
X6062653Y-19386911D01*
X6062653Y-19386911D02*
X6053129Y-19396434D01*
X6053129Y-19396434D02*
X6034081Y-19405958D01*
X6034081Y-19405958D02*
X6005510Y-19405958D01*
X6186462Y-19405958D02*
X6167415Y-19396434D01*
X6167415Y-19396434D02*
X6157891Y-19377387D01*
X6157891Y-19377387D02*
X6157891Y-19205958D01*
X6338843Y-19396434D02*
X6319796Y-19405958D01*
X6319796Y-19405958D02*
X6281700Y-19405958D01*
X6281700Y-19405958D02*
X6262653Y-19396434D01*
X6262653Y-19396434D02*
X6253129Y-19377387D01*
X6253129Y-19377387D02*
X6253129Y-19301196D01*
X6253129Y-19301196D02*
X6262653Y-19282149D01*
X6262653Y-19282149D02*
X6281700Y-19272625D01*
X6281700Y-19272625D02*
X6319796Y-19272625D01*
X6319796Y-19272625D02*
X6338843Y-19282149D01*
X6338843Y-19282149D02*
X6348367Y-19301196D01*
X6348367Y-19301196D02*
X6348367Y-19320244D01*
X6348367Y-19320244D02*
X6253129Y-19339292D01*
X6424557Y-19396434D02*
X6443605Y-19405958D01*
X6443605Y-19405958D02*
X6481700Y-19405958D01*
X6481700Y-19405958D02*
X6500748Y-19396434D01*
X6500748Y-19396434D02*
X6510272Y-19377387D01*
X6510272Y-19377387D02*
X6510272Y-19367863D01*
X6510272Y-19367863D02*
X6500748Y-19348815D01*
X6500748Y-19348815D02*
X6481700Y-19339292D01*
X6481700Y-19339292D02*
X6453129Y-19339292D01*
X6453129Y-19339292D02*
X6434081Y-19329768D01*
X6434081Y-19329768D02*
X6424557Y-19310720D01*
X6424557Y-19310720D02*
X6424557Y-19301196D01*
X6424557Y-19301196D02*
X6434081Y-19282149D01*
X6434081Y-19282149D02*
X6453129Y-19272625D01*
X6453129Y-19272625D02*
X6481700Y-19272625D01*
X6481700Y-19272625D02*
X6500748Y-19282149D01*
X6576938Y-19482149D02*
X6586462Y-19472625D01*
X6586462Y-19472625D02*
X6605510Y-19444053D01*
X6605510Y-19444053D02*
X6615034Y-19425006D01*
X6615034Y-19425006D02*
X6624557Y-19396434D01*
X6624557Y-19396434D02*
X6634081Y-19348815D01*
X6634081Y-19348815D02*
X6634081Y-19310720D01*
X6634081Y-19310720D02*
X6624557Y-19263101D01*
X6624557Y-19263101D02*
X6615034Y-19234530D01*
X6615034Y-19234530D02*
X6605510Y-19215482D01*
X6605510Y-19215482D02*
X6586462Y-19186911D01*
X6586462Y-19186911D02*
X6576938Y-19177387D01*
X6938843Y-19482149D02*
X6929319Y-19472625D01*
X6929319Y-19472625D02*
X6910272Y-19444053D01*
X6910272Y-19444053D02*
X6900748Y-19425006D01*
X6900748Y-19425006D02*
X6891224Y-19396434D01*
X6891224Y-19396434D02*
X6881700Y-19348815D01*
X6881700Y-19348815D02*
X6881700Y-19310720D01*
X6881700Y-19310720D02*
X6891224Y-19263101D01*
X6891224Y-19263101D02*
X6900748Y-19234530D01*
X6900748Y-19234530D02*
X6910272Y-19215482D01*
X6910272Y-19215482D02*
X6929319Y-19186911D01*
X6929319Y-19186911D02*
X6938843Y-19177387D01*
X7015034Y-19272625D02*
X7015034Y-19405958D01*
X7015034Y-19291672D02*
X7024557Y-19282149D01*
X7024557Y-19282149D02*
X7043605Y-19272625D01*
X7043605Y-19272625D02*
X7072177Y-19272625D01*
X7072177Y-19272625D02*
X7091224Y-19282149D01*
X7091224Y-19282149D02*
X7100748Y-19301196D01*
X7100748Y-19301196D02*
X7100748Y-19405958D01*
X7224557Y-19405958D02*
X7205510Y-19396434D01*
X7205510Y-19396434D02*
X7195986Y-19386911D01*
X7195986Y-19386911D02*
X7186462Y-19367863D01*
X7186462Y-19367863D02*
X7186462Y-19310720D01*
X7186462Y-19310720D02*
X7195986Y-19291672D01*
X7195986Y-19291672D02*
X7205510Y-19282149D01*
X7205510Y-19282149D02*
X7224557Y-19272625D01*
X7224557Y-19272625D02*
X7253129Y-19272625D01*
X7253129Y-19272625D02*
X7272177Y-19282149D01*
X7272177Y-19282149D02*
X7281700Y-19291672D01*
X7281700Y-19291672D02*
X7291224Y-19310720D01*
X7291224Y-19310720D02*
X7291224Y-19367863D01*
X7291224Y-19367863D02*
X7281700Y-19386911D01*
X7281700Y-19386911D02*
X7272177Y-19396434D01*
X7272177Y-19396434D02*
X7253129Y-19405958D01*
X7253129Y-19405958D02*
X7224557Y-19405958D01*
X7348367Y-19272625D02*
X7424557Y-19272625D01*
X7376938Y-19205958D02*
X7376938Y-19377387D01*
X7376938Y-19377387D02*
X7386462Y-19396434D01*
X7386462Y-19396434D02*
X7405510Y-19405958D01*
X7405510Y-19405958D02*
X7424557Y-19405958D01*
X7643605Y-19272625D02*
X7643605Y-19472625D01*
X7643605Y-19282149D02*
X7662653Y-19272625D01*
X7662653Y-19272625D02*
X7700748Y-19272625D01*
X7700748Y-19272625D02*
X7719796Y-19282149D01*
X7719796Y-19282149D02*
X7729319Y-19291672D01*
X7729319Y-19291672D02*
X7738843Y-19310720D01*
X7738843Y-19310720D02*
X7738843Y-19367863D01*
X7738843Y-19367863D02*
X7729319Y-19386911D01*
X7729319Y-19386911D02*
X7719796Y-19396434D01*
X7719796Y-19396434D02*
X7700748Y-19405958D01*
X7700748Y-19405958D02*
X7662653Y-19405958D01*
X7662653Y-19405958D02*
X7643605Y-19396434D01*
X7853129Y-19405958D02*
X7834081Y-19396434D01*
X7834081Y-19396434D02*
X7824558Y-19377387D01*
X7824558Y-19377387D02*
X7824558Y-19205958D01*
X8015034Y-19405958D02*
X8015034Y-19301196D01*
X8015034Y-19301196D02*
X8005510Y-19282149D01*
X8005510Y-19282149D02*
X7986462Y-19272625D01*
X7986462Y-19272625D02*
X7948367Y-19272625D01*
X7948367Y-19272625D02*
X7929319Y-19282149D01*
X8015034Y-19396434D02*
X7995986Y-19405958D01*
X7995986Y-19405958D02*
X7948367Y-19405958D01*
X7948367Y-19405958D02*
X7929319Y-19396434D01*
X7929319Y-19396434D02*
X7919796Y-19377387D01*
X7919796Y-19377387D02*
X7919796Y-19358339D01*
X7919796Y-19358339D02*
X7929319Y-19339292D01*
X7929319Y-19339292D02*
X7948367Y-19329768D01*
X7948367Y-19329768D02*
X7995986Y-19329768D01*
X7995986Y-19329768D02*
X8015034Y-19320244D01*
X8081700Y-19272625D02*
X8157891Y-19272625D01*
X8110272Y-19205958D02*
X8110272Y-19377387D01*
X8110272Y-19377387D02*
X8119796Y-19396434D01*
X8119796Y-19396434D02*
X8138843Y-19405958D01*
X8138843Y-19405958D02*
X8157891Y-19405958D01*
X8300748Y-19396434D02*
X8281700Y-19405958D01*
X8281700Y-19405958D02*
X8243605Y-19405958D01*
X8243605Y-19405958D02*
X8224558Y-19396434D01*
X8224558Y-19396434D02*
X8215034Y-19377387D01*
X8215034Y-19377387D02*
X8215034Y-19301196D01*
X8215034Y-19301196D02*
X8224558Y-19282149D01*
X8224558Y-19282149D02*
X8243605Y-19272625D01*
X8243605Y-19272625D02*
X8281700Y-19272625D01*
X8281700Y-19272625D02*
X8300748Y-19282149D01*
X8300748Y-19282149D02*
X8310272Y-19301196D01*
X8310272Y-19301196D02*
X8310272Y-19320244D01*
X8310272Y-19320244D02*
X8215034Y-19339292D01*
X8481701Y-19405958D02*
X8481701Y-19205958D01*
X8481701Y-19396434D02*
X8462653Y-19405958D01*
X8462653Y-19405958D02*
X8424558Y-19405958D01*
X8424558Y-19405958D02*
X8405510Y-19396434D01*
X8405510Y-19396434D02*
X8395986Y-19386911D01*
X8395986Y-19386911D02*
X8386462Y-19367863D01*
X8386462Y-19367863D02*
X8386462Y-19310720D01*
X8386462Y-19310720D02*
X8395986Y-19291672D01*
X8395986Y-19291672D02*
X8405510Y-19282149D01*
X8405510Y-19282149D02*
X8424558Y-19272625D01*
X8424558Y-19272625D02*
X8462653Y-19272625D01*
X8462653Y-19272625D02*
X8481701Y-19282149D01*
X8557891Y-19482149D02*
X8567415Y-19472625D01*
X8567415Y-19472625D02*
X8586462Y-19444053D01*
X8586462Y-19444053D02*
X8595986Y-19425006D01*
X8595986Y-19425006D02*
X8605510Y-19396434D01*
X8605510Y-19396434D02*
X8615034Y-19348815D01*
X8615034Y-19348815D02*
X8615034Y-19310720D01*
X8615034Y-19310720D02*
X8605510Y-19263101D01*
X8605510Y-19263101D02*
X8595986Y-19234530D01*
X8595986Y-19234530D02*
X8586462Y-19215482D01*
X8586462Y-19215482D02*
X8567415Y-19186911D01*
X8567415Y-19186911D02*
X8557891Y-19177387D01*
M02*
