G04 #@! TF.GenerationSoftware,KiCad,Pcbnew,10.0.1-10.0.1~ubuntu24.04.1*
G04 #@! TF.CreationDate,2026-04-26T13:37:46+02:00*
G04 #@! TF.ProjectId,emacstkl,656d6163-7374-46b6-9c2e-6b696361645f,rev?*
G04 #@! TF.SameCoordinates,Original*
G04 #@! TF.FileFunction,Paste,Bot*
G04 #@! TF.FilePolarity,Positive*
%FSLAX46Y46*%
G04 Gerber Fmt 4.6, Leading zero omitted, Abs format (unit mm)*
G04 Created by KiCad (PCBNEW 10.0.1-10.0.1~ubuntu24.04.1) date 2026-04-26 13:37:46*
%MOMM*%
%LPD*%
G01*
G04 APERTURE LIST*
G04 Aperture macros list*
%AMRoundRect*
0 Rectangle with rounded corners*
0 $1 Rounding radius*
0 $2 $3 $4 $5 $6 $7 $8 $9 X,Y pos of 4 corners*
0 Add a 4 corners polygon primitive as box body*
4,1,4,$2,$3,$4,$5,$6,$7,$8,$9,$2,$3,0*
0 Add four circle primitives for the rounded corners*
1,1,$1+$1,$2,$3*
1,1,$1+$1,$4,$5*
1,1,$1+$1,$6,$7*
1,1,$1+$1,$8,$9*
0 Add four rect primitives between the rounded corners*
20,1,$1+$1,$2,$3,$4,$5,0*
20,1,$1+$1,$4,$5,$6,$7,0*
20,1,$1+$1,$6,$7,$8,$9,0*
20,1,$1+$1,$8,$9,$2,$3,0*%
G04 Aperture macros list end*
%ADD10RoundRect,0.250000X-0.545000X-0.445000X0.545000X-0.445000X0.545000X0.445000X-0.545000X0.445000X0*%
%ADD11RoundRect,0.225000X-0.375000X0.225000X-0.375000X-0.225000X0.375000X-0.225000X0.375000X0.225000X0*%
%ADD12RoundRect,0.250000X0.625000X-0.400000X0.625000X0.400000X-0.625000X0.400000X-0.625000X-0.400000X0*%
%ADD13RoundRect,0.250000X-0.625000X0.400000X-0.625000X-0.400000X0.625000X-0.400000X0.625000X0.400000X0*%
%ADD14RoundRect,0.250000X0.545000X0.445000X-0.545000X0.445000X-0.545000X-0.445000X0.545000X-0.445000X0*%
%ADD15RoundRect,0.250000X0.400000X0.625000X-0.400000X0.625000X-0.400000X-0.625000X0.400000X-0.625000X0*%
%ADD16RoundRect,0.250000X0.412500X0.650000X-0.412500X0.650000X-0.412500X-0.650000X0.412500X-0.650000X0*%
%ADD17RoundRect,0.250000X-0.400000X-0.625000X0.400000X-0.625000X0.400000X0.625000X-0.400000X0.625000X0*%
%ADD18RoundRect,0.225000X-0.225000X-0.375000X0.225000X-0.375000X0.225000X0.375000X-0.225000X0.375000X0*%
%ADD19RoundRect,0.250000X-1.400000X-0.600000X1.400000X-0.600000X1.400000X0.600000X-1.400000X0.600000X0*%
%ADD20RoundRect,0.150000X0.150000X-0.587500X0.150000X0.587500X-0.150000X0.587500X-0.150000X-0.587500X0*%
%ADD21RoundRect,0.250000X0.325000X0.450000X-0.325000X0.450000X-0.325000X-0.450000X0.325000X-0.450000X0*%
%ADD22RoundRect,0.250000X-0.412500X-0.650000X0.412500X-0.650000X0.412500X0.650000X-0.412500X0.650000X0*%
%ADD23RoundRect,0.137500X-0.600000X-0.137500X0.600000X-0.137500X0.600000X0.137500X-0.600000X0.137500X0*%
%ADD24RoundRect,0.137500X-0.137500X-0.600000X0.137500X-0.600000X0.137500X0.600000X-0.137500X0.600000X0*%
G04 APERTURE END LIST*
D10*
G04 #@! TO.C,C8*
X123303755Y-163446411D03*
X126183755Y-163446411D03*
G04 #@! TD*
D11*
G04 #@! TO.C,D7*
X161543755Y-53296411D03*
X161543755Y-56596411D03*
G04 #@! TD*
D12*
G04 #@! TO.C,R15*
X359543755Y-145846411D03*
X359543755Y-142746411D03*
G04 #@! TD*
D11*
G04 #@! TO.C,D12*
X267543755Y-53296411D03*
X267543755Y-56596411D03*
G04 #@! TD*
D13*
G04 #@! TO.C,R7*
X315443755Y-126396411D03*
X315443755Y-129496411D03*
G04 #@! TD*
D11*
G04 #@! TO.C,D47*
X307843755Y-98446411D03*
X307843755Y-101746411D03*
G04 #@! TD*
G04 #@! TO.C,D22*
X135043755Y-79296411D03*
X135043755Y-82596411D03*
G04 #@! TD*
D14*
G04 #@! TO.C,C5*
X97683755Y-157646411D03*
X94803755Y-157646411D03*
G04 #@! TD*
D15*
G04 #@! TO.C,R1*
X61593755Y-52446411D03*
X58493755Y-52446411D03*
G04 #@! TD*
G04 #@! TO.C,RSH1*
X31593755Y-67446411D03*
X28493755Y-67446411D03*
G04 #@! TD*
D11*
G04 #@! TO.C,D14*
X308543755Y-53296411D03*
X308543755Y-56596411D03*
G04 #@! TD*
G04 #@! TO.C,D20*
X95043755Y-79296411D03*
X95043755Y-82596411D03*
G04 #@! TD*
G04 #@! TO.C,D4*
X94543755Y-53296411D03*
X94543755Y-56596411D03*
G04 #@! TD*
G04 #@! TO.C,D60*
X205043755Y-118296411D03*
X205043755Y-121596411D03*
G04 #@! TD*
G04 #@! TO.C,D9*
X200543755Y-53296411D03*
X200543755Y-56596411D03*
G04 #@! TD*
G04 #@! TO.C,D59*
X186043755Y-118296411D03*
X186043755Y-121596411D03*
G04 #@! TD*
D16*
G04 #@! TO.C,C6*
X164606255Y-158946411D03*
X161481255Y-158946411D03*
G04 #@! TD*
D11*
G04 #@! TO.C,DCAPS1*
X27243755Y-116496411D03*
X27243755Y-119796411D03*
G04 #@! TD*
G04 #@! TO.C,D17*
X39543755Y-79796411D03*
X39543755Y-83096411D03*
G04 #@! TD*
D15*
G04 #@! TO.C,R3*
X88593755Y-66446411D03*
X85493755Y-66446411D03*
G04 #@! TD*
D11*
G04 #@! TO.C,D10*
X227543755Y-53296411D03*
X227543755Y-56596411D03*
G04 #@! TD*
G04 #@! TO.C,DLWIN1*
X47043755Y-156296411D03*
X47043755Y-159596411D03*
G04 #@! TD*
D17*
G04 #@! TO.C,RL1*
X306993755Y-116946411D03*
X310093755Y-116946411D03*
G04 #@! TD*
D11*
G04 #@! TO.C,DLSH1*
X31043755Y-137296411D03*
X31043755Y-140596411D03*
G04 #@! TD*
G04 #@! TO.C,D69*
X139043755Y-137296411D03*
X139043755Y-140596411D03*
G04 #@! TD*
D15*
G04 #@! TO.C,R6*
X39593755Y-71446411D03*
X36493755Y-71446411D03*
G04 #@! TD*
D11*
G04 #@! TO.C,D27*
X228543755Y-79296411D03*
X228543755Y-82596411D03*
G04 #@! TD*
G04 #@! TO.C,D41*
X181691255Y-98446411D03*
X181691255Y-101746411D03*
G04 #@! TD*
G04 #@! TO.C,D26*
X210543755Y-79296411D03*
X210543755Y-82596411D03*
G04 #@! TD*
G04 #@! TO.C,D5*
X113543755Y-53296411D03*
X113543755Y-56596411D03*
G04 #@! TD*
G04 #@! TO.C,D42*
X200741255Y-98446411D03*
X200741255Y-101746411D03*
G04 #@! TD*
D12*
G04 #@! TO.C,R12*
X332443755Y-129496411D03*
X332443755Y-126396411D03*
G04 #@! TD*
D11*
G04 #@! TO.C,D53*
X72043755Y-118296411D03*
X72043755Y-121596411D03*
G04 #@! TD*
G04 #@! TO.C,D25*
X190543755Y-79296411D03*
X190543755Y-82596411D03*
G04 #@! TD*
D18*
G04 #@! TO.C,D29*
X36393755Y-67446411D03*
X39693755Y-67446411D03*
G04 #@! TD*
D11*
G04 #@! TO.C,D94*
X347268755Y-156296411D03*
X347268755Y-159596411D03*
G04 #@! TD*
D19*
G04 #@! TO.C,D96*
X75293755Y-71446411D03*
X80793755Y-71446411D03*
G04 #@! TD*
D11*
G04 #@! TO.C,D70*
X157043755Y-137296411D03*
X157043755Y-140596411D03*
G04 #@! TD*
G04 #@! TO.C,D62*
X243043755Y-118296411D03*
X243043755Y-121596411D03*
G04 #@! TD*
G04 #@! TO.C,D72*
X195043755Y-137296411D03*
X195043755Y-140596411D03*
G04 #@! TD*
D13*
G04 #@! TO.C,R14*
X354543755Y-142896411D03*
X354543755Y-145996411D03*
G04 #@! TD*
D11*
G04 #@! TO.C,D2*
X76043755Y-50796411D03*
X76043755Y-54096411D03*
G04 #@! TD*
D14*
G04 #@! TO.C,C10*
X31483755Y-71446411D03*
X28603755Y-71446411D03*
G04 #@! TD*
D11*
G04 #@! TO.C,DTAB1*
X30293755Y-94496411D03*
X30293755Y-97796411D03*
G04 #@! TD*
G04 #@! TO.C,DLCTL1*
X28043755Y-152096411D03*
X28043755Y-155396411D03*
G04 #@! TD*
G04 #@! TO.C,D92*
X309868755Y-156296411D03*
X309868755Y-159596411D03*
G04 #@! TD*
D13*
G04 #@! TO.C,R10*
X311443755Y-126396411D03*
X311443755Y-129496411D03*
G04 #@! TD*
D11*
G04 #@! TO.C,D6*
X142543755Y-53296411D03*
X142543755Y-56596411D03*
G04 #@! TD*
D15*
G04 #@! TO.C,R2*
X37593755Y-52446411D03*
X34493755Y-52446411D03*
G04 #@! TD*
D11*
G04 #@! TO.C,D49*
X346343755Y-79396411D03*
X346343755Y-82696411D03*
G04 #@! TD*
D12*
G04 #@! TO.C,R8*
X188043755Y-160546411D03*
X188043755Y-157446411D03*
G04 #@! TD*
D11*
G04 #@! TO.C,D76*
X348268755Y-137296411D03*
X348268755Y-140596411D03*
G04 #@! TD*
G04 #@! TO.C,D30*
X309343755Y-79396411D03*
X309343755Y-82696411D03*
G04 #@! TD*
D20*
G04 #@! TO.C,Q3*
X358493755Y-139383911D03*
X356593755Y-139383911D03*
X357543755Y-137508911D03*
G04 #@! TD*
D11*
G04 #@! TO.C,D54*
X91043755Y-118296411D03*
X91043755Y-121596411D03*
G04 #@! TD*
D13*
G04 #@! TO.C,R11*
X328443755Y-126396411D03*
X328443755Y-129496411D03*
G04 #@! TD*
D11*
G04 #@! TO.C,D32*
X347543755Y-53296411D03*
X347543755Y-56596411D03*
G04 #@! TD*
G04 #@! TO.C,D61*
X224043755Y-118296411D03*
X224043755Y-121596411D03*
G04 #@! TD*
G04 #@! TO.C,D43*
X219043755Y-98446411D03*
X219043755Y-101746411D03*
G04 #@! TD*
G04 #@! TO.C,D34*
X48043755Y-98446411D03*
X48043755Y-101746411D03*
G04 #@! TD*
G04 #@! TO.C,D74*
X233043755Y-137296411D03*
X233043755Y-140596411D03*
G04 #@! TD*
G04 #@! TO.C,D23*
X152543755Y-79296411D03*
X152543755Y-82596411D03*
G04 #@! TD*
G04 #@! TO.C,D56*
X129043755Y-118296411D03*
X129043755Y-121596411D03*
G04 #@! TD*
G04 #@! TO.C,D37*
X105043755Y-98446411D03*
X105043755Y-101746411D03*
G04 #@! TD*
G04 #@! TO.C,D38*
X124043755Y-98446411D03*
X124043755Y-101746411D03*
G04 #@! TD*
G04 #@! TO.C,D16*
X25843755Y-75696411D03*
X25843755Y-78996411D03*
G04 #@! TD*
G04 #@! TO.C,D58*
X167043755Y-118296411D03*
X167043755Y-121596411D03*
G04 #@! TD*
G04 #@! TO.C,D45*
X257043755Y-98446411D03*
X257043755Y-101746411D03*
G04 #@! TD*
G04 #@! TO.C,DLALT1*
X71043755Y-156296411D03*
X71043755Y-159596411D03*
G04 #@! TD*
G04 #@! TO.C,D66*
X81043755Y-137296411D03*
X81043755Y-140596411D03*
G04 #@! TD*
G04 #@! TO.C,D73*
X214043755Y-137296411D03*
X214043755Y-140596411D03*
G04 #@! TD*
G04 #@! TO.C,D48*
X327743755Y-98446411D03*
X327743755Y-101746411D03*
G04 #@! TD*
D21*
G04 #@! TO.C,F1*
X63068755Y-66446411D03*
X61018755Y-66446411D03*
G04 #@! TD*
D10*
G04 #@! TO.C,C9*
X126803755Y-157946411D03*
X129683755Y-157946411D03*
G04 #@! TD*
D11*
G04 #@! TO.C,D19*
X78243755Y-79296411D03*
X78243755Y-82596411D03*
G04 #@! TD*
G04 #@! TO.C,D15*
X328543755Y-53296411D03*
X328543755Y-56596411D03*
G04 #@! TD*
D10*
G04 #@! TO.C,C4*
X115203755Y-145546411D03*
X118083755Y-145546411D03*
G04 #@! TD*
D11*
G04 #@! TO.C,DFN1*
X260843755Y-156296411D03*
X260843755Y-159596411D03*
G04 #@! TD*
G04 #@! TO.C,D36*
X86441255Y-98446411D03*
X86441255Y-101746411D03*
G04 #@! TD*
G04 #@! TO.C,D51*
X346843755Y-98446411D03*
X346843755Y-101746411D03*
G04 #@! TD*
D22*
G04 #@! TO.C,C7*
X169481255Y-158946411D03*
X172606255Y-158946411D03*
G04 #@! TD*
D11*
G04 #@! TO.C,D24*
X171543755Y-79296411D03*
X171543755Y-82596411D03*
G04 #@! TD*
D12*
G04 #@! TO.C,R9*
X319443755Y-129496411D03*
X319443755Y-126396411D03*
G04 #@! TD*
D11*
G04 #@! TO.C,D39*
X143591255Y-98446411D03*
X143591255Y-101746411D03*
G04 #@! TD*
G04 #@! TO.C,DRWIN1*
X237043755Y-156296411D03*
X237043755Y-159596411D03*
G04 #@! TD*
G04 #@! TO.C,D68*
X119043755Y-137296411D03*
X119043755Y-140596411D03*
G04 #@! TD*
G04 #@! TO.C,D52*
X55443755Y-111096411D03*
X55443755Y-114396411D03*
G04 #@! TD*
G04 #@! TO.C,D57*
X148043755Y-118296411D03*
X148043755Y-121596411D03*
G04 #@! TD*
D20*
G04 #@! TO.C,Q1*
X324243755Y-122383911D03*
X322343755Y-122383911D03*
X323293755Y-120508911D03*
G04 #@! TD*
D11*
G04 #@! TO.C,DBKSP1*
X275543755Y-79296411D03*
X275543755Y-82596411D03*
G04 #@! TD*
G04 #@! TO.C,D1*
X26293755Y-50446411D03*
X26293755Y-53746411D03*
G04 #@! TD*
G04 #@! TO.C,D55*
X111043755Y-118296411D03*
X111043755Y-121596411D03*
G04 #@! TD*
G04 #@! TO.C,D18*
X58543755Y-79796411D03*
X58543755Y-83096411D03*
G04 #@! TD*
G04 #@! TO.C,DPIPE1*
X281652395Y-98446411D03*
X281652395Y-101746411D03*
G04 #@! TD*
D20*
G04 #@! TO.C,Q2*
X336493755Y-122383911D03*
X334593755Y-122383911D03*
X335543755Y-120508911D03*
G04 #@! TD*
D11*
G04 #@! TO.C,D31*
X327343755Y-79396411D03*
X327343755Y-82696411D03*
G04 #@! TD*
D13*
G04 #@! TO.C,R13*
X324443755Y-126396411D03*
X324443755Y-129496411D03*
G04 #@! TD*
D19*
G04 #@! TO.C,D95*
X75293755Y-66446411D03*
X80793755Y-66446411D03*
G04 #@! TD*
D11*
G04 #@! TO.C,D8*
X181543755Y-53296411D03*
X181543755Y-56596411D03*
G04 #@! TD*
D23*
G04 #@! TO.C,U2*
X107381255Y-161439796D03*
X107381255Y-160639796D03*
X107381255Y-159839796D03*
X107381255Y-159039796D03*
X107381255Y-158239796D03*
X107381255Y-157439796D03*
X107381255Y-156639796D03*
X107381255Y-155839796D03*
X107381255Y-155039796D03*
X107381255Y-154239796D03*
X107381255Y-153439796D03*
D24*
X109043755Y-151777296D03*
X109843755Y-151777296D03*
X110643755Y-151777296D03*
X111443755Y-151777296D03*
X112243755Y-151777296D03*
X113043755Y-151777296D03*
X113843755Y-151777296D03*
X114643755Y-151777296D03*
X115443755Y-151777296D03*
X116243755Y-151777296D03*
X117043755Y-151777296D03*
D23*
X118706255Y-153439796D03*
X118706255Y-154239796D03*
X118706255Y-155039796D03*
X118706255Y-155839796D03*
X118706255Y-156639796D03*
X118706255Y-157439796D03*
X118706255Y-158239796D03*
X118706255Y-159039796D03*
X118706255Y-159839796D03*
X118706255Y-160639796D03*
X118706255Y-161439796D03*
D24*
X117043755Y-163102296D03*
X116243755Y-163102296D03*
X115443755Y-163102296D03*
X114643755Y-163102296D03*
X113843755Y-163102296D03*
X113043755Y-163102296D03*
X112243755Y-163102296D03*
X111443755Y-163102296D03*
X110643755Y-163102296D03*
X109843755Y-163102296D03*
X109043755Y-163102296D03*
G04 #@! TD*
D11*
G04 #@! TO.C,D11*
X248543755Y-53296411D03*
X248543755Y-56596411D03*
G04 #@! TD*
G04 #@! TO.C,D40*
X162641255Y-98446411D03*
X162641255Y-101746411D03*
G04 #@! TD*
G04 #@! TO.C,D21*
X115043755Y-79296411D03*
X115043755Y-82596411D03*
G04 #@! TD*
G04 #@! TO.C,DRCTL1*
X284443755Y-156296411D03*
X284443755Y-159596411D03*
G04 #@! TD*
G04 #@! TO.C,DRALT1*
X231043755Y-156296411D03*
X231043755Y-159596411D03*
G04 #@! TD*
G04 #@! TO.C,D3*
X77043755Y-57796411D03*
X77043755Y-61096411D03*
G04 #@! TD*
G04 #@! TO.C,D71*
X176043755Y-137296411D03*
X176043755Y-140596411D03*
G04 #@! TD*
G04 #@! TO.C,DRSH1*
X269043755Y-137296411D03*
X269043755Y-140596411D03*
G04 #@! TD*
G04 #@! TO.C,D35*
X68293755Y-98446411D03*
X68293755Y-101746411D03*
G04 #@! TD*
G04 #@! TO.C,D93*
X328468755Y-156296411D03*
X328468755Y-159596411D03*
G04 #@! TD*
G04 #@! TO.C,D44*
X238043755Y-98446411D03*
X238043755Y-101746411D03*
G04 #@! TD*
D17*
G04 #@! TO.C,R5*
X66493755Y-66446411D03*
X69593755Y-66446411D03*
G04 #@! TD*
D11*
G04 #@! TO.C,D67*
X100043755Y-137296411D03*
X100043755Y-140596411D03*
G04 #@! TD*
G04 #@! TO.C,D28*
X247443755Y-79296411D03*
X247443755Y-82596411D03*
G04 #@! TD*
D13*
G04 #@! TO.C,R16*
X336443755Y-126396411D03*
X336443755Y-129496411D03*
G04 #@! TD*
D11*
G04 #@! TO.C,D65*
X62043755Y-137296411D03*
X62043755Y-140596411D03*
G04 #@! TD*
G04 #@! TO.C,DENTER1*
X273043755Y-118296411D03*
X273043755Y-121596411D03*
G04 #@! TD*
D15*
G04 #@! TO.C,R4*
X88593755Y-71446411D03*
X85493755Y-71446411D03*
G04 #@! TD*
D11*
G04 #@! TO.C,DSPC1*
X158043755Y-161296411D03*
X158043755Y-164596411D03*
G04 #@! TD*
G04 #@! TO.C,D13*
X286543755Y-53296411D03*
X286543755Y-56596411D03*
G04 #@! TD*
M02*
