M48
; DRILL file KiCad 10.0.1-10.0.1~ubuntu24.04.1 date 2026-04-26T13:37:46
; FORMAT={-:-/ absolute / metric / decimal}
; #@! TF.CreationDate,2026-04-26T13:37:46+02:00
; #@! TF.GenerationSoftware,Kicad,Pcbnew,10.0.1-10.0.1~ubuntu24.04.1
; #@! TF.FileFunction,Plated,1,2,PTH
FMAT,2
METRIC
; #@! TA.AperFunction,Plated,PTH,ViaDrill
T1C0.300
; #@! TA.AperFunction,Plated,PTH,ComponentDrill
T2C0.400
; #@! TA.AperFunction,Plated,PTH,ViaDrill
T3C0.500
; #@! TA.AperFunction,Plated,PTH,ComponentDrill
T4C0.600
; #@! TA.AperFunction,Plated,PTH,ComponentDrill
T5C0.800
; #@! TA.AperFunction,Plated,PTH,ComponentDrill
T6C1.000
; #@! TA.AperFunction,Plated,PTH,ComponentDrill
T7C1.100
; #@! TA.AperFunction,Plated,PTH,ComponentDrill
T8C1.500
; #@! TA.AperFunction,Plated,PTH,ComponentDrill
T9C3.000
%
G90
G05
T1
X44.729Y-147.946
X69.66Y-154.746
X77.444Y-69.446
X79.244Y-69.446
X89.844Y-123.546
X90.044Y-150.246
X91.917Y-68.446
X91.917Y-69.446
X96.644Y-53.296
X99.844Y-154.746
X101.844Y-149.546
X102.244Y-148.746
X102.444Y-147.946
X103.544Y-150.946
X103.544Y-154.946
X103.819Y-153.921
X104.144Y-133.446
X104.644Y-128.146
X104.844Y-129.146
X105.044Y-130.146
X105.044Y-131.346
X105.244Y-154.146
X105.983Y-151.693
X106.69Y-150.986
X108.444Y-116.246
X109.037Y-159.84
X109.244Y-154.946
X109.644Y-159.046
X109.844Y-126.146
X109.844Y-150.346
X110.944Y-157.246
X112.244Y-158.046
X112.494Y-79.446
X113.844Y-85.546
X114.644Y-161.646
X115.444Y-161.046
X115.644Y-146.989
X116.044Y-118.346
X116.294Y-156.446
X116.644Y-147.946
X117.044Y-158.046
X117.294Y-155.646
X117.468Y-149.025
X117.644Y-132.346
X118.644Y-149.146
X119.413Y-151.777
X120.444Y-153.346
X120.694Y-154.946
X121.244Y-137.296
X122.094Y-154.946
X122.444Y-156.446
X123.547Y-155.646
X125.044Y-153.146
X125.044Y-158.946
X126.044Y-152.146
X126.044Y-159.746
X126.844Y-98.446
X127.244Y-151.146
X127.244Y-160.146
X128.244Y-123.546
X128.644Y-150.146
X128.644Y-160.746
X129.844Y-148.946
X129.844Y-161.346
X131.244Y-148.146
X131.244Y-161.946
X132.244Y-162.146
X133.244Y-162.346
X134.494Y-154.046
X136.094Y-154.846
X136.094Y-163.046
X136.844Y-165.846
X137.894Y-154.846
X138.644Y-167.646
X143.244Y-134.746
X143.244Y-135.946
X159.894Y-161.446
X159.894Y-165.246
X163.244Y-155.746
X163.244Y-158.746
X171.044Y-156.446
X171.044Y-158.746
X173.469Y-165.221
X181.094Y-159.046
X183.644Y-159.546
X184.494Y-155.346
X187.044Y-146.989
X189.244Y-134.746
X193.094Y-166.446
X204.844Y-150.046
X227.044Y-135.946
X246.644Y-151.146
X250.444Y-152.146
X270.444Y-153.146
X286.979Y-131.346
X298.444Y-130.146
X302.244Y-111.946
X302.244Y-128.146
X303.644Y-113.146
X303.644Y-129.146
X313.444Y-116.946
X324.544Y-113.146
X326.844Y-116.946
X329.494Y-120.446
X338.144Y-111.946
X339.744Y-116.446
X344.444Y-118.946
X352.144Y-116.446
X359.275Y-135.778
X361.144Y-133.446
T2
X44.644Y-48.271
X44.644Y-49.621
X45.494Y-48.271
X45.494Y-49.621
X46.344Y-48.271
X46.344Y-49.621
X47.194Y-48.271
X47.194Y-49.621
X48.044Y-48.271
X48.044Y-49.621
X48.894Y-48.271
X48.894Y-49.621
X49.744Y-48.271
X49.744Y-49.621
X50.594Y-48.271
X50.594Y-49.621
T3
X22.744Y-101.246
X22.944Y-68.846
X34.044Y-67.446
X44.744Y-104.346
X55.344Y-142.846
X59.444Y-66.446
X63.069Y-68.221
X64.044Y-93.646
X81.644Y-151.546
X83.244Y-75.846
X87.444Y-134.746
X93.444Y-89.046
X99.344Y-157.746
X101.244Y-109.846
X104.244Y-159.646
X109.444Y-153.646
X113.044Y-153.846
X113.144Y-157.346
X113.144Y-161.346
X115.644Y-153.646
X119.144Y-163.446
X120.944Y-163.446
X123.644Y-158.246
X124.844Y-148.246
X134.744Y-164.146
X140.244Y-164.046
X140.744Y-159.246
X143.444Y-69.646
X145.044Y-111.646
X151.644Y-147.946
X153.644Y-148.946
X159.844Y-93.646
X167.044Y-158.446
X170.644Y-148.946
X173.844Y-162.646
X174.444Y-160.596
X176.144Y-157.446
X181.844Y-154.946
X187.144Y-164.846
X206.644Y-111.246
X214.844Y-146.046
X220.044Y-93.446
X225.844Y-69.846
X269.244Y-69.846
X275.044Y-91.246
X284.844Y-147.646
X305.244Y-106.446
X307.094Y-119.246
X309.244Y-127.946
X309.244Y-167.946
X332.444Y-70.646
X346.844Y-146.046
T4
X96.644Y-151.546
X96.644Y-153.046
T5
X164.604Y-163.946
X169.484Y-163.946
T6
X178.504Y-161.946
X178.504Y-164.486
X181.044Y-161.946
X181.044Y-164.486
X183.584Y-161.946
X183.584Y-164.486
T7
X192.794Y-159.696
X192.794Y-164.196
X199.294Y-159.696
X199.294Y-164.196
X204.794Y-159.696
X204.794Y-164.196
X211.294Y-159.696
X211.294Y-164.196
T8
X26.504Y-61.526
X26.504Y-88.026
X28.879Y-164.026
X31.254Y-107.026
X32.854Y-58.986
X32.854Y-85.486
X33.629Y-126.026
X35.229Y-161.486
X37.604Y-104.486
X38.379Y-145.026
X39.979Y-123.486
X44.729Y-142.486
X45.504Y-88.026
X51.854Y-85.486
X52.629Y-164.026
X55.004Y-107.026
X58.979Y-161.486
X59.754Y-126.026
X61.354Y-104.486
X63.004Y-61.526
X64.504Y-88.026
X66.104Y-123.486
X69.254Y-145.026
X69.354Y-58.986
X70.854Y-85.486
X74.004Y-107.026
X75.604Y-142.486
X76.379Y-164.026
X78.754Y-126.026
X80.354Y-104.486
X81.999Y-61.526
X82.729Y-161.486
X83.504Y-88.026
X85.104Y-123.486
X88.254Y-145.026
X88.349Y-58.986
X89.854Y-85.486
X93.004Y-107.026
X94.604Y-142.486
X97.754Y-126.026
X99.354Y-104.486
X101.004Y-61.526
X102.504Y-88.026
X104.104Y-123.486
X107.254Y-145.026
X107.354Y-58.986
X108.854Y-85.486
X112.004Y-107.026
X113.604Y-142.486
X116.754Y-126.026
X118.354Y-104.486
X120.004Y-61.526
X121.504Y-88.026
X123.104Y-123.486
X126.254Y-145.026
X126.354Y-58.986
X127.854Y-85.486
X131.004Y-107.026
X132.604Y-142.486
X135.754Y-126.026
X137.354Y-104.486
X140.554Y-88.026
X142.104Y-123.486
X145.316Y-145.026
X146.904Y-85.486
X147.629Y-164.026
X149.004Y-61.526
X150.004Y-107.026
X151.666Y-142.486
X153.979Y-161.486
X154.841Y-126.026
X155.354Y-58.986
X156.354Y-104.486
X159.504Y-88.026
X161.191Y-123.486
X164.254Y-145.026
X165.854Y-85.486
X168.004Y-61.526
X169.004Y-107.026
X170.604Y-142.486
X173.891Y-126.026
X174.354Y-58.986
X175.354Y-104.486
X178.504Y-88.026
X180.241Y-123.486
X183.254Y-145.026
X184.854Y-85.486
X187.004Y-61.526
X188.004Y-107.026
X189.604Y-142.486
X192.754Y-126.026
X193.354Y-58.986
X194.354Y-104.486
X197.504Y-88.026
X199.104Y-123.486
X202.254Y-145.026
X203.854Y-85.486
X206.004Y-61.526
X207.004Y-107.026
X208.604Y-142.486
X211.754Y-126.026
X212.354Y-58.986
X213.354Y-104.486
X216.504Y-88.026
X218.104Y-123.486
X218.879Y-164.026
X221.254Y-145.026
X222.854Y-85.486
X225.229Y-161.486
X226.004Y-107.026
X227.604Y-142.486
X230.754Y-126.026
X232.354Y-104.486
X235.004Y-61.526
X235.504Y-88.026
X237.104Y-123.486
X240.254Y-145.026
X241.354Y-58.986
X241.854Y-85.486
X242.629Y-164.026
X245.004Y-107.026
X246.604Y-142.486
X248.979Y-161.486
X249.754Y-126.026
X251.354Y-104.486
X254.004Y-61.526
X254.504Y-88.026
X256.104Y-123.486
X260.354Y-58.986
X260.854Y-85.486
X264.004Y-107.026
X266.379Y-164.026
X270.354Y-104.486
X272.729Y-161.486
X273.004Y-61.526
X275.879Y-145.026
X279.354Y-58.986
X280.629Y-126.026
X282.229Y-142.486
X283.004Y-88.026
X286.979Y-123.486
X287.754Y-107.026
X289.354Y-85.486
X290.129Y-164.026
X292.004Y-61.526
X294.104Y-104.486
X296.479Y-161.486
X298.354Y-58.986
X315.004Y-61.526
X315.004Y-88.026
X315.004Y-107.026
X315.004Y-164.026
X321.354Y-58.986
X321.354Y-85.486
X321.354Y-104.486
X321.354Y-161.486
X334.004Y-61.526
X334.004Y-88.026
X334.004Y-107.026
X334.004Y-144.976
X334.004Y-164.026
X340.354Y-58.986
X340.354Y-85.486
X340.354Y-104.486
X340.354Y-142.436
X340.354Y-161.486
X353.004Y-61.526
X353.004Y-88.026
X353.004Y-107.026
X353.004Y-164.026
X359.354Y-58.986
X359.354Y-85.486
X359.354Y-104.486
X359.354Y-161.486
T9
X50.544Y-67.996
T4
G00X43.294Y-45.661
M15
G01X43.294Y-44.861
M16
G05
G00X43.294Y-49.391
M15
G01X43.294Y-47.891
M16
G05
G00X51.944Y-45.661
M15
G01X51.944Y-44.861
M16
G05
G00X51.944Y-49.391
M15
G01X51.944Y-47.891
M16
G05
M30
