G04 #@! TF.GenerationSoftware,KiCad,Pcbnew,10.0.4-10.0.4~ubuntu24.04.1*
G04 #@! TF.CreationDate,2026-07-12T10:01:39+02:00*
G04 #@! TF.ProjectId,emacstkl,656d6163-7374-46b6-9c2e-6b696361645f,rev?*
G04 #@! TF.SameCoordinates,Original*
G04 #@! TF.FileFunction,Soldermask,Bot*
G04 #@! TF.FilePolarity,Negative*
%FSLAX46Y46*%
G04 Gerber Fmt 4.6, Leading zero omitted, Abs format (unit mm)*
G04 Created by KiCad (PCBNEW 10.0.4-10.0.4~ubuntu24.04.1) date 2026-07-12 10:01:39*
%MOMM*%
%LPD*%
G01*
G04 APERTURE LIST*
G04 Aperture macros list*
%AMRoundRect*
0 Rectangle with rounded corners*
0 $1 Rounding radius*
0 $2 $3 $4 $5 $6 $7 $8 $9 X,Y pos of 4 corners*
0 Add a 4 corners polygon primitive as box body*
4,1,4,$2,$3,$4,$5,$6,$7,$8,$9,$2,$3,0*
0 Add four circle primitives for the rounded corners*
1,1,$1+$1,$2,$3*
1,1,$1+$1,$4,$5*
1,1,$1+$1,$6,$7*
1,1,$1+$1,$8,$9*
0 Add four rect primitives between the rounded corners*
20,1,$1+$1,$2,$3,$4,$5,0*
20,1,$1+$1,$4,$5,$6,$7,0*
20,1,$1+$1,$6,$7,$8,$9,0*
20,1,$1+$1,$8,$9,$2,$3,0*%
G04 Aperture macros list end*
%ADD10C,1.750000*%
%ADD11C,4.000000*%
%ADD12C,2.500000*%
%ADD13C,5.000000*%
%ADD14C,3.050000*%
%ADD15C,1.700000*%
%ADD16C,2.200000*%
%ADD17C,8.000000*%
%ADD18C,6.000000*%
%ADD19C,4.300000*%
%ADD20C,4.500000*%
%ADD21C,0.700000*%
%ADD22O,0.900000X2.400000*%
%ADD23O,0.900000X1.700000*%
%ADD24RoundRect,0.225000X-0.375000X0.225000X-0.375000X-0.225000X0.375000X-0.225000X0.375000X0.225000X0*%
%ADD25RoundRect,0.250000X-0.400000X-0.625000X0.400000X-0.625000X0.400000X0.625000X-0.400000X0.625000X0*%
%ADD26RoundRect,0.250000X0.400000X0.625000X-0.400000X0.625000X-0.400000X-0.625000X0.400000X-0.625000X0*%
%ADD27C,1.500000*%
%ADD28RoundRect,0.250000X0.545000X0.445000X-0.545000X0.445000X-0.545000X-0.445000X0.545000X-0.445000X0*%
%ADD29RoundRect,0.250000X-0.350000X0.350000X-0.350000X-0.350000X0.350000X-0.350000X0.350000X0.350000X0*%
%ADD30C,1.200000*%
%ADD31RoundRect,0.137500X-0.137500X0.600000X-0.137500X-0.600000X0.137500X-0.600000X0.137500X0.600000X0*%
%ADD32RoundRect,0.137500X-0.600000X0.137500X-0.600000X-0.137500X0.600000X-0.137500X0.600000X0.137500X0*%
%ADD33RoundRect,0.250000X-0.625000X0.400000X-0.625000X-0.400000X0.625000X-0.400000X0.625000X0.400000X0*%
%ADD34RoundRect,0.250000X-0.545000X-0.445000X0.545000X-0.445000X0.545000X0.445000X-0.545000X0.445000X0*%
%ADD35RoundRect,0.225000X-0.225000X-0.375000X0.225000X-0.375000X0.225000X0.375000X-0.225000X0.375000X0*%
%ADD36RoundRect,0.250000X0.445000X-0.545000X0.445000X0.545000X-0.445000X0.545000X-0.445000X-0.545000X0*%
%ADD37RoundRect,0.150000X-0.512500X-0.150000X0.512500X-0.150000X0.512500X0.150000X-0.512500X0.150000X0*%
%ADD38RoundRect,0.150000X0.587500X0.150000X-0.587500X0.150000X-0.587500X-0.150000X0.587500X-0.150000X0*%
%ADD39R,1.700000X1.700000*%
%ADD40RoundRect,0.250000X-0.412500X-0.650000X0.412500X-0.650000X0.412500X0.650000X-0.412500X0.650000X0*%
%ADD41RoundRect,0.250000X0.725000X-0.600000X0.725000X0.600000X-0.725000X0.600000X-0.725000X-0.600000X0*%
%ADD42O,1.950000X1.700000*%
%ADD43RoundRect,0.150000X0.875000X0.150000X-0.875000X0.150000X-0.875000X-0.150000X0.875000X-0.150000X0*%
%ADD44C,2.000000*%
G04 APERTURE END LIST*
D10*
G04 #@! TO.C,SW58*
X181511255Y-120946411D03*
D11*
X176431255Y-120946411D03*
D10*
X171351255Y-120946411D03*
D12*
X180241255Y-123486411D03*
X173891255Y-126026411D03*
G04 #@! TD*
D10*
G04 #@! TO.C,SW57*
X162461255Y-120946411D03*
D11*
X157381255Y-120946411D03*
D10*
X152301255Y-120946411D03*
D12*
X161191255Y-123486411D03*
X154841255Y-126026411D03*
G04 #@! TD*
D10*
G04 #@! TO.C,SW39*
X157623755Y-101946411D03*
D11*
X152543755Y-101946411D03*
D10*
X147463755Y-101946411D03*
D12*
X156353755Y-104486411D03*
X150003755Y-107026411D03*
G04 #@! TD*
D10*
G04 #@! TO.C,SW5*
X128123755Y-56446411D03*
D11*
X123043755Y-56446411D03*
D10*
X117963755Y-56446411D03*
D12*
X126853755Y-58986411D03*
X120503755Y-61526411D03*
G04 #@! TD*
D10*
G04 #@! TO.C,SW26*
X224123755Y-82946411D03*
D11*
X219043755Y-82946411D03*
D10*
X213963755Y-82946411D03*
D12*
X222853755Y-85486411D03*
X216503755Y-88026411D03*
G04 #@! TD*
D11*
G04 #@! TO.C,H9*
X320543755Y-142396411D03*
G04 #@! TD*
D10*
G04 #@! TO.C,SW37*
X119623755Y-101946411D03*
D11*
X114543755Y-101946411D03*
D10*
X109463755Y-101946411D03*
D12*
X118353755Y-104486411D03*
X112003755Y-107026411D03*
G04 #@! TD*
D13*
G04 #@! TO.C,H2*
X46543755Y-61496411D03*
G04 #@! TD*
D10*
G04 #@! TO.C,SWCAPS1*
X41248755Y-120946411D03*
D11*
X36168755Y-120946411D03*
D10*
X31088755Y-120946411D03*
D12*
X39978755Y-123486411D03*
X33628755Y-126026411D03*
G04 #@! TD*
D10*
G04 #@! TO.C,SW9*
X214123755Y-56446411D03*
D11*
X209043755Y-56446411D03*
D10*
X203963755Y-56446411D03*
D12*
X212853755Y-58986411D03*
X206503755Y-61526411D03*
G04 #@! TD*
D10*
G04 #@! TO.C,SW55*
X124373755Y-120946411D03*
D11*
X119293755Y-120946411D03*
D10*
X114213755Y-120946411D03*
D12*
X123103755Y-123486411D03*
X116753755Y-126026411D03*
G04 #@! TD*
D10*
G04 #@! TO.C,SW42*
X214623755Y-101946411D03*
D11*
X209543755Y-101946411D03*
D10*
X204463755Y-101946411D03*
D12*
X213353755Y-104486411D03*
X207003755Y-107026411D03*
G04 #@! TD*
D14*
G04 #@! TO.C,SWSPC1*
X200149155Y-166002311D03*
D11*
X200149155Y-150762311D03*
D15*
X155229155Y-159002311D03*
D11*
X150149155Y-159002311D03*
D15*
X145069155Y-159002311D03*
D14*
X100149155Y-166002311D03*
D11*
X100149155Y-150762311D03*
D16*
X147609155Y-164082311D03*
X153959155Y-161542311D03*
G04 #@! TD*
D10*
G04 #@! TO.C,SW7*
X176123755Y-56446411D03*
D11*
X171043755Y-56446411D03*
D10*
X165963755Y-56446411D03*
D12*
X174853755Y-58986411D03*
X168503755Y-61526411D03*
G04 #@! TD*
D10*
G04 #@! TO.C,SW65*
X76873755Y-139946411D03*
D11*
X71793755Y-139946411D03*
D10*
X66713755Y-139946411D03*
D12*
X75603755Y-142486411D03*
X69253755Y-145026411D03*
G04 #@! TD*
D10*
G04 #@! TO.C,SW22*
X148173755Y-82946411D03*
D11*
X143093755Y-82946411D03*
D10*
X138013755Y-82946411D03*
D12*
X146903755Y-85486411D03*
X140553755Y-88026411D03*
G04 #@! TD*
D10*
G04 #@! TO.C,SW71*
X190873755Y-139946411D03*
D11*
X185793755Y-139946411D03*
D10*
X180713755Y-139946411D03*
D12*
X189603755Y-142486411D03*
X183253755Y-145026411D03*
G04 #@! TD*
D10*
G04 #@! TO.C,SW27*
X243123755Y-82946411D03*
D11*
X238043755Y-82946411D03*
D10*
X232963755Y-82946411D03*
D12*
X241853755Y-85486411D03*
X235503755Y-88026411D03*
G04 #@! TD*
D10*
G04 #@! TO.C,SW35*
X81623755Y-101946411D03*
D11*
X76543755Y-101946411D03*
D10*
X71463755Y-101946411D03*
D12*
X80353755Y-104486411D03*
X74003755Y-107026411D03*
G04 #@! TD*
D10*
G04 #@! TO.C,SW1*
X34123755Y-56446411D03*
D11*
X29043755Y-56446411D03*
D10*
X23963755Y-56446411D03*
D12*
X32853755Y-58986411D03*
X26503755Y-61526411D03*
G04 #@! TD*
D10*
G04 #@! TO.C,SW48*
X342123755Y-101946411D03*
D11*
X337043755Y-101946411D03*
D10*
X331963755Y-101946411D03*
D12*
X340853755Y-104486411D03*
X334503755Y-107026411D03*
G04 #@! TD*
D14*
G04 #@! TO.C,SWRSH1*
X290395355Y-146977711D03*
D11*
X290395355Y-131737711D03*
D15*
X283575355Y-139977711D03*
D11*
X278495355Y-139977711D03*
D15*
X273415355Y-139977711D03*
D14*
X266595355Y-146977711D03*
D11*
X266595355Y-131737711D03*
D16*
X275955355Y-145057711D03*
X282305355Y-142517711D03*
G04 #@! TD*
D10*
G04 #@! TO.C,SW17*
X53123755Y-82946411D03*
D11*
X48043755Y-82946411D03*
D10*
X42963755Y-82946411D03*
D12*
X51853755Y-85486411D03*
X45503755Y-88026411D03*
G04 #@! TD*
D11*
G04 #@! TO.C,H10*
X306543755Y-71446411D03*
G04 #@! TD*
D10*
G04 #@! TO.C,SW67*
X114873755Y-139946411D03*
D11*
X109793755Y-139946411D03*
D10*
X104713755Y-139946411D03*
D12*
X113603755Y-142486411D03*
X107253755Y-145026411D03*
G04 #@! TD*
D17*
G04 #@! TO.C,H1*
X50543755Y-67996411D03*
G04 #@! TD*
D10*
G04 #@! TO.C,SW4*
X109123755Y-56446411D03*
D11*
X104043755Y-56446411D03*
D10*
X98963755Y-56446411D03*
D12*
X107853755Y-58986411D03*
X101503755Y-61526411D03*
G04 #@! TD*
D14*
G04 #@! TO.C,SWBKSP1*
X297443755Y-90011611D03*
D11*
X297443755Y-74771611D03*
D15*
X290623755Y-83011611D03*
D11*
X285543755Y-83011611D03*
D15*
X280463755Y-83011611D03*
D14*
X273643755Y-90011611D03*
D11*
X273643755Y-74771611D03*
D16*
X283003755Y-88091611D03*
X289353755Y-85551611D03*
G04 #@! TD*
D10*
G04 #@! TO.C,SW38*
X138623755Y-101946411D03*
D11*
X133543755Y-101946411D03*
D10*
X128463755Y-101946411D03*
D12*
X137353755Y-104486411D03*
X131003755Y-107026411D03*
G04 #@! TD*
D10*
G04 #@! TO.C,SW41*
X195623755Y-101946411D03*
D11*
X190543755Y-101946411D03*
D10*
X185463755Y-101946411D03*
D12*
X194353755Y-104486411D03*
X188003755Y-107026411D03*
G04 #@! TD*
D10*
G04 #@! TO.C,SW16*
X34123755Y-82946411D03*
D11*
X29043755Y-82946411D03*
D10*
X23963755Y-82946411D03*
D12*
X32853755Y-85486411D03*
X26503755Y-88026411D03*
G04 #@! TD*
D10*
G04 #@! TO.C,SW3*
X90119373Y-56446411D03*
D11*
X85039373Y-56446411D03*
D10*
X79959373Y-56446411D03*
D12*
X88849373Y-58986411D03*
X82499373Y-61526411D03*
G04 #@! TD*
D10*
G04 #@! TO.C,SW13*
X300123755Y-56446411D03*
D11*
X295043755Y-56446411D03*
D10*
X289963755Y-56446411D03*
D12*
X298853755Y-58986411D03*
X292503755Y-61526411D03*
G04 #@! TD*
D10*
G04 #@! TO.C,SW18*
X72123755Y-82946411D03*
D11*
X67043755Y-82946411D03*
D10*
X61963755Y-82946411D03*
D12*
X70853755Y-85486411D03*
X64503755Y-88026411D03*
G04 #@! TD*
D10*
G04 #@! TO.C,SWTAB1*
X38873755Y-101946411D03*
D11*
X33793755Y-101946411D03*
D10*
X28713755Y-101946411D03*
D12*
X37603755Y-104486411D03*
X31253755Y-107026411D03*
G04 #@! TD*
D18*
G04 #@! TO.C,H7*
X256543755Y-110946411D03*
G04 #@! TD*
D19*
G04 #@! TO.C,H12*
X361043755Y-69446411D03*
G04 #@! TD*
D18*
G04 #@! TO.C,H5*
X90543755Y-162946411D03*
G04 #@! TD*
D10*
G04 #@! TO.C,SW34*
X62623755Y-101946411D03*
D11*
X57543755Y-101946411D03*
D10*
X52463755Y-101946411D03*
D12*
X61353755Y-104486411D03*
X55003755Y-107026411D03*
G04 #@! TD*
D20*
G04 #@! TO.C,H6*
X161793755Y-111196411D03*
G04 #@! TD*
D10*
G04 #@! TO.C,SW76*
X342123755Y-139896411D03*
D11*
X337043755Y-139896411D03*
D10*
X331963755Y-139896411D03*
D12*
X340853755Y-142436411D03*
X334503755Y-144976411D03*
G04 #@! TD*
D10*
G04 #@! TO.C,SW66*
X95873755Y-139946411D03*
D11*
X90793755Y-139946411D03*
D10*
X85713755Y-139946411D03*
D12*
X94603755Y-142486411D03*
X88253755Y-145026411D03*
G04 #@! TD*
D10*
G04 #@! TO.C,SWLWIN1*
X60248755Y-158946411D03*
D11*
X55168755Y-158946411D03*
D10*
X50088755Y-158946411D03*
D12*
X58978755Y-161486411D03*
X52628755Y-164026411D03*
G04 #@! TD*
D10*
G04 #@! TO.C,SW36*
X100623755Y-101946411D03*
D11*
X95543755Y-101946411D03*
D10*
X90463755Y-101946411D03*
D12*
X99353755Y-104486411D03*
X93003755Y-107026411D03*
G04 #@! TD*
D11*
G04 #@! TO.C,H8*
X67043755Y-151946411D03*
G04 #@! TD*
D10*
G04 #@! TO.C,SWRWIN1*
X250248755Y-158946411D03*
D11*
X245168755Y-158946411D03*
D10*
X240088755Y-158946411D03*
D12*
X248978755Y-161486411D03*
X242628755Y-164026411D03*
G04 #@! TD*
D10*
G04 #@! TO.C,SW49*
X361123755Y-82946411D03*
D11*
X356043755Y-82946411D03*
D10*
X350963755Y-82946411D03*
D12*
X359853755Y-85486411D03*
X353503755Y-88026411D03*
G04 #@! TD*
D10*
G04 #@! TO.C,SW69*
X152936255Y-139946411D03*
D11*
X147856255Y-139946411D03*
D10*
X142776255Y-139946411D03*
D12*
X151666255Y-142486411D03*
X145316255Y-145026411D03*
G04 #@! TD*
D14*
G04 #@! TO.C,SWENTER1*
X295093755Y-128003911D03*
D11*
X295093755Y-112763911D03*
D15*
X288273755Y-121003911D03*
D11*
X283193755Y-121003911D03*
D15*
X278113755Y-121003911D03*
D14*
X271293755Y-128003911D03*
D11*
X271293755Y-112763911D03*
D16*
X280653755Y-126083911D03*
X287003755Y-123543911D03*
G04 #@! TD*
D10*
G04 #@! TO.C,SW43*
X233623755Y-101946411D03*
D11*
X228543755Y-101946411D03*
D10*
X223463755Y-101946411D03*
D12*
X232353755Y-104486411D03*
X226003755Y-107026411D03*
G04 #@! TD*
D10*
G04 #@! TO.C,SW10*
X243123755Y-56446411D03*
D11*
X238043755Y-56446411D03*
D10*
X232963755Y-56446411D03*
D12*
X241853755Y-58986411D03*
X235503755Y-61526411D03*
G04 #@! TD*
D10*
G04 #@! TO.C,SW14*
X323123755Y-56446411D03*
D11*
X318043755Y-56446411D03*
D10*
X312963755Y-56446411D03*
D12*
X321853755Y-58986411D03*
X315503755Y-61526411D03*
G04 #@! TD*
D10*
G04 #@! TO.C,SWRALT1*
X226498755Y-158946411D03*
D11*
X221418755Y-158946411D03*
D10*
X216338755Y-158946411D03*
D12*
X225228755Y-161486411D03*
X218878755Y-164026411D03*
G04 #@! TD*
D10*
G04 #@! TO.C,SW24*
X186123755Y-82946411D03*
D11*
X181043755Y-82946411D03*
D10*
X175963755Y-82946411D03*
D12*
X184853755Y-85486411D03*
X178503755Y-88026411D03*
G04 #@! TD*
D10*
G04 #@! TO.C,SW19*
X91123755Y-82946411D03*
D11*
X86043755Y-82946411D03*
D10*
X80963755Y-82946411D03*
D12*
X89853755Y-85486411D03*
X83503755Y-88026411D03*
G04 #@! TD*
D10*
G04 #@! TO.C,SW21*
X129123755Y-82946411D03*
D11*
X124043755Y-82946411D03*
D10*
X118963755Y-82946411D03*
D12*
X127853755Y-85486411D03*
X121503755Y-88026411D03*
G04 #@! TD*
D10*
G04 #@! TO.C,SW52*
X67373755Y-120946411D03*
D11*
X62293755Y-120946411D03*
D10*
X57213755Y-120946411D03*
D12*
X66103755Y-123486411D03*
X59753755Y-126026411D03*
G04 #@! TD*
D21*
G04 #@! TO.C,USB1*
X50593755Y-49621411D03*
X49743755Y-49621411D03*
X48893755Y-49621411D03*
X48043755Y-49621411D03*
X47193755Y-49621411D03*
X46343755Y-49621411D03*
X45493755Y-49621411D03*
X44643755Y-49621411D03*
X44643755Y-48271411D03*
X45493755Y-48271411D03*
X46343755Y-48271411D03*
X47193755Y-48271411D03*
X48043755Y-48271411D03*
X48893755Y-48271411D03*
X49743755Y-48271411D03*
X50593755Y-48271411D03*
D22*
X51943755Y-48641411D03*
D23*
X51943755Y-45261411D03*
D22*
X43293755Y-48641411D03*
D23*
X43293755Y-45261411D03*
G04 #@! TD*
D10*
G04 #@! TO.C,SW25*
X205123755Y-82946411D03*
D11*
X200043755Y-82946411D03*
D10*
X194963755Y-82946411D03*
D12*
X203853755Y-85486411D03*
X197503755Y-88026411D03*
G04 #@! TD*
D10*
G04 #@! TO.C,SW73*
X228873755Y-139946411D03*
D11*
X223793755Y-139946411D03*
D10*
X218713755Y-139946411D03*
D12*
X227603755Y-142486411D03*
X221253755Y-145026411D03*
G04 #@! TD*
D10*
G04 #@! TO.C,SW92*
X323123755Y-158946411D03*
D11*
X318043755Y-158946411D03*
D10*
X312963755Y-158946411D03*
D12*
X321853755Y-161486411D03*
X315503755Y-164026411D03*
G04 #@! TD*
D10*
G04 #@! TO.C,SW23*
X167123755Y-82946411D03*
D11*
X162043755Y-82946411D03*
D10*
X156963755Y-82946411D03*
D12*
X165853755Y-85486411D03*
X159503755Y-88026411D03*
G04 #@! TD*
D10*
G04 #@! TO.C,SW74*
X247873755Y-139946411D03*
D11*
X242793755Y-139946411D03*
D10*
X237713755Y-139946411D03*
D12*
X246603755Y-142486411D03*
X240253755Y-145026411D03*
G04 #@! TD*
D10*
G04 #@! TO.C,SW93*
X342123755Y-158946411D03*
D11*
X337043755Y-158946411D03*
D10*
X331963755Y-158946411D03*
D12*
X340853755Y-161486411D03*
X334503755Y-164026411D03*
G04 #@! TD*
D19*
G04 #@! TO.C,H14*
X24043755Y-120446411D03*
G04 #@! TD*
D10*
G04 #@! TO.C,SWPIPE1*
X295373755Y-101946411D03*
D11*
X290293755Y-101946411D03*
D10*
X285213755Y-101946411D03*
D12*
X294103755Y-104486411D03*
X287753755Y-107026411D03*
G04 #@! TD*
D10*
G04 #@! TO.C,SW62*
X257373755Y-120946411D03*
D11*
X252293755Y-120946411D03*
D10*
X247213755Y-120946411D03*
D12*
X256103755Y-123486411D03*
X249753755Y-126026411D03*
G04 #@! TD*
D10*
G04 #@! TO.C,SW8*
X195123755Y-56446411D03*
D11*
X190043755Y-56446411D03*
D10*
X184963755Y-56446411D03*
D12*
X193853755Y-58986411D03*
X187503755Y-61526411D03*
G04 #@! TD*
D10*
G04 #@! TO.C,SW60*
X219373755Y-120946411D03*
D11*
X214293755Y-120946411D03*
D10*
X209213755Y-120946411D03*
D12*
X218103755Y-123486411D03*
X211753755Y-126026411D03*
G04 #@! TD*
D10*
G04 #@! TO.C,SW72*
X209873755Y-139946411D03*
D11*
X204793755Y-139946411D03*
D10*
X199713755Y-139946411D03*
D12*
X208603755Y-142486411D03*
X202253755Y-145026411D03*
G04 #@! TD*
D10*
G04 #@! TO.C,SWFN1*
X273998755Y-158946411D03*
D11*
X268918755Y-158946411D03*
D10*
X263838755Y-158946411D03*
D12*
X272728755Y-161486411D03*
X266378755Y-164026411D03*
G04 #@! TD*
D10*
G04 #@! TO.C,SW53*
X86373755Y-120946411D03*
D11*
X81293755Y-120946411D03*
D10*
X76213755Y-120946411D03*
D12*
X85103755Y-123486411D03*
X78753755Y-126026411D03*
G04 #@! TD*
D10*
G04 #@! TO.C,SW30*
X323123755Y-82946411D03*
D11*
X318043755Y-82946411D03*
D10*
X312963755Y-82946411D03*
D12*
X321853755Y-85486411D03*
X315503755Y-88026411D03*
G04 #@! TD*
D10*
G04 #@! TO.C,SW45*
X271623755Y-101946411D03*
D11*
X266543755Y-101946411D03*
D10*
X261463755Y-101946411D03*
D12*
X270353755Y-104486411D03*
X264003755Y-107026411D03*
G04 #@! TD*
D10*
G04 #@! TO.C,SW15*
X342123755Y-56446411D03*
D11*
X337043755Y-56446411D03*
D10*
X331963755Y-56446411D03*
D12*
X340853755Y-58986411D03*
X334503755Y-61526411D03*
G04 #@! TD*
D14*
G04 #@! TO.C,SWLSH1*
X52803755Y-146958411D03*
D11*
X52803755Y-131718411D03*
D15*
X45983755Y-139958411D03*
D11*
X40903755Y-139958411D03*
D15*
X35823755Y-139958411D03*
D14*
X29003755Y-146958411D03*
D11*
X29003755Y-131718411D03*
D16*
X38363755Y-145038411D03*
X44713755Y-142498411D03*
G04 #@! TD*
D10*
G04 #@! TO.C,SW6*
X157123755Y-56446411D03*
D11*
X152043755Y-56446411D03*
D10*
X146963755Y-56446411D03*
D12*
X155853755Y-58986411D03*
X149503755Y-61526411D03*
G04 #@! TD*
D10*
G04 #@! TO.C,SWLALT1*
X83998755Y-158946411D03*
D11*
X78918755Y-158946411D03*
D10*
X73838755Y-158946411D03*
D12*
X82728755Y-161486411D03*
X76378755Y-164026411D03*
G04 #@! TD*
D10*
G04 #@! TO.C,SW59*
X200373755Y-120946411D03*
D11*
X195293755Y-120946411D03*
D10*
X190213755Y-120946411D03*
D12*
X199103755Y-123486411D03*
X192753755Y-126026411D03*
G04 #@! TD*
D10*
G04 #@! TO.C,SW54*
X105373755Y-120946411D03*
D11*
X100293755Y-120946411D03*
D10*
X95213755Y-120946411D03*
D12*
X104103755Y-123486411D03*
X97753755Y-126026411D03*
G04 #@! TD*
D18*
G04 #@! TO.C,H11*
X353543755Y-124946411D03*
G04 #@! TD*
D10*
G04 #@! TO.C,SW61*
X238373755Y-120946411D03*
D11*
X233293755Y-120946411D03*
D10*
X228213755Y-120946411D03*
D12*
X237103755Y-123486411D03*
X230753755Y-126026411D03*
G04 #@! TD*
D10*
G04 #@! TO.C,SW44*
X252623755Y-101946411D03*
D11*
X247543755Y-101946411D03*
D10*
X242463755Y-101946411D03*
D12*
X251353755Y-104486411D03*
X245003755Y-107026411D03*
G04 #@! TD*
D10*
G04 #@! TO.C,SW40*
X176623755Y-101946411D03*
D11*
X171543755Y-101946411D03*
D10*
X166463755Y-101946411D03*
D12*
X175353755Y-104486411D03*
X169003755Y-107026411D03*
G04 #@! TD*
D10*
G04 #@! TO.C,SWLCTL1*
X36498755Y-158946411D03*
D11*
X31418755Y-158946411D03*
D10*
X26338755Y-158946411D03*
D12*
X35228755Y-161486411D03*
X28878755Y-164026411D03*
G04 #@! TD*
D10*
G04 #@! TO.C,SWRCTL1*
X297748755Y-158946411D03*
D11*
X292668755Y-158946411D03*
D10*
X287588755Y-158946411D03*
D12*
X296478755Y-161486411D03*
X290128755Y-164026411D03*
G04 #@! TD*
D10*
G04 #@! TO.C,SW20*
X110123755Y-82946411D03*
D11*
X105043755Y-82946411D03*
D10*
X99963755Y-82946411D03*
D12*
X108853755Y-85486411D03*
X102503755Y-88026411D03*
G04 #@! TD*
D10*
G04 #@! TO.C,SW56*
X143373755Y-120946411D03*
D11*
X138293755Y-120946411D03*
D10*
X133213755Y-120946411D03*
D12*
X142103755Y-123486411D03*
X135753755Y-126026411D03*
G04 #@! TD*
D10*
G04 #@! TO.C,SW11*
X262123755Y-56446411D03*
D11*
X257043755Y-56446411D03*
D10*
X251963755Y-56446411D03*
D12*
X260853755Y-58986411D03*
X254503755Y-61526411D03*
G04 #@! TD*
D10*
G04 #@! TO.C,SW68*
X133873755Y-139946411D03*
D11*
X128793755Y-139946411D03*
D10*
X123713755Y-139946411D03*
D12*
X132603755Y-142486411D03*
X126253755Y-145026411D03*
G04 #@! TD*
D10*
G04 #@! TO.C,SW32*
X361123755Y-56446411D03*
D11*
X356043755Y-56446411D03*
D10*
X350963755Y-56446411D03*
D12*
X359853755Y-58986411D03*
X353503755Y-61526411D03*
G04 #@! TD*
D10*
G04 #@! TO.C,SW31*
X342123755Y-82946411D03*
D11*
X337043755Y-82946411D03*
D10*
X331963755Y-82946411D03*
D12*
X340853755Y-85486411D03*
X334503755Y-88026411D03*
G04 #@! TD*
D10*
G04 #@! TO.C,SW94*
X361123755Y-158946411D03*
D11*
X356043755Y-158946411D03*
D10*
X350963755Y-158946411D03*
D12*
X359853755Y-161486411D03*
X353503755Y-164026411D03*
G04 #@! TD*
D10*
G04 #@! TO.C,SW47*
X323123755Y-101946411D03*
D11*
X318043755Y-101946411D03*
D10*
X312963755Y-101946411D03*
D12*
X321853755Y-104486411D03*
X315503755Y-107026411D03*
G04 #@! TD*
D10*
G04 #@! TO.C,SW51*
X361123755Y-101946411D03*
D11*
X356043755Y-101946411D03*
D10*
X350963755Y-101946411D03*
D12*
X359853755Y-104486411D03*
X353503755Y-107026411D03*
G04 #@! TD*
D10*
G04 #@! TO.C,SW12*
X281123755Y-56446411D03*
D11*
X276043755Y-56446411D03*
D10*
X270963755Y-56446411D03*
D12*
X279853755Y-58986411D03*
X273503755Y-61526411D03*
G04 #@! TD*
D10*
G04 #@! TO.C,SW28*
X262123755Y-82946411D03*
D11*
X257043755Y-82946411D03*
D10*
X251963755Y-82946411D03*
D12*
X260853755Y-85486411D03*
X254503755Y-88026411D03*
G04 #@! TD*
D18*
G04 #@! TO.C,H3*
X67043755Y-111046411D03*
G04 #@! TD*
D19*
G04 #@! TO.C,H13*
X361043755Y-143446411D03*
G04 #@! TD*
D10*
G04 #@! TO.C,SW70*
X171873755Y-139946411D03*
D11*
X166793755Y-139946411D03*
D10*
X161713755Y-139946411D03*
D12*
X170603755Y-142486411D03*
X164253755Y-145026411D03*
G04 #@! TD*
D10*
G04 #@! TO.C,SW2*
X71123755Y-56446411D03*
D11*
X66043755Y-56446411D03*
D10*
X60963755Y-56446411D03*
D12*
X69853755Y-58986411D03*
X63503755Y-61526411D03*
G04 #@! TD*
D24*
G04 #@! TO.C,D7*
X162043755Y-53296411D03*
X162043755Y-56596411D03*
G04 #@! TD*
G04 #@! TO.C,D12*
X268043755Y-53296411D03*
X268043755Y-56596411D03*
G04 #@! TD*
D25*
G04 #@! TO.C,R20*
X127101755Y-164850411D03*
X130201755Y-164850411D03*
G04 #@! TD*
D24*
G04 #@! TO.C,D47*
X308343755Y-98446411D03*
X308343755Y-101746411D03*
G04 #@! TD*
G04 #@! TO.C,D22*
X134883755Y-79991411D03*
X134883755Y-83291411D03*
G04 #@! TD*
D26*
G04 #@! TO.C,R1*
X61757755Y-47732411D03*
X58657755Y-47732411D03*
G04 #@! TD*
G04 #@! TO.C,RSH1*
X31593755Y-67446411D03*
X28493755Y-67446411D03*
G04 #@! TD*
D24*
G04 #@! TO.C,D14*
X309043755Y-53296411D03*
X309043755Y-56596411D03*
G04 #@! TD*
D25*
G04 #@! TO.C,R18*
X113585755Y-159746411D03*
X116685755Y-159746411D03*
G04 #@! TD*
D27*
G04 #@! TO.C,Y3*
X154900755Y-68486411D03*
X150020755Y-68486411D03*
G04 #@! TD*
D24*
G04 #@! TO.C,D20*
X95043755Y-79991411D03*
X95043755Y-83291411D03*
G04 #@! TD*
G04 #@! TO.C,D4*
X94878755Y-56496411D03*
X94878755Y-59796411D03*
G04 #@! TD*
G04 #@! TO.C,D60*
X205043755Y-118296411D03*
X205043755Y-121596411D03*
G04 #@! TD*
G04 #@! TO.C,D9*
X201043755Y-53296411D03*
X201043755Y-56596411D03*
G04 #@! TD*
D25*
G04 #@! TO.C,R25*
X168043755Y-150372411D03*
X171143755Y-150372411D03*
G04 #@! TD*
G04 #@! TO.C,R16*
X106735755Y-157738411D03*
X109835755Y-157738411D03*
G04 #@! TD*
D28*
G04 #@! TO.C,C4*
X121845755Y-66274411D03*
X118965755Y-66274411D03*
G04 #@! TD*
D29*
G04 #@! TO.C,C3*
X102986255Y-68486411D03*
D30*
X102986255Y-69986411D03*
G04 #@! TD*
D31*
G04 #@! TO.C,U1*
X133728755Y-64728911D03*
X134528755Y-64728911D03*
X135328755Y-64728911D03*
X136128755Y-64728911D03*
X136928755Y-64728911D03*
X137728755Y-64728911D03*
X138528755Y-64728911D03*
X139328755Y-64728911D03*
X140128755Y-64728911D03*
X140928755Y-64728911D03*
X141728755Y-64728911D03*
D32*
X143391255Y-66391411D03*
X143391255Y-67191411D03*
X143391255Y-67991411D03*
X143391255Y-68791411D03*
X143391255Y-69591411D03*
X143391255Y-70391411D03*
X143391255Y-71191411D03*
X143391255Y-71991411D03*
X143391255Y-72791411D03*
X143391255Y-73591411D03*
X143391255Y-74391411D03*
D31*
X141728755Y-76053911D03*
X140928755Y-76053911D03*
X140128755Y-76053911D03*
X139328755Y-76053911D03*
X138528755Y-76053911D03*
X137728755Y-76053911D03*
X136928755Y-76053911D03*
X136128755Y-76053911D03*
X135328755Y-76053911D03*
X134528755Y-76053911D03*
X133728755Y-76053911D03*
D32*
X132066255Y-74391411D03*
X132066255Y-73591411D03*
X132066255Y-72791411D03*
X132066255Y-71991411D03*
X132066255Y-71191411D03*
X132066255Y-70391411D03*
X132066255Y-69591411D03*
X132066255Y-68791411D03*
X132066255Y-67991411D03*
X132066255Y-67191411D03*
X132066255Y-66391411D03*
G04 #@! TD*
D24*
G04 #@! TO.C,D59*
X186043755Y-118296411D03*
X186043755Y-121596411D03*
G04 #@! TD*
G04 #@! TO.C,DCAPS1*
X46043755Y-111046411D03*
X46043755Y-114346411D03*
G04 #@! TD*
G04 #@! TO.C,D17*
X39633755Y-79991411D03*
X39633755Y-83291411D03*
G04 #@! TD*
G04 #@! TO.C,D10*
X228043755Y-53296411D03*
X228043755Y-56596411D03*
G04 #@! TD*
D25*
G04 #@! TO.C,R19*
X118615022Y-164795773D03*
X121715022Y-164795773D03*
G04 #@! TD*
D33*
G04 #@! TO.C,R4*
X133613755Y-55326411D03*
X133613755Y-58426411D03*
G04 #@! TD*
D24*
G04 #@! TO.C,DLWIN1*
X47253755Y-161906411D03*
X47253755Y-165206411D03*
G04 #@! TD*
G04 #@! TO.C,DLSH1*
X57921755Y-137268411D03*
X57921755Y-140568411D03*
G04 #@! TD*
G04 #@! TO.C,D69*
X139043755Y-137296411D03*
X139043755Y-140596411D03*
G04 #@! TD*
D26*
G04 #@! TO.C,R6*
X39593755Y-71446411D03*
X36493755Y-71446411D03*
G04 #@! TD*
D24*
G04 #@! TO.C,D27*
X228543755Y-79991411D03*
X228543755Y-83291411D03*
G04 #@! TD*
G04 #@! TO.C,D41*
X181691255Y-98446411D03*
X181691255Y-101746411D03*
G04 #@! TD*
G04 #@! TO.C,D26*
X210543755Y-79991411D03*
X210543755Y-83291411D03*
G04 #@! TD*
G04 #@! TO.C,D5*
X113801755Y-56496411D03*
X113801755Y-59796411D03*
G04 #@! TD*
G04 #@! TO.C,D42*
X200741255Y-98446411D03*
X200741255Y-101746411D03*
G04 #@! TD*
G04 #@! TO.C,D53*
X72043755Y-118296411D03*
X72043755Y-121596411D03*
G04 #@! TD*
D26*
G04 #@! TO.C,R17*
X148625755Y-64496411D03*
X145525755Y-64496411D03*
G04 #@! TD*
D24*
G04 #@! TO.C,D25*
X190543755Y-79991411D03*
X190543755Y-83291411D03*
G04 #@! TD*
D34*
G04 #@! TO.C,C17*
X136603755Y-149586411D03*
X139483755Y-149586411D03*
G04 #@! TD*
D35*
G04 #@! TO.C,D29*
X36393755Y-67446411D03*
X39693755Y-67446411D03*
G04 #@! TD*
D24*
G04 #@! TO.C,D94*
X347768755Y-156296411D03*
X347768755Y-159596411D03*
G04 #@! TD*
G04 #@! TO.C,D70*
X157043755Y-137296411D03*
X157043755Y-140596411D03*
G04 #@! TD*
G04 #@! TO.C,D62*
X243043755Y-118296411D03*
X243043755Y-121596411D03*
G04 #@! TD*
G04 #@! TO.C,D72*
X195043755Y-137296411D03*
X195043755Y-140596411D03*
G04 #@! TD*
G04 #@! TO.C,D2*
X73923755Y-57766411D03*
X73923755Y-61066411D03*
G04 #@! TD*
D36*
G04 #@! TO.C,C13*
X143773755Y-55776411D03*
X143773755Y-52896411D03*
G04 #@! TD*
D26*
G04 #@! TO.C,RL1*
X109763755Y-149586411D03*
X106663755Y-149586411D03*
G04 #@! TD*
D28*
G04 #@! TO.C,C10*
X31483755Y-71446411D03*
X28603755Y-71446411D03*
G04 #@! TD*
D24*
G04 #@! TO.C,DTAB1*
X30293755Y-94496411D03*
X30293755Y-97796411D03*
G04 #@! TD*
G04 #@! TO.C,DLCTL1*
X39633755Y-160152411D03*
X39633755Y-163452411D03*
G04 #@! TD*
D25*
G04 #@! TO.C,R24*
X113493755Y-155946411D03*
X116593755Y-155946411D03*
G04 #@! TD*
D28*
G04 #@! TO.C,C14*
X127103755Y-63406411D03*
X124223755Y-63406411D03*
G04 #@! TD*
D24*
G04 #@! TO.C,D92*
X310368755Y-156296411D03*
X310368755Y-159596411D03*
G04 #@! TD*
D33*
G04 #@! TO.C,R3*
X136153755Y-55326411D03*
X136153755Y-58426411D03*
G04 #@! TD*
D24*
G04 #@! TO.C,D6*
X147253755Y-49056411D03*
X147253755Y-52356411D03*
G04 #@! TD*
D26*
G04 #@! TO.C,R2*
X36357755Y-48240411D03*
X33257755Y-48240411D03*
G04 #@! TD*
D24*
G04 #@! TO.C,D49*
X346973755Y-79991411D03*
X346973755Y-83291411D03*
G04 #@! TD*
G04 #@! TO.C,D76*
X348768755Y-137296411D03*
X348768755Y-140596411D03*
G04 #@! TD*
G04 #@! TO.C,D30*
X309843755Y-79991411D03*
X309843755Y-83291411D03*
G04 #@! TD*
D25*
G04 #@! TO.C,R5*
X125713755Y-78466411D03*
X128813755Y-78466411D03*
G04 #@! TD*
G04 #@! TO.C,R27*
X165993755Y-158946411D03*
X169093755Y-158946411D03*
G04 #@! TD*
D28*
G04 #@! TO.C,C5*
X128703755Y-75418411D03*
X125823755Y-75418411D03*
G04 #@! TD*
D24*
G04 #@! TO.C,D54*
X91043755Y-118296411D03*
X91043755Y-121596411D03*
G04 #@! TD*
G04 #@! TO.C,D32*
X348043755Y-53296411D03*
X348043755Y-56596411D03*
G04 #@! TD*
G04 #@! TO.C,D61*
X224043755Y-118296411D03*
X224043755Y-121596411D03*
G04 #@! TD*
G04 #@! TO.C,D43*
X219043755Y-98446411D03*
X219043755Y-101746411D03*
G04 #@! TD*
G04 #@! TO.C,D34*
X48043755Y-98446411D03*
X48043755Y-101746411D03*
G04 #@! TD*
G04 #@! TO.C,D74*
X233043755Y-137296411D03*
X233043755Y-140596411D03*
G04 #@! TD*
G04 #@! TO.C,D23*
X153933755Y-79991411D03*
X153933755Y-83291411D03*
G04 #@! TD*
G04 #@! TO.C,D56*
X129043755Y-118296411D03*
X129043755Y-121596411D03*
G04 #@! TD*
G04 #@! TO.C,D37*
X105043755Y-98446411D03*
X105043755Y-101746411D03*
G04 #@! TD*
D34*
G04 #@! TO.C,C19*
X143603755Y-61702411D03*
X146483755Y-61702411D03*
G04 #@! TD*
D25*
G04 #@! TO.C,R28*
X136493755Y-156946411D03*
X139593755Y-156946411D03*
G04 #@! TD*
D24*
G04 #@! TO.C,D38*
X124043755Y-98446411D03*
X124043755Y-101746411D03*
G04 #@! TD*
G04 #@! TO.C,D16*
X25843755Y-75696411D03*
X25843755Y-78996411D03*
G04 #@! TD*
G04 #@! TO.C,D58*
X167043755Y-118296411D03*
X167043755Y-121596411D03*
G04 #@! TD*
G04 #@! TO.C,D45*
X257043755Y-98446411D03*
X257043755Y-101746411D03*
G04 #@! TD*
G04 #@! TO.C,DLALT1*
X71043755Y-161906411D03*
X71043755Y-165206411D03*
G04 #@! TD*
G04 #@! TO.C,D66*
X81043755Y-137296411D03*
X81043755Y-140596411D03*
G04 #@! TD*
G04 #@! TO.C,D73*
X214043755Y-137296411D03*
X214043755Y-140596411D03*
G04 #@! TD*
G04 #@! TO.C,D48*
X328243755Y-98446411D03*
X328243755Y-101746411D03*
G04 #@! TD*
D34*
G04 #@! TO.C,C9*
X153763755Y-63226411D03*
X156643755Y-63226411D03*
G04 #@! TD*
D26*
G04 #@! TO.C,F1*
X66075755Y-68306411D03*
X62975755Y-68306411D03*
G04 #@! TD*
D34*
G04 #@! TO.C,C16*
X56227755Y-61448411D03*
X59107755Y-61448411D03*
G04 #@! TD*
D37*
G04 #@! TO.C,U2*
X53990255Y-54016411D03*
X53990255Y-53066411D03*
X53990255Y-52116411D03*
X56265255Y-52116411D03*
X56265255Y-53066411D03*
X56265255Y-54016411D03*
G04 #@! TD*
D24*
G04 #@! TO.C,D19*
X78243755Y-79991411D03*
X78243755Y-83291411D03*
G04 #@! TD*
G04 #@! TO.C,D15*
X329043755Y-53296411D03*
X329043755Y-56596411D03*
G04 #@! TD*
D36*
G04 #@! TO.C,C15*
X139963755Y-55776411D03*
X139963755Y-52896411D03*
G04 #@! TD*
D24*
G04 #@! TO.C,DFN1*
X260843755Y-156296411D03*
X260843755Y-159596411D03*
G04 #@! TD*
D38*
G04 #@! TO.C,Q1*
X176481255Y-162996411D03*
X176481255Y-164896411D03*
X174606255Y-163946411D03*
G04 #@! TD*
D24*
G04 #@! TO.C,D36*
X86441255Y-98446411D03*
X86441255Y-101746411D03*
G04 #@! TD*
G04 #@! TO.C,D51*
X347343755Y-98446411D03*
X347343755Y-101746411D03*
G04 #@! TD*
D34*
G04 #@! TO.C,C18*
X136603755Y-153158411D03*
X139483755Y-153158411D03*
G04 #@! TD*
D24*
G04 #@! TO.C,D24*
X172475755Y-79991411D03*
X172475755Y-83291411D03*
G04 #@! TD*
G04 #@! TO.C,D39*
X143591255Y-98446411D03*
X143591255Y-101746411D03*
G04 #@! TD*
D39*
G04 #@! TO.C,AVRISP1*
X349005755Y-71354411D03*
D15*
X349005755Y-68814411D03*
X346465755Y-71354411D03*
X346465755Y-68814411D03*
X343925755Y-71354411D03*
X343925755Y-68814411D03*
G04 #@! TD*
D38*
G04 #@! TO.C,Q2*
X175981255Y-153996411D03*
X175981255Y-155896411D03*
X174106255Y-154946411D03*
G04 #@! TD*
D24*
G04 #@! TO.C,DRWIN1*
X237043755Y-156296411D03*
X237043755Y-159596411D03*
G04 #@! TD*
G04 #@! TO.C,D68*
X119043755Y-137296411D03*
X119043755Y-140596411D03*
G04 #@! TD*
D26*
G04 #@! TO.C,R14*
X169093755Y-163946411D03*
X165993755Y-163946411D03*
G04 #@! TD*
D24*
G04 #@! TO.C,D52*
X55443755Y-111096411D03*
X55443755Y-114396411D03*
G04 #@! TD*
G04 #@! TO.C,D57*
X148043755Y-118296411D03*
X148043755Y-121596411D03*
G04 #@! TD*
G04 #@! TO.C,DBKSP1*
X275543755Y-79991411D03*
X275543755Y-83291411D03*
G04 #@! TD*
G04 #@! TO.C,D1*
X26293755Y-50446411D03*
X26293755Y-53746411D03*
G04 #@! TD*
D26*
G04 #@! TO.C,R15*
X169093755Y-154946411D03*
X165993755Y-154946411D03*
G04 #@! TD*
D24*
G04 #@! TO.C,D55*
X111043755Y-118296411D03*
X111043755Y-121596411D03*
G04 #@! TD*
D40*
G04 #@! TO.C,C12*
X162285296Y-66764363D03*
X165410296Y-66764363D03*
G04 #@! TD*
D41*
G04 #@! TO.C,J1*
X206843755Y-163196411D03*
D42*
X206843755Y-160696411D03*
X206843755Y-158196411D03*
X206843755Y-155696411D03*
G04 #@! TD*
D24*
G04 #@! TO.C,D18*
X58429755Y-79991411D03*
X58429755Y-83291411D03*
G04 #@! TD*
G04 #@! TO.C,DPIPE1*
X281652395Y-98446411D03*
X281652395Y-101746411D03*
G04 #@! TD*
D40*
G04 #@! TO.C,C11*
X160499255Y-69576411D03*
X163624255Y-69576411D03*
G04 #@! TD*
D24*
G04 #@! TO.C,D31*
X327843755Y-79991411D03*
X327843755Y-83291411D03*
G04 #@! TD*
G04 #@! TO.C,D8*
X182043755Y-53296411D03*
X182043755Y-56596411D03*
G04 #@! TD*
D25*
G04 #@! TO.C,R23*
X106655755Y-153946411D03*
X109755755Y-153946411D03*
G04 #@! TD*
D43*
G04 #@! TO.C,U3*
X131382755Y-151134411D03*
X131382755Y-152404411D03*
X131382755Y-153674411D03*
X131382755Y-154944411D03*
X131382755Y-156214411D03*
X131382755Y-157484411D03*
X131382755Y-158754411D03*
X131382755Y-160024411D03*
X122082755Y-160024411D03*
X122082755Y-158754411D03*
X122082755Y-157484411D03*
X122082755Y-156214411D03*
X122082755Y-154944411D03*
X122082755Y-153674411D03*
X122082755Y-152404411D03*
X122082755Y-151134411D03*
G04 #@! TD*
D24*
G04 #@! TO.C,D11*
X249043755Y-53296411D03*
X249043755Y-56596411D03*
G04 #@! TD*
G04 #@! TO.C,D40*
X162641255Y-98446411D03*
X162641255Y-101746411D03*
G04 #@! TD*
G04 #@! TO.C,D21*
X115043755Y-79991411D03*
X115043755Y-83291411D03*
G04 #@! TD*
D44*
G04 #@! TO.C,SW-RESET1*
X330843755Y-67798411D03*
X324343755Y-67798411D03*
X330843755Y-72298411D03*
X324343755Y-72298411D03*
G04 #@! TD*
D24*
G04 #@! TO.C,DRCTL1*
X284443755Y-156296411D03*
X284443755Y-159596411D03*
G04 #@! TD*
G04 #@! TO.C,DRALT1*
X212099755Y-156318411D03*
X212099755Y-159618411D03*
G04 #@! TD*
G04 #@! TO.C,D3*
X77098755Y-57796411D03*
X77098755Y-61096411D03*
G04 #@! TD*
G04 #@! TO.C,D71*
X176043755Y-137296411D03*
X176043755Y-140596411D03*
G04 #@! TD*
G04 #@! TO.C,DRSH1*
X269043755Y-137296411D03*
X269043755Y-140596411D03*
G04 #@! TD*
G04 #@! TO.C,D35*
X68293755Y-98446411D03*
X68293755Y-101746411D03*
G04 #@! TD*
G04 #@! TO.C,D93*
X328968755Y-156296411D03*
X328968755Y-159596411D03*
G04 #@! TD*
G04 #@! TO.C,D44*
X238043755Y-98446411D03*
X238043755Y-101746411D03*
G04 #@! TD*
G04 #@! TO.C,D67*
X100043755Y-137296411D03*
X100043755Y-140596411D03*
G04 #@! TD*
D34*
G04 #@! TO.C,C8*
X146143755Y-76434411D03*
X149023755Y-76434411D03*
G04 #@! TD*
D24*
G04 #@! TO.C,D28*
X247913755Y-79991411D03*
X247913755Y-83291411D03*
G04 #@! TD*
D25*
G04 #@! TO.C,R26*
X176993755Y-150446411D03*
X180093755Y-150446411D03*
G04 #@! TD*
D24*
G04 #@! TO.C,D65*
X62043755Y-137296411D03*
X62043755Y-140596411D03*
G04 #@! TD*
G04 #@! TO.C,DENTER1*
X273043755Y-118296411D03*
X273043755Y-121596411D03*
G04 #@! TD*
G04 #@! TO.C,DSPC1*
X160283755Y-160636411D03*
X160283755Y-163936411D03*
G04 #@! TD*
G04 #@! TO.C,D13*
X287043755Y-53296411D03*
X287043755Y-56596411D03*
G04 #@! TD*
M02*
