G04 #@! TF.GenerationSoftware,KiCad,Pcbnew,10.0.1-10.0.1~ubuntu24.04.1*
G04 #@! TF.CreationDate,2026-04-26T13:37:46+02:00*
G04 #@! TF.ProjectId,emacstkl,656d6163-7374-46b6-9c2e-6b696361645f,rev?*
G04 #@! TF.SameCoordinates,Original*
G04 #@! TF.FileFunction,Soldermask,Top*
G04 #@! TF.FilePolarity,Negative*
%FSLAX46Y46*%
G04 Gerber Fmt 4.6, Leading zero omitted, Abs format (unit mm)*
G04 Created by KiCad (PCBNEW 10.0.1-10.0.1~ubuntu24.04.1) date 2026-04-26 13:37:46*
%MOMM*%
%LPD*%
G01*
G04 APERTURE LIST*
G04 Aperture macros list*
%AMRoundRect*
0 Rectangle with rounded corners*
0 $1 Rounding radius*
0 $2 $3 $4 $5 $6 $7 $8 $9 X,Y pos of 4 corners*
0 Add a 4 corners polygon primitive as box body*
4,1,4,$2,$3,$4,$5,$6,$7,$8,$9,$2,$3,0*
0 Add four circle primitives for the rounded corners*
1,1,$1+$1,$2,$3*
1,1,$1+$1,$4,$5*
1,1,$1+$1,$6,$7*
1,1,$1+$1,$8,$9*
0 Add four rect primitives between the rounded corners*
20,1,$1+$1,$2,$3,$4,$5,0*
20,1,$1+$1,$4,$5,$6,$7,0*
20,1,$1+$1,$6,$7,$8,$9,0*
20,1,$1+$1,$8,$9,$2,$3,0*%
G04 Aperture macros list end*
%ADD10C,1.750000*%
%ADD11C,4.000000*%
%ADD12C,2.500000*%
%ADD13RoundRect,0.250001X0.462499X0.624999X-0.462499X0.624999X-0.462499X-0.624999X0.462499X-0.624999X0*%
%ADD14C,3.000000*%
%ADD15C,6.000000*%
%ADD16C,5.000000*%
%ADD17C,4.500000*%
%ADD18C,0.700000*%
%ADD19O,0.900000X2.400000*%
%ADD20O,0.900000X1.700000*%
%ADD21C,1.500000*%
%ADD22RoundRect,0.250000X-0.350000X0.350000X-0.350000X-0.350000X0.350000X-0.350000X0.350000X0.350000X0*%
%ADD23C,1.200000*%
%ADD24C,2.000000*%
%ADD25R,1.700000X1.700000*%
%ADD26C,1.700000*%
G04 APERTURE END LIST*
D10*
G04 #@! TO.C,SW58*
X181511255Y-120946411D03*
D11*
X176431255Y-120946411D03*
D10*
X171351255Y-120946411D03*
D12*
X180241255Y-123486411D03*
X173891255Y-126026411D03*
G04 #@! TD*
D10*
G04 #@! TO.C,SW57*
X162461255Y-120946411D03*
D11*
X157381255Y-120946411D03*
D10*
X152301255Y-120946411D03*
D12*
X161191255Y-123486411D03*
X154841255Y-126026411D03*
G04 #@! TD*
D10*
G04 #@! TO.C,SW39*
X157623755Y-101946411D03*
D11*
X152543755Y-101946411D03*
D10*
X147463755Y-101946411D03*
D12*
X156353755Y-104486411D03*
X150003755Y-107026411D03*
G04 #@! TD*
D13*
G04 #@! TO.C,DL2*
X331531255Y-116446411D03*
X328556255Y-116446411D03*
G04 #@! TD*
D10*
G04 #@! TO.C,SW5*
X127623755Y-56446411D03*
D11*
X122543755Y-56446411D03*
D10*
X117463755Y-56446411D03*
D12*
X126353755Y-58986411D03*
X120003755Y-61526411D03*
G04 #@! TD*
D10*
G04 #@! TO.C,SW26*
X224123755Y-82946411D03*
D11*
X219043755Y-82946411D03*
D10*
X213963755Y-82946411D03*
D12*
X222853755Y-85486411D03*
X216503755Y-88026411D03*
G04 #@! TD*
D14*
G04 #@! TO.C,H9*
X320543755Y-142396411D03*
G04 #@! TD*
D10*
G04 #@! TO.C,SW37*
X119623755Y-101946411D03*
D11*
X114543755Y-101946411D03*
D10*
X109463755Y-101946411D03*
D12*
X118353755Y-104486411D03*
X112003755Y-107026411D03*
G04 #@! TD*
D11*
G04 #@! TO.C,H2*
X46543755Y-61496411D03*
G04 #@! TD*
D10*
G04 #@! TO.C,SWCAPS1*
X41248755Y-120946411D03*
D11*
X36168755Y-120946411D03*
D10*
X31088755Y-120946411D03*
D12*
X39978755Y-123486411D03*
X33628755Y-126026411D03*
G04 #@! TD*
D10*
G04 #@! TO.C,SW9*
X213623755Y-56446411D03*
D11*
X208543755Y-56446411D03*
D10*
X203463755Y-56446411D03*
D12*
X212353755Y-58986411D03*
X206003755Y-61526411D03*
G04 #@! TD*
D10*
G04 #@! TO.C,SW55*
X124373755Y-120946411D03*
D11*
X119293755Y-120946411D03*
D10*
X114213755Y-120946411D03*
D12*
X123103755Y-123486411D03*
X116753755Y-126026411D03*
G04 #@! TD*
D10*
G04 #@! TO.C,SW42*
X214623755Y-101946411D03*
D11*
X209543755Y-101946411D03*
D10*
X204463755Y-101946411D03*
D12*
X213353755Y-104486411D03*
X207003755Y-107026411D03*
G04 #@! TD*
D10*
G04 #@! TO.C,SWSPC1*
X155248755Y-158946411D03*
D11*
X150168755Y-158946411D03*
D10*
X145088755Y-158946411D03*
D12*
X153978755Y-161486411D03*
X147628755Y-164026411D03*
G04 #@! TD*
D10*
G04 #@! TO.C,SW7*
X175623755Y-56446411D03*
D11*
X170543755Y-56446411D03*
D10*
X165463755Y-56446411D03*
D12*
X174353755Y-58986411D03*
X168003755Y-61526411D03*
G04 #@! TD*
D10*
G04 #@! TO.C,SW65*
X76873755Y-139946411D03*
D11*
X71793755Y-139946411D03*
D10*
X66713755Y-139946411D03*
D12*
X75603755Y-142486411D03*
X69253755Y-145026411D03*
G04 #@! TD*
D10*
G04 #@! TO.C,SW22*
X148173755Y-82946411D03*
D11*
X143093755Y-82946411D03*
D10*
X138013755Y-82946411D03*
D12*
X146903755Y-85486411D03*
X140553755Y-88026411D03*
G04 #@! TD*
D10*
G04 #@! TO.C,SW71*
X190873755Y-139946411D03*
D11*
X185793755Y-139946411D03*
D10*
X180713755Y-139946411D03*
D12*
X189603755Y-142486411D03*
X183253755Y-145026411D03*
G04 #@! TD*
D10*
G04 #@! TO.C,SW27*
X243123755Y-82946411D03*
D11*
X238043755Y-82946411D03*
D10*
X232963755Y-82946411D03*
D12*
X241853755Y-85486411D03*
X235503755Y-88026411D03*
G04 #@! TD*
D10*
G04 #@! TO.C,SW35*
X81623755Y-101946411D03*
D11*
X76543755Y-101946411D03*
D10*
X71463755Y-101946411D03*
D12*
X80353755Y-104486411D03*
X74003755Y-107026411D03*
G04 #@! TD*
D13*
G04 #@! TO.C,DL1*
X318531255Y-116446411D03*
X315556255Y-116446411D03*
G04 #@! TD*
D10*
G04 #@! TO.C,SW1*
X34123755Y-56446411D03*
D11*
X29043755Y-56446411D03*
D10*
X23963755Y-56446411D03*
D12*
X32853755Y-58986411D03*
X26503755Y-61526411D03*
G04 #@! TD*
D10*
G04 #@! TO.C,SW48*
X341623755Y-101946411D03*
D11*
X336543755Y-101946411D03*
D10*
X331463755Y-101946411D03*
D12*
X340353755Y-104486411D03*
X334003755Y-107026411D03*
G04 #@! TD*
D10*
G04 #@! TO.C,SWRSH1*
X283498755Y-139946411D03*
D11*
X278418755Y-139946411D03*
D10*
X273338755Y-139946411D03*
D12*
X282228755Y-142486411D03*
X275878755Y-145026411D03*
G04 #@! TD*
D10*
G04 #@! TO.C,SW17*
X53123755Y-82946411D03*
D11*
X48043755Y-82946411D03*
D10*
X42963755Y-82946411D03*
D12*
X51853755Y-85486411D03*
X45503755Y-88026411D03*
G04 #@! TD*
D13*
G04 #@! TO.C,DL3*
X344531255Y-116446411D03*
X341556255Y-116446411D03*
G04 #@! TD*
D14*
G04 #@! TO.C,H10*
X306543755Y-71446411D03*
G04 #@! TD*
D10*
G04 #@! TO.C,SW67*
X114873755Y-139946411D03*
D11*
X109793755Y-139946411D03*
D10*
X104713755Y-139946411D03*
D12*
X113603755Y-142486411D03*
X107253755Y-145026411D03*
G04 #@! TD*
D15*
G04 #@! TO.C,H1*
X50543755Y-67996411D03*
G04 #@! TD*
D10*
G04 #@! TO.C,SW4*
X108623755Y-56446411D03*
D11*
X103543755Y-56446411D03*
D10*
X98463755Y-56446411D03*
D12*
X107353755Y-58986411D03*
X101003755Y-61526411D03*
G04 #@! TD*
D10*
G04 #@! TO.C,SWBKSP1*
X290623755Y-82946411D03*
D11*
X285543755Y-82946411D03*
D10*
X280463755Y-82946411D03*
D12*
X289353755Y-85486411D03*
X283003755Y-88026411D03*
G04 #@! TD*
D10*
G04 #@! TO.C,SW38*
X138623755Y-101946411D03*
D11*
X133543755Y-101946411D03*
D10*
X128463755Y-101946411D03*
D12*
X137353755Y-104486411D03*
X131003755Y-107026411D03*
G04 #@! TD*
D10*
G04 #@! TO.C,SW41*
X195623755Y-101946411D03*
D11*
X190543755Y-101946411D03*
D10*
X185463755Y-101946411D03*
D12*
X194353755Y-104486411D03*
X188003755Y-107026411D03*
G04 #@! TD*
D10*
G04 #@! TO.C,SW16*
X34123755Y-82946411D03*
D11*
X29043755Y-82946411D03*
D10*
X23963755Y-82946411D03*
D12*
X32853755Y-85486411D03*
X26503755Y-88026411D03*
G04 #@! TD*
D10*
G04 #@! TO.C,SW3*
X89619373Y-56446411D03*
D11*
X84539373Y-56446411D03*
D10*
X79459373Y-56446411D03*
D12*
X88349373Y-58986411D03*
X81999373Y-61526411D03*
G04 #@! TD*
D10*
G04 #@! TO.C,SW13*
X299623755Y-56446411D03*
D11*
X294543755Y-56446411D03*
D10*
X289463755Y-56446411D03*
D12*
X298353755Y-58986411D03*
X292003755Y-61526411D03*
G04 #@! TD*
D10*
G04 #@! TO.C,SW18*
X72123755Y-82946411D03*
D11*
X67043755Y-82946411D03*
D10*
X61963755Y-82946411D03*
D12*
X70853755Y-85486411D03*
X64503755Y-88026411D03*
G04 #@! TD*
D10*
G04 #@! TO.C,SWTAB1*
X38873755Y-101946411D03*
D11*
X33793755Y-101946411D03*
D10*
X28713755Y-101946411D03*
D12*
X37603755Y-104486411D03*
X31253755Y-107026411D03*
G04 #@! TD*
D15*
G04 #@! TO.C,H7*
X256543755Y-110946411D03*
G04 #@! TD*
D16*
G04 #@! TO.C,H5*
X90543755Y-162946411D03*
G04 #@! TD*
D10*
G04 #@! TO.C,SW34*
X62623755Y-101946411D03*
D11*
X57543755Y-101946411D03*
D10*
X52463755Y-101946411D03*
D12*
X61353755Y-104486411D03*
X55003755Y-107026411D03*
G04 #@! TD*
D17*
G04 #@! TO.C,H6*
X161793755Y-111196411D03*
G04 #@! TD*
D10*
G04 #@! TO.C,SW76*
X341623755Y-139896411D03*
D11*
X336543755Y-139896411D03*
D10*
X331463755Y-139896411D03*
D12*
X340353755Y-142436411D03*
X334003755Y-144976411D03*
G04 #@! TD*
D10*
G04 #@! TO.C,SW66*
X95873755Y-139946411D03*
D11*
X90793755Y-139946411D03*
D10*
X85713755Y-139946411D03*
D12*
X94603755Y-142486411D03*
X88253755Y-145026411D03*
G04 #@! TD*
D10*
G04 #@! TO.C,SWLWIN1*
X60248755Y-158946411D03*
D11*
X55168755Y-158946411D03*
D10*
X50088755Y-158946411D03*
D12*
X58978755Y-161486411D03*
X52628755Y-164026411D03*
G04 #@! TD*
D10*
G04 #@! TO.C,SW36*
X100623755Y-101946411D03*
D11*
X95543755Y-101946411D03*
D10*
X90463755Y-101946411D03*
D12*
X99353755Y-104486411D03*
X93003755Y-107026411D03*
G04 #@! TD*
D14*
G04 #@! TO.C,H8*
X67043755Y-151946411D03*
G04 #@! TD*
D10*
G04 #@! TO.C,SWRWIN1*
X250248755Y-158946411D03*
D11*
X245168755Y-158946411D03*
D10*
X240088755Y-158946411D03*
D12*
X248978755Y-161486411D03*
X242628755Y-164026411D03*
G04 #@! TD*
D10*
G04 #@! TO.C,SW49*
X360623755Y-82946411D03*
D11*
X355543755Y-82946411D03*
D10*
X350463755Y-82946411D03*
D12*
X359353755Y-85486411D03*
X353003755Y-88026411D03*
G04 #@! TD*
D10*
G04 #@! TO.C,SW69*
X152936255Y-139946411D03*
D11*
X147856255Y-139946411D03*
D10*
X142776255Y-139946411D03*
D12*
X151666255Y-142486411D03*
X145316255Y-145026411D03*
G04 #@! TD*
D10*
G04 #@! TO.C,SWENTER1*
X288248755Y-120946411D03*
D11*
X283168755Y-120946411D03*
D10*
X278088755Y-120946411D03*
D12*
X286978755Y-123486411D03*
X280628755Y-126026411D03*
G04 #@! TD*
D10*
G04 #@! TO.C,SW43*
X233623755Y-101946411D03*
D11*
X228543755Y-101946411D03*
D10*
X223463755Y-101946411D03*
D12*
X232353755Y-104486411D03*
X226003755Y-107026411D03*
G04 #@! TD*
D10*
G04 #@! TO.C,SW10*
X242623755Y-56446411D03*
D11*
X237543755Y-56446411D03*
D10*
X232463755Y-56446411D03*
D12*
X241353755Y-58986411D03*
X235003755Y-61526411D03*
G04 #@! TD*
D10*
G04 #@! TO.C,SW14*
X322623755Y-56446411D03*
D11*
X317543755Y-56446411D03*
D10*
X312463755Y-56446411D03*
D12*
X321353755Y-58986411D03*
X315003755Y-61526411D03*
G04 #@! TD*
D10*
G04 #@! TO.C,SWRALT1*
X226498755Y-158946411D03*
D11*
X221418755Y-158946411D03*
D10*
X216338755Y-158946411D03*
D12*
X225228755Y-161486411D03*
X218878755Y-164026411D03*
G04 #@! TD*
D10*
G04 #@! TO.C,SW24*
X186123755Y-82946411D03*
D11*
X181043755Y-82946411D03*
D10*
X175963755Y-82946411D03*
D12*
X184853755Y-85486411D03*
X178503755Y-88026411D03*
G04 #@! TD*
D10*
G04 #@! TO.C,SW19*
X91123755Y-82946411D03*
D11*
X86043755Y-82946411D03*
D10*
X80963755Y-82946411D03*
D12*
X89853755Y-85486411D03*
X83503755Y-88026411D03*
G04 #@! TD*
D10*
G04 #@! TO.C,SW21*
X129123755Y-82946411D03*
D11*
X124043755Y-82946411D03*
D10*
X118963755Y-82946411D03*
D12*
X127853755Y-85486411D03*
X121503755Y-88026411D03*
G04 #@! TD*
D10*
G04 #@! TO.C,SW52*
X67373755Y-120946411D03*
D11*
X62293755Y-120946411D03*
D10*
X57213755Y-120946411D03*
D12*
X66103755Y-123486411D03*
X59753755Y-126026411D03*
G04 #@! TD*
D18*
G04 #@! TO.C,USB1*
X50593755Y-49621411D03*
X49743755Y-49621411D03*
X48893755Y-49621411D03*
X48043755Y-49621411D03*
X47193755Y-49621411D03*
X46343755Y-49621411D03*
X45493755Y-49621411D03*
X44643755Y-49621411D03*
X44643755Y-48271411D03*
X45493755Y-48271411D03*
X46343755Y-48271411D03*
X47193755Y-48271411D03*
X48043755Y-48271411D03*
X48893755Y-48271411D03*
X49743755Y-48271411D03*
X50593755Y-48271411D03*
D19*
X51943755Y-48641411D03*
D20*
X51943755Y-45261411D03*
D19*
X43293755Y-48641411D03*
D20*
X43293755Y-45261411D03*
G04 #@! TD*
D10*
G04 #@! TO.C,SW25*
X205123755Y-82946411D03*
D11*
X200043755Y-82946411D03*
D10*
X194963755Y-82946411D03*
D12*
X203853755Y-85486411D03*
X197503755Y-88026411D03*
G04 #@! TD*
D10*
G04 #@! TO.C,SW73*
X228873755Y-139946411D03*
D11*
X223793755Y-139946411D03*
D10*
X218713755Y-139946411D03*
D12*
X227603755Y-142486411D03*
X221253755Y-145026411D03*
G04 #@! TD*
D10*
G04 #@! TO.C,SW92*
X322623755Y-158946411D03*
D11*
X317543755Y-158946411D03*
D10*
X312463755Y-158946411D03*
D12*
X321353755Y-161486411D03*
X315003755Y-164026411D03*
G04 #@! TD*
D10*
G04 #@! TO.C,SW23*
X167123755Y-82946411D03*
D11*
X162043755Y-82946411D03*
D10*
X156963755Y-82946411D03*
D12*
X165853755Y-85486411D03*
X159503755Y-88026411D03*
G04 #@! TD*
D10*
G04 #@! TO.C,SW74*
X247873755Y-139946411D03*
D11*
X242793755Y-139946411D03*
D10*
X237713755Y-139946411D03*
D12*
X246603755Y-142486411D03*
X240253755Y-145026411D03*
G04 #@! TD*
D10*
G04 #@! TO.C,SW93*
X341623755Y-158946411D03*
D11*
X336543755Y-158946411D03*
D10*
X331463755Y-158946411D03*
D12*
X340353755Y-161486411D03*
X334003755Y-164026411D03*
G04 #@! TD*
D10*
G04 #@! TO.C,SWPIPE1*
X295373755Y-101946411D03*
D11*
X290293755Y-101946411D03*
D10*
X285213755Y-101946411D03*
D12*
X294103755Y-104486411D03*
X287753755Y-107026411D03*
G04 #@! TD*
D10*
G04 #@! TO.C,SW62*
X257373755Y-120946411D03*
D11*
X252293755Y-120946411D03*
D10*
X247213755Y-120946411D03*
D12*
X256103755Y-123486411D03*
X249753755Y-126026411D03*
G04 #@! TD*
D10*
G04 #@! TO.C,SW8*
X194623755Y-56446411D03*
D11*
X189543755Y-56446411D03*
D10*
X184463755Y-56446411D03*
D12*
X193353755Y-58986411D03*
X187003755Y-61526411D03*
G04 #@! TD*
D10*
G04 #@! TO.C,SW60*
X219373755Y-120946411D03*
D11*
X214293755Y-120946411D03*
D10*
X209213755Y-120946411D03*
D12*
X218103755Y-123486411D03*
X211753755Y-126026411D03*
G04 #@! TD*
D10*
G04 #@! TO.C,SW72*
X209873755Y-139946411D03*
D11*
X204793755Y-139946411D03*
D10*
X199713755Y-139946411D03*
D12*
X208603755Y-142486411D03*
X202253755Y-145026411D03*
G04 #@! TD*
D10*
G04 #@! TO.C,SWFN1*
X273998755Y-158946411D03*
D11*
X268918755Y-158946411D03*
D10*
X263838755Y-158946411D03*
D12*
X272728755Y-161486411D03*
X266378755Y-164026411D03*
G04 #@! TD*
D10*
G04 #@! TO.C,SW53*
X86373755Y-120946411D03*
D11*
X81293755Y-120946411D03*
D10*
X76213755Y-120946411D03*
D12*
X85103755Y-123486411D03*
X78753755Y-126026411D03*
G04 #@! TD*
D10*
G04 #@! TO.C,SW30*
X322623755Y-82946411D03*
D11*
X317543755Y-82946411D03*
D10*
X312463755Y-82946411D03*
D12*
X321353755Y-85486411D03*
X315003755Y-88026411D03*
G04 #@! TD*
D10*
G04 #@! TO.C,SW45*
X271623755Y-101946411D03*
D11*
X266543755Y-101946411D03*
D10*
X261463755Y-101946411D03*
D12*
X270353755Y-104486411D03*
X264003755Y-107026411D03*
G04 #@! TD*
D10*
G04 #@! TO.C,SW15*
X341623755Y-56446411D03*
D11*
X336543755Y-56446411D03*
D10*
X331463755Y-56446411D03*
D12*
X340353755Y-58986411D03*
X334003755Y-61526411D03*
G04 #@! TD*
D10*
G04 #@! TO.C,SWLSH1*
X45998755Y-139946411D03*
D11*
X40918755Y-139946411D03*
D10*
X35838755Y-139946411D03*
D12*
X44728755Y-142486411D03*
X38378755Y-145026411D03*
G04 #@! TD*
D10*
G04 #@! TO.C,SW6*
X156623755Y-56446411D03*
D11*
X151543755Y-56446411D03*
D10*
X146463755Y-56446411D03*
D12*
X155353755Y-58986411D03*
X149003755Y-61526411D03*
G04 #@! TD*
D10*
G04 #@! TO.C,SWLALT1*
X83998755Y-158946411D03*
D11*
X78918755Y-158946411D03*
D10*
X73838755Y-158946411D03*
D12*
X82728755Y-161486411D03*
X76378755Y-164026411D03*
G04 #@! TD*
D10*
G04 #@! TO.C,SW59*
X200373755Y-120946411D03*
D11*
X195293755Y-120946411D03*
D10*
X190213755Y-120946411D03*
D12*
X199103755Y-123486411D03*
X192753755Y-126026411D03*
G04 #@! TD*
D10*
G04 #@! TO.C,SW54*
X105373755Y-120946411D03*
D11*
X100293755Y-120946411D03*
D10*
X95213755Y-120946411D03*
D12*
X104103755Y-123486411D03*
X97753755Y-126026411D03*
G04 #@! TD*
D16*
G04 #@! TO.C,H11*
X353543755Y-124946411D03*
G04 #@! TD*
D10*
G04 #@! TO.C,SW61*
X238373755Y-120946411D03*
D11*
X233293755Y-120946411D03*
D10*
X228213755Y-120946411D03*
D12*
X237103755Y-123486411D03*
X230753755Y-126026411D03*
G04 #@! TD*
D10*
G04 #@! TO.C,SW44*
X252623755Y-101946411D03*
D11*
X247543755Y-101946411D03*
D10*
X242463755Y-101946411D03*
D12*
X251353755Y-104486411D03*
X245003755Y-107026411D03*
G04 #@! TD*
D13*
G04 #@! TO.C,DL4*
X357531255Y-116446411D03*
X354556255Y-116446411D03*
G04 #@! TD*
D10*
G04 #@! TO.C,SW40*
X176623755Y-101946411D03*
D11*
X171543755Y-101946411D03*
D10*
X166463755Y-101946411D03*
D12*
X175353755Y-104486411D03*
X169003755Y-107026411D03*
G04 #@! TD*
D10*
G04 #@! TO.C,SWLCTL1*
X36498755Y-158946411D03*
D11*
X31418755Y-158946411D03*
D10*
X26338755Y-158946411D03*
D12*
X35228755Y-161486411D03*
X28878755Y-164026411D03*
G04 #@! TD*
D10*
G04 #@! TO.C,SWRCTL1*
X297748755Y-158946411D03*
D11*
X292668755Y-158946411D03*
D10*
X287588755Y-158946411D03*
D12*
X296478755Y-161486411D03*
X290128755Y-164026411D03*
G04 #@! TD*
D10*
G04 #@! TO.C,SW20*
X110123755Y-82946411D03*
D11*
X105043755Y-82946411D03*
D10*
X99963755Y-82946411D03*
D12*
X108853755Y-85486411D03*
X102503755Y-88026411D03*
G04 #@! TD*
D10*
G04 #@! TO.C,SW56*
X143373755Y-120946411D03*
D11*
X138293755Y-120946411D03*
D10*
X133213755Y-120946411D03*
D12*
X142103755Y-123486411D03*
X135753755Y-126026411D03*
G04 #@! TD*
D10*
G04 #@! TO.C,SW11*
X261623755Y-56446411D03*
D11*
X256543755Y-56446411D03*
D10*
X251463755Y-56446411D03*
D12*
X260353755Y-58986411D03*
X254003755Y-61526411D03*
G04 #@! TD*
D10*
G04 #@! TO.C,SW68*
X133873755Y-139946411D03*
D11*
X128793755Y-139946411D03*
D10*
X123713755Y-139946411D03*
D12*
X132603755Y-142486411D03*
X126253755Y-145026411D03*
G04 #@! TD*
D10*
G04 #@! TO.C,SW32*
X360623755Y-56446411D03*
D11*
X355543755Y-56446411D03*
D10*
X350463755Y-56446411D03*
D12*
X359353755Y-58986411D03*
X353003755Y-61526411D03*
G04 #@! TD*
D10*
G04 #@! TO.C,SW31*
X341623755Y-82946411D03*
D11*
X336543755Y-82946411D03*
D10*
X331463755Y-82946411D03*
D12*
X340353755Y-85486411D03*
X334003755Y-88026411D03*
G04 #@! TD*
D10*
G04 #@! TO.C,SW94*
X360623755Y-158946411D03*
D11*
X355543755Y-158946411D03*
D10*
X350463755Y-158946411D03*
D12*
X359353755Y-161486411D03*
X353003755Y-164026411D03*
G04 #@! TD*
D10*
G04 #@! TO.C,SW47*
X322623755Y-101946411D03*
D11*
X317543755Y-101946411D03*
D10*
X312463755Y-101946411D03*
D12*
X321353755Y-104486411D03*
X315003755Y-107026411D03*
G04 #@! TD*
D10*
G04 #@! TO.C,SW51*
X360623755Y-101946411D03*
D11*
X355543755Y-101946411D03*
D10*
X350463755Y-101946411D03*
D12*
X359353755Y-104486411D03*
X353003755Y-107026411D03*
G04 #@! TD*
D10*
G04 #@! TO.C,SW12*
X280623755Y-56446411D03*
D11*
X275543755Y-56446411D03*
D10*
X270463755Y-56446411D03*
D12*
X279353755Y-58986411D03*
X273003755Y-61526411D03*
G04 #@! TD*
D10*
G04 #@! TO.C,SW28*
X262123755Y-82946411D03*
D11*
X257043755Y-82946411D03*
D10*
X251963755Y-82946411D03*
D12*
X260853755Y-85486411D03*
X254503755Y-88026411D03*
G04 #@! TD*
D15*
G04 #@! TO.C,H3*
X67043755Y-111046411D03*
G04 #@! TD*
D10*
G04 #@! TO.C,SW70*
X171873755Y-139946411D03*
D11*
X166793755Y-139946411D03*
D10*
X161713755Y-139946411D03*
D12*
X170603755Y-142486411D03*
X164253755Y-145026411D03*
G04 #@! TD*
D10*
G04 #@! TO.C,SW2*
X70623755Y-56446411D03*
D11*
X65543755Y-56446411D03*
D10*
X60463755Y-56446411D03*
D12*
X69353755Y-58986411D03*
X63003755Y-61526411D03*
G04 #@! TD*
D21*
G04 #@! TO.C,Y2*
X164603755Y-163946411D03*
X169483755Y-163946411D03*
G04 #@! TD*
D22*
G04 #@! TO.C,C3*
X96643755Y-151546411D03*
D23*
X96643755Y-153046411D03*
G04 #@! TD*
D24*
G04 #@! TO.C,SW-BOOT1*
X199293755Y-159696411D03*
X192793755Y-159696411D03*
X199293755Y-164196411D03*
X192793755Y-164196411D03*
G04 #@! TD*
D25*
G04 #@! TO.C,AVRISP1*
X178503755Y-161946411D03*
D26*
X178503755Y-164486411D03*
X181043755Y-161946411D03*
X181043755Y-164486411D03*
X183583755Y-161946411D03*
X183583755Y-164486411D03*
G04 #@! TD*
D24*
G04 #@! TO.C,SW-RESET1*
X211293755Y-159696411D03*
X204793755Y-159696411D03*
X211293755Y-164196411D03*
X204793755Y-164196411D03*
G04 #@! TD*
M02*
