M48
; DRILL file KiCad 10.0.4-10.0.4~ubuntu24.04.1 date 2026-07-12T10:01:39
; FORMAT={-:-/ absolute / metric / decimal}
; #@! TF.CreationDate,2026-07-12T10:01:39+02:00
; #@! TF.GenerationSoftware,Kicad,Pcbnew,10.0.4-10.0.4~ubuntu24.04.1
; #@! TF.FileFunction,NonPlated,1,2,NPTH
FMAT,2
METRIC
; #@! TA.AperFunction,NonPlated,NPTH,ComponentDrill
T1C1.700
; #@! TA.AperFunction,NonPlated,NPTH,ComponentDrill
T2C1.750
; #@! TA.AperFunction,NonPlated,NPTH,ComponentDrill
T3C3.050
; #@! TA.AperFunction,NonPlated,NPTH,ComponentDrill
T4C4.000
; #@! TA.AperFunction,NonPlated,NPTH,ComponentDrill
T5C4.300
; #@! TA.AperFunction,NonPlated,NPTH,ComponentDrill
T6C4.500
; #@! TA.AperFunction,NonPlated,NPTH,ComponentDrill
T7C5.000
; #@! TA.AperFunction,NonPlated,NPTH,ComponentDrill
T8C6.000
%
G90
G05
T1
X35.824Y-139.958
X45.984Y-139.958
X145.069Y-159.002
X155.229Y-159.002
X273.415Y-139.978
X278.114Y-121.004
X280.464Y-83.012
X283.575Y-139.978
X288.274Y-121.004
X290.624Y-83.012
T2
X23.964Y-56.446
X23.964Y-82.946
X26.339Y-158.946
X28.714Y-101.946
X31.089Y-120.946
X34.124Y-56.446
X34.124Y-82.946
X36.499Y-158.946
X38.874Y-101.946
X41.249Y-120.946
X42.964Y-82.946
X50.089Y-158.946
X52.464Y-101.946
X53.124Y-82.946
X57.214Y-120.946
X60.249Y-158.946
X60.964Y-56.446
X61.964Y-82.946
X62.624Y-101.946
X66.714Y-139.946
X67.374Y-120.946
X71.124Y-56.446
X71.464Y-101.946
X72.124Y-82.946
X73.839Y-158.946
X76.214Y-120.946
X76.874Y-139.946
X79.959Y-56.446
X80.964Y-82.946
X81.624Y-101.946
X83.999Y-158.946
X85.714Y-139.946
X86.374Y-120.946
X90.119Y-56.446
X90.464Y-101.946
X91.124Y-82.946
X95.214Y-120.946
X95.874Y-139.946
X98.964Y-56.446
X99.964Y-82.946
X100.624Y-101.946
X104.714Y-139.946
X105.374Y-120.946
X109.124Y-56.446
X109.464Y-101.946
X110.124Y-82.946
X114.214Y-120.946
X114.874Y-139.946
X117.964Y-56.446
X118.964Y-82.946
X119.624Y-101.946
X123.714Y-139.946
X124.374Y-120.946
X128.124Y-56.446
X128.464Y-101.946
X129.124Y-82.946
X133.214Y-120.946
X133.874Y-139.946
X138.014Y-82.946
X138.624Y-101.946
X142.776Y-139.946
X143.374Y-120.946
X146.964Y-56.446
X147.464Y-101.946
X148.174Y-82.946
X152.301Y-120.946
X152.936Y-139.946
X156.964Y-82.946
X157.124Y-56.446
X157.624Y-101.946
X161.714Y-139.946
X162.461Y-120.946
X165.964Y-56.446
X166.464Y-101.946
X167.124Y-82.946
X171.351Y-120.946
X171.874Y-139.946
X175.964Y-82.946
X176.124Y-56.446
X176.624Y-101.946
X180.714Y-139.946
X181.511Y-120.946
X184.964Y-56.446
X185.464Y-101.946
X186.124Y-82.946
X190.214Y-120.946
X190.874Y-139.946
X194.964Y-82.946
X195.124Y-56.446
X195.624Y-101.946
X199.714Y-139.946
X200.374Y-120.946
X203.964Y-56.446
X204.464Y-101.946
X205.124Y-82.946
X209.214Y-120.946
X209.874Y-139.946
X213.964Y-82.946
X214.124Y-56.446
X214.624Y-101.946
X216.339Y-158.946
X218.714Y-139.946
X219.374Y-120.946
X223.464Y-101.946
X224.124Y-82.946
X226.499Y-158.946
X228.214Y-120.946
X228.874Y-139.946
X232.964Y-56.446
X232.964Y-82.946
X233.624Y-101.946
X237.714Y-139.946
X238.374Y-120.946
X240.089Y-158.946
X242.464Y-101.946
X243.124Y-56.446
X243.124Y-82.946
X247.214Y-120.946
X247.874Y-139.946
X250.249Y-158.946
X251.964Y-56.446
X251.964Y-82.946
X252.624Y-101.946
X257.374Y-120.946
X261.464Y-101.946
X262.124Y-56.446
X262.124Y-82.946
X263.839Y-158.946
X270.964Y-56.446
X271.624Y-101.946
X273.999Y-158.946
X281.124Y-56.446
X285.214Y-101.946
X287.589Y-158.946
X289.964Y-56.446
X295.374Y-101.946
X297.749Y-158.946
X300.124Y-56.446
X312.964Y-56.446
X312.964Y-82.946
X312.964Y-101.946
X312.964Y-158.946
X323.124Y-56.446
X323.124Y-82.946
X323.124Y-101.946
X323.124Y-158.946
X331.964Y-56.446
X331.964Y-82.946
X331.964Y-101.946
X331.964Y-139.896
X331.964Y-158.946
X342.124Y-56.446
X342.124Y-82.946
X342.124Y-101.946
X342.124Y-139.896
X342.124Y-158.946
X350.964Y-56.446
X350.964Y-82.946
X350.964Y-101.946
X350.964Y-158.946
X361.124Y-56.446
X361.124Y-82.946
X361.124Y-101.946
X361.124Y-158.946
T3
X29.004Y-146.958
X52.804Y-146.958
X100.149Y-166.002
X200.149Y-166.002
X266.595Y-146.978
X271.294Y-128.004
X273.644Y-90.012
X290.395Y-146.978
X295.094Y-128.004
X297.444Y-90.012
T4
X29.004Y-131.718
X29.044Y-56.446
X29.044Y-82.946
X31.419Y-158.946
X33.794Y-101.946
X36.169Y-120.946
X40.904Y-139.958
X48.044Y-82.946
X52.804Y-131.718
X55.169Y-158.946
X57.544Y-101.946
X62.294Y-120.946
X66.044Y-56.446
X67.044Y-82.946
X67.044Y-151.946
X71.794Y-139.946
X76.544Y-101.946
X78.919Y-158.946
X81.294Y-120.946
X85.039Y-56.446
X86.044Y-82.946
X90.794Y-139.946
X95.544Y-101.946
X100.149Y-150.762
X100.294Y-120.946
X104.044Y-56.446
X105.044Y-82.946
X109.794Y-139.946
X114.544Y-101.946
X119.294Y-120.946
X123.044Y-56.446
X124.044Y-82.946
X128.794Y-139.946
X133.544Y-101.946
X138.294Y-120.946
X143.094Y-82.946
X147.856Y-139.946
X150.149Y-159.002
X152.044Y-56.446
X152.544Y-101.946
X157.381Y-120.946
X162.044Y-82.946
X166.794Y-139.946
X171.044Y-56.446
X171.544Y-101.946
X176.431Y-120.946
X181.044Y-82.946
X185.794Y-139.946
X190.044Y-56.446
X190.544Y-101.946
X195.294Y-120.946
X200.044Y-82.946
X200.149Y-150.762
X204.794Y-139.946
X209.044Y-56.446
X209.544Y-101.946
X214.294Y-120.946
X219.044Y-82.946
X221.419Y-158.946
X223.794Y-139.946
X228.544Y-101.946
X233.294Y-120.946
X238.044Y-56.446
X238.044Y-82.946
X242.794Y-139.946
X245.169Y-158.946
X247.544Y-101.946
X252.294Y-120.946
X257.044Y-56.446
X257.044Y-82.946
X266.544Y-101.946
X266.595Y-131.738
X268.919Y-158.946
X271.294Y-112.764
X273.644Y-74.772
X276.044Y-56.446
X278.495Y-139.978
X283.194Y-121.004
X285.544Y-83.012
X290.294Y-101.946
X290.395Y-131.738
X292.669Y-158.946
X295.044Y-56.446
X295.094Y-112.764
X297.444Y-74.772
X306.544Y-71.446
X318.044Y-56.446
X318.044Y-82.946
X318.044Y-101.946
X318.044Y-158.946
X320.544Y-142.396
X337.044Y-56.446
X337.044Y-82.946
X337.044Y-101.946
X337.044Y-139.896
X337.044Y-158.946
X356.044Y-56.446
X356.044Y-82.946
X356.044Y-101.946
X356.044Y-158.946
T5
X24.044Y-120.446
X361.044Y-69.446
X361.044Y-143.446
T6
X161.794Y-111.196
T7
X46.544Y-61.496
T8
X67.044Y-111.046
X90.544Y-162.946
X256.544Y-110.946
X353.544Y-124.946
M30
