%TF.GenerationSoftware,KiCad,Pcbnew,10.0.4-10.0.4~ubuntu24.04.1*%
%TF.CreationDate,2026-07-12T10:01:39+02:00*%
%TF.ProjectId,emacstkl,656d6163-7374-46b6-9c2e-6b696361645f,rev?*%
%TF.SameCoordinates,Original*%
%TF.FileFunction,Drillmap*%
%TF.FilePolarity,Positive*%
%FSLAX45Y45*%
G04 Gerber Fmt 4.5, Leading zero omitted, Abs format (unit mm)*
G04 Created by KiCad (PCBNEW 10.0.4-10.0.4~ubuntu24.04.1) date 2026-07-12 10:01:39*
%MOMM*%
%LPD*%
G01*
G04 APERTURE LIST*
%ADD10C,0.050000*%
%ADD11C,0.200000*%
%ADD12C,0.170000*%
%ADD13C,0.175000*%
%ADD14C,0.305000*%
%ADD15C,0.400000*%
%ADD16C,0.430000*%
%ADD17C,0.450000*%
%ADD18C,0.500000*%
%ADD19C,0.600000*%
G04 APERTURE END LIST*
D10*
X1804375Y-4744641D02*
G75*
G02*
X2004375Y-4544642I200000J0D01*
G01*
X1804375Y-16894641D02*
X1804375Y-4744641D01*
X2004375Y-17094641D02*
G75*
G02*
X1804375Y-16894641I-1J200000D01*
G01*
X2004375Y-17094641D02*
X4654376Y-17094641D01*
X4004375Y-4394641D02*
G75*
G02*
X4195794Y-4194455I191419J8576D01*
G01*
X4004375Y-4544641D02*
X2004375Y-4544641D01*
X4004375Y-4544641D02*
X4004375Y-4394641D01*
X4204376Y-4194641D02*
X5204376Y-4194641D01*
X4654376Y-16894641D02*
X4654376Y-17094641D01*
X5204376Y-4194645D02*
G75*
G02*
X5404375Y-4394645I4J-199995D01*
G01*
X5404376Y-4394641D02*
X5404376Y-4539641D01*
X5404376Y-4539641D02*
X6234375Y-4539641D01*
X5554376Y-16894641D02*
X4654376Y-16894641D01*
X5554376Y-16894641D02*
X5554376Y-17094641D01*
X7904375Y-16894641D02*
X7904375Y-17094641D01*
X7904375Y-17094641D02*
X5554376Y-17094641D01*
X8804376Y-16894641D02*
X7904375Y-16894641D01*
X8804376Y-16894641D02*
X8804376Y-17096974D01*
X11004376Y-16894641D02*
X11004376Y-17094641D01*
X11004376Y-17094641D02*
X8804376Y-17096974D01*
X12004375Y-16894641D02*
X11004376Y-16894641D01*
X12004375Y-16894641D02*
X12004375Y-17094641D01*
X16904376Y-16839641D02*
X16904376Y-17094641D01*
X16904376Y-17094641D02*
X12004375Y-17094641D01*
X18354376Y-16839641D02*
X16904376Y-16839641D01*
X18354376Y-17094641D02*
X18354376Y-16839641D01*
X19104376Y-16989641D02*
X19104376Y-17094641D01*
X19104376Y-17094641D02*
X18354376Y-17094641D01*
X36454376Y-4544641D02*
X6234375Y-4539641D01*
X36454376Y-4544641D02*
G75*
G02*
X36654379Y-4744641I5J-199999D01*
G01*
X36454376Y-16994641D02*
X19104376Y-16989641D01*
X36654376Y-16794641D02*
X36654376Y-4744641D01*
X36654552Y-16786062D02*
G75*
G02*
X36454375Y-16994636I-208752J2D01*
G01*
D11*
D12*
X3497375Y-13910841D02*
X3667375Y-14080841D01*
X3667375Y-13910841D02*
X3497375Y-14080841D01*
X4513376Y-13910841D02*
X4683376Y-14080841D01*
X4683376Y-13910841D02*
X4513376Y-14080841D01*
X14421915Y-15815231D02*
X14591915Y-15985231D01*
X14591915Y-15815231D02*
X14421915Y-15985231D01*
X15437915Y-15815231D02*
X15607915Y-15985231D01*
X15607915Y-15815231D02*
X15437915Y-15985231D01*
X27256535Y-13912771D02*
X27426535Y-14082771D01*
X27426535Y-13912771D02*
X27256535Y-14082771D01*
X27726375Y-12015391D02*
X27896375Y-12185391D01*
X27896375Y-12015391D02*
X27726375Y-12185391D01*
X27961375Y-8216161D02*
X28131375Y-8386161D01*
X28131375Y-8216161D02*
X27961375Y-8386161D01*
X28272535Y-13912771D02*
X28442535Y-14082771D01*
X28442535Y-13912771D02*
X28272535Y-14082771D01*
X28742375Y-12015391D02*
X28912375Y-12185391D01*
X28912375Y-12015391D02*
X28742375Y-12185391D01*
X28977375Y-8216161D02*
X29147375Y-8386161D01*
X29147375Y-8216161D02*
X28977375Y-8386161D01*
D13*
X2483876Y-5644641D02*
G75*
G02*
X2308876Y-5644641I-87500J0D01*
G01*
X2308876Y-5644641D02*
G75*
G02*
X2483876Y-5644641I87500J0D01*
G01*
X2483876Y-8294641D02*
G75*
G02*
X2308876Y-8294641I-87500J0D01*
G01*
X2308876Y-8294641D02*
G75*
G02*
X2483876Y-8294641I87500J0D01*
G01*
X2721376Y-15894641D02*
G75*
G02*
X2546376Y-15894641I-87500J0D01*
G01*
X2546376Y-15894641D02*
G75*
G02*
X2721376Y-15894641I87500J0D01*
G01*
X2958875Y-10194641D02*
G75*
G02*
X2783876Y-10194641I-87500J0D01*
G01*
X2783876Y-10194641D02*
G75*
G02*
X2958875Y-10194641I87500J0D01*
G01*
X3196375Y-12094641D02*
G75*
G02*
X3021375Y-12094641I-87500J0D01*
G01*
X3021375Y-12094641D02*
G75*
G02*
X3196375Y-12094641I87500J0D01*
G01*
X3499875Y-5644641D02*
G75*
G02*
X3324875Y-5644641I-87500J0D01*
G01*
X3324875Y-5644641D02*
G75*
G02*
X3499875Y-5644641I87500J0D01*
G01*
X3499875Y-8294641D02*
G75*
G02*
X3324875Y-8294641I-87500J0D01*
G01*
X3324875Y-8294641D02*
G75*
G02*
X3499875Y-8294641I87500J0D01*
G01*
X3737375Y-15894641D02*
G75*
G02*
X3562375Y-15894641I-87500J0D01*
G01*
X3562375Y-15894641D02*
G75*
G02*
X3737375Y-15894641I87500J0D01*
G01*
X3974875Y-10194641D02*
G75*
G02*
X3799875Y-10194641I-87500J0D01*
G01*
X3799875Y-10194641D02*
G75*
G02*
X3974875Y-10194641I87500J0D01*
G01*
X4212376Y-12094641D02*
G75*
G02*
X4037375Y-12094641I-87500J0D01*
G01*
X4037375Y-12094641D02*
G75*
G02*
X4212376Y-12094641I87500J0D01*
G01*
X4383876Y-8294641D02*
G75*
G02*
X4208876Y-8294641I-87500J0D01*
G01*
X4208876Y-8294641D02*
G75*
G02*
X4383876Y-8294641I87500J0D01*
G01*
X5096376Y-15894641D02*
G75*
G02*
X4921376Y-15894641I-87500J0D01*
G01*
X4921376Y-15894641D02*
G75*
G02*
X5096376Y-15894641I87500J0D01*
G01*
X5333876Y-10194641D02*
G75*
G02*
X5158876Y-10194641I-87500J0D01*
G01*
X5158876Y-10194641D02*
G75*
G02*
X5333876Y-10194641I87500J0D01*
G01*
X5399876Y-8294641D02*
G75*
G02*
X5224876Y-8294641I-87500J0D01*
G01*
X5224876Y-8294641D02*
G75*
G02*
X5399876Y-8294641I87500J0D01*
G01*
X5808875Y-12094641D02*
G75*
G02*
X5633875Y-12094641I-87500J0D01*
G01*
X5633875Y-12094641D02*
G75*
G02*
X5808875Y-12094641I87500J0D01*
G01*
X6112375Y-15894641D02*
G75*
G02*
X5937375Y-15894641I-87500J0D01*
G01*
X5937375Y-15894641D02*
G75*
G02*
X6112375Y-15894641I87500J0D01*
G01*
X6183875Y-5644641D02*
G75*
G02*
X6008875Y-5644641I-87500J0D01*
G01*
X6008875Y-5644641D02*
G75*
G02*
X6183875Y-5644641I87500J0D01*
G01*
X6283875Y-8294641D02*
G75*
G02*
X6108875Y-8294641I-87500J0D01*
G01*
X6108875Y-8294641D02*
G75*
G02*
X6283875Y-8294641I87500J0D01*
G01*
X6349875Y-10194641D02*
G75*
G02*
X6174875Y-10194641I-87500J0D01*
G01*
X6174875Y-10194641D02*
G75*
G02*
X6349875Y-10194641I87500J0D01*
G01*
X6758875Y-13994641D02*
G75*
G02*
X6583875Y-13994641I-87500J0D01*
G01*
X6583875Y-13994641D02*
G75*
G02*
X6758875Y-13994641I87500J0D01*
G01*
X6824875Y-12094641D02*
G75*
G02*
X6649875Y-12094641I-87500J0D01*
G01*
X6649875Y-12094641D02*
G75*
G02*
X6824875Y-12094641I87500J0D01*
G01*
X7199875Y-5644641D02*
G75*
G02*
X7024875Y-5644641I-87500J0D01*
G01*
X7024875Y-5644641D02*
G75*
G02*
X7199875Y-5644641I87500J0D01*
G01*
X7233875Y-10194641D02*
G75*
G02*
X7058875Y-10194641I-87500J0D01*
G01*
X7058875Y-10194641D02*
G75*
G02*
X7233875Y-10194641I87500J0D01*
G01*
X7299875Y-8294641D02*
G75*
G02*
X7124875Y-8294641I-87500J0D01*
G01*
X7124875Y-8294641D02*
G75*
G02*
X7299875Y-8294641I87500J0D01*
G01*
X7471375Y-15894641D02*
G75*
G02*
X7296375Y-15894641I-87500J0D01*
G01*
X7296375Y-15894641D02*
G75*
G02*
X7471375Y-15894641I87500J0D01*
G01*
X7708875Y-12094641D02*
G75*
G02*
X7533875Y-12094641I-87500J0D01*
G01*
X7533875Y-12094641D02*
G75*
G02*
X7708875Y-12094641I87500J0D01*
G01*
X7774875Y-13994641D02*
G75*
G02*
X7599875Y-13994641I-87500J0D01*
G01*
X7599875Y-13994641D02*
G75*
G02*
X7774875Y-13994641I87500J0D01*
G01*
X8083437Y-5644641D02*
G75*
G02*
X7908437Y-5644641I-87500J0D01*
G01*
X7908437Y-5644641D02*
G75*
G02*
X8083437Y-5644641I87500J0D01*
G01*
X8183875Y-8294641D02*
G75*
G02*
X8008875Y-8294641I-87500J0D01*
G01*
X8008875Y-8294641D02*
G75*
G02*
X8183875Y-8294641I87500J0D01*
G01*
X8249875Y-10194641D02*
G75*
G02*
X8074875Y-10194641I-87500J0D01*
G01*
X8074875Y-10194641D02*
G75*
G02*
X8249875Y-10194641I87500J0D01*
G01*
X8487376Y-15894641D02*
G75*
G02*
X8312375Y-15894641I-87500J0D01*
G01*
X8312375Y-15894641D02*
G75*
G02*
X8487376Y-15894641I87500J0D01*
G01*
X8658876Y-13994641D02*
G75*
G02*
X8483876Y-13994641I-87500J0D01*
G01*
X8483876Y-13994641D02*
G75*
G02*
X8658876Y-13994641I87500J0D01*
G01*
X8724876Y-12094641D02*
G75*
G02*
X8549876Y-12094641I-87500J0D01*
G01*
X8549876Y-12094641D02*
G75*
G02*
X8724876Y-12094641I87500J0D01*
G01*
X9099437Y-5644641D02*
G75*
G02*
X8924437Y-5644641I-87500J0D01*
G01*
X8924437Y-5644641D02*
G75*
G02*
X9099437Y-5644641I87500J0D01*
G01*
X9133876Y-10194641D02*
G75*
G02*
X8958876Y-10194641I-87500J0D01*
G01*
X8958876Y-10194641D02*
G75*
G02*
X9133876Y-10194641I87500J0D01*
G01*
X9199876Y-8294641D02*
G75*
G02*
X9024876Y-8294641I-87500J0D01*
G01*
X9024876Y-8294641D02*
G75*
G02*
X9199876Y-8294641I87500J0D01*
G01*
X9608876Y-12094641D02*
G75*
G02*
X9433876Y-12094641I-87500J0D01*
G01*
X9433876Y-12094641D02*
G75*
G02*
X9608876Y-12094641I87500J0D01*
G01*
X9674876Y-13994641D02*
G75*
G02*
X9499876Y-13994641I-87500J0D01*
G01*
X9499876Y-13994641D02*
G75*
G02*
X9674876Y-13994641I87500J0D01*
G01*
X9983876Y-5644641D02*
G75*
G02*
X9808876Y-5644641I-87500J0D01*
G01*
X9808876Y-5644641D02*
G75*
G02*
X9983876Y-5644641I87500J0D01*
G01*
X10083876Y-8294641D02*
G75*
G02*
X9908876Y-8294641I-87500J0D01*
G01*
X9908876Y-8294641D02*
G75*
G02*
X10083876Y-8294641I87500J0D01*
G01*
X10149876Y-10194641D02*
G75*
G02*
X9974876Y-10194641I-87500J0D01*
G01*
X9974876Y-10194641D02*
G75*
G02*
X10149876Y-10194641I87500J0D01*
G01*
X10558876Y-13994641D02*
G75*
G02*
X10383876Y-13994641I-87500J0D01*
G01*
X10383876Y-13994641D02*
G75*
G02*
X10558876Y-13994641I87500J0D01*
G01*
X10624876Y-12094641D02*
G75*
G02*
X10449876Y-12094641I-87500J0D01*
G01*
X10449876Y-12094641D02*
G75*
G02*
X10624876Y-12094641I87500J0D01*
G01*
X10999876Y-5644641D02*
G75*
G02*
X10824876Y-5644641I-87500J0D01*
G01*
X10824876Y-5644641D02*
G75*
G02*
X10999876Y-5644641I87500J0D01*
G01*
X11033876Y-10194641D02*
G75*
G02*
X10858876Y-10194641I-87500J0D01*
G01*
X10858876Y-10194641D02*
G75*
G02*
X11033876Y-10194641I87500J0D01*
G01*
X11099876Y-8294641D02*
G75*
G02*
X10924876Y-8294641I-87500J0D01*
G01*
X10924876Y-8294641D02*
G75*
G02*
X11099876Y-8294641I87500J0D01*
G01*
X11508875Y-12094641D02*
G75*
G02*
X11333875Y-12094641I-87500J0D01*
G01*
X11333875Y-12094641D02*
G75*
G02*
X11508875Y-12094641I87500J0D01*
G01*
X11574875Y-13994641D02*
G75*
G02*
X11399875Y-13994641I-87500J0D01*
G01*
X11399875Y-13994641D02*
G75*
G02*
X11574875Y-13994641I87500J0D01*
G01*
X11883875Y-5644641D02*
G75*
G02*
X11708875Y-5644641I-87500J0D01*
G01*
X11708875Y-5644641D02*
G75*
G02*
X11883875Y-5644641I87500J0D01*
G01*
X11983875Y-8294641D02*
G75*
G02*
X11808875Y-8294641I-87500J0D01*
G01*
X11808875Y-8294641D02*
G75*
G02*
X11983875Y-8294641I87500J0D01*
G01*
X12049875Y-10194641D02*
G75*
G02*
X11874875Y-10194641I-87500J0D01*
G01*
X11874875Y-10194641D02*
G75*
G02*
X12049875Y-10194641I87500J0D01*
G01*
X12458875Y-13994641D02*
G75*
G02*
X12283875Y-13994641I-87500J0D01*
G01*
X12283875Y-13994641D02*
G75*
G02*
X12458875Y-13994641I87500J0D01*
G01*
X12524875Y-12094641D02*
G75*
G02*
X12349875Y-12094641I-87500J0D01*
G01*
X12349875Y-12094641D02*
G75*
G02*
X12524875Y-12094641I87500J0D01*
G01*
X12899875Y-5644641D02*
G75*
G02*
X12724875Y-5644641I-87500J0D01*
G01*
X12724875Y-5644641D02*
G75*
G02*
X12899875Y-5644641I87500J0D01*
G01*
X12933875Y-10194641D02*
G75*
G02*
X12758875Y-10194641I-87500J0D01*
G01*
X12758875Y-10194641D02*
G75*
G02*
X12933875Y-10194641I87500J0D01*
G01*
X12999875Y-8294641D02*
G75*
G02*
X12824875Y-8294641I-87500J0D01*
G01*
X12824875Y-8294641D02*
G75*
G02*
X12999875Y-8294641I87500J0D01*
G01*
X13408875Y-12094641D02*
G75*
G02*
X13233875Y-12094641I-87500J0D01*
G01*
X13233875Y-12094641D02*
G75*
G02*
X13408875Y-12094641I87500J0D01*
G01*
X13474875Y-13994641D02*
G75*
G02*
X13299875Y-13994641I-87500J0D01*
G01*
X13299875Y-13994641D02*
G75*
G02*
X13474875Y-13994641I87500J0D01*
G01*
X13888875Y-8294641D02*
G75*
G02*
X13713875Y-8294641I-87500J0D01*
G01*
X13713875Y-8294641D02*
G75*
G02*
X13888875Y-8294641I87500J0D01*
G01*
X13949875Y-10194641D02*
G75*
G02*
X13774875Y-10194641I-87500J0D01*
G01*
X13774875Y-10194641D02*
G75*
G02*
X13949875Y-10194641I87500J0D01*
G01*
X14365125Y-13994641D02*
G75*
G02*
X14190125Y-13994641I-87500J0D01*
G01*
X14190125Y-13994641D02*
G75*
G02*
X14365125Y-13994641I87500J0D01*
G01*
X14424875Y-12094641D02*
G75*
G02*
X14249875Y-12094641I-87500J0D01*
G01*
X14249875Y-12094641D02*
G75*
G02*
X14424875Y-12094641I87500J0D01*
G01*
X14783875Y-5644641D02*
G75*
G02*
X14608875Y-5644641I-87500J0D01*
G01*
X14608875Y-5644641D02*
G75*
G02*
X14783875Y-5644641I87500J0D01*
G01*
X14833875Y-10194641D02*
G75*
G02*
X14658875Y-10194641I-87500J0D01*
G01*
X14658875Y-10194641D02*
G75*
G02*
X14833875Y-10194641I87500J0D01*
G01*
X14904875Y-8294641D02*
G75*
G02*
X14729875Y-8294641I-87500J0D01*
G01*
X14729875Y-8294641D02*
G75*
G02*
X14904875Y-8294641I87500J0D01*
G01*
X15317625Y-12094641D02*
G75*
G02*
X15142625Y-12094641I-87500J0D01*
G01*
X15142625Y-12094641D02*
G75*
G02*
X15317625Y-12094641I87500J0D01*
G01*
X15381125Y-13994641D02*
G75*
G02*
X15206125Y-13994641I-87500J0D01*
G01*
X15206125Y-13994641D02*
G75*
G02*
X15381125Y-13994641I87500J0D01*
G01*
X15783875Y-8294641D02*
G75*
G02*
X15608875Y-8294641I-87500J0D01*
G01*
X15608875Y-8294641D02*
G75*
G02*
X15783875Y-8294641I87500J0D01*
G01*
X15799875Y-5644641D02*
G75*
G02*
X15624875Y-5644641I-87500J0D01*
G01*
X15624875Y-5644641D02*
G75*
G02*
X15799875Y-5644641I87500J0D01*
G01*
X15849875Y-10194641D02*
G75*
G02*
X15674875Y-10194641I-87500J0D01*
G01*
X15674875Y-10194641D02*
G75*
G02*
X15849875Y-10194641I87500J0D01*
G01*
X16258875Y-13994641D02*
G75*
G02*
X16083875Y-13994641I-87500J0D01*
G01*
X16083875Y-13994641D02*
G75*
G02*
X16258875Y-13994641I87500J0D01*
G01*
X16333625Y-12094641D02*
G75*
G02*
X16158625Y-12094641I-87500J0D01*
G01*
X16158625Y-12094641D02*
G75*
G02*
X16333625Y-12094641I87500J0D01*
G01*
X16683875Y-5644641D02*
G75*
G02*
X16508875Y-5644641I-87500J0D01*
G01*
X16508875Y-5644641D02*
G75*
G02*
X16683875Y-5644641I87500J0D01*
G01*
X16733875Y-10194641D02*
G75*
G02*
X16558875Y-10194641I-87500J0D01*
G01*
X16558875Y-10194641D02*
G75*
G02*
X16733875Y-10194641I87500J0D01*
G01*
X16799876Y-8294641D02*
G75*
G02*
X16624875Y-8294641I-87500J0D01*
G01*
X16624875Y-8294641D02*
G75*
G02*
X16799876Y-8294641I87500J0D01*
G01*
X17222626Y-12094641D02*
G75*
G02*
X17047626Y-12094641I-87500J0D01*
G01*
X17047626Y-12094641D02*
G75*
G02*
X17222626Y-12094641I87500J0D01*
G01*
X17274876Y-13994641D02*
G75*
G02*
X17099876Y-13994641I-87500J0D01*
G01*
X17099876Y-13994641D02*
G75*
G02*
X17274876Y-13994641I87500J0D01*
G01*
X17683876Y-8294641D02*
G75*
G02*
X17508876Y-8294641I-87500J0D01*
G01*
X17508876Y-8294641D02*
G75*
G02*
X17683876Y-8294641I87500J0D01*
G01*
X17699876Y-5644641D02*
G75*
G02*
X17524876Y-5644641I-87500J0D01*
G01*
X17524876Y-5644641D02*
G75*
G02*
X17699876Y-5644641I87500J0D01*
G01*
X17749876Y-10194641D02*
G75*
G02*
X17574876Y-10194641I-87500J0D01*
G01*
X17574876Y-10194641D02*
G75*
G02*
X17749876Y-10194641I87500J0D01*
G01*
X18158876Y-13994641D02*
G75*
G02*
X17983876Y-13994641I-87500J0D01*
G01*
X17983876Y-13994641D02*
G75*
G02*
X18158876Y-13994641I87500J0D01*
G01*
X18238626Y-12094641D02*
G75*
G02*
X18063626Y-12094641I-87500J0D01*
G01*
X18063626Y-12094641D02*
G75*
G02*
X18238626Y-12094641I87500J0D01*
G01*
X18583876Y-5644641D02*
G75*
G02*
X18408876Y-5644641I-87500J0D01*
G01*
X18408876Y-5644641D02*
G75*
G02*
X18583876Y-5644641I87500J0D01*
G01*
X18633876Y-10194641D02*
G75*
G02*
X18458876Y-10194641I-87500J0D01*
G01*
X18458876Y-10194641D02*
G75*
G02*
X18633876Y-10194641I87500J0D01*
G01*
X18699876Y-8294641D02*
G75*
G02*
X18524876Y-8294641I-87500J0D01*
G01*
X18524876Y-8294641D02*
G75*
G02*
X18699876Y-8294641I87500J0D01*
G01*
X19108876Y-12094641D02*
G75*
G02*
X18933876Y-12094641I-87500J0D01*
G01*
X18933876Y-12094641D02*
G75*
G02*
X19108876Y-12094641I87500J0D01*
G01*
X19174876Y-13994641D02*
G75*
G02*
X18999876Y-13994641I-87500J0D01*
G01*
X18999876Y-13994641D02*
G75*
G02*
X19174876Y-13994641I87500J0D01*
G01*
X19583876Y-8294641D02*
G75*
G02*
X19408876Y-8294641I-87500J0D01*
G01*
X19408876Y-8294641D02*
G75*
G02*
X19583876Y-8294641I87500J0D01*
G01*
X19599876Y-5644641D02*
G75*
G02*
X19424876Y-5644641I-87500J0D01*
G01*
X19424876Y-5644641D02*
G75*
G02*
X19599876Y-5644641I87500J0D01*
G01*
X19649876Y-10194641D02*
G75*
G02*
X19474876Y-10194641I-87500J0D01*
G01*
X19474876Y-10194641D02*
G75*
G02*
X19649876Y-10194641I87500J0D01*
G01*
X20058876Y-13994641D02*
G75*
G02*
X19883876Y-13994641I-87500J0D01*
G01*
X19883876Y-13994641D02*
G75*
G02*
X20058876Y-13994641I87500J0D01*
G01*
X20124876Y-12094641D02*
G75*
G02*
X19949876Y-12094641I-87500J0D01*
G01*
X19949876Y-12094641D02*
G75*
G02*
X20124876Y-12094641I87500J0D01*
G01*
X20483876Y-5644641D02*
G75*
G02*
X20308876Y-5644641I-87500J0D01*
G01*
X20308876Y-5644641D02*
G75*
G02*
X20483876Y-5644641I87500J0D01*
G01*
X20533876Y-10194641D02*
G75*
G02*
X20358876Y-10194641I-87500J0D01*
G01*
X20358876Y-10194641D02*
G75*
G02*
X20533876Y-10194641I87500J0D01*
G01*
X20599876Y-8294641D02*
G75*
G02*
X20424876Y-8294641I-87500J0D01*
G01*
X20424876Y-8294641D02*
G75*
G02*
X20599876Y-8294641I87500J0D01*
G01*
X21008876Y-12094641D02*
G75*
G02*
X20833876Y-12094641I-87500J0D01*
G01*
X20833876Y-12094641D02*
G75*
G02*
X21008876Y-12094641I87500J0D01*
G01*
X21074876Y-13994641D02*
G75*
G02*
X20899876Y-13994641I-87500J0D01*
G01*
X20899876Y-13994641D02*
G75*
G02*
X21074876Y-13994641I87500J0D01*
G01*
X21483876Y-8294641D02*
G75*
G02*
X21308876Y-8294641I-87500J0D01*
G01*
X21308876Y-8294641D02*
G75*
G02*
X21483876Y-8294641I87500J0D01*
G01*
X21499876Y-5644641D02*
G75*
G02*
X21324876Y-5644641I-87500J0D01*
G01*
X21324876Y-5644641D02*
G75*
G02*
X21499876Y-5644641I87500J0D01*
G01*
X21549876Y-10194641D02*
G75*
G02*
X21374876Y-10194641I-87500J0D01*
G01*
X21374876Y-10194641D02*
G75*
G02*
X21549876Y-10194641I87500J0D01*
G01*
X21721376Y-15894641D02*
G75*
G02*
X21546376Y-15894641I-87500J0D01*
G01*
X21546376Y-15894641D02*
G75*
G02*
X21721376Y-15894641I87500J0D01*
G01*
X21958876Y-13994641D02*
G75*
G02*
X21783876Y-13994641I-87500J0D01*
G01*
X21783876Y-13994641D02*
G75*
G02*
X21958876Y-13994641I87500J0D01*
G01*
X22024876Y-12094641D02*
G75*
G02*
X21849876Y-12094641I-87500J0D01*
G01*
X21849876Y-12094641D02*
G75*
G02*
X22024876Y-12094641I87500J0D01*
G01*
X22433875Y-10194641D02*
G75*
G02*
X22258876Y-10194641I-87500J0D01*
G01*
X22258876Y-10194641D02*
G75*
G02*
X22433875Y-10194641I87500J0D01*
G01*
X22499875Y-8294641D02*
G75*
G02*
X22324876Y-8294641I-87500J0D01*
G01*
X22324876Y-8294641D02*
G75*
G02*
X22499875Y-8294641I87500J0D01*
G01*
X22737375Y-15894641D02*
G75*
G02*
X22562375Y-15894641I-87500J0D01*
G01*
X22562375Y-15894641D02*
G75*
G02*
X22737375Y-15894641I87500J0D01*
G01*
X22908875Y-12094641D02*
G75*
G02*
X22733875Y-12094641I-87500J0D01*
G01*
X22733875Y-12094641D02*
G75*
G02*
X22908875Y-12094641I87500J0D01*
G01*
X22974875Y-13994641D02*
G75*
G02*
X22799875Y-13994641I-87500J0D01*
G01*
X22799875Y-13994641D02*
G75*
G02*
X22974875Y-13994641I87500J0D01*
G01*
X23383875Y-5644641D02*
G75*
G02*
X23208875Y-5644641I-87500J0D01*
G01*
X23208875Y-5644641D02*
G75*
G02*
X23383875Y-5644641I87500J0D01*
G01*
X23383875Y-8294641D02*
G75*
G02*
X23208875Y-8294641I-87500J0D01*
G01*
X23208875Y-8294641D02*
G75*
G02*
X23383875Y-8294641I87500J0D01*
G01*
X23449875Y-10194641D02*
G75*
G02*
X23274875Y-10194641I-87500J0D01*
G01*
X23274875Y-10194641D02*
G75*
G02*
X23449875Y-10194641I87500J0D01*
G01*
X23858875Y-13994641D02*
G75*
G02*
X23683875Y-13994641I-87500J0D01*
G01*
X23683875Y-13994641D02*
G75*
G02*
X23858875Y-13994641I87500J0D01*
G01*
X23924875Y-12094641D02*
G75*
G02*
X23749875Y-12094641I-87500J0D01*
G01*
X23749875Y-12094641D02*
G75*
G02*
X23924875Y-12094641I87500J0D01*
G01*
X24096375Y-15894641D02*
G75*
G02*
X23921375Y-15894641I-87500J0D01*
G01*
X23921375Y-15894641D02*
G75*
G02*
X24096375Y-15894641I87500J0D01*
G01*
X24333875Y-10194641D02*
G75*
G02*
X24158875Y-10194641I-87500J0D01*
G01*
X24158875Y-10194641D02*
G75*
G02*
X24333875Y-10194641I87500J0D01*
G01*
X24399875Y-5644641D02*
G75*
G02*
X24224875Y-5644641I-87500J0D01*
G01*
X24224875Y-5644641D02*
G75*
G02*
X24399875Y-5644641I87500J0D01*
G01*
X24399875Y-8294641D02*
G75*
G02*
X24224875Y-8294641I-87500J0D01*
G01*
X24224875Y-8294641D02*
G75*
G02*
X24399875Y-8294641I87500J0D01*
G01*
X24808875Y-12094641D02*
G75*
G02*
X24633875Y-12094641I-87500J0D01*
G01*
X24633875Y-12094641D02*
G75*
G02*
X24808875Y-12094641I87500J0D01*
G01*
X24874875Y-13994641D02*
G75*
G02*
X24699875Y-13994641I-87500J0D01*
G01*
X24699875Y-13994641D02*
G75*
G02*
X24874875Y-13994641I87500J0D01*
G01*
X25112375Y-15894641D02*
G75*
G02*
X24937375Y-15894641I-87500J0D01*
G01*
X24937375Y-15894641D02*
G75*
G02*
X25112375Y-15894641I87500J0D01*
G01*
X25283875Y-5644641D02*
G75*
G02*
X25108875Y-5644641I-87500J0D01*
G01*
X25108875Y-5644641D02*
G75*
G02*
X25283875Y-5644641I87500J0D01*
G01*
X25283875Y-8294641D02*
G75*
G02*
X25108875Y-8294641I-87500J0D01*
G01*
X25108875Y-8294641D02*
G75*
G02*
X25283875Y-8294641I87500J0D01*
G01*
X25349875Y-10194641D02*
G75*
G02*
X25174875Y-10194641I-87500J0D01*
G01*
X25174875Y-10194641D02*
G75*
G02*
X25349875Y-10194641I87500J0D01*
G01*
X25824875Y-12094641D02*
G75*
G02*
X25649875Y-12094641I-87500J0D01*
G01*
X25649875Y-12094641D02*
G75*
G02*
X25824875Y-12094641I87500J0D01*
G01*
X26233875Y-10194641D02*
G75*
G02*
X26058875Y-10194641I-87500J0D01*
G01*
X26058875Y-10194641D02*
G75*
G02*
X26233875Y-10194641I87500J0D01*
G01*
X26299875Y-5644641D02*
G75*
G02*
X26124875Y-5644641I-87500J0D01*
G01*
X26124875Y-5644641D02*
G75*
G02*
X26299875Y-5644641I87500J0D01*
G01*
X26299875Y-8294641D02*
G75*
G02*
X26124875Y-8294641I-87500J0D01*
G01*
X26124875Y-8294641D02*
G75*
G02*
X26299875Y-8294641I87500J0D01*
G01*
X26471375Y-15894641D02*
G75*
G02*
X26296375Y-15894641I-87500J0D01*
G01*
X26296375Y-15894641D02*
G75*
G02*
X26471375Y-15894641I87500J0D01*
G01*
X27183875Y-5644641D02*
G75*
G02*
X27008875Y-5644641I-87500J0D01*
G01*
X27008875Y-5644641D02*
G75*
G02*
X27183875Y-5644641I87500J0D01*
G01*
X27249875Y-10194641D02*
G75*
G02*
X27074875Y-10194641I-87500J0D01*
G01*
X27074875Y-10194641D02*
G75*
G02*
X27249875Y-10194641I87500J0D01*
G01*
X27487375Y-15894641D02*
G75*
G02*
X27312375Y-15894641I-87500J0D01*
G01*
X27312375Y-15894641D02*
G75*
G02*
X27487375Y-15894641I87500J0D01*
G01*
X28199875Y-5644641D02*
G75*
G02*
X28024875Y-5644641I-87500J0D01*
G01*
X28024875Y-5644641D02*
G75*
G02*
X28199875Y-5644641I87500J0D01*
G01*
X28608875Y-10194641D02*
G75*
G02*
X28433875Y-10194641I-87500J0D01*
G01*
X28433875Y-10194641D02*
G75*
G02*
X28608875Y-10194641I87500J0D01*
G01*
X28846375Y-15894641D02*
G75*
G02*
X28671375Y-15894641I-87500J0D01*
G01*
X28671375Y-15894641D02*
G75*
G02*
X28846375Y-15894641I87500J0D01*
G01*
X29083875Y-5644641D02*
G75*
G02*
X28908875Y-5644641I-87500J0D01*
G01*
X28908875Y-5644641D02*
G75*
G02*
X29083875Y-5644641I87500J0D01*
G01*
X29624875Y-10194641D02*
G75*
G02*
X29449875Y-10194641I-87500J0D01*
G01*
X29449875Y-10194641D02*
G75*
G02*
X29624875Y-10194641I87500J0D01*
G01*
X29862375Y-15894641D02*
G75*
G02*
X29687375Y-15894641I-87500J0D01*
G01*
X29687375Y-15894641D02*
G75*
G02*
X29862375Y-15894641I87500J0D01*
G01*
X30099875Y-5644641D02*
G75*
G02*
X29924875Y-5644641I-87500J0D01*
G01*
X29924875Y-5644641D02*
G75*
G02*
X30099875Y-5644641I87500J0D01*
G01*
X31383875Y-5644641D02*
G75*
G02*
X31208875Y-5644641I-87500J0D01*
G01*
X31208875Y-5644641D02*
G75*
G02*
X31383875Y-5644641I87500J0D01*
G01*
X31383875Y-8294641D02*
G75*
G02*
X31208875Y-8294641I-87500J0D01*
G01*
X31208875Y-8294641D02*
G75*
G02*
X31383875Y-8294641I87500J0D01*
G01*
X31383875Y-10194641D02*
G75*
G02*
X31208875Y-10194641I-87500J0D01*
G01*
X31208875Y-10194641D02*
G75*
G02*
X31383875Y-10194641I87500J0D01*
G01*
X31383875Y-15894641D02*
G75*
G02*
X31208875Y-15894641I-87500J0D01*
G01*
X31208875Y-15894641D02*
G75*
G02*
X31383875Y-15894641I87500J0D01*
G01*
X32399875Y-5644641D02*
G75*
G02*
X32224875Y-5644641I-87500J0D01*
G01*
X32224875Y-5644641D02*
G75*
G02*
X32399875Y-5644641I87500J0D01*
G01*
X32399875Y-8294641D02*
G75*
G02*
X32224875Y-8294641I-87500J0D01*
G01*
X32224875Y-8294641D02*
G75*
G02*
X32399875Y-8294641I87500J0D01*
G01*
X32399875Y-10194641D02*
G75*
G02*
X32224875Y-10194641I-87500J0D01*
G01*
X32224875Y-10194641D02*
G75*
G02*
X32399875Y-10194641I87500J0D01*
G01*
X32399875Y-15894641D02*
G75*
G02*
X32224875Y-15894641I-87500J0D01*
G01*
X32224875Y-15894641D02*
G75*
G02*
X32399875Y-15894641I87500J0D01*
G01*
X33283875Y-5644641D02*
G75*
G02*
X33108875Y-5644641I-87500J0D01*
G01*
X33108875Y-5644641D02*
G75*
G02*
X33283875Y-5644641I87500J0D01*
G01*
X33283875Y-8294641D02*
G75*
G02*
X33108875Y-8294641I-87500J0D01*
G01*
X33108875Y-8294641D02*
G75*
G02*
X33283875Y-8294641I87500J0D01*
G01*
X33283875Y-10194641D02*
G75*
G02*
X33108875Y-10194641I-87500J0D01*
G01*
X33108875Y-10194641D02*
G75*
G02*
X33283875Y-10194641I87500J0D01*
G01*
X33283875Y-13989641D02*
G75*
G02*
X33108875Y-13989641I-87500J0D01*
G01*
X33108875Y-13989641D02*
G75*
G02*
X33283875Y-13989641I87500J0D01*
G01*
X33283875Y-15894641D02*
G75*
G02*
X33108875Y-15894641I-87500J0D01*
G01*
X33108875Y-15894641D02*
G75*
G02*
X33283875Y-15894641I87500J0D01*
G01*
X34299876Y-5644641D02*
G75*
G02*
X34124876Y-5644641I-87500J0D01*
G01*
X34124876Y-5644641D02*
G75*
G02*
X34299876Y-5644641I87500J0D01*
G01*
X34299876Y-8294641D02*
G75*
G02*
X34124876Y-8294641I-87500J0D01*
G01*
X34124876Y-8294641D02*
G75*
G02*
X34299876Y-8294641I87500J0D01*
G01*
X34299876Y-10194641D02*
G75*
G02*
X34124876Y-10194641I-87500J0D01*
G01*
X34124876Y-10194641D02*
G75*
G02*
X34299876Y-10194641I87500J0D01*
G01*
X34299876Y-13989641D02*
G75*
G02*
X34124876Y-13989641I-87500J0D01*
G01*
X34124876Y-13989641D02*
G75*
G02*
X34299876Y-13989641I87500J0D01*
G01*
X34299876Y-15894641D02*
G75*
G02*
X34124876Y-15894641I-87500J0D01*
G01*
X34124876Y-15894641D02*
G75*
G02*
X34299876Y-15894641I87500J0D01*
G01*
X35183876Y-5644641D02*
G75*
G02*
X35008876Y-5644641I-87500J0D01*
G01*
X35008876Y-5644641D02*
G75*
G02*
X35183876Y-5644641I87500J0D01*
G01*
X35183876Y-8294641D02*
G75*
G02*
X35008876Y-8294641I-87500J0D01*
G01*
X35008876Y-8294641D02*
G75*
G02*
X35183876Y-8294641I87500J0D01*
G01*
X35183876Y-10194641D02*
G75*
G02*
X35008876Y-10194641I-87500J0D01*
G01*
X35008876Y-10194641D02*
G75*
G02*
X35183876Y-10194641I87500J0D01*
G01*
X35183876Y-15894641D02*
G75*
G02*
X35008876Y-15894641I-87500J0D01*
G01*
X35008876Y-15894641D02*
G75*
G02*
X35183876Y-15894641I87500J0D01*
G01*
X36199876Y-5644641D02*
G75*
G02*
X36024876Y-5644641I-87500J0D01*
G01*
X36024876Y-5644641D02*
G75*
G02*
X36199876Y-5644641I87500J0D01*
G01*
X36199876Y-8294641D02*
G75*
G02*
X36024876Y-8294641I-87500J0D01*
G01*
X36024876Y-8294641D02*
G75*
G02*
X36199876Y-8294641I87500J0D01*
G01*
X36199876Y-10194641D02*
G75*
G02*
X36024876Y-10194641I-87500J0D01*
G01*
X36024876Y-10194641D02*
G75*
G02*
X36199876Y-10194641I87500J0D01*
G01*
X36199876Y-15894641D02*
G75*
G02*
X36024876Y-15894641I-87500J0D01*
G01*
X36024876Y-15894641D02*
G75*
G02*
X36199876Y-15894641I87500J0D01*
G01*
D14*
X2900375Y-14543341D02*
X2900375Y-14848341D01*
X2747876Y-14695841D02*
X3052875Y-14695841D01*
X5280376Y-14543341D02*
X5280376Y-14848341D01*
X5127876Y-14695841D02*
X5432876Y-14695841D01*
X10014916Y-16447731D02*
X10014916Y-16752731D01*
X9862416Y-16600231D02*
X10167416Y-16600231D01*
X20014916Y-16447731D02*
X20014916Y-16752731D01*
X19862416Y-16600231D02*
X20167416Y-16600231D01*
X26659535Y-14545271D02*
X26659535Y-14850271D01*
X26507035Y-14697771D02*
X26812035Y-14697771D01*
X27129375Y-12647891D02*
X27129375Y-12952891D01*
X26976875Y-12800391D02*
X27281875Y-12800391D01*
X27364375Y-8848661D02*
X27364375Y-9153661D01*
X27211875Y-9001161D02*
X27516875Y-9001161D01*
X29039535Y-14545271D02*
X29039535Y-14850271D01*
X28887035Y-14697771D02*
X29192035Y-14697771D01*
X29509375Y-12647891D02*
X29509375Y-12952891D01*
X29356875Y-12800391D02*
X29661875Y-12800391D01*
X29744375Y-8848661D02*
X29744375Y-9153661D01*
X29591875Y-9001161D02*
X29896875Y-9001161D01*
D15*
X3041798Y-13313264D02*
X3041798Y-13030418D01*
X2758953Y-13030418D01*
X2758953Y-13313264D01*
X3041798Y-13313264D01*
X3045798Y-5786064D02*
X3045798Y-5503218D01*
X2762953Y-5503218D01*
X2762953Y-5786064D01*
X3045798Y-5786064D01*
X3045798Y-8436064D02*
X3045798Y-8153218D01*
X2762953Y-8153218D01*
X2762953Y-8436064D01*
X3045798Y-8436064D01*
X3283298Y-16036064D02*
X3283298Y-15753218D01*
X3000453Y-15753218D01*
X3000453Y-16036064D01*
X3283298Y-16036064D01*
X3520798Y-10336064D02*
X3520798Y-10053218D01*
X3237953Y-10053218D01*
X3237953Y-10336064D01*
X3520798Y-10336064D01*
X3758298Y-12236064D02*
X3758298Y-11953218D01*
X3475453Y-11953218D01*
X3475453Y-12236064D01*
X3758298Y-12236064D01*
X4231798Y-14137264D02*
X4231798Y-13854418D01*
X3948953Y-13854418D01*
X3948953Y-14137264D01*
X4231798Y-14137264D01*
X4945798Y-8436064D02*
X4945798Y-8153218D01*
X4662953Y-8153218D01*
X4662953Y-8436064D01*
X4945798Y-8436064D01*
X5421798Y-13313264D02*
X5421798Y-13030418D01*
X5138953Y-13030418D01*
X5138953Y-13313264D01*
X5421798Y-13313264D01*
X5658298Y-16036064D02*
X5658298Y-15753218D01*
X5375453Y-15753218D01*
X5375453Y-16036064D01*
X5658298Y-16036064D01*
X5895798Y-10336064D02*
X5895798Y-10053218D01*
X5612953Y-10053218D01*
X5612953Y-10336064D01*
X5895798Y-10336064D01*
X6370798Y-12236064D02*
X6370798Y-11953218D01*
X6087953Y-11953218D01*
X6087953Y-12236064D01*
X6370798Y-12236064D01*
X6745798Y-5786064D02*
X6745798Y-5503218D01*
X6462953Y-5503218D01*
X6462953Y-5786064D01*
X6745798Y-5786064D01*
X6845798Y-8436064D02*
X6845798Y-8153218D01*
X6562953Y-8153218D01*
X6562953Y-8436064D01*
X6845798Y-8436064D01*
X6845798Y-15336064D02*
X6845798Y-15053218D01*
X6562953Y-15053218D01*
X6562953Y-15336064D01*
X6845798Y-15336064D01*
X7320798Y-14136064D02*
X7320798Y-13853218D01*
X7037953Y-13853218D01*
X7037953Y-14136064D01*
X7320798Y-14136064D01*
X7795798Y-10336064D02*
X7795798Y-10053218D01*
X7512953Y-10053218D01*
X7512953Y-10336064D01*
X7795798Y-10336064D01*
X8033298Y-16036064D02*
X8033298Y-15753218D01*
X7750453Y-15753218D01*
X7750453Y-16036064D01*
X8033298Y-16036064D01*
X8270798Y-12236064D02*
X8270798Y-11953218D01*
X7987953Y-11953218D01*
X7987953Y-12236064D01*
X8270798Y-12236064D01*
X8645360Y-5786064D02*
X8645360Y-5503218D01*
X8362515Y-5503218D01*
X8362515Y-5786064D01*
X8645360Y-5786064D01*
X8745798Y-8436064D02*
X8745798Y-8153218D01*
X8462953Y-8153218D01*
X8462953Y-8436064D01*
X8745798Y-8436064D01*
X9220798Y-14136064D02*
X9220798Y-13853218D01*
X8937953Y-13853218D01*
X8937953Y-14136064D01*
X9220798Y-14136064D01*
X9695798Y-10336064D02*
X9695798Y-10053218D01*
X9412953Y-10053218D01*
X9412953Y-10336064D01*
X9695798Y-10336064D01*
X10156338Y-15217654D02*
X10156338Y-14934808D01*
X9873493Y-14934808D01*
X9873493Y-15217654D01*
X10156338Y-15217654D01*
X10170798Y-12236064D02*
X10170798Y-11953218D01*
X9887953Y-11953218D01*
X9887953Y-12236064D01*
X10170798Y-12236064D01*
X10545798Y-5786064D02*
X10545798Y-5503218D01*
X10262953Y-5503218D01*
X10262953Y-5786064D01*
X10545798Y-5786064D01*
X10645798Y-8436064D02*
X10645798Y-8153218D01*
X10362953Y-8153218D01*
X10362953Y-8436064D01*
X10645798Y-8436064D01*
X11120798Y-14136064D02*
X11120798Y-13853218D01*
X10837953Y-13853218D01*
X10837953Y-14136064D01*
X11120798Y-14136064D01*
X11595798Y-10336064D02*
X11595798Y-10053218D01*
X11312953Y-10053218D01*
X11312953Y-10336064D01*
X11595798Y-10336064D01*
X12070798Y-12236064D02*
X12070798Y-11953218D01*
X11787953Y-11953218D01*
X11787953Y-12236064D01*
X12070798Y-12236064D01*
X12445798Y-5786064D02*
X12445798Y-5503218D01*
X12162953Y-5503218D01*
X12162953Y-5786064D01*
X12445798Y-5786064D01*
X12545798Y-8436064D02*
X12545798Y-8153218D01*
X12262953Y-8153218D01*
X12262953Y-8436064D01*
X12545798Y-8436064D01*
X13020798Y-14136064D02*
X13020798Y-13853218D01*
X12737953Y-13853218D01*
X12737953Y-14136064D01*
X13020798Y-14136064D01*
X13495798Y-10336064D02*
X13495798Y-10053218D01*
X13212953Y-10053218D01*
X13212953Y-10336064D01*
X13495798Y-10336064D01*
X13970798Y-12236064D02*
X13970798Y-11953218D01*
X13687953Y-11953218D01*
X13687953Y-12236064D01*
X13970798Y-12236064D01*
X14450798Y-8436064D02*
X14450798Y-8153218D01*
X14167953Y-8153218D01*
X14167953Y-8436064D01*
X14450798Y-8436064D01*
X14927048Y-14136064D02*
X14927048Y-13853218D01*
X14644203Y-13853218D01*
X14644203Y-14136064D01*
X14927048Y-14136064D01*
X15156338Y-16041654D02*
X15156338Y-15758808D01*
X14873493Y-15758808D01*
X14873493Y-16041654D01*
X15156338Y-16041654D01*
X15345798Y-5786064D02*
X15345798Y-5503218D01*
X15062953Y-5503218D01*
X15062953Y-5786064D01*
X15345798Y-5786064D01*
X15395798Y-10336064D02*
X15395798Y-10053218D01*
X15112953Y-10053218D01*
X15112953Y-10336064D01*
X15395798Y-10336064D01*
X15879548Y-12236064D02*
X15879548Y-11953218D01*
X15596703Y-11953218D01*
X15596703Y-12236064D01*
X15879548Y-12236064D01*
X16345798Y-8436064D02*
X16345798Y-8153218D01*
X16062953Y-8153218D01*
X16062953Y-8436064D01*
X16345798Y-8436064D01*
X16820798Y-14136064D02*
X16820798Y-13853218D01*
X16537953Y-13853218D01*
X16537953Y-14136064D01*
X16820798Y-14136064D01*
X17245798Y-5786064D02*
X17245798Y-5503218D01*
X16962953Y-5503218D01*
X16962953Y-5786064D01*
X17245798Y-5786064D01*
X17295798Y-10336064D02*
X17295798Y-10053218D01*
X17012953Y-10053218D01*
X17012953Y-10336064D01*
X17295798Y-10336064D01*
X17784548Y-12236064D02*
X17784548Y-11953218D01*
X17501703Y-11953218D01*
X17501703Y-12236064D01*
X17784548Y-12236064D01*
X18245798Y-8436064D02*
X18245798Y-8153218D01*
X17962953Y-8153218D01*
X17962953Y-8436064D01*
X18245798Y-8436064D01*
X18720798Y-14136064D02*
X18720798Y-13853218D01*
X18437953Y-13853218D01*
X18437953Y-14136064D01*
X18720798Y-14136064D01*
X19145798Y-5786064D02*
X19145798Y-5503218D01*
X18862953Y-5503218D01*
X18862953Y-5786064D01*
X19145798Y-5786064D01*
X19195798Y-10336064D02*
X19195798Y-10053218D01*
X18912953Y-10053218D01*
X18912953Y-10336064D01*
X19195798Y-10336064D01*
X19670798Y-12236064D02*
X19670798Y-11953218D01*
X19387953Y-11953218D01*
X19387953Y-12236064D01*
X19670798Y-12236064D01*
X20145798Y-8436064D02*
X20145798Y-8153218D01*
X19862953Y-8153218D01*
X19862953Y-8436064D01*
X20145798Y-8436064D01*
X20156338Y-15217654D02*
X20156338Y-14934808D01*
X19873493Y-14934808D01*
X19873493Y-15217654D01*
X20156338Y-15217654D01*
X20620798Y-14136064D02*
X20620798Y-13853218D01*
X20337953Y-13853218D01*
X20337953Y-14136064D01*
X20620798Y-14136064D01*
X21045798Y-5786064D02*
X21045798Y-5503218D01*
X20762953Y-5503218D01*
X20762953Y-5786064D01*
X21045798Y-5786064D01*
X21095798Y-10336064D02*
X21095798Y-10053218D01*
X20812953Y-10053218D01*
X20812953Y-10336064D01*
X21095798Y-10336064D01*
X21570798Y-12236064D02*
X21570798Y-11953218D01*
X21287953Y-11953218D01*
X21287953Y-12236064D01*
X21570798Y-12236064D01*
X22045798Y-8436064D02*
X22045798Y-8153218D01*
X21762953Y-8153218D01*
X21762953Y-8436064D01*
X22045798Y-8436064D01*
X22283298Y-16036064D02*
X22283298Y-15753218D01*
X22000453Y-15753218D01*
X22000453Y-16036064D01*
X22283298Y-16036064D01*
X22520798Y-14136064D02*
X22520798Y-13853218D01*
X22237953Y-13853218D01*
X22237953Y-14136064D01*
X22520798Y-14136064D01*
X22995798Y-10336064D02*
X22995798Y-10053218D01*
X22712953Y-10053218D01*
X22712953Y-10336064D01*
X22995798Y-10336064D01*
X23470798Y-12236064D02*
X23470798Y-11953218D01*
X23187953Y-11953218D01*
X23187953Y-12236064D01*
X23470798Y-12236064D01*
X23945798Y-5786064D02*
X23945798Y-5503218D01*
X23662953Y-5503218D01*
X23662953Y-5786064D01*
X23945798Y-5786064D01*
X23945798Y-8436064D02*
X23945798Y-8153218D01*
X23662953Y-8153218D01*
X23662953Y-8436064D01*
X23945798Y-8436064D01*
X24420798Y-14136064D02*
X24420798Y-13853218D01*
X24137953Y-13853218D01*
X24137953Y-14136064D01*
X24420798Y-14136064D01*
X24658298Y-16036064D02*
X24658298Y-15753218D01*
X24375453Y-15753218D01*
X24375453Y-16036064D01*
X24658298Y-16036064D01*
X24895798Y-10336064D02*
X24895798Y-10053218D01*
X24612953Y-10053218D01*
X24612953Y-10336064D01*
X24895798Y-10336064D01*
X25370798Y-12236064D02*
X25370798Y-11953218D01*
X25087953Y-11953218D01*
X25087953Y-12236064D01*
X25370798Y-12236064D01*
X25845798Y-5786064D02*
X25845798Y-5503218D01*
X25562953Y-5503218D01*
X25562953Y-5786064D01*
X25845798Y-5786064D01*
X25845798Y-8436064D02*
X25845798Y-8153218D01*
X25562953Y-8153218D01*
X25562953Y-8436064D01*
X25845798Y-8436064D01*
X26795798Y-10336064D02*
X26795798Y-10053218D01*
X26512953Y-10053218D01*
X26512953Y-10336064D01*
X26795798Y-10336064D01*
X26800958Y-13315194D02*
X26800958Y-13032348D01*
X26518113Y-13032348D01*
X26518113Y-13315194D01*
X26800958Y-13315194D01*
X27033298Y-16036064D02*
X27033298Y-15753218D01*
X26750453Y-15753218D01*
X26750453Y-16036064D01*
X27033298Y-16036064D01*
X27270798Y-11417814D02*
X27270798Y-11134968D01*
X26987953Y-11134968D01*
X26987953Y-11417814D01*
X27270798Y-11417814D01*
X27505798Y-7618584D02*
X27505798Y-7335738D01*
X27222953Y-7335738D01*
X27222953Y-7618584D01*
X27505798Y-7618584D01*
X27745798Y-5786064D02*
X27745798Y-5503218D01*
X27462953Y-5503218D01*
X27462953Y-5786064D01*
X27745798Y-5786064D01*
X27990958Y-14139194D02*
X27990958Y-13856348D01*
X27708113Y-13856348D01*
X27708113Y-14139194D01*
X27990958Y-14139194D01*
X28460798Y-12241814D02*
X28460798Y-11958968D01*
X28177953Y-11958968D01*
X28177953Y-12241814D01*
X28460798Y-12241814D01*
X28695798Y-8442584D02*
X28695798Y-8159738D01*
X28412953Y-8159738D01*
X28412953Y-8442584D01*
X28695798Y-8442584D01*
X29170798Y-10336064D02*
X29170798Y-10053218D01*
X28887953Y-10053218D01*
X28887953Y-10336064D01*
X29170798Y-10336064D01*
X29180958Y-13315194D02*
X29180958Y-13032348D01*
X28898113Y-13032348D01*
X28898113Y-13315194D01*
X29180958Y-13315194D01*
X29408298Y-16036064D02*
X29408298Y-15753218D01*
X29125453Y-15753218D01*
X29125453Y-16036064D01*
X29408298Y-16036064D01*
X29645798Y-5786064D02*
X29645798Y-5503218D01*
X29362953Y-5503218D01*
X29362953Y-5786064D01*
X29645798Y-5786064D01*
X29650798Y-11417814D02*
X29650798Y-11134968D01*
X29367953Y-11134968D01*
X29367953Y-11417814D01*
X29650798Y-11417814D01*
X29885798Y-7618584D02*
X29885798Y-7335738D01*
X29602953Y-7335738D01*
X29602953Y-7618584D01*
X29885798Y-7618584D01*
X30795798Y-7286064D02*
X30795798Y-7003218D01*
X30512953Y-7003218D01*
X30512953Y-7286064D01*
X30795798Y-7286064D01*
X31945798Y-5786064D02*
X31945798Y-5503218D01*
X31662953Y-5503218D01*
X31662953Y-5786064D01*
X31945798Y-5786064D01*
X31945798Y-8436064D02*
X31945798Y-8153218D01*
X31662953Y-8153218D01*
X31662953Y-8436064D01*
X31945798Y-8436064D01*
X31945798Y-10336064D02*
X31945798Y-10053218D01*
X31662953Y-10053218D01*
X31662953Y-10336064D01*
X31945798Y-10336064D01*
X31945798Y-16036064D02*
X31945798Y-15753218D01*
X31662953Y-15753218D01*
X31662953Y-16036064D01*
X31945798Y-16036064D01*
X32195798Y-14381064D02*
X32195798Y-14098218D01*
X31912953Y-14098218D01*
X31912953Y-14381064D01*
X32195798Y-14381064D01*
X33845798Y-5786064D02*
X33845798Y-5503218D01*
X33562953Y-5503218D01*
X33562953Y-5786064D01*
X33845798Y-5786064D01*
X33845798Y-8436064D02*
X33845798Y-8153218D01*
X33562953Y-8153218D01*
X33562953Y-8436064D01*
X33845798Y-8436064D01*
X33845798Y-10336064D02*
X33845798Y-10053218D01*
X33562953Y-10053218D01*
X33562953Y-10336064D01*
X33845798Y-10336064D01*
X33845798Y-14131064D02*
X33845798Y-13848218D01*
X33562953Y-13848218D01*
X33562953Y-14131064D01*
X33845798Y-14131064D01*
X33845798Y-16036064D02*
X33845798Y-15753218D01*
X33562953Y-15753218D01*
X33562953Y-16036064D01*
X33845798Y-16036064D01*
X35745798Y-5786064D02*
X35745798Y-5503218D01*
X35462953Y-5503218D01*
X35462953Y-5786064D01*
X35745798Y-5786064D01*
X35745798Y-8436064D02*
X35745798Y-8153218D01*
X35462953Y-8153218D01*
X35462953Y-8436064D01*
X35745798Y-8436064D01*
X35745798Y-10336064D02*
X35745798Y-10053218D01*
X35462953Y-10053218D01*
X35462953Y-10336064D01*
X35745798Y-10336064D01*
X35745798Y-16036064D02*
X35745798Y-15753218D01*
X35462953Y-15753218D01*
X35462953Y-16036064D01*
X35745798Y-16036064D01*
D16*
X2404376Y-12259641D02*
X2619376Y-12044641D01*
X2404376Y-11829641D01*
X2189376Y-12044641D01*
X2404376Y-12259641D01*
X36104376Y-7159641D02*
X36319376Y-6944641D01*
X36104376Y-6729641D01*
X35889376Y-6944641D01*
X36104376Y-7159641D01*
X36104376Y-14559641D02*
X36319376Y-14344641D01*
X36104376Y-14129641D01*
X35889376Y-14344641D01*
X36104376Y-14559641D01*
D17*
X15954375Y-10894641D02*
X16404375Y-11344641D01*
X16404375Y-10894641D02*
X15954375Y-11344641D01*
X16404375Y-11119641D02*
G75*
G02*
X15954375Y-11119641I-225000J0D01*
G01*
X15954375Y-11119641D02*
G75*
G02*
X16404375Y-11119641I225000J0D01*
G01*
D18*
X4404376Y-5899641D02*
X4904376Y-6399641D01*
X4904376Y-5899641D02*
X4404376Y-6399641D01*
X4654376Y-5899641D02*
X4654376Y-6399641D01*
X4404376Y-6149641D02*
X4904376Y-6149641D01*
D19*
X6404375Y-10804641D02*
X7004375Y-11404641D01*
X7004375Y-10804641D02*
X6404375Y-11404641D01*
X6916510Y-11316775D02*
X6916510Y-10892507D01*
X6492241Y-10892507D01*
X6492241Y-11316775D01*
X6916510Y-11316775D01*
X8754376Y-15994641D02*
X9354376Y-16594641D01*
X9354376Y-15994641D02*
X8754376Y-16594641D01*
X9266510Y-16506775D02*
X9266510Y-16082507D01*
X8842241Y-16082507D01*
X8842241Y-16506775D01*
X9266510Y-16506775D01*
X25354375Y-10794641D02*
X25954375Y-11394641D01*
X25954375Y-10794641D02*
X25354375Y-11394641D01*
X25866510Y-11306775D02*
X25866510Y-10882507D01*
X25442241Y-10882507D01*
X25442241Y-11306775D01*
X25866510Y-11306775D01*
X35054376Y-12194641D02*
X35654376Y-12794641D01*
X35654376Y-12194641D02*
X35054376Y-12794641D01*
X35566510Y-12706775D02*
X35566510Y-12282507D01*
X35142241Y-12282507D01*
X35142241Y-12706775D01*
X35566510Y-12706775D01*
D11*
X2062652Y-17410958D02*
X2062652Y-17210958D01*
X2062652Y-17210958D02*
X2110271Y-17210958D01*
X2110271Y-17210958D02*
X2138843Y-17220482D01*
X2138843Y-17220482D02*
X2157890Y-17239530D01*
X2157890Y-17239530D02*
X2167414Y-17258577D01*
X2167414Y-17258577D02*
X2176938Y-17296672D01*
X2176938Y-17296672D02*
X2176938Y-17325244D01*
X2176938Y-17325244D02*
X2167414Y-17363339D01*
X2167414Y-17363339D02*
X2157890Y-17382387D01*
X2157890Y-17382387D02*
X2138843Y-17401434D01*
X2138843Y-17401434D02*
X2110271Y-17410958D01*
X2110271Y-17410958D02*
X2062652Y-17410958D01*
X2262652Y-17410958D02*
X2262652Y-17277625D01*
X2262652Y-17315720D02*
X2272176Y-17296672D01*
X2272176Y-17296672D02*
X2281700Y-17287149D01*
X2281700Y-17287149D02*
X2300748Y-17277625D01*
X2300748Y-17277625D02*
X2319795Y-17277625D01*
X2386462Y-17410958D02*
X2386462Y-17277625D01*
X2386462Y-17210958D02*
X2376938Y-17220482D01*
X2376938Y-17220482D02*
X2386462Y-17230006D01*
X2386462Y-17230006D02*
X2395986Y-17220482D01*
X2395986Y-17220482D02*
X2386462Y-17210958D01*
X2386462Y-17210958D02*
X2386462Y-17230006D01*
X2510271Y-17410958D02*
X2491224Y-17401434D01*
X2491224Y-17401434D02*
X2481700Y-17382387D01*
X2481700Y-17382387D02*
X2481700Y-17210958D01*
X2615033Y-17410958D02*
X2595986Y-17401434D01*
X2595986Y-17401434D02*
X2586462Y-17382387D01*
X2586462Y-17382387D02*
X2586462Y-17210958D01*
X2843605Y-17410958D02*
X2843605Y-17210958D01*
X2843605Y-17210958D02*
X2910271Y-17353815D01*
X2910271Y-17353815D02*
X2976938Y-17210958D01*
X2976938Y-17210958D02*
X2976938Y-17410958D01*
X3157890Y-17410958D02*
X3157890Y-17306196D01*
X3157890Y-17306196D02*
X3148367Y-17287149D01*
X3148367Y-17287149D02*
X3129319Y-17277625D01*
X3129319Y-17277625D02*
X3091224Y-17277625D01*
X3091224Y-17277625D02*
X3072176Y-17287149D01*
X3157890Y-17401434D02*
X3138843Y-17410958D01*
X3138843Y-17410958D02*
X3091224Y-17410958D01*
X3091224Y-17410958D02*
X3072176Y-17401434D01*
X3072176Y-17401434D02*
X3062652Y-17382387D01*
X3062652Y-17382387D02*
X3062652Y-17363339D01*
X3062652Y-17363339D02*
X3072176Y-17344292D01*
X3072176Y-17344292D02*
X3091224Y-17334768D01*
X3091224Y-17334768D02*
X3138843Y-17334768D01*
X3138843Y-17334768D02*
X3157890Y-17325244D01*
X3253128Y-17277625D02*
X3253128Y-17477625D01*
X3253128Y-17287149D02*
X3272176Y-17277625D01*
X3272176Y-17277625D02*
X3310271Y-17277625D01*
X3310271Y-17277625D02*
X3329319Y-17287149D01*
X3329319Y-17287149D02*
X3338843Y-17296672D01*
X3338843Y-17296672D02*
X3348367Y-17315720D01*
X3348367Y-17315720D02*
X3348367Y-17372863D01*
X3348367Y-17372863D02*
X3338843Y-17391911D01*
X3338843Y-17391911D02*
X3329319Y-17401434D01*
X3329319Y-17401434D02*
X3310271Y-17410958D01*
X3310271Y-17410958D02*
X3272176Y-17410958D01*
X3272176Y-17410958D02*
X3253128Y-17401434D01*
X3434081Y-17391911D02*
X3443605Y-17401434D01*
X3443605Y-17401434D02*
X3434081Y-17410958D01*
X3434081Y-17410958D02*
X3424557Y-17401434D01*
X3424557Y-17401434D02*
X3434081Y-17391911D01*
X3434081Y-17391911D02*
X3434081Y-17410958D01*
X3434081Y-17287149D02*
X3443605Y-17296672D01*
X3443605Y-17296672D02*
X3434081Y-17306196D01*
X3434081Y-17306196D02*
X3424557Y-17296672D01*
X3424557Y-17296672D02*
X3434081Y-17287149D01*
X3434081Y-17287149D02*
X3434081Y-17306196D01*
D12*
X1631875Y-17654474D02*
X1801875Y-17824474D01*
X1801875Y-17654474D02*
X1631875Y-17824474D01*
D11*
X2167414Y-17830958D02*
X2053128Y-17830958D01*
X2110271Y-17830958D02*
X2110271Y-17630958D01*
X2110271Y-17630958D02*
X2091224Y-17659530D01*
X2091224Y-17659530D02*
X2072176Y-17678577D01*
X2072176Y-17678577D02*
X2053128Y-17688101D01*
X2253129Y-17811911D02*
X2262652Y-17821434D01*
X2262652Y-17821434D02*
X2253129Y-17830958D01*
X2253129Y-17830958D02*
X2243605Y-17821434D01*
X2243605Y-17821434D02*
X2253129Y-17811911D01*
X2253129Y-17811911D02*
X2253129Y-17830958D01*
X2329319Y-17630958D02*
X2462652Y-17630958D01*
X2462652Y-17630958D02*
X2376938Y-17830958D01*
X2576938Y-17630958D02*
X2595986Y-17630958D01*
X2595986Y-17630958D02*
X2615033Y-17640482D01*
X2615033Y-17640482D02*
X2624557Y-17650006D01*
X2624557Y-17650006D02*
X2634081Y-17669053D01*
X2634081Y-17669053D02*
X2643605Y-17707149D01*
X2643605Y-17707149D02*
X2643605Y-17754768D01*
X2643605Y-17754768D02*
X2634081Y-17792863D01*
X2634081Y-17792863D02*
X2624557Y-17811911D01*
X2624557Y-17811911D02*
X2615033Y-17821434D01*
X2615033Y-17821434D02*
X2595986Y-17830958D01*
X2595986Y-17830958D02*
X2576938Y-17830958D01*
X2576938Y-17830958D02*
X2557890Y-17821434D01*
X2557890Y-17821434D02*
X2548367Y-17811911D01*
X2548367Y-17811911D02*
X2538843Y-17792863D01*
X2538843Y-17792863D02*
X2529319Y-17754768D01*
X2529319Y-17754768D02*
X2529319Y-17707149D01*
X2529319Y-17707149D02*
X2538843Y-17669053D01*
X2538843Y-17669053D02*
X2548367Y-17650006D01*
X2548367Y-17650006D02*
X2557890Y-17640482D01*
X2557890Y-17640482D02*
X2576938Y-17630958D01*
X2767414Y-17630958D02*
X2786462Y-17630958D01*
X2786462Y-17630958D02*
X2805509Y-17640482D01*
X2805509Y-17640482D02*
X2815033Y-17650006D01*
X2815033Y-17650006D02*
X2824557Y-17669053D01*
X2824557Y-17669053D02*
X2834081Y-17707149D01*
X2834081Y-17707149D02*
X2834081Y-17754768D01*
X2834081Y-17754768D02*
X2824557Y-17792863D01*
X2824557Y-17792863D02*
X2815033Y-17811911D01*
X2815033Y-17811911D02*
X2805509Y-17821434D01*
X2805509Y-17821434D02*
X2786462Y-17830958D01*
X2786462Y-17830958D02*
X2767414Y-17830958D01*
X2767414Y-17830958D02*
X2748367Y-17821434D01*
X2748367Y-17821434D02*
X2738843Y-17811911D01*
X2738843Y-17811911D02*
X2729319Y-17792863D01*
X2729319Y-17792863D02*
X2719795Y-17754768D01*
X2719795Y-17754768D02*
X2719795Y-17707149D01*
X2719795Y-17707149D02*
X2729319Y-17669053D01*
X2729319Y-17669053D02*
X2738843Y-17650006D01*
X2738843Y-17650006D02*
X2748367Y-17640482D01*
X2748367Y-17640482D02*
X2767414Y-17630958D01*
X2919795Y-17830958D02*
X2919795Y-17697625D01*
X2919795Y-17716672D02*
X2929319Y-17707149D01*
X2929319Y-17707149D02*
X2948367Y-17697625D01*
X2948367Y-17697625D02*
X2976938Y-17697625D01*
X2976938Y-17697625D02*
X2995986Y-17707149D01*
X2995986Y-17707149D02*
X3005509Y-17726196D01*
X3005509Y-17726196D02*
X3005509Y-17830958D01*
X3005509Y-17726196D02*
X3015033Y-17707149D01*
X3015033Y-17707149D02*
X3034081Y-17697625D01*
X3034081Y-17697625D02*
X3062652Y-17697625D01*
X3062652Y-17697625D02*
X3081700Y-17707149D01*
X3081700Y-17707149D02*
X3091224Y-17726196D01*
X3091224Y-17726196D02*
X3091224Y-17830958D01*
X3186462Y-17830958D02*
X3186462Y-17697625D01*
X3186462Y-17716672D02*
X3195986Y-17707149D01*
X3195986Y-17707149D02*
X3215033Y-17697625D01*
X3215033Y-17697625D02*
X3243605Y-17697625D01*
X3243605Y-17697625D02*
X3262652Y-17707149D01*
X3262652Y-17707149D02*
X3272176Y-17726196D01*
X3272176Y-17726196D02*
X3272176Y-17830958D01*
X3272176Y-17726196D02*
X3281700Y-17707149D01*
X3281700Y-17707149D02*
X3300748Y-17697625D01*
X3300748Y-17697625D02*
X3329319Y-17697625D01*
X3329319Y-17697625D02*
X3348367Y-17707149D01*
X3348367Y-17707149D02*
X3357890Y-17726196D01*
X3357890Y-17726196D02*
X3357890Y-17830958D01*
X3748367Y-17621434D02*
X3576938Y-17878577D01*
X4005510Y-17630958D02*
X4024557Y-17630958D01*
X4024557Y-17630958D02*
X4043605Y-17640482D01*
X4043605Y-17640482D02*
X4053129Y-17650006D01*
X4053129Y-17650006D02*
X4062652Y-17669053D01*
X4062652Y-17669053D02*
X4072176Y-17707149D01*
X4072176Y-17707149D02*
X4072176Y-17754768D01*
X4072176Y-17754768D02*
X4062652Y-17792863D01*
X4062652Y-17792863D02*
X4053129Y-17811911D01*
X4053129Y-17811911D02*
X4043605Y-17821434D01*
X4043605Y-17821434D02*
X4024557Y-17830958D01*
X4024557Y-17830958D02*
X4005510Y-17830958D01*
X4005510Y-17830958D02*
X3986462Y-17821434D01*
X3986462Y-17821434D02*
X3976938Y-17811911D01*
X3976938Y-17811911D02*
X3967414Y-17792863D01*
X3967414Y-17792863D02*
X3957891Y-17754768D01*
X3957891Y-17754768D02*
X3957891Y-17707149D01*
X3957891Y-17707149D02*
X3967414Y-17669053D01*
X3967414Y-17669053D02*
X3976938Y-17650006D01*
X3976938Y-17650006D02*
X3986462Y-17640482D01*
X3986462Y-17640482D02*
X4005510Y-17630958D01*
X4157891Y-17811911D02*
X4167414Y-17821434D01*
X4167414Y-17821434D02*
X4157891Y-17830958D01*
X4157891Y-17830958D02*
X4148367Y-17821434D01*
X4148367Y-17821434D02*
X4157891Y-17811911D01*
X4157891Y-17811911D02*
X4157891Y-17830958D01*
X4291224Y-17630958D02*
X4310272Y-17630958D01*
X4310272Y-17630958D02*
X4329319Y-17640482D01*
X4329319Y-17640482D02*
X4338843Y-17650006D01*
X4338843Y-17650006D02*
X4348367Y-17669053D01*
X4348367Y-17669053D02*
X4357891Y-17707149D01*
X4357891Y-17707149D02*
X4357891Y-17754768D01*
X4357891Y-17754768D02*
X4348367Y-17792863D01*
X4348367Y-17792863D02*
X4338843Y-17811911D01*
X4338843Y-17811911D02*
X4329319Y-17821434D01*
X4329319Y-17821434D02*
X4310272Y-17830958D01*
X4310272Y-17830958D02*
X4291224Y-17830958D01*
X4291224Y-17830958D02*
X4272176Y-17821434D01*
X4272176Y-17821434D02*
X4262653Y-17811911D01*
X4262653Y-17811911D02*
X4253129Y-17792863D01*
X4253129Y-17792863D02*
X4243605Y-17754768D01*
X4243605Y-17754768D02*
X4243605Y-17707149D01*
X4243605Y-17707149D02*
X4253129Y-17669053D01*
X4253129Y-17669053D02*
X4262653Y-17650006D01*
X4262653Y-17650006D02*
X4272176Y-17640482D01*
X4272176Y-17640482D02*
X4291224Y-17630958D01*
X4529319Y-17630958D02*
X4491224Y-17630958D01*
X4491224Y-17630958D02*
X4472176Y-17640482D01*
X4472176Y-17640482D02*
X4462653Y-17650006D01*
X4462653Y-17650006D02*
X4443605Y-17678577D01*
X4443605Y-17678577D02*
X4434081Y-17716672D01*
X4434081Y-17716672D02*
X4434081Y-17792863D01*
X4434081Y-17792863D02*
X4443605Y-17811911D01*
X4443605Y-17811911D02*
X4453129Y-17821434D01*
X4453129Y-17821434D02*
X4472176Y-17830958D01*
X4472176Y-17830958D02*
X4510272Y-17830958D01*
X4510272Y-17830958D02*
X4529319Y-17821434D01*
X4529319Y-17821434D02*
X4538843Y-17811911D01*
X4538843Y-17811911D02*
X4548367Y-17792863D01*
X4548367Y-17792863D02*
X4548367Y-17745244D01*
X4548367Y-17745244D02*
X4538843Y-17726196D01*
X4538843Y-17726196D02*
X4529319Y-17716672D01*
X4529319Y-17716672D02*
X4510272Y-17707149D01*
X4510272Y-17707149D02*
X4472176Y-17707149D01*
X4472176Y-17707149D02*
X4453129Y-17716672D01*
X4453129Y-17716672D02*
X4443605Y-17726196D01*
X4443605Y-17726196D02*
X4434081Y-17745244D01*
X4719795Y-17630958D02*
X4681700Y-17630958D01*
X4681700Y-17630958D02*
X4662653Y-17640482D01*
X4662653Y-17640482D02*
X4653129Y-17650006D01*
X4653129Y-17650006D02*
X4634081Y-17678577D01*
X4634081Y-17678577D02*
X4624557Y-17716672D01*
X4624557Y-17716672D02*
X4624557Y-17792863D01*
X4624557Y-17792863D02*
X4634081Y-17811911D01*
X4634081Y-17811911D02*
X4643605Y-17821434D01*
X4643605Y-17821434D02*
X4662653Y-17830958D01*
X4662653Y-17830958D02*
X4700748Y-17830958D01*
X4700748Y-17830958D02*
X4719795Y-17821434D01*
X4719795Y-17821434D02*
X4729319Y-17811911D01*
X4729319Y-17811911D02*
X4738843Y-17792863D01*
X4738843Y-17792863D02*
X4738843Y-17745244D01*
X4738843Y-17745244D02*
X4729319Y-17726196D01*
X4729319Y-17726196D02*
X4719795Y-17716672D01*
X4719795Y-17716672D02*
X4700748Y-17707149D01*
X4700748Y-17707149D02*
X4662653Y-17707149D01*
X4662653Y-17707149D02*
X4643605Y-17716672D01*
X4643605Y-17716672D02*
X4634081Y-17726196D01*
X4634081Y-17726196D02*
X4624557Y-17745244D01*
X4834081Y-17830958D02*
X4872176Y-17830958D01*
X4872176Y-17830958D02*
X4891224Y-17821434D01*
X4891224Y-17821434D02*
X4900748Y-17811911D01*
X4900748Y-17811911D02*
X4919795Y-17783339D01*
X4919795Y-17783339D02*
X4929319Y-17745244D01*
X4929319Y-17745244D02*
X4929319Y-17669053D01*
X4929319Y-17669053D02*
X4919795Y-17650006D01*
X4919795Y-17650006D02*
X4910272Y-17640482D01*
X4910272Y-17640482D02*
X4891224Y-17630958D01*
X4891224Y-17630958D02*
X4853129Y-17630958D01*
X4853129Y-17630958D02*
X4834081Y-17640482D01*
X4834081Y-17640482D02*
X4824557Y-17650006D01*
X4824557Y-17650006D02*
X4815034Y-17669053D01*
X4815034Y-17669053D02*
X4815034Y-17716672D01*
X4815034Y-17716672D02*
X4824557Y-17735720D01*
X4824557Y-17735720D02*
X4834081Y-17745244D01*
X4834081Y-17745244D02*
X4853129Y-17754768D01*
X4853129Y-17754768D02*
X4891224Y-17754768D01*
X4891224Y-17754768D02*
X4910272Y-17745244D01*
X4910272Y-17745244D02*
X4919795Y-17735720D01*
X4919795Y-17735720D02*
X4929319Y-17716672D01*
X5005510Y-17630958D02*
X5005510Y-17669053D01*
X5081700Y-17630958D02*
X5081700Y-17669053D01*
X5376938Y-17907149D02*
X5367415Y-17897625D01*
X5367415Y-17897625D02*
X5348367Y-17869053D01*
X5348367Y-17869053D02*
X5338843Y-17850006D01*
X5338843Y-17850006D02*
X5329319Y-17821434D01*
X5329319Y-17821434D02*
X5319796Y-17773815D01*
X5319796Y-17773815D02*
X5319796Y-17735720D01*
X5319796Y-17735720D02*
X5329319Y-17688101D01*
X5329319Y-17688101D02*
X5338843Y-17659530D01*
X5338843Y-17659530D02*
X5348367Y-17640482D01*
X5348367Y-17640482D02*
X5367415Y-17611911D01*
X5367415Y-17611911D02*
X5376938Y-17602387D01*
X5557891Y-17830958D02*
X5443605Y-17830958D01*
X5500748Y-17830958D02*
X5500748Y-17630958D01*
X5500748Y-17630958D02*
X5481700Y-17659530D01*
X5481700Y-17659530D02*
X5462653Y-17678577D01*
X5462653Y-17678577D02*
X5443605Y-17688101D01*
X5681700Y-17630958D02*
X5700748Y-17630958D01*
X5700748Y-17630958D02*
X5719795Y-17640482D01*
X5719795Y-17640482D02*
X5729319Y-17650006D01*
X5729319Y-17650006D02*
X5738843Y-17669053D01*
X5738843Y-17669053D02*
X5748367Y-17707149D01*
X5748367Y-17707149D02*
X5748367Y-17754768D01*
X5748367Y-17754768D02*
X5738843Y-17792863D01*
X5738843Y-17792863D02*
X5729319Y-17811911D01*
X5729319Y-17811911D02*
X5719795Y-17821434D01*
X5719795Y-17821434D02*
X5700748Y-17830958D01*
X5700748Y-17830958D02*
X5681700Y-17830958D01*
X5681700Y-17830958D02*
X5662653Y-17821434D01*
X5662653Y-17821434D02*
X5653129Y-17811911D01*
X5653129Y-17811911D02*
X5643605Y-17792863D01*
X5643605Y-17792863D02*
X5634081Y-17754768D01*
X5634081Y-17754768D02*
X5634081Y-17707149D01*
X5634081Y-17707149D02*
X5643605Y-17669053D01*
X5643605Y-17669053D02*
X5653129Y-17650006D01*
X5653129Y-17650006D02*
X5662653Y-17640482D01*
X5662653Y-17640482D02*
X5681700Y-17630958D01*
X5986462Y-17830958D02*
X5986462Y-17630958D01*
X6072176Y-17830958D02*
X6072176Y-17726196D01*
X6072176Y-17726196D02*
X6062653Y-17707149D01*
X6062653Y-17707149D02*
X6043605Y-17697625D01*
X6043605Y-17697625D02*
X6015034Y-17697625D01*
X6015034Y-17697625D02*
X5995986Y-17707149D01*
X5995986Y-17707149D02*
X5986462Y-17716672D01*
X6195986Y-17830958D02*
X6176938Y-17821434D01*
X6176938Y-17821434D02*
X6167415Y-17811911D01*
X6167415Y-17811911D02*
X6157891Y-17792863D01*
X6157891Y-17792863D02*
X6157891Y-17735720D01*
X6157891Y-17735720D02*
X6167415Y-17716672D01*
X6167415Y-17716672D02*
X6176938Y-17707149D01*
X6176938Y-17707149D02*
X6195986Y-17697625D01*
X6195986Y-17697625D02*
X6224557Y-17697625D01*
X6224557Y-17697625D02*
X6243605Y-17707149D01*
X6243605Y-17707149D02*
X6253129Y-17716672D01*
X6253129Y-17716672D02*
X6262653Y-17735720D01*
X6262653Y-17735720D02*
X6262653Y-17792863D01*
X6262653Y-17792863D02*
X6253129Y-17811911D01*
X6253129Y-17811911D02*
X6243605Y-17821434D01*
X6243605Y-17821434D02*
X6224557Y-17830958D01*
X6224557Y-17830958D02*
X6195986Y-17830958D01*
X6376938Y-17830958D02*
X6357891Y-17821434D01*
X6357891Y-17821434D02*
X6348367Y-17802387D01*
X6348367Y-17802387D02*
X6348367Y-17630958D01*
X6529319Y-17821434D02*
X6510272Y-17830958D01*
X6510272Y-17830958D02*
X6472176Y-17830958D01*
X6472176Y-17830958D02*
X6453129Y-17821434D01*
X6453129Y-17821434D02*
X6443605Y-17802387D01*
X6443605Y-17802387D02*
X6443605Y-17726196D01*
X6443605Y-17726196D02*
X6453129Y-17707149D01*
X6453129Y-17707149D02*
X6472176Y-17697625D01*
X6472176Y-17697625D02*
X6510272Y-17697625D01*
X6510272Y-17697625D02*
X6529319Y-17707149D01*
X6529319Y-17707149D02*
X6538843Y-17726196D01*
X6538843Y-17726196D02*
X6538843Y-17745244D01*
X6538843Y-17745244D02*
X6443605Y-17764292D01*
X6615034Y-17821434D02*
X6634081Y-17830958D01*
X6634081Y-17830958D02*
X6672176Y-17830958D01*
X6672176Y-17830958D02*
X6691224Y-17821434D01*
X6691224Y-17821434D02*
X6700748Y-17802387D01*
X6700748Y-17802387D02*
X6700748Y-17792863D01*
X6700748Y-17792863D02*
X6691224Y-17773815D01*
X6691224Y-17773815D02*
X6672176Y-17764292D01*
X6672176Y-17764292D02*
X6643605Y-17764292D01*
X6643605Y-17764292D02*
X6624557Y-17754768D01*
X6624557Y-17754768D02*
X6615034Y-17735720D01*
X6615034Y-17735720D02*
X6615034Y-17726196D01*
X6615034Y-17726196D02*
X6624557Y-17707149D01*
X6624557Y-17707149D02*
X6643605Y-17697625D01*
X6643605Y-17697625D02*
X6672176Y-17697625D01*
X6672176Y-17697625D02*
X6691224Y-17707149D01*
X6767415Y-17907149D02*
X6776938Y-17897625D01*
X6776938Y-17897625D02*
X6795986Y-17869053D01*
X6795986Y-17869053D02*
X6805510Y-17850006D01*
X6805510Y-17850006D02*
X6815034Y-17821434D01*
X6815034Y-17821434D02*
X6824557Y-17773815D01*
X6824557Y-17773815D02*
X6824557Y-17735720D01*
X6824557Y-17735720D02*
X6815034Y-17688101D01*
X6815034Y-17688101D02*
X6805510Y-17659530D01*
X6805510Y-17659530D02*
X6795986Y-17640482D01*
X6795986Y-17640482D02*
X6776938Y-17611911D01*
X6776938Y-17611911D02*
X6767415Y-17602387D01*
X7129319Y-17907149D02*
X7119796Y-17897625D01*
X7119796Y-17897625D02*
X7100748Y-17869053D01*
X7100748Y-17869053D02*
X7091224Y-17850006D01*
X7091224Y-17850006D02*
X7081700Y-17821434D01*
X7081700Y-17821434D02*
X7072177Y-17773815D01*
X7072177Y-17773815D02*
X7072177Y-17735720D01*
X7072177Y-17735720D02*
X7081700Y-17688101D01*
X7081700Y-17688101D02*
X7091224Y-17659530D01*
X7091224Y-17659530D02*
X7100748Y-17640482D01*
X7100748Y-17640482D02*
X7119796Y-17611911D01*
X7119796Y-17611911D02*
X7129319Y-17602387D01*
X7205510Y-17697625D02*
X7205510Y-17830958D01*
X7205510Y-17716672D02*
X7215034Y-17707149D01*
X7215034Y-17707149D02*
X7234081Y-17697625D01*
X7234081Y-17697625D02*
X7262653Y-17697625D01*
X7262653Y-17697625D02*
X7281700Y-17707149D01*
X7281700Y-17707149D02*
X7291224Y-17726196D01*
X7291224Y-17726196D02*
X7291224Y-17830958D01*
X7415034Y-17830958D02*
X7395986Y-17821434D01*
X7395986Y-17821434D02*
X7386462Y-17811911D01*
X7386462Y-17811911D02*
X7376938Y-17792863D01*
X7376938Y-17792863D02*
X7376938Y-17735720D01*
X7376938Y-17735720D02*
X7386462Y-17716672D01*
X7386462Y-17716672D02*
X7395986Y-17707149D01*
X7395986Y-17707149D02*
X7415034Y-17697625D01*
X7415034Y-17697625D02*
X7443605Y-17697625D01*
X7443605Y-17697625D02*
X7462653Y-17707149D01*
X7462653Y-17707149D02*
X7472177Y-17716672D01*
X7472177Y-17716672D02*
X7481700Y-17735720D01*
X7481700Y-17735720D02*
X7481700Y-17792863D01*
X7481700Y-17792863D02*
X7472177Y-17811911D01*
X7472177Y-17811911D02*
X7462653Y-17821434D01*
X7462653Y-17821434D02*
X7443605Y-17830958D01*
X7443605Y-17830958D02*
X7415034Y-17830958D01*
X7538843Y-17697625D02*
X7615034Y-17697625D01*
X7567415Y-17630958D02*
X7567415Y-17802387D01*
X7567415Y-17802387D02*
X7576938Y-17821434D01*
X7576938Y-17821434D02*
X7595986Y-17830958D01*
X7595986Y-17830958D02*
X7615034Y-17830958D01*
X7834081Y-17697625D02*
X7834081Y-17897625D01*
X7834081Y-17707149D02*
X7853129Y-17697625D01*
X7853129Y-17697625D02*
X7891224Y-17697625D01*
X7891224Y-17697625D02*
X7910272Y-17707149D01*
X7910272Y-17707149D02*
X7919796Y-17716672D01*
X7919796Y-17716672D02*
X7929319Y-17735720D01*
X7929319Y-17735720D02*
X7929319Y-17792863D01*
X7929319Y-17792863D02*
X7919796Y-17811911D01*
X7919796Y-17811911D02*
X7910272Y-17821434D01*
X7910272Y-17821434D02*
X7891224Y-17830958D01*
X7891224Y-17830958D02*
X7853129Y-17830958D01*
X7853129Y-17830958D02*
X7834081Y-17821434D01*
X8043605Y-17830958D02*
X8024558Y-17821434D01*
X8024558Y-17821434D02*
X8015034Y-17802387D01*
X8015034Y-17802387D02*
X8015034Y-17630958D01*
X8205510Y-17830958D02*
X8205510Y-17726196D01*
X8205510Y-17726196D02*
X8195986Y-17707149D01*
X8195986Y-17707149D02*
X8176939Y-17697625D01*
X8176939Y-17697625D02*
X8138843Y-17697625D01*
X8138843Y-17697625D02*
X8119796Y-17707149D01*
X8205510Y-17821434D02*
X8186462Y-17830958D01*
X8186462Y-17830958D02*
X8138843Y-17830958D01*
X8138843Y-17830958D02*
X8119796Y-17821434D01*
X8119796Y-17821434D02*
X8110272Y-17802387D01*
X8110272Y-17802387D02*
X8110272Y-17783339D01*
X8110272Y-17783339D02*
X8119796Y-17764292D01*
X8119796Y-17764292D02*
X8138843Y-17754768D01*
X8138843Y-17754768D02*
X8186462Y-17754768D01*
X8186462Y-17754768D02*
X8205510Y-17745244D01*
X8272177Y-17697625D02*
X8348367Y-17697625D01*
X8300748Y-17630958D02*
X8300748Y-17802387D01*
X8300748Y-17802387D02*
X8310272Y-17821434D01*
X8310272Y-17821434D02*
X8329319Y-17830958D01*
X8329319Y-17830958D02*
X8348367Y-17830958D01*
X8491224Y-17821434D02*
X8472177Y-17830958D01*
X8472177Y-17830958D02*
X8434081Y-17830958D01*
X8434081Y-17830958D02*
X8415034Y-17821434D01*
X8415034Y-17821434D02*
X8405510Y-17802387D01*
X8405510Y-17802387D02*
X8405510Y-17726196D01*
X8405510Y-17726196D02*
X8415034Y-17707149D01*
X8415034Y-17707149D02*
X8434081Y-17697625D01*
X8434081Y-17697625D02*
X8472177Y-17697625D01*
X8472177Y-17697625D02*
X8491224Y-17707149D01*
X8491224Y-17707149D02*
X8500748Y-17726196D01*
X8500748Y-17726196D02*
X8500748Y-17745244D01*
X8500748Y-17745244D02*
X8405510Y-17764292D01*
X8672177Y-17830958D02*
X8672177Y-17630958D01*
X8672177Y-17821434D02*
X8653129Y-17830958D01*
X8653129Y-17830958D02*
X8615034Y-17830958D01*
X8615034Y-17830958D02*
X8595986Y-17821434D01*
X8595986Y-17821434D02*
X8586462Y-17811911D01*
X8586462Y-17811911D02*
X8576939Y-17792863D01*
X8576939Y-17792863D02*
X8576939Y-17735720D01*
X8576939Y-17735720D02*
X8586462Y-17716672D01*
X8586462Y-17716672D02*
X8595986Y-17707149D01*
X8595986Y-17707149D02*
X8615034Y-17697625D01*
X8615034Y-17697625D02*
X8653129Y-17697625D01*
X8653129Y-17697625D02*
X8672177Y-17707149D01*
X8748367Y-17907149D02*
X8757891Y-17897625D01*
X8757891Y-17897625D02*
X8776939Y-17869053D01*
X8776939Y-17869053D02*
X8786462Y-17850006D01*
X8786462Y-17850006D02*
X8795986Y-17821434D01*
X8795986Y-17821434D02*
X8805510Y-17773815D01*
X8805510Y-17773815D02*
X8805510Y-17735720D01*
X8805510Y-17735720D02*
X8795986Y-17688101D01*
X8795986Y-17688101D02*
X8786462Y-17659530D01*
X8786462Y-17659530D02*
X8776939Y-17640482D01*
X8776939Y-17640482D02*
X8757891Y-17611911D01*
X8757891Y-17611911D02*
X8748367Y-17602387D01*
D13*
X1801875Y-18029474D02*
G75*
G02*
X1626875Y-18029474I-87500J0D01*
G01*
X1626875Y-18029474D02*
G75*
G02*
X1801875Y-18029474I87500J0D01*
G01*
D11*
X2167414Y-18120958D02*
X2053128Y-18120958D01*
X2110271Y-18120958D02*
X2110271Y-17920958D01*
X2110271Y-17920958D02*
X2091224Y-17949530D01*
X2091224Y-17949530D02*
X2072176Y-17968577D01*
X2072176Y-17968577D02*
X2053128Y-17978101D01*
X2253129Y-18101911D02*
X2262652Y-18111434D01*
X2262652Y-18111434D02*
X2253129Y-18120958D01*
X2253129Y-18120958D02*
X2243605Y-18111434D01*
X2243605Y-18111434D02*
X2253129Y-18101911D01*
X2253129Y-18101911D02*
X2253129Y-18120958D01*
X2329319Y-17920958D02*
X2462652Y-17920958D01*
X2462652Y-17920958D02*
X2376938Y-18120958D01*
X2634081Y-17920958D02*
X2538843Y-17920958D01*
X2538843Y-17920958D02*
X2529319Y-18016196D01*
X2529319Y-18016196D02*
X2538843Y-18006672D01*
X2538843Y-18006672D02*
X2557890Y-17997149D01*
X2557890Y-17997149D02*
X2605510Y-17997149D01*
X2605510Y-17997149D02*
X2624557Y-18006672D01*
X2624557Y-18006672D02*
X2634081Y-18016196D01*
X2634081Y-18016196D02*
X2643605Y-18035244D01*
X2643605Y-18035244D02*
X2643605Y-18082863D01*
X2643605Y-18082863D02*
X2634081Y-18101911D01*
X2634081Y-18101911D02*
X2624557Y-18111434D01*
X2624557Y-18111434D02*
X2605510Y-18120958D01*
X2605510Y-18120958D02*
X2557890Y-18120958D01*
X2557890Y-18120958D02*
X2538843Y-18111434D01*
X2538843Y-18111434D02*
X2529319Y-18101911D01*
X2767414Y-17920958D02*
X2786462Y-17920958D01*
X2786462Y-17920958D02*
X2805509Y-17930482D01*
X2805509Y-17930482D02*
X2815033Y-17940006D01*
X2815033Y-17940006D02*
X2824557Y-17959053D01*
X2824557Y-17959053D02*
X2834081Y-17997149D01*
X2834081Y-17997149D02*
X2834081Y-18044768D01*
X2834081Y-18044768D02*
X2824557Y-18082863D01*
X2824557Y-18082863D02*
X2815033Y-18101911D01*
X2815033Y-18101911D02*
X2805509Y-18111434D01*
X2805509Y-18111434D02*
X2786462Y-18120958D01*
X2786462Y-18120958D02*
X2767414Y-18120958D01*
X2767414Y-18120958D02*
X2748367Y-18111434D01*
X2748367Y-18111434D02*
X2738843Y-18101911D01*
X2738843Y-18101911D02*
X2729319Y-18082863D01*
X2729319Y-18082863D02*
X2719795Y-18044768D01*
X2719795Y-18044768D02*
X2719795Y-17997149D01*
X2719795Y-17997149D02*
X2729319Y-17959053D01*
X2729319Y-17959053D02*
X2738843Y-17940006D01*
X2738843Y-17940006D02*
X2748367Y-17930482D01*
X2748367Y-17930482D02*
X2767414Y-17920958D01*
X2919795Y-18120958D02*
X2919795Y-17987625D01*
X2919795Y-18006672D02*
X2929319Y-17997149D01*
X2929319Y-17997149D02*
X2948367Y-17987625D01*
X2948367Y-17987625D02*
X2976938Y-17987625D01*
X2976938Y-17987625D02*
X2995986Y-17997149D01*
X2995986Y-17997149D02*
X3005509Y-18016196D01*
X3005509Y-18016196D02*
X3005509Y-18120958D01*
X3005509Y-18016196D02*
X3015033Y-17997149D01*
X3015033Y-17997149D02*
X3034081Y-17987625D01*
X3034081Y-17987625D02*
X3062652Y-17987625D01*
X3062652Y-17987625D02*
X3081700Y-17997149D01*
X3081700Y-17997149D02*
X3091224Y-18016196D01*
X3091224Y-18016196D02*
X3091224Y-18120958D01*
X3186462Y-18120958D02*
X3186462Y-17987625D01*
X3186462Y-18006672D02*
X3195986Y-17997149D01*
X3195986Y-17997149D02*
X3215033Y-17987625D01*
X3215033Y-17987625D02*
X3243605Y-17987625D01*
X3243605Y-17987625D02*
X3262652Y-17997149D01*
X3262652Y-17997149D02*
X3272176Y-18016196D01*
X3272176Y-18016196D02*
X3272176Y-18120958D01*
X3272176Y-18016196D02*
X3281700Y-17997149D01*
X3281700Y-17997149D02*
X3300748Y-17987625D01*
X3300748Y-17987625D02*
X3329319Y-17987625D01*
X3329319Y-17987625D02*
X3348367Y-17997149D01*
X3348367Y-17997149D02*
X3357890Y-18016196D01*
X3357890Y-18016196D02*
X3357890Y-18120958D01*
X3748367Y-17911434D02*
X3576938Y-18168577D01*
X4005510Y-17920958D02*
X4024557Y-17920958D01*
X4024557Y-17920958D02*
X4043605Y-17930482D01*
X4043605Y-17930482D02*
X4053129Y-17940006D01*
X4053129Y-17940006D02*
X4062652Y-17959053D01*
X4062652Y-17959053D02*
X4072176Y-17997149D01*
X4072176Y-17997149D02*
X4072176Y-18044768D01*
X4072176Y-18044768D02*
X4062652Y-18082863D01*
X4062652Y-18082863D02*
X4053129Y-18101911D01*
X4053129Y-18101911D02*
X4043605Y-18111434D01*
X4043605Y-18111434D02*
X4024557Y-18120958D01*
X4024557Y-18120958D02*
X4005510Y-18120958D01*
X4005510Y-18120958D02*
X3986462Y-18111434D01*
X3986462Y-18111434D02*
X3976938Y-18101911D01*
X3976938Y-18101911D02*
X3967414Y-18082863D01*
X3967414Y-18082863D02*
X3957891Y-18044768D01*
X3957891Y-18044768D02*
X3957891Y-17997149D01*
X3957891Y-17997149D02*
X3967414Y-17959053D01*
X3967414Y-17959053D02*
X3976938Y-17940006D01*
X3976938Y-17940006D02*
X3986462Y-17930482D01*
X3986462Y-17930482D02*
X4005510Y-17920958D01*
X4157891Y-18101911D02*
X4167414Y-18111434D01*
X4167414Y-18111434D02*
X4157891Y-18120958D01*
X4157891Y-18120958D02*
X4148367Y-18111434D01*
X4148367Y-18111434D02*
X4157891Y-18101911D01*
X4157891Y-18101911D02*
X4157891Y-18120958D01*
X4291224Y-17920958D02*
X4310272Y-17920958D01*
X4310272Y-17920958D02*
X4329319Y-17930482D01*
X4329319Y-17930482D02*
X4338843Y-17940006D01*
X4338843Y-17940006D02*
X4348367Y-17959053D01*
X4348367Y-17959053D02*
X4357891Y-17997149D01*
X4357891Y-17997149D02*
X4357891Y-18044768D01*
X4357891Y-18044768D02*
X4348367Y-18082863D01*
X4348367Y-18082863D02*
X4338843Y-18101911D01*
X4338843Y-18101911D02*
X4329319Y-18111434D01*
X4329319Y-18111434D02*
X4310272Y-18120958D01*
X4310272Y-18120958D02*
X4291224Y-18120958D01*
X4291224Y-18120958D02*
X4272176Y-18111434D01*
X4272176Y-18111434D02*
X4262653Y-18101911D01*
X4262653Y-18101911D02*
X4253129Y-18082863D01*
X4253129Y-18082863D02*
X4243605Y-18044768D01*
X4243605Y-18044768D02*
X4243605Y-17997149D01*
X4243605Y-17997149D02*
X4253129Y-17959053D01*
X4253129Y-17959053D02*
X4262653Y-17940006D01*
X4262653Y-17940006D02*
X4272176Y-17930482D01*
X4272176Y-17930482D02*
X4291224Y-17920958D01*
X4529319Y-17920958D02*
X4491224Y-17920958D01*
X4491224Y-17920958D02*
X4472176Y-17930482D01*
X4472176Y-17930482D02*
X4462653Y-17940006D01*
X4462653Y-17940006D02*
X4443605Y-17968577D01*
X4443605Y-17968577D02*
X4434081Y-18006672D01*
X4434081Y-18006672D02*
X4434081Y-18082863D01*
X4434081Y-18082863D02*
X4443605Y-18101911D01*
X4443605Y-18101911D02*
X4453129Y-18111434D01*
X4453129Y-18111434D02*
X4472176Y-18120958D01*
X4472176Y-18120958D02*
X4510272Y-18120958D01*
X4510272Y-18120958D02*
X4529319Y-18111434D01*
X4529319Y-18111434D02*
X4538843Y-18101911D01*
X4538843Y-18101911D02*
X4548367Y-18082863D01*
X4548367Y-18082863D02*
X4548367Y-18035244D01*
X4548367Y-18035244D02*
X4538843Y-18016196D01*
X4538843Y-18016196D02*
X4529319Y-18006672D01*
X4529319Y-18006672D02*
X4510272Y-17997149D01*
X4510272Y-17997149D02*
X4472176Y-17997149D01*
X4472176Y-17997149D02*
X4453129Y-18006672D01*
X4453129Y-18006672D02*
X4443605Y-18016196D01*
X4443605Y-18016196D02*
X4434081Y-18035244D01*
X4662653Y-18006672D02*
X4643605Y-17997149D01*
X4643605Y-17997149D02*
X4634081Y-17987625D01*
X4634081Y-17987625D02*
X4624557Y-17968577D01*
X4624557Y-17968577D02*
X4624557Y-17959053D01*
X4624557Y-17959053D02*
X4634081Y-17940006D01*
X4634081Y-17940006D02*
X4643605Y-17930482D01*
X4643605Y-17930482D02*
X4662653Y-17920958D01*
X4662653Y-17920958D02*
X4700748Y-17920958D01*
X4700748Y-17920958D02*
X4719795Y-17930482D01*
X4719795Y-17930482D02*
X4729319Y-17940006D01*
X4729319Y-17940006D02*
X4738843Y-17959053D01*
X4738843Y-17959053D02*
X4738843Y-17968577D01*
X4738843Y-17968577D02*
X4729319Y-17987625D01*
X4729319Y-17987625D02*
X4719795Y-17997149D01*
X4719795Y-17997149D02*
X4700748Y-18006672D01*
X4700748Y-18006672D02*
X4662653Y-18006672D01*
X4662653Y-18006672D02*
X4643605Y-18016196D01*
X4643605Y-18016196D02*
X4634081Y-18025720D01*
X4634081Y-18025720D02*
X4624557Y-18044768D01*
X4624557Y-18044768D02*
X4624557Y-18082863D01*
X4624557Y-18082863D02*
X4634081Y-18101911D01*
X4634081Y-18101911D02*
X4643605Y-18111434D01*
X4643605Y-18111434D02*
X4662653Y-18120958D01*
X4662653Y-18120958D02*
X4700748Y-18120958D01*
X4700748Y-18120958D02*
X4719795Y-18111434D01*
X4719795Y-18111434D02*
X4729319Y-18101911D01*
X4729319Y-18101911D02*
X4738843Y-18082863D01*
X4738843Y-18082863D02*
X4738843Y-18044768D01*
X4738843Y-18044768D02*
X4729319Y-18025720D01*
X4729319Y-18025720D02*
X4719795Y-18016196D01*
X4719795Y-18016196D02*
X4700748Y-18006672D01*
X4834081Y-18120958D02*
X4872176Y-18120958D01*
X4872176Y-18120958D02*
X4891224Y-18111434D01*
X4891224Y-18111434D02*
X4900748Y-18101911D01*
X4900748Y-18101911D02*
X4919795Y-18073339D01*
X4919795Y-18073339D02*
X4929319Y-18035244D01*
X4929319Y-18035244D02*
X4929319Y-17959053D01*
X4929319Y-17959053D02*
X4919795Y-17940006D01*
X4919795Y-17940006D02*
X4910272Y-17930482D01*
X4910272Y-17930482D02*
X4891224Y-17920958D01*
X4891224Y-17920958D02*
X4853129Y-17920958D01*
X4853129Y-17920958D02*
X4834081Y-17930482D01*
X4834081Y-17930482D02*
X4824557Y-17940006D01*
X4824557Y-17940006D02*
X4815034Y-17959053D01*
X4815034Y-17959053D02*
X4815034Y-18006672D01*
X4815034Y-18006672D02*
X4824557Y-18025720D01*
X4824557Y-18025720D02*
X4834081Y-18035244D01*
X4834081Y-18035244D02*
X4853129Y-18044768D01*
X4853129Y-18044768D02*
X4891224Y-18044768D01*
X4891224Y-18044768D02*
X4910272Y-18035244D01*
X4910272Y-18035244D02*
X4919795Y-18025720D01*
X4919795Y-18025720D02*
X4929319Y-18006672D01*
X5005510Y-17920958D02*
X5005510Y-17959053D01*
X5081700Y-17920958D02*
X5081700Y-17959053D01*
X5376938Y-18197149D02*
X5367415Y-18187625D01*
X5367415Y-18187625D02*
X5348367Y-18159053D01*
X5348367Y-18159053D02*
X5338843Y-18140006D01*
X5338843Y-18140006D02*
X5329319Y-18111434D01*
X5329319Y-18111434D02*
X5319796Y-18063815D01*
X5319796Y-18063815D02*
X5319796Y-18025720D01*
X5319796Y-18025720D02*
X5329319Y-17978101D01*
X5329319Y-17978101D02*
X5338843Y-17949530D01*
X5338843Y-17949530D02*
X5348367Y-17930482D01*
X5348367Y-17930482D02*
X5367415Y-17901911D01*
X5367415Y-17901911D02*
X5376938Y-17892387D01*
X5557891Y-18120958D02*
X5443605Y-18120958D01*
X5500748Y-18120958D02*
X5500748Y-17920958D01*
X5500748Y-17920958D02*
X5481700Y-17949530D01*
X5481700Y-17949530D02*
X5462653Y-17968577D01*
X5462653Y-17968577D02*
X5443605Y-17978101D01*
X5729319Y-17920958D02*
X5691224Y-17920958D01*
X5691224Y-17920958D02*
X5672176Y-17930482D01*
X5672176Y-17930482D02*
X5662653Y-17940006D01*
X5662653Y-17940006D02*
X5643605Y-17968577D01*
X5643605Y-17968577D02*
X5634081Y-18006672D01*
X5634081Y-18006672D02*
X5634081Y-18082863D01*
X5634081Y-18082863D02*
X5643605Y-18101911D01*
X5643605Y-18101911D02*
X5653129Y-18111434D01*
X5653129Y-18111434D02*
X5672176Y-18120958D01*
X5672176Y-18120958D02*
X5710272Y-18120958D01*
X5710272Y-18120958D02*
X5729319Y-18111434D01*
X5729319Y-18111434D02*
X5738843Y-18101911D01*
X5738843Y-18101911D02*
X5748367Y-18082863D01*
X5748367Y-18082863D02*
X5748367Y-18035244D01*
X5748367Y-18035244D02*
X5738843Y-18016196D01*
X5738843Y-18016196D02*
X5729319Y-18006672D01*
X5729319Y-18006672D02*
X5710272Y-17997149D01*
X5710272Y-17997149D02*
X5672176Y-17997149D01*
X5672176Y-17997149D02*
X5653129Y-18006672D01*
X5653129Y-18006672D02*
X5643605Y-18016196D01*
X5643605Y-18016196D02*
X5634081Y-18035244D01*
X5919795Y-17987625D02*
X5919795Y-18120958D01*
X5872176Y-17911434D02*
X5824557Y-18054292D01*
X5824557Y-18054292D02*
X5948367Y-18054292D01*
X6176938Y-18120958D02*
X6176938Y-17920958D01*
X6262653Y-18120958D02*
X6262653Y-18016196D01*
X6262653Y-18016196D02*
X6253129Y-17997149D01*
X6253129Y-17997149D02*
X6234081Y-17987625D01*
X6234081Y-17987625D02*
X6205510Y-17987625D01*
X6205510Y-17987625D02*
X6186462Y-17997149D01*
X6186462Y-17997149D02*
X6176938Y-18006672D01*
X6386462Y-18120958D02*
X6367415Y-18111434D01*
X6367415Y-18111434D02*
X6357891Y-18101911D01*
X6357891Y-18101911D02*
X6348367Y-18082863D01*
X6348367Y-18082863D02*
X6348367Y-18025720D01*
X6348367Y-18025720D02*
X6357891Y-18006672D01*
X6357891Y-18006672D02*
X6367415Y-17997149D01*
X6367415Y-17997149D02*
X6386462Y-17987625D01*
X6386462Y-17987625D02*
X6415034Y-17987625D01*
X6415034Y-17987625D02*
X6434081Y-17997149D01*
X6434081Y-17997149D02*
X6443605Y-18006672D01*
X6443605Y-18006672D02*
X6453129Y-18025720D01*
X6453129Y-18025720D02*
X6453129Y-18082863D01*
X6453129Y-18082863D02*
X6443605Y-18101911D01*
X6443605Y-18101911D02*
X6434081Y-18111434D01*
X6434081Y-18111434D02*
X6415034Y-18120958D01*
X6415034Y-18120958D02*
X6386462Y-18120958D01*
X6567415Y-18120958D02*
X6548367Y-18111434D01*
X6548367Y-18111434D02*
X6538843Y-18092387D01*
X6538843Y-18092387D02*
X6538843Y-17920958D01*
X6719796Y-18111434D02*
X6700748Y-18120958D01*
X6700748Y-18120958D02*
X6662653Y-18120958D01*
X6662653Y-18120958D02*
X6643605Y-18111434D01*
X6643605Y-18111434D02*
X6634081Y-18092387D01*
X6634081Y-18092387D02*
X6634081Y-18016196D01*
X6634081Y-18016196D02*
X6643605Y-17997149D01*
X6643605Y-17997149D02*
X6662653Y-17987625D01*
X6662653Y-17987625D02*
X6700748Y-17987625D01*
X6700748Y-17987625D02*
X6719796Y-17997149D01*
X6719796Y-17997149D02*
X6729319Y-18016196D01*
X6729319Y-18016196D02*
X6729319Y-18035244D01*
X6729319Y-18035244D02*
X6634081Y-18054292D01*
X6805510Y-18111434D02*
X6824557Y-18120958D01*
X6824557Y-18120958D02*
X6862653Y-18120958D01*
X6862653Y-18120958D02*
X6881700Y-18111434D01*
X6881700Y-18111434D02*
X6891224Y-18092387D01*
X6891224Y-18092387D02*
X6891224Y-18082863D01*
X6891224Y-18082863D02*
X6881700Y-18063815D01*
X6881700Y-18063815D02*
X6862653Y-18054292D01*
X6862653Y-18054292D02*
X6834081Y-18054292D01*
X6834081Y-18054292D02*
X6815034Y-18044768D01*
X6815034Y-18044768D02*
X6805510Y-18025720D01*
X6805510Y-18025720D02*
X6805510Y-18016196D01*
X6805510Y-18016196D02*
X6815034Y-17997149D01*
X6815034Y-17997149D02*
X6834081Y-17987625D01*
X6834081Y-17987625D02*
X6862653Y-17987625D01*
X6862653Y-17987625D02*
X6881700Y-17997149D01*
X6957891Y-18197149D02*
X6967415Y-18187625D01*
X6967415Y-18187625D02*
X6986462Y-18159053D01*
X6986462Y-18159053D02*
X6995986Y-18140006D01*
X6995986Y-18140006D02*
X7005510Y-18111434D01*
X7005510Y-18111434D02*
X7015034Y-18063815D01*
X7015034Y-18063815D02*
X7015034Y-18025720D01*
X7015034Y-18025720D02*
X7005510Y-17978101D01*
X7005510Y-17978101D02*
X6995986Y-17949530D01*
X6995986Y-17949530D02*
X6986462Y-17930482D01*
X6986462Y-17930482D02*
X6967415Y-17901911D01*
X6967415Y-17901911D02*
X6957891Y-17892387D01*
X7319796Y-18197149D02*
X7310272Y-18187625D01*
X7310272Y-18187625D02*
X7291224Y-18159053D01*
X7291224Y-18159053D02*
X7281700Y-18140006D01*
X7281700Y-18140006D02*
X7272177Y-18111434D01*
X7272177Y-18111434D02*
X7262653Y-18063815D01*
X7262653Y-18063815D02*
X7262653Y-18025720D01*
X7262653Y-18025720D02*
X7272177Y-17978101D01*
X7272177Y-17978101D02*
X7281700Y-17949530D01*
X7281700Y-17949530D02*
X7291224Y-17930482D01*
X7291224Y-17930482D02*
X7310272Y-17901911D01*
X7310272Y-17901911D02*
X7319796Y-17892387D01*
X7395986Y-17987625D02*
X7395986Y-18120958D01*
X7395986Y-18006672D02*
X7405510Y-17997149D01*
X7405510Y-17997149D02*
X7424557Y-17987625D01*
X7424557Y-17987625D02*
X7453129Y-17987625D01*
X7453129Y-17987625D02*
X7472177Y-17997149D01*
X7472177Y-17997149D02*
X7481700Y-18016196D01*
X7481700Y-18016196D02*
X7481700Y-18120958D01*
X7605510Y-18120958D02*
X7586462Y-18111434D01*
X7586462Y-18111434D02*
X7576938Y-18101911D01*
X7576938Y-18101911D02*
X7567415Y-18082863D01*
X7567415Y-18082863D02*
X7567415Y-18025720D01*
X7567415Y-18025720D02*
X7576938Y-18006672D01*
X7576938Y-18006672D02*
X7586462Y-17997149D01*
X7586462Y-17997149D02*
X7605510Y-17987625D01*
X7605510Y-17987625D02*
X7634081Y-17987625D01*
X7634081Y-17987625D02*
X7653129Y-17997149D01*
X7653129Y-17997149D02*
X7662653Y-18006672D01*
X7662653Y-18006672D02*
X7672177Y-18025720D01*
X7672177Y-18025720D02*
X7672177Y-18082863D01*
X7672177Y-18082863D02*
X7662653Y-18101911D01*
X7662653Y-18101911D02*
X7653129Y-18111434D01*
X7653129Y-18111434D02*
X7634081Y-18120958D01*
X7634081Y-18120958D02*
X7605510Y-18120958D01*
X7729319Y-17987625D02*
X7805510Y-17987625D01*
X7757891Y-17920958D02*
X7757891Y-18092387D01*
X7757891Y-18092387D02*
X7767415Y-18111434D01*
X7767415Y-18111434D02*
X7786462Y-18120958D01*
X7786462Y-18120958D02*
X7805510Y-18120958D01*
X8024558Y-17987625D02*
X8024558Y-18187625D01*
X8024558Y-17997149D02*
X8043605Y-17987625D01*
X8043605Y-17987625D02*
X8081700Y-17987625D01*
X8081700Y-17987625D02*
X8100748Y-17997149D01*
X8100748Y-17997149D02*
X8110272Y-18006672D01*
X8110272Y-18006672D02*
X8119796Y-18025720D01*
X8119796Y-18025720D02*
X8119796Y-18082863D01*
X8119796Y-18082863D02*
X8110272Y-18101911D01*
X8110272Y-18101911D02*
X8100748Y-18111434D01*
X8100748Y-18111434D02*
X8081700Y-18120958D01*
X8081700Y-18120958D02*
X8043605Y-18120958D01*
X8043605Y-18120958D02*
X8024558Y-18111434D01*
X8234081Y-18120958D02*
X8215034Y-18111434D01*
X8215034Y-18111434D02*
X8205510Y-18092387D01*
X8205510Y-18092387D02*
X8205510Y-17920958D01*
X8395986Y-18120958D02*
X8395986Y-18016196D01*
X8395986Y-18016196D02*
X8386462Y-17997149D01*
X8386462Y-17997149D02*
X8367415Y-17987625D01*
X8367415Y-17987625D02*
X8329319Y-17987625D01*
X8329319Y-17987625D02*
X8310272Y-17997149D01*
X8395986Y-18111434D02*
X8376939Y-18120958D01*
X8376939Y-18120958D02*
X8329319Y-18120958D01*
X8329319Y-18120958D02*
X8310272Y-18111434D01*
X8310272Y-18111434D02*
X8300748Y-18092387D01*
X8300748Y-18092387D02*
X8300748Y-18073339D01*
X8300748Y-18073339D02*
X8310272Y-18054292D01*
X8310272Y-18054292D02*
X8329319Y-18044768D01*
X8329319Y-18044768D02*
X8376939Y-18044768D01*
X8376939Y-18044768D02*
X8395986Y-18035244D01*
X8462653Y-17987625D02*
X8538843Y-17987625D01*
X8491224Y-17920958D02*
X8491224Y-18092387D01*
X8491224Y-18092387D02*
X8500748Y-18111434D01*
X8500748Y-18111434D02*
X8519796Y-18120958D01*
X8519796Y-18120958D02*
X8538843Y-18120958D01*
X8681701Y-18111434D02*
X8662653Y-18120958D01*
X8662653Y-18120958D02*
X8624558Y-18120958D01*
X8624558Y-18120958D02*
X8605510Y-18111434D01*
X8605510Y-18111434D02*
X8595986Y-18092387D01*
X8595986Y-18092387D02*
X8595986Y-18016196D01*
X8595986Y-18016196D02*
X8605510Y-17997149D01*
X8605510Y-17997149D02*
X8624558Y-17987625D01*
X8624558Y-17987625D02*
X8662653Y-17987625D01*
X8662653Y-17987625D02*
X8681701Y-17997149D01*
X8681701Y-17997149D02*
X8691224Y-18016196D01*
X8691224Y-18016196D02*
X8691224Y-18035244D01*
X8691224Y-18035244D02*
X8595986Y-18054292D01*
X8862653Y-18120958D02*
X8862653Y-17920958D01*
X8862653Y-18111434D02*
X8843605Y-18120958D01*
X8843605Y-18120958D02*
X8805510Y-18120958D01*
X8805510Y-18120958D02*
X8786462Y-18111434D01*
X8786462Y-18111434D02*
X8776939Y-18101911D01*
X8776939Y-18101911D02*
X8767415Y-18082863D01*
X8767415Y-18082863D02*
X8767415Y-18025720D01*
X8767415Y-18025720D02*
X8776939Y-18006672D01*
X8776939Y-18006672D02*
X8786462Y-17997149D01*
X8786462Y-17997149D02*
X8805510Y-17987625D01*
X8805510Y-17987625D02*
X8843605Y-17987625D01*
X8843605Y-17987625D02*
X8862653Y-17997149D01*
X8938843Y-18197149D02*
X8948367Y-18187625D01*
X8948367Y-18187625D02*
X8967415Y-18159053D01*
X8967415Y-18159053D02*
X8976939Y-18140006D01*
X8976939Y-18140006D02*
X8986462Y-18111434D01*
X8986462Y-18111434D02*
X8995986Y-18063815D01*
X8995986Y-18063815D02*
X8995986Y-18025720D01*
X8995986Y-18025720D02*
X8986462Y-17978101D01*
X8986462Y-17978101D02*
X8976939Y-17949530D01*
X8976939Y-17949530D02*
X8967415Y-17930482D01*
X8967415Y-17930482D02*
X8948367Y-17901911D01*
X8948367Y-17901911D02*
X8938843Y-17892387D01*
X1701875Y-18224474D02*
X1701875Y-18424474D01*
X1601875Y-18324474D02*
X1801875Y-18324474D01*
X2043605Y-18215958D02*
X2167414Y-18215958D01*
X2167414Y-18215958D02*
X2100748Y-18292149D01*
X2100748Y-18292149D02*
X2129319Y-18292149D01*
X2129319Y-18292149D02*
X2148367Y-18301672D01*
X2148367Y-18301672D02*
X2157890Y-18311196D01*
X2157890Y-18311196D02*
X2167414Y-18330244D01*
X2167414Y-18330244D02*
X2167414Y-18377863D01*
X2167414Y-18377863D02*
X2157890Y-18396911D01*
X2157890Y-18396911D02*
X2148367Y-18406434D01*
X2148367Y-18406434D02*
X2129319Y-18415958D01*
X2129319Y-18415958D02*
X2072176Y-18415958D01*
X2072176Y-18415958D02*
X2053128Y-18406434D01*
X2053128Y-18406434D02*
X2043605Y-18396911D01*
X2253129Y-18396911D02*
X2262652Y-18406434D01*
X2262652Y-18406434D02*
X2253129Y-18415958D01*
X2253129Y-18415958D02*
X2243605Y-18406434D01*
X2243605Y-18406434D02*
X2253129Y-18396911D01*
X2253129Y-18396911D02*
X2253129Y-18415958D01*
X2386462Y-18215958D02*
X2405510Y-18215958D01*
X2405510Y-18215958D02*
X2424557Y-18225482D01*
X2424557Y-18225482D02*
X2434081Y-18235006D01*
X2434081Y-18235006D02*
X2443605Y-18254053D01*
X2443605Y-18254053D02*
X2453129Y-18292149D01*
X2453129Y-18292149D02*
X2453129Y-18339768D01*
X2453129Y-18339768D02*
X2443605Y-18377863D01*
X2443605Y-18377863D02*
X2434081Y-18396911D01*
X2434081Y-18396911D02*
X2424557Y-18406434D01*
X2424557Y-18406434D02*
X2405510Y-18415958D01*
X2405510Y-18415958D02*
X2386462Y-18415958D01*
X2386462Y-18415958D02*
X2367414Y-18406434D01*
X2367414Y-18406434D02*
X2357890Y-18396911D01*
X2357890Y-18396911D02*
X2348367Y-18377863D01*
X2348367Y-18377863D02*
X2338843Y-18339768D01*
X2338843Y-18339768D02*
X2338843Y-18292149D01*
X2338843Y-18292149D02*
X2348367Y-18254053D01*
X2348367Y-18254053D02*
X2357890Y-18235006D01*
X2357890Y-18235006D02*
X2367414Y-18225482D01*
X2367414Y-18225482D02*
X2386462Y-18215958D01*
X2634081Y-18215958D02*
X2538843Y-18215958D01*
X2538843Y-18215958D02*
X2529319Y-18311196D01*
X2529319Y-18311196D02*
X2538843Y-18301672D01*
X2538843Y-18301672D02*
X2557890Y-18292149D01*
X2557890Y-18292149D02*
X2605510Y-18292149D01*
X2605510Y-18292149D02*
X2624557Y-18301672D01*
X2624557Y-18301672D02*
X2634081Y-18311196D01*
X2634081Y-18311196D02*
X2643605Y-18330244D01*
X2643605Y-18330244D02*
X2643605Y-18377863D01*
X2643605Y-18377863D02*
X2634081Y-18396911D01*
X2634081Y-18396911D02*
X2624557Y-18406434D01*
X2624557Y-18406434D02*
X2605510Y-18415958D01*
X2605510Y-18415958D02*
X2557890Y-18415958D01*
X2557890Y-18415958D02*
X2538843Y-18406434D01*
X2538843Y-18406434D02*
X2529319Y-18396911D01*
X2767414Y-18215958D02*
X2786462Y-18215958D01*
X2786462Y-18215958D02*
X2805509Y-18225482D01*
X2805509Y-18225482D02*
X2815033Y-18235006D01*
X2815033Y-18235006D02*
X2824557Y-18254053D01*
X2824557Y-18254053D02*
X2834081Y-18292149D01*
X2834081Y-18292149D02*
X2834081Y-18339768D01*
X2834081Y-18339768D02*
X2824557Y-18377863D01*
X2824557Y-18377863D02*
X2815033Y-18396911D01*
X2815033Y-18396911D02*
X2805509Y-18406434D01*
X2805509Y-18406434D02*
X2786462Y-18415958D01*
X2786462Y-18415958D02*
X2767414Y-18415958D01*
X2767414Y-18415958D02*
X2748367Y-18406434D01*
X2748367Y-18406434D02*
X2738843Y-18396911D01*
X2738843Y-18396911D02*
X2729319Y-18377863D01*
X2729319Y-18377863D02*
X2719795Y-18339768D01*
X2719795Y-18339768D02*
X2719795Y-18292149D01*
X2719795Y-18292149D02*
X2729319Y-18254053D01*
X2729319Y-18254053D02*
X2738843Y-18235006D01*
X2738843Y-18235006D02*
X2748367Y-18225482D01*
X2748367Y-18225482D02*
X2767414Y-18215958D01*
X2919795Y-18415958D02*
X2919795Y-18282625D01*
X2919795Y-18301672D02*
X2929319Y-18292149D01*
X2929319Y-18292149D02*
X2948367Y-18282625D01*
X2948367Y-18282625D02*
X2976938Y-18282625D01*
X2976938Y-18282625D02*
X2995986Y-18292149D01*
X2995986Y-18292149D02*
X3005509Y-18311196D01*
X3005509Y-18311196D02*
X3005509Y-18415958D01*
X3005509Y-18311196D02*
X3015033Y-18292149D01*
X3015033Y-18292149D02*
X3034081Y-18282625D01*
X3034081Y-18282625D02*
X3062652Y-18282625D01*
X3062652Y-18282625D02*
X3081700Y-18292149D01*
X3081700Y-18292149D02*
X3091224Y-18311196D01*
X3091224Y-18311196D02*
X3091224Y-18415958D01*
X3186462Y-18415958D02*
X3186462Y-18282625D01*
X3186462Y-18301672D02*
X3195986Y-18292149D01*
X3195986Y-18292149D02*
X3215033Y-18282625D01*
X3215033Y-18282625D02*
X3243605Y-18282625D01*
X3243605Y-18282625D02*
X3262652Y-18292149D01*
X3262652Y-18292149D02*
X3272176Y-18311196D01*
X3272176Y-18311196D02*
X3272176Y-18415958D01*
X3272176Y-18311196D02*
X3281700Y-18292149D01*
X3281700Y-18292149D02*
X3300748Y-18282625D01*
X3300748Y-18282625D02*
X3329319Y-18282625D01*
X3329319Y-18282625D02*
X3348367Y-18292149D01*
X3348367Y-18292149D02*
X3357890Y-18311196D01*
X3357890Y-18311196D02*
X3357890Y-18415958D01*
X3748367Y-18206434D02*
X3576938Y-18463577D01*
X4005510Y-18215958D02*
X4024557Y-18215958D01*
X4024557Y-18215958D02*
X4043605Y-18225482D01*
X4043605Y-18225482D02*
X4053129Y-18235006D01*
X4053129Y-18235006D02*
X4062652Y-18254053D01*
X4062652Y-18254053D02*
X4072176Y-18292149D01*
X4072176Y-18292149D02*
X4072176Y-18339768D01*
X4072176Y-18339768D02*
X4062652Y-18377863D01*
X4062652Y-18377863D02*
X4053129Y-18396911D01*
X4053129Y-18396911D02*
X4043605Y-18406434D01*
X4043605Y-18406434D02*
X4024557Y-18415958D01*
X4024557Y-18415958D02*
X4005510Y-18415958D01*
X4005510Y-18415958D02*
X3986462Y-18406434D01*
X3986462Y-18406434D02*
X3976938Y-18396911D01*
X3976938Y-18396911D02*
X3967414Y-18377863D01*
X3967414Y-18377863D02*
X3957891Y-18339768D01*
X3957891Y-18339768D02*
X3957891Y-18292149D01*
X3957891Y-18292149D02*
X3967414Y-18254053D01*
X3967414Y-18254053D02*
X3976938Y-18235006D01*
X3976938Y-18235006D02*
X3986462Y-18225482D01*
X3986462Y-18225482D02*
X4005510Y-18215958D01*
X4157891Y-18396911D02*
X4167414Y-18406434D01*
X4167414Y-18406434D02*
X4157891Y-18415958D01*
X4157891Y-18415958D02*
X4148367Y-18406434D01*
X4148367Y-18406434D02*
X4157891Y-18396911D01*
X4157891Y-18396911D02*
X4157891Y-18415958D01*
X4357891Y-18415958D02*
X4243605Y-18415958D01*
X4300748Y-18415958D02*
X4300748Y-18215958D01*
X4300748Y-18215958D02*
X4281700Y-18244530D01*
X4281700Y-18244530D02*
X4262653Y-18263577D01*
X4262653Y-18263577D02*
X4243605Y-18273101D01*
X4434081Y-18235006D02*
X4443605Y-18225482D01*
X4443605Y-18225482D02*
X4462653Y-18215958D01*
X4462653Y-18215958D02*
X4510272Y-18215958D01*
X4510272Y-18215958D02*
X4529319Y-18225482D01*
X4529319Y-18225482D02*
X4538843Y-18235006D01*
X4538843Y-18235006D02*
X4548367Y-18254053D01*
X4548367Y-18254053D02*
X4548367Y-18273101D01*
X4548367Y-18273101D02*
X4538843Y-18301672D01*
X4538843Y-18301672D02*
X4424557Y-18415958D01*
X4424557Y-18415958D02*
X4548367Y-18415958D01*
X4672176Y-18215958D02*
X4691224Y-18215958D01*
X4691224Y-18215958D02*
X4710272Y-18225482D01*
X4710272Y-18225482D02*
X4719795Y-18235006D01*
X4719795Y-18235006D02*
X4729319Y-18254053D01*
X4729319Y-18254053D02*
X4738843Y-18292149D01*
X4738843Y-18292149D02*
X4738843Y-18339768D01*
X4738843Y-18339768D02*
X4729319Y-18377863D01*
X4729319Y-18377863D02*
X4719795Y-18396911D01*
X4719795Y-18396911D02*
X4710272Y-18406434D01*
X4710272Y-18406434D02*
X4691224Y-18415958D01*
X4691224Y-18415958D02*
X4672176Y-18415958D01*
X4672176Y-18415958D02*
X4653129Y-18406434D01*
X4653129Y-18406434D02*
X4643605Y-18396911D01*
X4643605Y-18396911D02*
X4634081Y-18377863D01*
X4634081Y-18377863D02*
X4624557Y-18339768D01*
X4624557Y-18339768D02*
X4624557Y-18292149D01*
X4624557Y-18292149D02*
X4634081Y-18254053D01*
X4634081Y-18254053D02*
X4643605Y-18235006D01*
X4643605Y-18235006D02*
X4653129Y-18225482D01*
X4653129Y-18225482D02*
X4672176Y-18215958D01*
X4929319Y-18415958D02*
X4815034Y-18415958D01*
X4872176Y-18415958D02*
X4872176Y-18215958D01*
X4872176Y-18215958D02*
X4853129Y-18244530D01*
X4853129Y-18244530D02*
X4834081Y-18263577D01*
X4834081Y-18263577D02*
X4815034Y-18273101D01*
X5005510Y-18215958D02*
X5005510Y-18254053D01*
X5081700Y-18215958D02*
X5081700Y-18254053D01*
X5376938Y-18492149D02*
X5367415Y-18482625D01*
X5367415Y-18482625D02*
X5348367Y-18454053D01*
X5348367Y-18454053D02*
X5338843Y-18435006D01*
X5338843Y-18435006D02*
X5329319Y-18406434D01*
X5329319Y-18406434D02*
X5319796Y-18358815D01*
X5319796Y-18358815D02*
X5319796Y-18320720D01*
X5319796Y-18320720D02*
X5329319Y-18273101D01*
X5329319Y-18273101D02*
X5338843Y-18244530D01*
X5338843Y-18244530D02*
X5348367Y-18225482D01*
X5348367Y-18225482D02*
X5367415Y-18196911D01*
X5367415Y-18196911D02*
X5376938Y-18187387D01*
X5557891Y-18415958D02*
X5443605Y-18415958D01*
X5500748Y-18415958D02*
X5500748Y-18215958D01*
X5500748Y-18215958D02*
X5481700Y-18244530D01*
X5481700Y-18244530D02*
X5462653Y-18263577D01*
X5462653Y-18263577D02*
X5443605Y-18273101D01*
X5681700Y-18215958D02*
X5700748Y-18215958D01*
X5700748Y-18215958D02*
X5719795Y-18225482D01*
X5719795Y-18225482D02*
X5729319Y-18235006D01*
X5729319Y-18235006D02*
X5738843Y-18254053D01*
X5738843Y-18254053D02*
X5748367Y-18292149D01*
X5748367Y-18292149D02*
X5748367Y-18339768D01*
X5748367Y-18339768D02*
X5738843Y-18377863D01*
X5738843Y-18377863D02*
X5729319Y-18396911D01*
X5729319Y-18396911D02*
X5719795Y-18406434D01*
X5719795Y-18406434D02*
X5700748Y-18415958D01*
X5700748Y-18415958D02*
X5681700Y-18415958D01*
X5681700Y-18415958D02*
X5662653Y-18406434D01*
X5662653Y-18406434D02*
X5653129Y-18396911D01*
X5653129Y-18396911D02*
X5643605Y-18377863D01*
X5643605Y-18377863D02*
X5634081Y-18339768D01*
X5634081Y-18339768D02*
X5634081Y-18292149D01*
X5634081Y-18292149D02*
X5643605Y-18254053D01*
X5643605Y-18254053D02*
X5653129Y-18235006D01*
X5653129Y-18235006D02*
X5662653Y-18225482D01*
X5662653Y-18225482D02*
X5681700Y-18215958D01*
X5986462Y-18415958D02*
X5986462Y-18215958D01*
X6072176Y-18415958D02*
X6072176Y-18311196D01*
X6072176Y-18311196D02*
X6062653Y-18292149D01*
X6062653Y-18292149D02*
X6043605Y-18282625D01*
X6043605Y-18282625D02*
X6015034Y-18282625D01*
X6015034Y-18282625D02*
X5995986Y-18292149D01*
X5995986Y-18292149D02*
X5986462Y-18301672D01*
X6195986Y-18415958D02*
X6176938Y-18406434D01*
X6176938Y-18406434D02*
X6167415Y-18396911D01*
X6167415Y-18396911D02*
X6157891Y-18377863D01*
X6157891Y-18377863D02*
X6157891Y-18320720D01*
X6157891Y-18320720D02*
X6167415Y-18301672D01*
X6167415Y-18301672D02*
X6176938Y-18292149D01*
X6176938Y-18292149D02*
X6195986Y-18282625D01*
X6195986Y-18282625D02*
X6224557Y-18282625D01*
X6224557Y-18282625D02*
X6243605Y-18292149D01*
X6243605Y-18292149D02*
X6253129Y-18301672D01*
X6253129Y-18301672D02*
X6262653Y-18320720D01*
X6262653Y-18320720D02*
X6262653Y-18377863D01*
X6262653Y-18377863D02*
X6253129Y-18396911D01*
X6253129Y-18396911D02*
X6243605Y-18406434D01*
X6243605Y-18406434D02*
X6224557Y-18415958D01*
X6224557Y-18415958D02*
X6195986Y-18415958D01*
X6376938Y-18415958D02*
X6357891Y-18406434D01*
X6357891Y-18406434D02*
X6348367Y-18387387D01*
X6348367Y-18387387D02*
X6348367Y-18215958D01*
X6529319Y-18406434D02*
X6510272Y-18415958D01*
X6510272Y-18415958D02*
X6472176Y-18415958D01*
X6472176Y-18415958D02*
X6453129Y-18406434D01*
X6453129Y-18406434D02*
X6443605Y-18387387D01*
X6443605Y-18387387D02*
X6443605Y-18311196D01*
X6443605Y-18311196D02*
X6453129Y-18292149D01*
X6453129Y-18292149D02*
X6472176Y-18282625D01*
X6472176Y-18282625D02*
X6510272Y-18282625D01*
X6510272Y-18282625D02*
X6529319Y-18292149D01*
X6529319Y-18292149D02*
X6538843Y-18311196D01*
X6538843Y-18311196D02*
X6538843Y-18330244D01*
X6538843Y-18330244D02*
X6443605Y-18349292D01*
X6615034Y-18406434D02*
X6634081Y-18415958D01*
X6634081Y-18415958D02*
X6672176Y-18415958D01*
X6672176Y-18415958D02*
X6691224Y-18406434D01*
X6691224Y-18406434D02*
X6700748Y-18387387D01*
X6700748Y-18387387D02*
X6700748Y-18377863D01*
X6700748Y-18377863D02*
X6691224Y-18358815D01*
X6691224Y-18358815D02*
X6672176Y-18349292D01*
X6672176Y-18349292D02*
X6643605Y-18349292D01*
X6643605Y-18349292D02*
X6624557Y-18339768D01*
X6624557Y-18339768D02*
X6615034Y-18320720D01*
X6615034Y-18320720D02*
X6615034Y-18311196D01*
X6615034Y-18311196D02*
X6624557Y-18292149D01*
X6624557Y-18292149D02*
X6643605Y-18282625D01*
X6643605Y-18282625D02*
X6672176Y-18282625D01*
X6672176Y-18282625D02*
X6691224Y-18292149D01*
X6767415Y-18492149D02*
X6776938Y-18482625D01*
X6776938Y-18482625D02*
X6795986Y-18454053D01*
X6795986Y-18454053D02*
X6805510Y-18435006D01*
X6805510Y-18435006D02*
X6815034Y-18406434D01*
X6815034Y-18406434D02*
X6824557Y-18358815D01*
X6824557Y-18358815D02*
X6824557Y-18320720D01*
X6824557Y-18320720D02*
X6815034Y-18273101D01*
X6815034Y-18273101D02*
X6805510Y-18244530D01*
X6805510Y-18244530D02*
X6795986Y-18225482D01*
X6795986Y-18225482D02*
X6776938Y-18196911D01*
X6776938Y-18196911D02*
X6767415Y-18187387D01*
X7129319Y-18492149D02*
X7119796Y-18482625D01*
X7119796Y-18482625D02*
X7100748Y-18454053D01*
X7100748Y-18454053D02*
X7091224Y-18435006D01*
X7091224Y-18435006D02*
X7081700Y-18406434D01*
X7081700Y-18406434D02*
X7072177Y-18358815D01*
X7072177Y-18358815D02*
X7072177Y-18320720D01*
X7072177Y-18320720D02*
X7081700Y-18273101D01*
X7081700Y-18273101D02*
X7091224Y-18244530D01*
X7091224Y-18244530D02*
X7100748Y-18225482D01*
X7100748Y-18225482D02*
X7119796Y-18196911D01*
X7119796Y-18196911D02*
X7129319Y-18187387D01*
X7205510Y-18282625D02*
X7205510Y-18415958D01*
X7205510Y-18301672D02*
X7215034Y-18292149D01*
X7215034Y-18292149D02*
X7234081Y-18282625D01*
X7234081Y-18282625D02*
X7262653Y-18282625D01*
X7262653Y-18282625D02*
X7281700Y-18292149D01*
X7281700Y-18292149D02*
X7291224Y-18311196D01*
X7291224Y-18311196D02*
X7291224Y-18415958D01*
X7415034Y-18415958D02*
X7395986Y-18406434D01*
X7395986Y-18406434D02*
X7386462Y-18396911D01*
X7386462Y-18396911D02*
X7376938Y-18377863D01*
X7376938Y-18377863D02*
X7376938Y-18320720D01*
X7376938Y-18320720D02*
X7386462Y-18301672D01*
X7386462Y-18301672D02*
X7395986Y-18292149D01*
X7395986Y-18292149D02*
X7415034Y-18282625D01*
X7415034Y-18282625D02*
X7443605Y-18282625D01*
X7443605Y-18282625D02*
X7462653Y-18292149D01*
X7462653Y-18292149D02*
X7472177Y-18301672D01*
X7472177Y-18301672D02*
X7481700Y-18320720D01*
X7481700Y-18320720D02*
X7481700Y-18377863D01*
X7481700Y-18377863D02*
X7472177Y-18396911D01*
X7472177Y-18396911D02*
X7462653Y-18406434D01*
X7462653Y-18406434D02*
X7443605Y-18415958D01*
X7443605Y-18415958D02*
X7415034Y-18415958D01*
X7538843Y-18282625D02*
X7615034Y-18282625D01*
X7567415Y-18215958D02*
X7567415Y-18387387D01*
X7567415Y-18387387D02*
X7576938Y-18406434D01*
X7576938Y-18406434D02*
X7595986Y-18415958D01*
X7595986Y-18415958D02*
X7615034Y-18415958D01*
X7834081Y-18282625D02*
X7834081Y-18482625D01*
X7834081Y-18292149D02*
X7853129Y-18282625D01*
X7853129Y-18282625D02*
X7891224Y-18282625D01*
X7891224Y-18282625D02*
X7910272Y-18292149D01*
X7910272Y-18292149D02*
X7919796Y-18301672D01*
X7919796Y-18301672D02*
X7929319Y-18320720D01*
X7929319Y-18320720D02*
X7929319Y-18377863D01*
X7929319Y-18377863D02*
X7919796Y-18396911D01*
X7919796Y-18396911D02*
X7910272Y-18406434D01*
X7910272Y-18406434D02*
X7891224Y-18415958D01*
X7891224Y-18415958D02*
X7853129Y-18415958D01*
X7853129Y-18415958D02*
X7834081Y-18406434D01*
X8043605Y-18415958D02*
X8024558Y-18406434D01*
X8024558Y-18406434D02*
X8015034Y-18387387D01*
X8015034Y-18387387D02*
X8015034Y-18215958D01*
X8205510Y-18415958D02*
X8205510Y-18311196D01*
X8205510Y-18311196D02*
X8195986Y-18292149D01*
X8195986Y-18292149D02*
X8176939Y-18282625D01*
X8176939Y-18282625D02*
X8138843Y-18282625D01*
X8138843Y-18282625D02*
X8119796Y-18292149D01*
X8205510Y-18406434D02*
X8186462Y-18415958D01*
X8186462Y-18415958D02*
X8138843Y-18415958D01*
X8138843Y-18415958D02*
X8119796Y-18406434D01*
X8119796Y-18406434D02*
X8110272Y-18387387D01*
X8110272Y-18387387D02*
X8110272Y-18368339D01*
X8110272Y-18368339D02*
X8119796Y-18349292D01*
X8119796Y-18349292D02*
X8138843Y-18339768D01*
X8138843Y-18339768D02*
X8186462Y-18339768D01*
X8186462Y-18339768D02*
X8205510Y-18330244D01*
X8272177Y-18282625D02*
X8348367Y-18282625D01*
X8300748Y-18215958D02*
X8300748Y-18387387D01*
X8300748Y-18387387D02*
X8310272Y-18406434D01*
X8310272Y-18406434D02*
X8329319Y-18415958D01*
X8329319Y-18415958D02*
X8348367Y-18415958D01*
X8491224Y-18406434D02*
X8472177Y-18415958D01*
X8472177Y-18415958D02*
X8434081Y-18415958D01*
X8434081Y-18415958D02*
X8415034Y-18406434D01*
X8415034Y-18406434D02*
X8405510Y-18387387D01*
X8405510Y-18387387D02*
X8405510Y-18311196D01*
X8405510Y-18311196D02*
X8415034Y-18292149D01*
X8415034Y-18292149D02*
X8434081Y-18282625D01*
X8434081Y-18282625D02*
X8472177Y-18282625D01*
X8472177Y-18282625D02*
X8491224Y-18292149D01*
X8491224Y-18292149D02*
X8500748Y-18311196D01*
X8500748Y-18311196D02*
X8500748Y-18330244D01*
X8500748Y-18330244D02*
X8405510Y-18349292D01*
X8672177Y-18415958D02*
X8672177Y-18215958D01*
X8672177Y-18406434D02*
X8653129Y-18415958D01*
X8653129Y-18415958D02*
X8615034Y-18415958D01*
X8615034Y-18415958D02*
X8595986Y-18406434D01*
X8595986Y-18406434D02*
X8586462Y-18396911D01*
X8586462Y-18396911D02*
X8576939Y-18377863D01*
X8576939Y-18377863D02*
X8576939Y-18320720D01*
X8576939Y-18320720D02*
X8586462Y-18301672D01*
X8586462Y-18301672D02*
X8595986Y-18292149D01*
X8595986Y-18292149D02*
X8615034Y-18282625D01*
X8615034Y-18282625D02*
X8653129Y-18282625D01*
X8653129Y-18282625D02*
X8672177Y-18292149D01*
X8748367Y-18492149D02*
X8757891Y-18482625D01*
X8757891Y-18482625D02*
X8776939Y-18454053D01*
X8776939Y-18454053D02*
X8786462Y-18435006D01*
X8786462Y-18435006D02*
X8795986Y-18406434D01*
X8795986Y-18406434D02*
X8805510Y-18358815D01*
X8805510Y-18358815D02*
X8805510Y-18320720D01*
X8805510Y-18320720D02*
X8795986Y-18273101D01*
X8795986Y-18273101D02*
X8786462Y-18244530D01*
X8786462Y-18244530D02*
X8776939Y-18225482D01*
X8776939Y-18225482D02*
X8757891Y-18196911D01*
X8757891Y-18196911D02*
X8748367Y-18187387D01*
X1772587Y-18715186D02*
X1772587Y-18573763D01*
X1631164Y-18573763D01*
X1631164Y-18715186D01*
X1772587Y-18715186D01*
X2148367Y-18602625D02*
X2148367Y-18735958D01*
X2100748Y-18526434D02*
X2053128Y-18669292D01*
X2053128Y-18669292D02*
X2176938Y-18669292D01*
X2253129Y-18716911D02*
X2262652Y-18726434D01*
X2262652Y-18726434D02*
X2253129Y-18735958D01*
X2253129Y-18735958D02*
X2243605Y-18726434D01*
X2243605Y-18726434D02*
X2253129Y-18716911D01*
X2253129Y-18716911D02*
X2253129Y-18735958D01*
X2386462Y-18535958D02*
X2405510Y-18535958D01*
X2405510Y-18535958D02*
X2424557Y-18545482D01*
X2424557Y-18545482D02*
X2434081Y-18555006D01*
X2434081Y-18555006D02*
X2443605Y-18574053D01*
X2443605Y-18574053D02*
X2453129Y-18612149D01*
X2453129Y-18612149D02*
X2453129Y-18659768D01*
X2453129Y-18659768D02*
X2443605Y-18697863D01*
X2443605Y-18697863D02*
X2434081Y-18716911D01*
X2434081Y-18716911D02*
X2424557Y-18726434D01*
X2424557Y-18726434D02*
X2405510Y-18735958D01*
X2405510Y-18735958D02*
X2386462Y-18735958D01*
X2386462Y-18735958D02*
X2367414Y-18726434D01*
X2367414Y-18726434D02*
X2357890Y-18716911D01*
X2357890Y-18716911D02*
X2348367Y-18697863D01*
X2348367Y-18697863D02*
X2338843Y-18659768D01*
X2338843Y-18659768D02*
X2338843Y-18612149D01*
X2338843Y-18612149D02*
X2348367Y-18574053D01*
X2348367Y-18574053D02*
X2357890Y-18555006D01*
X2357890Y-18555006D02*
X2367414Y-18545482D01*
X2367414Y-18545482D02*
X2386462Y-18535958D01*
X2576938Y-18535958D02*
X2595986Y-18535958D01*
X2595986Y-18535958D02*
X2615033Y-18545482D01*
X2615033Y-18545482D02*
X2624557Y-18555006D01*
X2624557Y-18555006D02*
X2634081Y-18574053D01*
X2634081Y-18574053D02*
X2643605Y-18612149D01*
X2643605Y-18612149D02*
X2643605Y-18659768D01*
X2643605Y-18659768D02*
X2634081Y-18697863D01*
X2634081Y-18697863D02*
X2624557Y-18716911D01*
X2624557Y-18716911D02*
X2615033Y-18726434D01*
X2615033Y-18726434D02*
X2595986Y-18735958D01*
X2595986Y-18735958D02*
X2576938Y-18735958D01*
X2576938Y-18735958D02*
X2557890Y-18726434D01*
X2557890Y-18726434D02*
X2548367Y-18716911D01*
X2548367Y-18716911D02*
X2538843Y-18697863D01*
X2538843Y-18697863D02*
X2529319Y-18659768D01*
X2529319Y-18659768D02*
X2529319Y-18612149D01*
X2529319Y-18612149D02*
X2538843Y-18574053D01*
X2538843Y-18574053D02*
X2548367Y-18555006D01*
X2548367Y-18555006D02*
X2557890Y-18545482D01*
X2557890Y-18545482D02*
X2576938Y-18535958D01*
X2767414Y-18535958D02*
X2786462Y-18535958D01*
X2786462Y-18535958D02*
X2805509Y-18545482D01*
X2805509Y-18545482D02*
X2815033Y-18555006D01*
X2815033Y-18555006D02*
X2824557Y-18574053D01*
X2824557Y-18574053D02*
X2834081Y-18612149D01*
X2834081Y-18612149D02*
X2834081Y-18659768D01*
X2834081Y-18659768D02*
X2824557Y-18697863D01*
X2824557Y-18697863D02*
X2815033Y-18716911D01*
X2815033Y-18716911D02*
X2805509Y-18726434D01*
X2805509Y-18726434D02*
X2786462Y-18735958D01*
X2786462Y-18735958D02*
X2767414Y-18735958D01*
X2767414Y-18735958D02*
X2748367Y-18726434D01*
X2748367Y-18726434D02*
X2738843Y-18716911D01*
X2738843Y-18716911D02*
X2729319Y-18697863D01*
X2729319Y-18697863D02*
X2719795Y-18659768D01*
X2719795Y-18659768D02*
X2719795Y-18612149D01*
X2719795Y-18612149D02*
X2729319Y-18574053D01*
X2729319Y-18574053D02*
X2738843Y-18555006D01*
X2738843Y-18555006D02*
X2748367Y-18545482D01*
X2748367Y-18545482D02*
X2767414Y-18535958D01*
X2919795Y-18735958D02*
X2919795Y-18602625D01*
X2919795Y-18621672D02*
X2929319Y-18612149D01*
X2929319Y-18612149D02*
X2948367Y-18602625D01*
X2948367Y-18602625D02*
X2976938Y-18602625D01*
X2976938Y-18602625D02*
X2995986Y-18612149D01*
X2995986Y-18612149D02*
X3005509Y-18631196D01*
X3005509Y-18631196D02*
X3005509Y-18735958D01*
X3005509Y-18631196D02*
X3015033Y-18612149D01*
X3015033Y-18612149D02*
X3034081Y-18602625D01*
X3034081Y-18602625D02*
X3062652Y-18602625D01*
X3062652Y-18602625D02*
X3081700Y-18612149D01*
X3081700Y-18612149D02*
X3091224Y-18631196D01*
X3091224Y-18631196D02*
X3091224Y-18735958D01*
X3186462Y-18735958D02*
X3186462Y-18602625D01*
X3186462Y-18621672D02*
X3195986Y-18612149D01*
X3195986Y-18612149D02*
X3215033Y-18602625D01*
X3215033Y-18602625D02*
X3243605Y-18602625D01*
X3243605Y-18602625D02*
X3262652Y-18612149D01*
X3262652Y-18612149D02*
X3272176Y-18631196D01*
X3272176Y-18631196D02*
X3272176Y-18735958D01*
X3272176Y-18631196D02*
X3281700Y-18612149D01*
X3281700Y-18612149D02*
X3300748Y-18602625D01*
X3300748Y-18602625D02*
X3329319Y-18602625D01*
X3329319Y-18602625D02*
X3348367Y-18612149D01*
X3348367Y-18612149D02*
X3357890Y-18631196D01*
X3357890Y-18631196D02*
X3357890Y-18735958D01*
X3748367Y-18526434D02*
X3576938Y-18783577D01*
X4005510Y-18535958D02*
X4024557Y-18535958D01*
X4024557Y-18535958D02*
X4043605Y-18545482D01*
X4043605Y-18545482D02*
X4053129Y-18555006D01*
X4053129Y-18555006D02*
X4062652Y-18574053D01*
X4062652Y-18574053D02*
X4072176Y-18612149D01*
X4072176Y-18612149D02*
X4072176Y-18659768D01*
X4072176Y-18659768D02*
X4062652Y-18697863D01*
X4062652Y-18697863D02*
X4053129Y-18716911D01*
X4053129Y-18716911D02*
X4043605Y-18726434D01*
X4043605Y-18726434D02*
X4024557Y-18735958D01*
X4024557Y-18735958D02*
X4005510Y-18735958D01*
X4005510Y-18735958D02*
X3986462Y-18726434D01*
X3986462Y-18726434D02*
X3976938Y-18716911D01*
X3976938Y-18716911D02*
X3967414Y-18697863D01*
X3967414Y-18697863D02*
X3957891Y-18659768D01*
X3957891Y-18659768D02*
X3957891Y-18612149D01*
X3957891Y-18612149D02*
X3967414Y-18574053D01*
X3967414Y-18574053D02*
X3976938Y-18555006D01*
X3976938Y-18555006D02*
X3986462Y-18545482D01*
X3986462Y-18545482D02*
X4005510Y-18535958D01*
X4157891Y-18716911D02*
X4167414Y-18726434D01*
X4167414Y-18726434D02*
X4157891Y-18735958D01*
X4157891Y-18735958D02*
X4148367Y-18726434D01*
X4148367Y-18726434D02*
X4157891Y-18716911D01*
X4157891Y-18716911D02*
X4157891Y-18735958D01*
X4357891Y-18735958D02*
X4243605Y-18735958D01*
X4300748Y-18735958D02*
X4300748Y-18535958D01*
X4300748Y-18535958D02*
X4281700Y-18564530D01*
X4281700Y-18564530D02*
X4262653Y-18583577D01*
X4262653Y-18583577D02*
X4243605Y-18593101D01*
X4538843Y-18535958D02*
X4443605Y-18535958D01*
X4443605Y-18535958D02*
X4434081Y-18631196D01*
X4434081Y-18631196D02*
X4443605Y-18621672D01*
X4443605Y-18621672D02*
X4462653Y-18612149D01*
X4462653Y-18612149D02*
X4510272Y-18612149D01*
X4510272Y-18612149D02*
X4529319Y-18621672D01*
X4529319Y-18621672D02*
X4538843Y-18631196D01*
X4538843Y-18631196D02*
X4548367Y-18650244D01*
X4548367Y-18650244D02*
X4548367Y-18697863D01*
X4548367Y-18697863D02*
X4538843Y-18716911D01*
X4538843Y-18716911D02*
X4529319Y-18726434D01*
X4529319Y-18726434D02*
X4510272Y-18735958D01*
X4510272Y-18735958D02*
X4462653Y-18735958D01*
X4462653Y-18735958D02*
X4443605Y-18726434D01*
X4443605Y-18726434D02*
X4434081Y-18716911D01*
X4615034Y-18535958D02*
X4748367Y-18535958D01*
X4748367Y-18535958D02*
X4662653Y-18735958D01*
X4919795Y-18535958D02*
X4824557Y-18535958D01*
X4824557Y-18535958D02*
X4815034Y-18631196D01*
X4815034Y-18631196D02*
X4824557Y-18621672D01*
X4824557Y-18621672D02*
X4843605Y-18612149D01*
X4843605Y-18612149D02*
X4891224Y-18612149D01*
X4891224Y-18612149D02*
X4910272Y-18621672D01*
X4910272Y-18621672D02*
X4919795Y-18631196D01*
X4919795Y-18631196D02*
X4929319Y-18650244D01*
X4929319Y-18650244D02*
X4929319Y-18697863D01*
X4929319Y-18697863D02*
X4919795Y-18716911D01*
X4919795Y-18716911D02*
X4910272Y-18726434D01*
X4910272Y-18726434D02*
X4891224Y-18735958D01*
X4891224Y-18735958D02*
X4843605Y-18735958D01*
X4843605Y-18735958D02*
X4824557Y-18726434D01*
X4824557Y-18726434D02*
X4815034Y-18716911D01*
X5005510Y-18535958D02*
X5005510Y-18574053D01*
X5081700Y-18535958D02*
X5081700Y-18574053D01*
X5376938Y-18812149D02*
X5367415Y-18802625D01*
X5367415Y-18802625D02*
X5348367Y-18774053D01*
X5348367Y-18774053D02*
X5338843Y-18755006D01*
X5338843Y-18755006D02*
X5329319Y-18726434D01*
X5329319Y-18726434D02*
X5319796Y-18678815D01*
X5319796Y-18678815D02*
X5319796Y-18640720D01*
X5319796Y-18640720D02*
X5329319Y-18593101D01*
X5329319Y-18593101D02*
X5338843Y-18564530D01*
X5338843Y-18564530D02*
X5348367Y-18545482D01*
X5348367Y-18545482D02*
X5367415Y-18516911D01*
X5367415Y-18516911D02*
X5376938Y-18507387D01*
X5557891Y-18735958D02*
X5443605Y-18735958D01*
X5500748Y-18735958D02*
X5500748Y-18535958D01*
X5500748Y-18535958D02*
X5481700Y-18564530D01*
X5481700Y-18564530D02*
X5462653Y-18583577D01*
X5462653Y-18583577D02*
X5443605Y-18593101D01*
X5681700Y-18535958D02*
X5700748Y-18535958D01*
X5700748Y-18535958D02*
X5719795Y-18545482D01*
X5719795Y-18545482D02*
X5729319Y-18555006D01*
X5729319Y-18555006D02*
X5738843Y-18574053D01*
X5738843Y-18574053D02*
X5748367Y-18612149D01*
X5748367Y-18612149D02*
X5748367Y-18659768D01*
X5748367Y-18659768D02*
X5738843Y-18697863D01*
X5738843Y-18697863D02*
X5729319Y-18716911D01*
X5729319Y-18716911D02*
X5719795Y-18726434D01*
X5719795Y-18726434D02*
X5700748Y-18735958D01*
X5700748Y-18735958D02*
X5681700Y-18735958D01*
X5681700Y-18735958D02*
X5662653Y-18726434D01*
X5662653Y-18726434D02*
X5653129Y-18716911D01*
X5653129Y-18716911D02*
X5643605Y-18697863D01*
X5643605Y-18697863D02*
X5634081Y-18659768D01*
X5634081Y-18659768D02*
X5634081Y-18612149D01*
X5634081Y-18612149D02*
X5643605Y-18574053D01*
X5643605Y-18574053D02*
X5653129Y-18555006D01*
X5653129Y-18555006D02*
X5662653Y-18545482D01*
X5662653Y-18545482D02*
X5681700Y-18535958D01*
X5872176Y-18535958D02*
X5891224Y-18535958D01*
X5891224Y-18535958D02*
X5910272Y-18545482D01*
X5910272Y-18545482D02*
X5919795Y-18555006D01*
X5919795Y-18555006D02*
X5929319Y-18574053D01*
X5929319Y-18574053D02*
X5938843Y-18612149D01*
X5938843Y-18612149D02*
X5938843Y-18659768D01*
X5938843Y-18659768D02*
X5929319Y-18697863D01*
X5929319Y-18697863D02*
X5919795Y-18716911D01*
X5919795Y-18716911D02*
X5910272Y-18726434D01*
X5910272Y-18726434D02*
X5891224Y-18735958D01*
X5891224Y-18735958D02*
X5872176Y-18735958D01*
X5872176Y-18735958D02*
X5853129Y-18726434D01*
X5853129Y-18726434D02*
X5843605Y-18716911D01*
X5843605Y-18716911D02*
X5834081Y-18697863D01*
X5834081Y-18697863D02*
X5824557Y-18659768D01*
X5824557Y-18659768D02*
X5824557Y-18612149D01*
X5824557Y-18612149D02*
X5834081Y-18574053D01*
X5834081Y-18574053D02*
X5843605Y-18555006D01*
X5843605Y-18555006D02*
X5853129Y-18545482D01*
X5853129Y-18545482D02*
X5872176Y-18535958D01*
X6176938Y-18735958D02*
X6176938Y-18535958D01*
X6262653Y-18735958D02*
X6262653Y-18631196D01*
X6262653Y-18631196D02*
X6253129Y-18612149D01*
X6253129Y-18612149D02*
X6234081Y-18602625D01*
X6234081Y-18602625D02*
X6205510Y-18602625D01*
X6205510Y-18602625D02*
X6186462Y-18612149D01*
X6186462Y-18612149D02*
X6176938Y-18621672D01*
X6386462Y-18735958D02*
X6367415Y-18726434D01*
X6367415Y-18726434D02*
X6357891Y-18716911D01*
X6357891Y-18716911D02*
X6348367Y-18697863D01*
X6348367Y-18697863D02*
X6348367Y-18640720D01*
X6348367Y-18640720D02*
X6357891Y-18621672D01*
X6357891Y-18621672D02*
X6367415Y-18612149D01*
X6367415Y-18612149D02*
X6386462Y-18602625D01*
X6386462Y-18602625D02*
X6415034Y-18602625D01*
X6415034Y-18602625D02*
X6434081Y-18612149D01*
X6434081Y-18612149D02*
X6443605Y-18621672D01*
X6443605Y-18621672D02*
X6453129Y-18640720D01*
X6453129Y-18640720D02*
X6453129Y-18697863D01*
X6453129Y-18697863D02*
X6443605Y-18716911D01*
X6443605Y-18716911D02*
X6434081Y-18726434D01*
X6434081Y-18726434D02*
X6415034Y-18735958D01*
X6415034Y-18735958D02*
X6386462Y-18735958D01*
X6567415Y-18735958D02*
X6548367Y-18726434D01*
X6548367Y-18726434D02*
X6538843Y-18707387D01*
X6538843Y-18707387D02*
X6538843Y-18535958D01*
X6719796Y-18726434D02*
X6700748Y-18735958D01*
X6700748Y-18735958D02*
X6662653Y-18735958D01*
X6662653Y-18735958D02*
X6643605Y-18726434D01*
X6643605Y-18726434D02*
X6634081Y-18707387D01*
X6634081Y-18707387D02*
X6634081Y-18631196D01*
X6634081Y-18631196D02*
X6643605Y-18612149D01*
X6643605Y-18612149D02*
X6662653Y-18602625D01*
X6662653Y-18602625D02*
X6700748Y-18602625D01*
X6700748Y-18602625D02*
X6719796Y-18612149D01*
X6719796Y-18612149D02*
X6729319Y-18631196D01*
X6729319Y-18631196D02*
X6729319Y-18650244D01*
X6729319Y-18650244D02*
X6634081Y-18669292D01*
X6805510Y-18726434D02*
X6824557Y-18735958D01*
X6824557Y-18735958D02*
X6862653Y-18735958D01*
X6862653Y-18735958D02*
X6881700Y-18726434D01*
X6881700Y-18726434D02*
X6891224Y-18707387D01*
X6891224Y-18707387D02*
X6891224Y-18697863D01*
X6891224Y-18697863D02*
X6881700Y-18678815D01*
X6881700Y-18678815D02*
X6862653Y-18669292D01*
X6862653Y-18669292D02*
X6834081Y-18669292D01*
X6834081Y-18669292D02*
X6815034Y-18659768D01*
X6815034Y-18659768D02*
X6805510Y-18640720D01*
X6805510Y-18640720D02*
X6805510Y-18631196D01*
X6805510Y-18631196D02*
X6815034Y-18612149D01*
X6815034Y-18612149D02*
X6834081Y-18602625D01*
X6834081Y-18602625D02*
X6862653Y-18602625D01*
X6862653Y-18602625D02*
X6881700Y-18612149D01*
X6957891Y-18812149D02*
X6967415Y-18802625D01*
X6967415Y-18802625D02*
X6986462Y-18774053D01*
X6986462Y-18774053D02*
X6995986Y-18755006D01*
X6995986Y-18755006D02*
X7005510Y-18726434D01*
X7005510Y-18726434D02*
X7015034Y-18678815D01*
X7015034Y-18678815D02*
X7015034Y-18640720D01*
X7015034Y-18640720D02*
X7005510Y-18593101D01*
X7005510Y-18593101D02*
X6995986Y-18564530D01*
X6995986Y-18564530D02*
X6986462Y-18545482D01*
X6986462Y-18545482D02*
X6967415Y-18516911D01*
X6967415Y-18516911D02*
X6957891Y-18507387D01*
X7319796Y-18812149D02*
X7310272Y-18802625D01*
X7310272Y-18802625D02*
X7291224Y-18774053D01*
X7291224Y-18774053D02*
X7281700Y-18755006D01*
X7281700Y-18755006D02*
X7272177Y-18726434D01*
X7272177Y-18726434D02*
X7262653Y-18678815D01*
X7262653Y-18678815D02*
X7262653Y-18640720D01*
X7262653Y-18640720D02*
X7272177Y-18593101D01*
X7272177Y-18593101D02*
X7281700Y-18564530D01*
X7281700Y-18564530D02*
X7291224Y-18545482D01*
X7291224Y-18545482D02*
X7310272Y-18516911D01*
X7310272Y-18516911D02*
X7319796Y-18507387D01*
X7395986Y-18602625D02*
X7395986Y-18735958D01*
X7395986Y-18621672D02*
X7405510Y-18612149D01*
X7405510Y-18612149D02*
X7424557Y-18602625D01*
X7424557Y-18602625D02*
X7453129Y-18602625D01*
X7453129Y-18602625D02*
X7472177Y-18612149D01*
X7472177Y-18612149D02*
X7481700Y-18631196D01*
X7481700Y-18631196D02*
X7481700Y-18735958D01*
X7605510Y-18735958D02*
X7586462Y-18726434D01*
X7586462Y-18726434D02*
X7576938Y-18716911D01*
X7576938Y-18716911D02*
X7567415Y-18697863D01*
X7567415Y-18697863D02*
X7567415Y-18640720D01*
X7567415Y-18640720D02*
X7576938Y-18621672D01*
X7576938Y-18621672D02*
X7586462Y-18612149D01*
X7586462Y-18612149D02*
X7605510Y-18602625D01*
X7605510Y-18602625D02*
X7634081Y-18602625D01*
X7634081Y-18602625D02*
X7653129Y-18612149D01*
X7653129Y-18612149D02*
X7662653Y-18621672D01*
X7662653Y-18621672D02*
X7672177Y-18640720D01*
X7672177Y-18640720D02*
X7672177Y-18697863D01*
X7672177Y-18697863D02*
X7662653Y-18716911D01*
X7662653Y-18716911D02*
X7653129Y-18726434D01*
X7653129Y-18726434D02*
X7634081Y-18735958D01*
X7634081Y-18735958D02*
X7605510Y-18735958D01*
X7729319Y-18602625D02*
X7805510Y-18602625D01*
X7757891Y-18535958D02*
X7757891Y-18707387D01*
X7757891Y-18707387D02*
X7767415Y-18726434D01*
X7767415Y-18726434D02*
X7786462Y-18735958D01*
X7786462Y-18735958D02*
X7805510Y-18735958D01*
X8024558Y-18602625D02*
X8024558Y-18802625D01*
X8024558Y-18612149D02*
X8043605Y-18602625D01*
X8043605Y-18602625D02*
X8081700Y-18602625D01*
X8081700Y-18602625D02*
X8100748Y-18612149D01*
X8100748Y-18612149D02*
X8110272Y-18621672D01*
X8110272Y-18621672D02*
X8119796Y-18640720D01*
X8119796Y-18640720D02*
X8119796Y-18697863D01*
X8119796Y-18697863D02*
X8110272Y-18716911D01*
X8110272Y-18716911D02*
X8100748Y-18726434D01*
X8100748Y-18726434D02*
X8081700Y-18735958D01*
X8081700Y-18735958D02*
X8043605Y-18735958D01*
X8043605Y-18735958D02*
X8024558Y-18726434D01*
X8234081Y-18735958D02*
X8215034Y-18726434D01*
X8215034Y-18726434D02*
X8205510Y-18707387D01*
X8205510Y-18707387D02*
X8205510Y-18535958D01*
X8395986Y-18735958D02*
X8395986Y-18631196D01*
X8395986Y-18631196D02*
X8386462Y-18612149D01*
X8386462Y-18612149D02*
X8367415Y-18602625D01*
X8367415Y-18602625D02*
X8329319Y-18602625D01*
X8329319Y-18602625D02*
X8310272Y-18612149D01*
X8395986Y-18726434D02*
X8376939Y-18735958D01*
X8376939Y-18735958D02*
X8329319Y-18735958D01*
X8329319Y-18735958D02*
X8310272Y-18726434D01*
X8310272Y-18726434D02*
X8300748Y-18707387D01*
X8300748Y-18707387D02*
X8300748Y-18688339D01*
X8300748Y-18688339D02*
X8310272Y-18669292D01*
X8310272Y-18669292D02*
X8329319Y-18659768D01*
X8329319Y-18659768D02*
X8376939Y-18659768D01*
X8376939Y-18659768D02*
X8395986Y-18650244D01*
X8462653Y-18602625D02*
X8538843Y-18602625D01*
X8491224Y-18535958D02*
X8491224Y-18707387D01*
X8491224Y-18707387D02*
X8500748Y-18726434D01*
X8500748Y-18726434D02*
X8519796Y-18735958D01*
X8519796Y-18735958D02*
X8538843Y-18735958D01*
X8681701Y-18726434D02*
X8662653Y-18735958D01*
X8662653Y-18735958D02*
X8624558Y-18735958D01*
X8624558Y-18735958D02*
X8605510Y-18726434D01*
X8605510Y-18726434D02*
X8595986Y-18707387D01*
X8595986Y-18707387D02*
X8595986Y-18631196D01*
X8595986Y-18631196D02*
X8605510Y-18612149D01*
X8605510Y-18612149D02*
X8624558Y-18602625D01*
X8624558Y-18602625D02*
X8662653Y-18602625D01*
X8662653Y-18602625D02*
X8681701Y-18612149D01*
X8681701Y-18612149D02*
X8691224Y-18631196D01*
X8691224Y-18631196D02*
X8691224Y-18650244D01*
X8691224Y-18650244D02*
X8595986Y-18669292D01*
X8862653Y-18735958D02*
X8862653Y-18535958D01*
X8862653Y-18726434D02*
X8843605Y-18735958D01*
X8843605Y-18735958D02*
X8805510Y-18735958D01*
X8805510Y-18735958D02*
X8786462Y-18726434D01*
X8786462Y-18726434D02*
X8776939Y-18716911D01*
X8776939Y-18716911D02*
X8767415Y-18697863D01*
X8767415Y-18697863D02*
X8767415Y-18640720D01*
X8767415Y-18640720D02*
X8776939Y-18621672D01*
X8776939Y-18621672D02*
X8786462Y-18612149D01*
X8786462Y-18612149D02*
X8805510Y-18602625D01*
X8805510Y-18602625D02*
X8843605Y-18602625D01*
X8843605Y-18602625D02*
X8862653Y-18612149D01*
X8938843Y-18812149D02*
X8948367Y-18802625D01*
X8948367Y-18802625D02*
X8967415Y-18774053D01*
X8967415Y-18774053D02*
X8976939Y-18755006D01*
X8976939Y-18755006D02*
X8986462Y-18726434D01*
X8986462Y-18726434D02*
X8995986Y-18678815D01*
X8995986Y-18678815D02*
X8995986Y-18640720D01*
X8995986Y-18640720D02*
X8986462Y-18593101D01*
X8986462Y-18593101D02*
X8976939Y-18564530D01*
X8976939Y-18564530D02*
X8967415Y-18545482D01*
X8967415Y-18545482D02*
X8948367Y-18516911D01*
X8948367Y-18516911D02*
X8938843Y-18507387D01*
X1701875Y-19064474D02*
X1801875Y-18964474D01*
X1701875Y-18864474D01*
X1601875Y-18964474D01*
X1701875Y-19064474D01*
X2148367Y-18922625D02*
X2148367Y-19055958D01*
X2100748Y-18846434D02*
X2053128Y-18989292D01*
X2053128Y-18989292D02*
X2176938Y-18989292D01*
X2253129Y-19036911D02*
X2262652Y-19046434D01*
X2262652Y-19046434D02*
X2253129Y-19055958D01*
X2253129Y-19055958D02*
X2243605Y-19046434D01*
X2243605Y-19046434D02*
X2253129Y-19036911D01*
X2253129Y-19036911D02*
X2253129Y-19055958D01*
X2329319Y-18855958D02*
X2453129Y-18855958D01*
X2453129Y-18855958D02*
X2386462Y-18932149D01*
X2386462Y-18932149D02*
X2415033Y-18932149D01*
X2415033Y-18932149D02*
X2434081Y-18941672D01*
X2434081Y-18941672D02*
X2443605Y-18951196D01*
X2443605Y-18951196D02*
X2453129Y-18970244D01*
X2453129Y-18970244D02*
X2453129Y-19017863D01*
X2453129Y-19017863D02*
X2443605Y-19036911D01*
X2443605Y-19036911D02*
X2434081Y-19046434D01*
X2434081Y-19046434D02*
X2415033Y-19055958D01*
X2415033Y-19055958D02*
X2357890Y-19055958D01*
X2357890Y-19055958D02*
X2338843Y-19046434D01*
X2338843Y-19046434D02*
X2329319Y-19036911D01*
X2576938Y-18855958D02*
X2595986Y-18855958D01*
X2595986Y-18855958D02*
X2615033Y-18865482D01*
X2615033Y-18865482D02*
X2624557Y-18875006D01*
X2624557Y-18875006D02*
X2634081Y-18894053D01*
X2634081Y-18894053D02*
X2643605Y-18932149D01*
X2643605Y-18932149D02*
X2643605Y-18979768D01*
X2643605Y-18979768D02*
X2634081Y-19017863D01*
X2634081Y-19017863D02*
X2624557Y-19036911D01*
X2624557Y-19036911D02*
X2615033Y-19046434D01*
X2615033Y-19046434D02*
X2595986Y-19055958D01*
X2595986Y-19055958D02*
X2576938Y-19055958D01*
X2576938Y-19055958D02*
X2557890Y-19046434D01*
X2557890Y-19046434D02*
X2548367Y-19036911D01*
X2548367Y-19036911D02*
X2538843Y-19017863D01*
X2538843Y-19017863D02*
X2529319Y-18979768D01*
X2529319Y-18979768D02*
X2529319Y-18932149D01*
X2529319Y-18932149D02*
X2538843Y-18894053D01*
X2538843Y-18894053D02*
X2548367Y-18875006D01*
X2548367Y-18875006D02*
X2557890Y-18865482D01*
X2557890Y-18865482D02*
X2576938Y-18855958D01*
X2767414Y-18855958D02*
X2786462Y-18855958D01*
X2786462Y-18855958D02*
X2805509Y-18865482D01*
X2805509Y-18865482D02*
X2815033Y-18875006D01*
X2815033Y-18875006D02*
X2824557Y-18894053D01*
X2824557Y-18894053D02*
X2834081Y-18932149D01*
X2834081Y-18932149D02*
X2834081Y-18979768D01*
X2834081Y-18979768D02*
X2824557Y-19017863D01*
X2824557Y-19017863D02*
X2815033Y-19036911D01*
X2815033Y-19036911D02*
X2805509Y-19046434D01*
X2805509Y-19046434D02*
X2786462Y-19055958D01*
X2786462Y-19055958D02*
X2767414Y-19055958D01*
X2767414Y-19055958D02*
X2748367Y-19046434D01*
X2748367Y-19046434D02*
X2738843Y-19036911D01*
X2738843Y-19036911D02*
X2729319Y-19017863D01*
X2729319Y-19017863D02*
X2719795Y-18979768D01*
X2719795Y-18979768D02*
X2719795Y-18932149D01*
X2719795Y-18932149D02*
X2729319Y-18894053D01*
X2729319Y-18894053D02*
X2738843Y-18875006D01*
X2738843Y-18875006D02*
X2748367Y-18865482D01*
X2748367Y-18865482D02*
X2767414Y-18855958D01*
X2919795Y-19055958D02*
X2919795Y-18922625D01*
X2919795Y-18941672D02*
X2929319Y-18932149D01*
X2929319Y-18932149D02*
X2948367Y-18922625D01*
X2948367Y-18922625D02*
X2976938Y-18922625D01*
X2976938Y-18922625D02*
X2995986Y-18932149D01*
X2995986Y-18932149D02*
X3005509Y-18951196D01*
X3005509Y-18951196D02*
X3005509Y-19055958D01*
X3005509Y-18951196D02*
X3015033Y-18932149D01*
X3015033Y-18932149D02*
X3034081Y-18922625D01*
X3034081Y-18922625D02*
X3062652Y-18922625D01*
X3062652Y-18922625D02*
X3081700Y-18932149D01*
X3081700Y-18932149D02*
X3091224Y-18951196D01*
X3091224Y-18951196D02*
X3091224Y-19055958D01*
X3186462Y-19055958D02*
X3186462Y-18922625D01*
X3186462Y-18941672D02*
X3195986Y-18932149D01*
X3195986Y-18932149D02*
X3215033Y-18922625D01*
X3215033Y-18922625D02*
X3243605Y-18922625D01*
X3243605Y-18922625D02*
X3262652Y-18932149D01*
X3262652Y-18932149D02*
X3272176Y-18951196D01*
X3272176Y-18951196D02*
X3272176Y-19055958D01*
X3272176Y-18951196D02*
X3281700Y-18932149D01*
X3281700Y-18932149D02*
X3300748Y-18922625D01*
X3300748Y-18922625D02*
X3329319Y-18922625D01*
X3329319Y-18922625D02*
X3348367Y-18932149D01*
X3348367Y-18932149D02*
X3357890Y-18951196D01*
X3357890Y-18951196D02*
X3357890Y-19055958D01*
X3748367Y-18846434D02*
X3576938Y-19103577D01*
X4005510Y-18855958D02*
X4024557Y-18855958D01*
X4024557Y-18855958D02*
X4043605Y-18865482D01*
X4043605Y-18865482D02*
X4053129Y-18875006D01*
X4053129Y-18875006D02*
X4062652Y-18894053D01*
X4062652Y-18894053D02*
X4072176Y-18932149D01*
X4072176Y-18932149D02*
X4072176Y-18979768D01*
X4072176Y-18979768D02*
X4062652Y-19017863D01*
X4062652Y-19017863D02*
X4053129Y-19036911D01*
X4053129Y-19036911D02*
X4043605Y-19046434D01*
X4043605Y-19046434D02*
X4024557Y-19055958D01*
X4024557Y-19055958D02*
X4005510Y-19055958D01*
X4005510Y-19055958D02*
X3986462Y-19046434D01*
X3986462Y-19046434D02*
X3976938Y-19036911D01*
X3976938Y-19036911D02*
X3967414Y-19017863D01*
X3967414Y-19017863D02*
X3957891Y-18979768D01*
X3957891Y-18979768D02*
X3957891Y-18932149D01*
X3957891Y-18932149D02*
X3967414Y-18894053D01*
X3967414Y-18894053D02*
X3976938Y-18875006D01*
X3976938Y-18875006D02*
X3986462Y-18865482D01*
X3986462Y-18865482D02*
X4005510Y-18855958D01*
X4157891Y-19036911D02*
X4167414Y-19046434D01*
X4167414Y-19046434D02*
X4157891Y-19055958D01*
X4157891Y-19055958D02*
X4148367Y-19046434D01*
X4148367Y-19046434D02*
X4157891Y-19036911D01*
X4157891Y-19036911D02*
X4157891Y-19055958D01*
X4357891Y-19055958D02*
X4243605Y-19055958D01*
X4300748Y-19055958D02*
X4300748Y-18855958D01*
X4300748Y-18855958D02*
X4281700Y-18884530D01*
X4281700Y-18884530D02*
X4262653Y-18903577D01*
X4262653Y-18903577D02*
X4243605Y-18913101D01*
X4529319Y-18855958D02*
X4491224Y-18855958D01*
X4491224Y-18855958D02*
X4472176Y-18865482D01*
X4472176Y-18865482D02*
X4462653Y-18875006D01*
X4462653Y-18875006D02*
X4443605Y-18903577D01*
X4443605Y-18903577D02*
X4434081Y-18941672D01*
X4434081Y-18941672D02*
X4434081Y-19017863D01*
X4434081Y-19017863D02*
X4443605Y-19036911D01*
X4443605Y-19036911D02*
X4453129Y-19046434D01*
X4453129Y-19046434D02*
X4472176Y-19055958D01*
X4472176Y-19055958D02*
X4510272Y-19055958D01*
X4510272Y-19055958D02*
X4529319Y-19046434D01*
X4529319Y-19046434D02*
X4538843Y-19036911D01*
X4538843Y-19036911D02*
X4548367Y-19017863D01*
X4548367Y-19017863D02*
X4548367Y-18970244D01*
X4548367Y-18970244D02*
X4538843Y-18951196D01*
X4538843Y-18951196D02*
X4529319Y-18941672D01*
X4529319Y-18941672D02*
X4510272Y-18932149D01*
X4510272Y-18932149D02*
X4472176Y-18932149D01*
X4472176Y-18932149D02*
X4453129Y-18941672D01*
X4453129Y-18941672D02*
X4443605Y-18951196D01*
X4443605Y-18951196D02*
X4434081Y-18970244D01*
X4643605Y-19055958D02*
X4681700Y-19055958D01*
X4681700Y-19055958D02*
X4700748Y-19046434D01*
X4700748Y-19046434D02*
X4710272Y-19036911D01*
X4710272Y-19036911D02*
X4729319Y-19008339D01*
X4729319Y-19008339D02*
X4738843Y-18970244D01*
X4738843Y-18970244D02*
X4738843Y-18894053D01*
X4738843Y-18894053D02*
X4729319Y-18875006D01*
X4729319Y-18875006D02*
X4719795Y-18865482D01*
X4719795Y-18865482D02*
X4700748Y-18855958D01*
X4700748Y-18855958D02*
X4662653Y-18855958D01*
X4662653Y-18855958D02*
X4643605Y-18865482D01*
X4643605Y-18865482D02*
X4634081Y-18875006D01*
X4634081Y-18875006D02*
X4624557Y-18894053D01*
X4624557Y-18894053D02*
X4624557Y-18941672D01*
X4624557Y-18941672D02*
X4634081Y-18960720D01*
X4634081Y-18960720D02*
X4643605Y-18970244D01*
X4643605Y-18970244D02*
X4662653Y-18979768D01*
X4662653Y-18979768D02*
X4700748Y-18979768D01*
X4700748Y-18979768D02*
X4719795Y-18970244D01*
X4719795Y-18970244D02*
X4729319Y-18960720D01*
X4729319Y-18960720D02*
X4738843Y-18941672D01*
X4805510Y-18855958D02*
X4929319Y-18855958D01*
X4929319Y-18855958D02*
X4862653Y-18932149D01*
X4862653Y-18932149D02*
X4891224Y-18932149D01*
X4891224Y-18932149D02*
X4910272Y-18941672D01*
X4910272Y-18941672D02*
X4919795Y-18951196D01*
X4919795Y-18951196D02*
X4929319Y-18970244D01*
X4929319Y-18970244D02*
X4929319Y-19017863D01*
X4929319Y-19017863D02*
X4919795Y-19036911D01*
X4919795Y-19036911D02*
X4910272Y-19046434D01*
X4910272Y-19046434D02*
X4891224Y-19055958D01*
X4891224Y-19055958D02*
X4834081Y-19055958D01*
X4834081Y-19055958D02*
X4815034Y-19046434D01*
X4815034Y-19046434D02*
X4805510Y-19036911D01*
X5005510Y-18855958D02*
X5005510Y-18894053D01*
X5081700Y-18855958D02*
X5081700Y-18894053D01*
X5376938Y-19132149D02*
X5367415Y-19122625D01*
X5367415Y-19122625D02*
X5348367Y-19094053D01*
X5348367Y-19094053D02*
X5338843Y-19075006D01*
X5338843Y-19075006D02*
X5329319Y-19046434D01*
X5329319Y-19046434D02*
X5319796Y-18998815D01*
X5319796Y-18998815D02*
X5319796Y-18960720D01*
X5319796Y-18960720D02*
X5329319Y-18913101D01*
X5329319Y-18913101D02*
X5338843Y-18884530D01*
X5338843Y-18884530D02*
X5348367Y-18865482D01*
X5348367Y-18865482D02*
X5367415Y-18836911D01*
X5367415Y-18836911D02*
X5376938Y-18827387D01*
X5434081Y-18855958D02*
X5557891Y-18855958D01*
X5557891Y-18855958D02*
X5491224Y-18932149D01*
X5491224Y-18932149D02*
X5519796Y-18932149D01*
X5519796Y-18932149D02*
X5538843Y-18941672D01*
X5538843Y-18941672D02*
X5548367Y-18951196D01*
X5548367Y-18951196D02*
X5557891Y-18970244D01*
X5557891Y-18970244D02*
X5557891Y-19017863D01*
X5557891Y-19017863D02*
X5548367Y-19036911D01*
X5548367Y-19036911D02*
X5538843Y-19046434D01*
X5538843Y-19046434D02*
X5519796Y-19055958D01*
X5519796Y-19055958D02*
X5462653Y-19055958D01*
X5462653Y-19055958D02*
X5443605Y-19046434D01*
X5443605Y-19046434D02*
X5434081Y-19036911D01*
X5795986Y-19055958D02*
X5795986Y-18855958D01*
X5881700Y-19055958D02*
X5881700Y-18951196D01*
X5881700Y-18951196D02*
X5872176Y-18932149D01*
X5872176Y-18932149D02*
X5853129Y-18922625D01*
X5853129Y-18922625D02*
X5824557Y-18922625D01*
X5824557Y-18922625D02*
X5805510Y-18932149D01*
X5805510Y-18932149D02*
X5795986Y-18941672D01*
X6005510Y-19055958D02*
X5986462Y-19046434D01*
X5986462Y-19046434D02*
X5976938Y-19036911D01*
X5976938Y-19036911D02*
X5967415Y-19017863D01*
X5967415Y-19017863D02*
X5967415Y-18960720D01*
X5967415Y-18960720D02*
X5976938Y-18941672D01*
X5976938Y-18941672D02*
X5986462Y-18932149D01*
X5986462Y-18932149D02*
X6005510Y-18922625D01*
X6005510Y-18922625D02*
X6034081Y-18922625D01*
X6034081Y-18922625D02*
X6053129Y-18932149D01*
X6053129Y-18932149D02*
X6062653Y-18941672D01*
X6062653Y-18941672D02*
X6072176Y-18960720D01*
X6072176Y-18960720D02*
X6072176Y-19017863D01*
X6072176Y-19017863D02*
X6062653Y-19036911D01*
X6062653Y-19036911D02*
X6053129Y-19046434D01*
X6053129Y-19046434D02*
X6034081Y-19055958D01*
X6034081Y-19055958D02*
X6005510Y-19055958D01*
X6186462Y-19055958D02*
X6167415Y-19046434D01*
X6167415Y-19046434D02*
X6157891Y-19027387D01*
X6157891Y-19027387D02*
X6157891Y-18855958D01*
X6338843Y-19046434D02*
X6319796Y-19055958D01*
X6319796Y-19055958D02*
X6281700Y-19055958D01*
X6281700Y-19055958D02*
X6262653Y-19046434D01*
X6262653Y-19046434D02*
X6253129Y-19027387D01*
X6253129Y-19027387D02*
X6253129Y-18951196D01*
X6253129Y-18951196D02*
X6262653Y-18932149D01*
X6262653Y-18932149D02*
X6281700Y-18922625D01*
X6281700Y-18922625D02*
X6319796Y-18922625D01*
X6319796Y-18922625D02*
X6338843Y-18932149D01*
X6338843Y-18932149D02*
X6348367Y-18951196D01*
X6348367Y-18951196D02*
X6348367Y-18970244D01*
X6348367Y-18970244D02*
X6253129Y-18989292D01*
X6424557Y-19046434D02*
X6443605Y-19055958D01*
X6443605Y-19055958D02*
X6481700Y-19055958D01*
X6481700Y-19055958D02*
X6500748Y-19046434D01*
X6500748Y-19046434D02*
X6510272Y-19027387D01*
X6510272Y-19027387D02*
X6510272Y-19017863D01*
X6510272Y-19017863D02*
X6500748Y-18998815D01*
X6500748Y-18998815D02*
X6481700Y-18989292D01*
X6481700Y-18989292D02*
X6453129Y-18989292D01*
X6453129Y-18989292D02*
X6434081Y-18979768D01*
X6434081Y-18979768D02*
X6424557Y-18960720D01*
X6424557Y-18960720D02*
X6424557Y-18951196D01*
X6424557Y-18951196D02*
X6434081Y-18932149D01*
X6434081Y-18932149D02*
X6453129Y-18922625D01*
X6453129Y-18922625D02*
X6481700Y-18922625D01*
X6481700Y-18922625D02*
X6500748Y-18932149D01*
X6576938Y-19132149D02*
X6586462Y-19122625D01*
X6586462Y-19122625D02*
X6605510Y-19094053D01*
X6605510Y-19094053D02*
X6615034Y-19075006D01*
X6615034Y-19075006D02*
X6624557Y-19046434D01*
X6624557Y-19046434D02*
X6634081Y-18998815D01*
X6634081Y-18998815D02*
X6634081Y-18960720D01*
X6634081Y-18960720D02*
X6624557Y-18913101D01*
X6624557Y-18913101D02*
X6615034Y-18884530D01*
X6615034Y-18884530D02*
X6605510Y-18865482D01*
X6605510Y-18865482D02*
X6586462Y-18836911D01*
X6586462Y-18836911D02*
X6576938Y-18827387D01*
X6938843Y-19132149D02*
X6929319Y-19122625D01*
X6929319Y-19122625D02*
X6910272Y-19094053D01*
X6910272Y-19094053D02*
X6900748Y-19075006D01*
X6900748Y-19075006D02*
X6891224Y-19046434D01*
X6891224Y-19046434D02*
X6881700Y-18998815D01*
X6881700Y-18998815D02*
X6881700Y-18960720D01*
X6881700Y-18960720D02*
X6891224Y-18913101D01*
X6891224Y-18913101D02*
X6900748Y-18884530D01*
X6900748Y-18884530D02*
X6910272Y-18865482D01*
X6910272Y-18865482D02*
X6929319Y-18836911D01*
X6929319Y-18836911D02*
X6938843Y-18827387D01*
X7015034Y-18922625D02*
X7015034Y-19055958D01*
X7015034Y-18941672D02*
X7024557Y-18932149D01*
X7024557Y-18932149D02*
X7043605Y-18922625D01*
X7043605Y-18922625D02*
X7072177Y-18922625D01*
X7072177Y-18922625D02*
X7091224Y-18932149D01*
X7091224Y-18932149D02*
X7100748Y-18951196D01*
X7100748Y-18951196D02*
X7100748Y-19055958D01*
X7224557Y-19055958D02*
X7205510Y-19046434D01*
X7205510Y-19046434D02*
X7195986Y-19036911D01*
X7195986Y-19036911D02*
X7186462Y-19017863D01*
X7186462Y-19017863D02*
X7186462Y-18960720D01*
X7186462Y-18960720D02*
X7195986Y-18941672D01*
X7195986Y-18941672D02*
X7205510Y-18932149D01*
X7205510Y-18932149D02*
X7224557Y-18922625D01*
X7224557Y-18922625D02*
X7253129Y-18922625D01*
X7253129Y-18922625D02*
X7272177Y-18932149D01*
X7272177Y-18932149D02*
X7281700Y-18941672D01*
X7281700Y-18941672D02*
X7291224Y-18960720D01*
X7291224Y-18960720D02*
X7291224Y-19017863D01*
X7291224Y-19017863D02*
X7281700Y-19036911D01*
X7281700Y-19036911D02*
X7272177Y-19046434D01*
X7272177Y-19046434D02*
X7253129Y-19055958D01*
X7253129Y-19055958D02*
X7224557Y-19055958D01*
X7348367Y-18922625D02*
X7424557Y-18922625D01*
X7376938Y-18855958D02*
X7376938Y-19027387D01*
X7376938Y-19027387D02*
X7386462Y-19046434D01*
X7386462Y-19046434D02*
X7405510Y-19055958D01*
X7405510Y-19055958D02*
X7424557Y-19055958D01*
X7643605Y-18922625D02*
X7643605Y-19122625D01*
X7643605Y-18932149D02*
X7662653Y-18922625D01*
X7662653Y-18922625D02*
X7700748Y-18922625D01*
X7700748Y-18922625D02*
X7719796Y-18932149D01*
X7719796Y-18932149D02*
X7729319Y-18941672D01*
X7729319Y-18941672D02*
X7738843Y-18960720D01*
X7738843Y-18960720D02*
X7738843Y-19017863D01*
X7738843Y-19017863D02*
X7729319Y-19036911D01*
X7729319Y-19036911D02*
X7719796Y-19046434D01*
X7719796Y-19046434D02*
X7700748Y-19055958D01*
X7700748Y-19055958D02*
X7662653Y-19055958D01*
X7662653Y-19055958D02*
X7643605Y-19046434D01*
X7853129Y-19055958D02*
X7834081Y-19046434D01*
X7834081Y-19046434D02*
X7824558Y-19027387D01*
X7824558Y-19027387D02*
X7824558Y-18855958D01*
X8015034Y-19055958D02*
X8015034Y-18951196D01*
X8015034Y-18951196D02*
X8005510Y-18932149D01*
X8005510Y-18932149D02*
X7986462Y-18922625D01*
X7986462Y-18922625D02*
X7948367Y-18922625D01*
X7948367Y-18922625D02*
X7929319Y-18932149D01*
X8015034Y-19046434D02*
X7995986Y-19055958D01*
X7995986Y-19055958D02*
X7948367Y-19055958D01*
X7948367Y-19055958D02*
X7929319Y-19046434D01*
X7929319Y-19046434D02*
X7919796Y-19027387D01*
X7919796Y-19027387D02*
X7919796Y-19008339D01*
X7919796Y-19008339D02*
X7929319Y-18989292D01*
X7929319Y-18989292D02*
X7948367Y-18979768D01*
X7948367Y-18979768D02*
X7995986Y-18979768D01*
X7995986Y-18979768D02*
X8015034Y-18970244D01*
X8081700Y-18922625D02*
X8157891Y-18922625D01*
X8110272Y-18855958D02*
X8110272Y-19027387D01*
X8110272Y-19027387D02*
X8119796Y-19046434D01*
X8119796Y-19046434D02*
X8138843Y-19055958D01*
X8138843Y-19055958D02*
X8157891Y-19055958D01*
X8300748Y-19046434D02*
X8281700Y-19055958D01*
X8281700Y-19055958D02*
X8243605Y-19055958D01*
X8243605Y-19055958D02*
X8224558Y-19046434D01*
X8224558Y-19046434D02*
X8215034Y-19027387D01*
X8215034Y-19027387D02*
X8215034Y-18951196D01*
X8215034Y-18951196D02*
X8224558Y-18932149D01*
X8224558Y-18932149D02*
X8243605Y-18922625D01*
X8243605Y-18922625D02*
X8281700Y-18922625D01*
X8281700Y-18922625D02*
X8300748Y-18932149D01*
X8300748Y-18932149D02*
X8310272Y-18951196D01*
X8310272Y-18951196D02*
X8310272Y-18970244D01*
X8310272Y-18970244D02*
X8215034Y-18989292D01*
X8481701Y-19055958D02*
X8481701Y-18855958D01*
X8481701Y-19046434D02*
X8462653Y-19055958D01*
X8462653Y-19055958D02*
X8424558Y-19055958D01*
X8424558Y-19055958D02*
X8405510Y-19046434D01*
X8405510Y-19046434D02*
X8395986Y-19036911D01*
X8395986Y-19036911D02*
X8386462Y-19017863D01*
X8386462Y-19017863D02*
X8386462Y-18960720D01*
X8386462Y-18960720D02*
X8395986Y-18941672D01*
X8395986Y-18941672D02*
X8405510Y-18932149D01*
X8405510Y-18932149D02*
X8424558Y-18922625D01*
X8424558Y-18922625D02*
X8462653Y-18922625D01*
X8462653Y-18922625D02*
X8481701Y-18932149D01*
X8557891Y-19132149D02*
X8567415Y-19122625D01*
X8567415Y-19122625D02*
X8586462Y-19094053D01*
X8586462Y-19094053D02*
X8595986Y-19075006D01*
X8595986Y-19075006D02*
X8605510Y-19046434D01*
X8605510Y-19046434D02*
X8615034Y-18998815D01*
X8615034Y-18998815D02*
X8615034Y-18960720D01*
X8615034Y-18960720D02*
X8605510Y-18913101D01*
X8605510Y-18913101D02*
X8595986Y-18884530D01*
X8595986Y-18884530D02*
X8586462Y-18865482D01*
X8586462Y-18865482D02*
X8567415Y-18836911D01*
X8567415Y-18836911D02*
X8557891Y-18827387D01*
X1601875Y-19184474D02*
X1801875Y-19384474D01*
X1801875Y-19184474D02*
X1601875Y-19384474D01*
X1801875Y-19284474D02*
G75*
G02*
X1601875Y-19284474I-100000J0D01*
G01*
X1601875Y-19284474D02*
G75*
G02*
X1801875Y-19284474I100000J0D01*
G01*
X2148367Y-19242625D02*
X2148367Y-19375958D01*
X2100748Y-19166434D02*
X2053128Y-19309292D01*
X2053128Y-19309292D02*
X2176938Y-19309292D01*
X2253129Y-19356911D02*
X2262652Y-19366434D01*
X2262652Y-19366434D02*
X2253129Y-19375958D01*
X2253129Y-19375958D02*
X2243605Y-19366434D01*
X2243605Y-19366434D02*
X2253129Y-19356911D01*
X2253129Y-19356911D02*
X2253129Y-19375958D01*
X2443605Y-19175958D02*
X2348367Y-19175958D01*
X2348367Y-19175958D02*
X2338843Y-19271196D01*
X2338843Y-19271196D02*
X2348367Y-19261672D01*
X2348367Y-19261672D02*
X2367414Y-19252149D01*
X2367414Y-19252149D02*
X2415033Y-19252149D01*
X2415033Y-19252149D02*
X2434081Y-19261672D01*
X2434081Y-19261672D02*
X2443605Y-19271196D01*
X2443605Y-19271196D02*
X2453129Y-19290244D01*
X2453129Y-19290244D02*
X2453129Y-19337863D01*
X2453129Y-19337863D02*
X2443605Y-19356911D01*
X2443605Y-19356911D02*
X2434081Y-19366434D01*
X2434081Y-19366434D02*
X2415033Y-19375958D01*
X2415033Y-19375958D02*
X2367414Y-19375958D01*
X2367414Y-19375958D02*
X2348367Y-19366434D01*
X2348367Y-19366434D02*
X2338843Y-19356911D01*
X2576938Y-19175958D02*
X2595986Y-19175958D01*
X2595986Y-19175958D02*
X2615033Y-19185482D01*
X2615033Y-19185482D02*
X2624557Y-19195006D01*
X2624557Y-19195006D02*
X2634081Y-19214053D01*
X2634081Y-19214053D02*
X2643605Y-19252149D01*
X2643605Y-19252149D02*
X2643605Y-19299768D01*
X2643605Y-19299768D02*
X2634081Y-19337863D01*
X2634081Y-19337863D02*
X2624557Y-19356911D01*
X2624557Y-19356911D02*
X2615033Y-19366434D01*
X2615033Y-19366434D02*
X2595986Y-19375958D01*
X2595986Y-19375958D02*
X2576938Y-19375958D01*
X2576938Y-19375958D02*
X2557890Y-19366434D01*
X2557890Y-19366434D02*
X2548367Y-19356911D01*
X2548367Y-19356911D02*
X2538843Y-19337863D01*
X2538843Y-19337863D02*
X2529319Y-19299768D01*
X2529319Y-19299768D02*
X2529319Y-19252149D01*
X2529319Y-19252149D02*
X2538843Y-19214053D01*
X2538843Y-19214053D02*
X2548367Y-19195006D01*
X2548367Y-19195006D02*
X2557890Y-19185482D01*
X2557890Y-19185482D02*
X2576938Y-19175958D01*
X2767414Y-19175958D02*
X2786462Y-19175958D01*
X2786462Y-19175958D02*
X2805509Y-19185482D01*
X2805509Y-19185482D02*
X2815033Y-19195006D01*
X2815033Y-19195006D02*
X2824557Y-19214053D01*
X2824557Y-19214053D02*
X2834081Y-19252149D01*
X2834081Y-19252149D02*
X2834081Y-19299768D01*
X2834081Y-19299768D02*
X2824557Y-19337863D01*
X2824557Y-19337863D02*
X2815033Y-19356911D01*
X2815033Y-19356911D02*
X2805509Y-19366434D01*
X2805509Y-19366434D02*
X2786462Y-19375958D01*
X2786462Y-19375958D02*
X2767414Y-19375958D01*
X2767414Y-19375958D02*
X2748367Y-19366434D01*
X2748367Y-19366434D02*
X2738843Y-19356911D01*
X2738843Y-19356911D02*
X2729319Y-19337863D01*
X2729319Y-19337863D02*
X2719795Y-19299768D01*
X2719795Y-19299768D02*
X2719795Y-19252149D01*
X2719795Y-19252149D02*
X2729319Y-19214053D01*
X2729319Y-19214053D02*
X2738843Y-19195006D01*
X2738843Y-19195006D02*
X2748367Y-19185482D01*
X2748367Y-19185482D02*
X2767414Y-19175958D01*
X2919795Y-19375958D02*
X2919795Y-19242625D01*
X2919795Y-19261672D02*
X2929319Y-19252149D01*
X2929319Y-19252149D02*
X2948367Y-19242625D01*
X2948367Y-19242625D02*
X2976938Y-19242625D01*
X2976938Y-19242625D02*
X2995986Y-19252149D01*
X2995986Y-19252149D02*
X3005509Y-19271196D01*
X3005509Y-19271196D02*
X3005509Y-19375958D01*
X3005509Y-19271196D02*
X3015033Y-19252149D01*
X3015033Y-19252149D02*
X3034081Y-19242625D01*
X3034081Y-19242625D02*
X3062652Y-19242625D01*
X3062652Y-19242625D02*
X3081700Y-19252149D01*
X3081700Y-19252149D02*
X3091224Y-19271196D01*
X3091224Y-19271196D02*
X3091224Y-19375958D01*
X3186462Y-19375958D02*
X3186462Y-19242625D01*
X3186462Y-19261672D02*
X3195986Y-19252149D01*
X3195986Y-19252149D02*
X3215033Y-19242625D01*
X3215033Y-19242625D02*
X3243605Y-19242625D01*
X3243605Y-19242625D02*
X3262652Y-19252149D01*
X3262652Y-19252149D02*
X3272176Y-19271196D01*
X3272176Y-19271196D02*
X3272176Y-19375958D01*
X3272176Y-19271196D02*
X3281700Y-19252149D01*
X3281700Y-19252149D02*
X3300748Y-19242625D01*
X3300748Y-19242625D02*
X3329319Y-19242625D01*
X3329319Y-19242625D02*
X3348367Y-19252149D01*
X3348367Y-19252149D02*
X3357890Y-19271196D01*
X3357890Y-19271196D02*
X3357890Y-19375958D01*
X3748367Y-19166434D02*
X3576938Y-19423577D01*
X4005510Y-19175958D02*
X4024557Y-19175958D01*
X4024557Y-19175958D02*
X4043605Y-19185482D01*
X4043605Y-19185482D02*
X4053129Y-19195006D01*
X4053129Y-19195006D02*
X4062652Y-19214053D01*
X4062652Y-19214053D02*
X4072176Y-19252149D01*
X4072176Y-19252149D02*
X4072176Y-19299768D01*
X4072176Y-19299768D02*
X4062652Y-19337863D01*
X4062652Y-19337863D02*
X4053129Y-19356911D01*
X4053129Y-19356911D02*
X4043605Y-19366434D01*
X4043605Y-19366434D02*
X4024557Y-19375958D01*
X4024557Y-19375958D02*
X4005510Y-19375958D01*
X4005510Y-19375958D02*
X3986462Y-19366434D01*
X3986462Y-19366434D02*
X3976938Y-19356911D01*
X3976938Y-19356911D02*
X3967414Y-19337863D01*
X3967414Y-19337863D02*
X3957891Y-19299768D01*
X3957891Y-19299768D02*
X3957891Y-19252149D01*
X3957891Y-19252149D02*
X3967414Y-19214053D01*
X3967414Y-19214053D02*
X3976938Y-19195006D01*
X3976938Y-19195006D02*
X3986462Y-19185482D01*
X3986462Y-19185482D02*
X4005510Y-19175958D01*
X4157891Y-19356911D02*
X4167414Y-19366434D01*
X4167414Y-19366434D02*
X4157891Y-19375958D01*
X4157891Y-19375958D02*
X4148367Y-19366434D01*
X4148367Y-19366434D02*
X4157891Y-19356911D01*
X4157891Y-19356911D02*
X4157891Y-19375958D01*
X4357891Y-19375958D02*
X4243605Y-19375958D01*
X4300748Y-19375958D02*
X4300748Y-19175958D01*
X4300748Y-19175958D02*
X4281700Y-19204530D01*
X4281700Y-19204530D02*
X4262653Y-19223577D01*
X4262653Y-19223577D02*
X4243605Y-19233101D01*
X4424557Y-19175958D02*
X4557891Y-19175958D01*
X4557891Y-19175958D02*
X4472176Y-19375958D01*
X4615034Y-19175958D02*
X4748367Y-19175958D01*
X4748367Y-19175958D02*
X4662653Y-19375958D01*
X4815034Y-19195006D02*
X4824557Y-19185482D01*
X4824557Y-19185482D02*
X4843605Y-19175958D01*
X4843605Y-19175958D02*
X4891224Y-19175958D01*
X4891224Y-19175958D02*
X4910272Y-19185482D01*
X4910272Y-19185482D02*
X4919795Y-19195006D01*
X4919795Y-19195006D02*
X4929319Y-19214053D01*
X4929319Y-19214053D02*
X4929319Y-19233101D01*
X4929319Y-19233101D02*
X4919795Y-19261672D01*
X4919795Y-19261672D02*
X4805510Y-19375958D01*
X4805510Y-19375958D02*
X4929319Y-19375958D01*
X5005510Y-19175958D02*
X5005510Y-19214053D01*
X5081700Y-19175958D02*
X5081700Y-19214053D01*
X5376938Y-19452149D02*
X5367415Y-19442625D01*
X5367415Y-19442625D02*
X5348367Y-19414053D01*
X5348367Y-19414053D02*
X5338843Y-19395006D01*
X5338843Y-19395006D02*
X5329319Y-19366434D01*
X5329319Y-19366434D02*
X5319796Y-19318815D01*
X5319796Y-19318815D02*
X5319796Y-19280720D01*
X5319796Y-19280720D02*
X5329319Y-19233101D01*
X5329319Y-19233101D02*
X5338843Y-19204530D01*
X5338843Y-19204530D02*
X5348367Y-19185482D01*
X5348367Y-19185482D02*
X5367415Y-19156911D01*
X5367415Y-19156911D02*
X5376938Y-19147387D01*
X5557891Y-19375958D02*
X5443605Y-19375958D01*
X5500748Y-19375958D02*
X5500748Y-19175958D01*
X5500748Y-19175958D02*
X5481700Y-19204530D01*
X5481700Y-19204530D02*
X5462653Y-19223577D01*
X5462653Y-19223577D02*
X5443605Y-19233101D01*
X5795986Y-19375958D02*
X5795986Y-19175958D01*
X5881700Y-19375958D02*
X5881700Y-19271196D01*
X5881700Y-19271196D02*
X5872176Y-19252149D01*
X5872176Y-19252149D02*
X5853129Y-19242625D01*
X5853129Y-19242625D02*
X5824557Y-19242625D01*
X5824557Y-19242625D02*
X5805510Y-19252149D01*
X5805510Y-19252149D02*
X5795986Y-19261672D01*
X6005510Y-19375958D02*
X5986462Y-19366434D01*
X5986462Y-19366434D02*
X5976938Y-19356911D01*
X5976938Y-19356911D02*
X5967415Y-19337863D01*
X5967415Y-19337863D02*
X5967415Y-19280720D01*
X5967415Y-19280720D02*
X5976938Y-19261672D01*
X5976938Y-19261672D02*
X5986462Y-19252149D01*
X5986462Y-19252149D02*
X6005510Y-19242625D01*
X6005510Y-19242625D02*
X6034081Y-19242625D01*
X6034081Y-19242625D02*
X6053129Y-19252149D01*
X6053129Y-19252149D02*
X6062653Y-19261672D01*
X6062653Y-19261672D02*
X6072176Y-19280720D01*
X6072176Y-19280720D02*
X6072176Y-19337863D01*
X6072176Y-19337863D02*
X6062653Y-19356911D01*
X6062653Y-19356911D02*
X6053129Y-19366434D01*
X6053129Y-19366434D02*
X6034081Y-19375958D01*
X6034081Y-19375958D02*
X6005510Y-19375958D01*
X6186462Y-19375958D02*
X6167415Y-19366434D01*
X6167415Y-19366434D02*
X6157891Y-19347387D01*
X6157891Y-19347387D02*
X6157891Y-19175958D01*
X6338843Y-19366434D02*
X6319796Y-19375958D01*
X6319796Y-19375958D02*
X6281700Y-19375958D01*
X6281700Y-19375958D02*
X6262653Y-19366434D01*
X6262653Y-19366434D02*
X6253129Y-19347387D01*
X6253129Y-19347387D02*
X6253129Y-19271196D01*
X6253129Y-19271196D02*
X6262653Y-19252149D01*
X6262653Y-19252149D02*
X6281700Y-19242625D01*
X6281700Y-19242625D02*
X6319796Y-19242625D01*
X6319796Y-19242625D02*
X6338843Y-19252149D01*
X6338843Y-19252149D02*
X6348367Y-19271196D01*
X6348367Y-19271196D02*
X6348367Y-19290244D01*
X6348367Y-19290244D02*
X6253129Y-19309292D01*
X6415034Y-19452149D02*
X6424557Y-19442625D01*
X6424557Y-19442625D02*
X6443605Y-19414053D01*
X6443605Y-19414053D02*
X6453129Y-19395006D01*
X6453129Y-19395006D02*
X6462653Y-19366434D01*
X6462653Y-19366434D02*
X6472176Y-19318815D01*
X6472176Y-19318815D02*
X6472176Y-19280720D01*
X6472176Y-19280720D02*
X6462653Y-19233101D01*
X6462653Y-19233101D02*
X6453129Y-19204530D01*
X6453129Y-19204530D02*
X6443605Y-19185482D01*
X6443605Y-19185482D02*
X6424557Y-19156911D01*
X6424557Y-19156911D02*
X6415034Y-19147387D01*
X6776938Y-19452149D02*
X6767415Y-19442625D01*
X6767415Y-19442625D02*
X6748367Y-19414053D01*
X6748367Y-19414053D02*
X6738843Y-19395006D01*
X6738843Y-19395006D02*
X6729319Y-19366434D01*
X6729319Y-19366434D02*
X6719796Y-19318815D01*
X6719796Y-19318815D02*
X6719796Y-19280720D01*
X6719796Y-19280720D02*
X6729319Y-19233101D01*
X6729319Y-19233101D02*
X6738843Y-19204530D01*
X6738843Y-19204530D02*
X6748367Y-19185482D01*
X6748367Y-19185482D02*
X6767415Y-19156911D01*
X6767415Y-19156911D02*
X6776938Y-19147387D01*
X6853129Y-19242625D02*
X6853129Y-19375958D01*
X6853129Y-19261672D02*
X6862653Y-19252149D01*
X6862653Y-19252149D02*
X6881700Y-19242625D01*
X6881700Y-19242625D02*
X6910272Y-19242625D01*
X6910272Y-19242625D02*
X6929319Y-19252149D01*
X6929319Y-19252149D02*
X6938843Y-19271196D01*
X6938843Y-19271196D02*
X6938843Y-19375958D01*
X7062653Y-19375958D02*
X7043605Y-19366434D01*
X7043605Y-19366434D02*
X7034081Y-19356911D01*
X7034081Y-19356911D02*
X7024557Y-19337863D01*
X7024557Y-19337863D02*
X7024557Y-19280720D01*
X7024557Y-19280720D02*
X7034081Y-19261672D01*
X7034081Y-19261672D02*
X7043605Y-19252149D01*
X7043605Y-19252149D02*
X7062653Y-19242625D01*
X7062653Y-19242625D02*
X7091224Y-19242625D01*
X7091224Y-19242625D02*
X7110272Y-19252149D01*
X7110272Y-19252149D02*
X7119796Y-19261672D01*
X7119796Y-19261672D02*
X7129319Y-19280720D01*
X7129319Y-19280720D02*
X7129319Y-19337863D01*
X7129319Y-19337863D02*
X7119796Y-19356911D01*
X7119796Y-19356911D02*
X7110272Y-19366434D01*
X7110272Y-19366434D02*
X7091224Y-19375958D01*
X7091224Y-19375958D02*
X7062653Y-19375958D01*
X7186462Y-19242625D02*
X7262653Y-19242625D01*
X7215034Y-19175958D02*
X7215034Y-19347387D01*
X7215034Y-19347387D02*
X7224557Y-19366434D01*
X7224557Y-19366434D02*
X7243605Y-19375958D01*
X7243605Y-19375958D02*
X7262653Y-19375958D01*
X7481700Y-19242625D02*
X7481700Y-19442625D01*
X7481700Y-19252149D02*
X7500748Y-19242625D01*
X7500748Y-19242625D02*
X7538843Y-19242625D01*
X7538843Y-19242625D02*
X7557891Y-19252149D01*
X7557891Y-19252149D02*
X7567415Y-19261672D01*
X7567415Y-19261672D02*
X7576938Y-19280720D01*
X7576938Y-19280720D02*
X7576938Y-19337863D01*
X7576938Y-19337863D02*
X7567415Y-19356911D01*
X7567415Y-19356911D02*
X7557891Y-19366434D01*
X7557891Y-19366434D02*
X7538843Y-19375958D01*
X7538843Y-19375958D02*
X7500748Y-19375958D01*
X7500748Y-19375958D02*
X7481700Y-19366434D01*
X7691224Y-19375958D02*
X7672177Y-19366434D01*
X7672177Y-19366434D02*
X7662653Y-19347387D01*
X7662653Y-19347387D02*
X7662653Y-19175958D01*
X7853129Y-19375958D02*
X7853129Y-19271196D01*
X7853129Y-19271196D02*
X7843605Y-19252149D01*
X7843605Y-19252149D02*
X7824558Y-19242625D01*
X7824558Y-19242625D02*
X7786462Y-19242625D01*
X7786462Y-19242625D02*
X7767415Y-19252149D01*
X7853129Y-19366434D02*
X7834081Y-19375958D01*
X7834081Y-19375958D02*
X7786462Y-19375958D01*
X7786462Y-19375958D02*
X7767415Y-19366434D01*
X7767415Y-19366434D02*
X7757891Y-19347387D01*
X7757891Y-19347387D02*
X7757891Y-19328339D01*
X7757891Y-19328339D02*
X7767415Y-19309292D01*
X7767415Y-19309292D02*
X7786462Y-19299768D01*
X7786462Y-19299768D02*
X7834081Y-19299768D01*
X7834081Y-19299768D02*
X7853129Y-19290244D01*
X7919796Y-19242625D02*
X7995986Y-19242625D01*
X7948367Y-19175958D02*
X7948367Y-19347387D01*
X7948367Y-19347387D02*
X7957891Y-19366434D01*
X7957891Y-19366434D02*
X7976938Y-19375958D01*
X7976938Y-19375958D02*
X7995986Y-19375958D01*
X8138843Y-19366434D02*
X8119796Y-19375958D01*
X8119796Y-19375958D02*
X8081700Y-19375958D01*
X8081700Y-19375958D02*
X8062653Y-19366434D01*
X8062653Y-19366434D02*
X8053129Y-19347387D01*
X8053129Y-19347387D02*
X8053129Y-19271196D01*
X8053129Y-19271196D02*
X8062653Y-19252149D01*
X8062653Y-19252149D02*
X8081700Y-19242625D01*
X8081700Y-19242625D02*
X8119796Y-19242625D01*
X8119796Y-19242625D02*
X8138843Y-19252149D01*
X8138843Y-19252149D02*
X8148367Y-19271196D01*
X8148367Y-19271196D02*
X8148367Y-19290244D01*
X8148367Y-19290244D02*
X8053129Y-19309292D01*
X8319796Y-19375958D02*
X8319796Y-19175958D01*
X8319796Y-19366434D02*
X8300748Y-19375958D01*
X8300748Y-19375958D02*
X8262653Y-19375958D01*
X8262653Y-19375958D02*
X8243605Y-19366434D01*
X8243605Y-19366434D02*
X8234081Y-19356911D01*
X8234081Y-19356911D02*
X8224558Y-19337863D01*
X8224558Y-19337863D02*
X8224558Y-19280720D01*
X8224558Y-19280720D02*
X8234081Y-19261672D01*
X8234081Y-19261672D02*
X8243605Y-19252149D01*
X8243605Y-19252149D02*
X8262653Y-19242625D01*
X8262653Y-19242625D02*
X8300748Y-19242625D01*
X8300748Y-19242625D02*
X8319796Y-19252149D01*
X8395986Y-19452149D02*
X8405510Y-19442625D01*
X8405510Y-19442625D02*
X8424558Y-19414053D01*
X8424558Y-19414053D02*
X8434081Y-19395006D01*
X8434081Y-19395006D02*
X8443605Y-19366434D01*
X8443605Y-19366434D02*
X8453129Y-19318815D01*
X8453129Y-19318815D02*
X8453129Y-19280720D01*
X8453129Y-19280720D02*
X8443605Y-19233101D01*
X8443605Y-19233101D02*
X8434081Y-19204530D01*
X8434081Y-19204530D02*
X8424558Y-19185482D01*
X8424558Y-19185482D02*
X8405510Y-19156911D01*
X8405510Y-19156911D02*
X8395986Y-19147387D01*
X1601875Y-19504474D02*
X1801875Y-19704474D01*
X1801875Y-19504474D02*
X1601875Y-19704474D01*
X1701875Y-19504474D02*
X1701875Y-19704474D01*
X1601875Y-19604474D02*
X1801875Y-19604474D01*
X2157890Y-19495958D02*
X2062652Y-19495958D01*
X2062652Y-19495958D02*
X2053128Y-19591196D01*
X2053128Y-19591196D02*
X2062652Y-19581672D01*
X2062652Y-19581672D02*
X2081700Y-19572149D01*
X2081700Y-19572149D02*
X2129319Y-19572149D01*
X2129319Y-19572149D02*
X2148367Y-19581672D01*
X2148367Y-19581672D02*
X2157890Y-19591196D01*
X2157890Y-19591196D02*
X2167414Y-19610244D01*
X2167414Y-19610244D02*
X2167414Y-19657863D01*
X2167414Y-19657863D02*
X2157890Y-19676911D01*
X2157890Y-19676911D02*
X2148367Y-19686434D01*
X2148367Y-19686434D02*
X2129319Y-19695958D01*
X2129319Y-19695958D02*
X2081700Y-19695958D01*
X2081700Y-19695958D02*
X2062652Y-19686434D01*
X2062652Y-19686434D02*
X2053128Y-19676911D01*
X2253129Y-19676911D02*
X2262652Y-19686434D01*
X2262652Y-19686434D02*
X2253129Y-19695958D01*
X2253129Y-19695958D02*
X2243605Y-19686434D01*
X2243605Y-19686434D02*
X2253129Y-19676911D01*
X2253129Y-19676911D02*
X2253129Y-19695958D01*
X2386462Y-19495958D02*
X2405510Y-19495958D01*
X2405510Y-19495958D02*
X2424557Y-19505482D01*
X2424557Y-19505482D02*
X2434081Y-19515006D01*
X2434081Y-19515006D02*
X2443605Y-19534053D01*
X2443605Y-19534053D02*
X2453129Y-19572149D01*
X2453129Y-19572149D02*
X2453129Y-19619768D01*
X2453129Y-19619768D02*
X2443605Y-19657863D01*
X2443605Y-19657863D02*
X2434081Y-19676911D01*
X2434081Y-19676911D02*
X2424557Y-19686434D01*
X2424557Y-19686434D02*
X2405510Y-19695958D01*
X2405510Y-19695958D02*
X2386462Y-19695958D01*
X2386462Y-19695958D02*
X2367414Y-19686434D01*
X2367414Y-19686434D02*
X2357890Y-19676911D01*
X2357890Y-19676911D02*
X2348367Y-19657863D01*
X2348367Y-19657863D02*
X2338843Y-19619768D01*
X2338843Y-19619768D02*
X2338843Y-19572149D01*
X2338843Y-19572149D02*
X2348367Y-19534053D01*
X2348367Y-19534053D02*
X2357890Y-19515006D01*
X2357890Y-19515006D02*
X2367414Y-19505482D01*
X2367414Y-19505482D02*
X2386462Y-19495958D01*
X2576938Y-19495958D02*
X2595986Y-19495958D01*
X2595986Y-19495958D02*
X2615033Y-19505482D01*
X2615033Y-19505482D02*
X2624557Y-19515006D01*
X2624557Y-19515006D02*
X2634081Y-19534053D01*
X2634081Y-19534053D02*
X2643605Y-19572149D01*
X2643605Y-19572149D02*
X2643605Y-19619768D01*
X2643605Y-19619768D02*
X2634081Y-19657863D01*
X2634081Y-19657863D02*
X2624557Y-19676911D01*
X2624557Y-19676911D02*
X2615033Y-19686434D01*
X2615033Y-19686434D02*
X2595986Y-19695958D01*
X2595986Y-19695958D02*
X2576938Y-19695958D01*
X2576938Y-19695958D02*
X2557890Y-19686434D01*
X2557890Y-19686434D02*
X2548367Y-19676911D01*
X2548367Y-19676911D02*
X2538843Y-19657863D01*
X2538843Y-19657863D02*
X2529319Y-19619768D01*
X2529319Y-19619768D02*
X2529319Y-19572149D01*
X2529319Y-19572149D02*
X2538843Y-19534053D01*
X2538843Y-19534053D02*
X2548367Y-19515006D01*
X2548367Y-19515006D02*
X2557890Y-19505482D01*
X2557890Y-19505482D02*
X2576938Y-19495958D01*
X2767414Y-19495958D02*
X2786462Y-19495958D01*
X2786462Y-19495958D02*
X2805509Y-19505482D01*
X2805509Y-19505482D02*
X2815033Y-19515006D01*
X2815033Y-19515006D02*
X2824557Y-19534053D01*
X2824557Y-19534053D02*
X2834081Y-19572149D01*
X2834081Y-19572149D02*
X2834081Y-19619768D01*
X2834081Y-19619768D02*
X2824557Y-19657863D01*
X2824557Y-19657863D02*
X2815033Y-19676911D01*
X2815033Y-19676911D02*
X2805509Y-19686434D01*
X2805509Y-19686434D02*
X2786462Y-19695958D01*
X2786462Y-19695958D02*
X2767414Y-19695958D01*
X2767414Y-19695958D02*
X2748367Y-19686434D01*
X2748367Y-19686434D02*
X2738843Y-19676911D01*
X2738843Y-19676911D02*
X2729319Y-19657863D01*
X2729319Y-19657863D02*
X2719795Y-19619768D01*
X2719795Y-19619768D02*
X2719795Y-19572149D01*
X2719795Y-19572149D02*
X2729319Y-19534053D01*
X2729319Y-19534053D02*
X2738843Y-19515006D01*
X2738843Y-19515006D02*
X2748367Y-19505482D01*
X2748367Y-19505482D02*
X2767414Y-19495958D01*
X2919795Y-19695958D02*
X2919795Y-19562625D01*
X2919795Y-19581672D02*
X2929319Y-19572149D01*
X2929319Y-19572149D02*
X2948367Y-19562625D01*
X2948367Y-19562625D02*
X2976938Y-19562625D01*
X2976938Y-19562625D02*
X2995986Y-19572149D01*
X2995986Y-19572149D02*
X3005509Y-19591196D01*
X3005509Y-19591196D02*
X3005509Y-19695958D01*
X3005509Y-19591196D02*
X3015033Y-19572149D01*
X3015033Y-19572149D02*
X3034081Y-19562625D01*
X3034081Y-19562625D02*
X3062652Y-19562625D01*
X3062652Y-19562625D02*
X3081700Y-19572149D01*
X3081700Y-19572149D02*
X3091224Y-19591196D01*
X3091224Y-19591196D02*
X3091224Y-19695958D01*
X3186462Y-19695958D02*
X3186462Y-19562625D01*
X3186462Y-19581672D02*
X3195986Y-19572149D01*
X3195986Y-19572149D02*
X3215033Y-19562625D01*
X3215033Y-19562625D02*
X3243605Y-19562625D01*
X3243605Y-19562625D02*
X3262652Y-19572149D01*
X3262652Y-19572149D02*
X3272176Y-19591196D01*
X3272176Y-19591196D02*
X3272176Y-19695958D01*
X3272176Y-19591196D02*
X3281700Y-19572149D01*
X3281700Y-19572149D02*
X3300748Y-19562625D01*
X3300748Y-19562625D02*
X3329319Y-19562625D01*
X3329319Y-19562625D02*
X3348367Y-19572149D01*
X3348367Y-19572149D02*
X3357890Y-19591196D01*
X3357890Y-19591196D02*
X3357890Y-19695958D01*
X3748367Y-19486434D02*
X3576938Y-19743577D01*
X4005510Y-19495958D02*
X4024557Y-19495958D01*
X4024557Y-19495958D02*
X4043605Y-19505482D01*
X4043605Y-19505482D02*
X4053129Y-19515006D01*
X4053129Y-19515006D02*
X4062652Y-19534053D01*
X4062652Y-19534053D02*
X4072176Y-19572149D01*
X4072176Y-19572149D02*
X4072176Y-19619768D01*
X4072176Y-19619768D02*
X4062652Y-19657863D01*
X4062652Y-19657863D02*
X4053129Y-19676911D01*
X4053129Y-19676911D02*
X4043605Y-19686434D01*
X4043605Y-19686434D02*
X4024557Y-19695958D01*
X4024557Y-19695958D02*
X4005510Y-19695958D01*
X4005510Y-19695958D02*
X3986462Y-19686434D01*
X3986462Y-19686434D02*
X3976938Y-19676911D01*
X3976938Y-19676911D02*
X3967414Y-19657863D01*
X3967414Y-19657863D02*
X3957891Y-19619768D01*
X3957891Y-19619768D02*
X3957891Y-19572149D01*
X3957891Y-19572149D02*
X3967414Y-19534053D01*
X3967414Y-19534053D02*
X3976938Y-19515006D01*
X3976938Y-19515006D02*
X3986462Y-19505482D01*
X3986462Y-19505482D02*
X4005510Y-19495958D01*
X4157891Y-19676911D02*
X4167414Y-19686434D01*
X4167414Y-19686434D02*
X4157891Y-19695958D01*
X4157891Y-19695958D02*
X4148367Y-19686434D01*
X4148367Y-19686434D02*
X4157891Y-19676911D01*
X4157891Y-19676911D02*
X4157891Y-19695958D01*
X4357891Y-19695958D02*
X4243605Y-19695958D01*
X4300748Y-19695958D02*
X4300748Y-19495958D01*
X4300748Y-19495958D02*
X4281700Y-19524530D01*
X4281700Y-19524530D02*
X4262653Y-19543577D01*
X4262653Y-19543577D02*
X4243605Y-19553101D01*
X4453129Y-19695958D02*
X4491224Y-19695958D01*
X4491224Y-19695958D02*
X4510272Y-19686434D01*
X4510272Y-19686434D02*
X4519795Y-19676911D01*
X4519795Y-19676911D02*
X4538843Y-19648339D01*
X4538843Y-19648339D02*
X4548367Y-19610244D01*
X4548367Y-19610244D02*
X4548367Y-19534053D01*
X4548367Y-19534053D02*
X4538843Y-19515006D01*
X4538843Y-19515006D02*
X4529319Y-19505482D01*
X4529319Y-19505482D02*
X4510272Y-19495958D01*
X4510272Y-19495958D02*
X4472176Y-19495958D01*
X4472176Y-19495958D02*
X4453129Y-19505482D01*
X4453129Y-19505482D02*
X4443605Y-19515006D01*
X4443605Y-19515006D02*
X4434081Y-19534053D01*
X4434081Y-19534053D02*
X4434081Y-19581672D01*
X4434081Y-19581672D02*
X4443605Y-19600720D01*
X4443605Y-19600720D02*
X4453129Y-19610244D01*
X4453129Y-19610244D02*
X4472176Y-19619768D01*
X4472176Y-19619768D02*
X4510272Y-19619768D01*
X4510272Y-19619768D02*
X4529319Y-19610244D01*
X4529319Y-19610244D02*
X4538843Y-19600720D01*
X4538843Y-19600720D02*
X4548367Y-19581672D01*
X4719795Y-19495958D02*
X4681700Y-19495958D01*
X4681700Y-19495958D02*
X4662653Y-19505482D01*
X4662653Y-19505482D02*
X4653129Y-19515006D01*
X4653129Y-19515006D02*
X4634081Y-19543577D01*
X4634081Y-19543577D02*
X4624557Y-19581672D01*
X4624557Y-19581672D02*
X4624557Y-19657863D01*
X4624557Y-19657863D02*
X4634081Y-19676911D01*
X4634081Y-19676911D02*
X4643605Y-19686434D01*
X4643605Y-19686434D02*
X4662653Y-19695958D01*
X4662653Y-19695958D02*
X4700748Y-19695958D01*
X4700748Y-19695958D02*
X4719795Y-19686434D01*
X4719795Y-19686434D02*
X4729319Y-19676911D01*
X4729319Y-19676911D02*
X4738843Y-19657863D01*
X4738843Y-19657863D02*
X4738843Y-19610244D01*
X4738843Y-19610244D02*
X4729319Y-19591196D01*
X4729319Y-19591196D02*
X4719795Y-19581672D01*
X4719795Y-19581672D02*
X4700748Y-19572149D01*
X4700748Y-19572149D02*
X4662653Y-19572149D01*
X4662653Y-19572149D02*
X4643605Y-19581672D01*
X4643605Y-19581672D02*
X4634081Y-19591196D01*
X4634081Y-19591196D02*
X4624557Y-19610244D01*
X4834081Y-19695958D02*
X4872176Y-19695958D01*
X4872176Y-19695958D02*
X4891224Y-19686434D01*
X4891224Y-19686434D02*
X4900748Y-19676911D01*
X4900748Y-19676911D02*
X4919795Y-19648339D01*
X4919795Y-19648339D02*
X4929319Y-19610244D01*
X4929319Y-19610244D02*
X4929319Y-19534053D01*
X4929319Y-19534053D02*
X4919795Y-19515006D01*
X4919795Y-19515006D02*
X4910272Y-19505482D01*
X4910272Y-19505482D02*
X4891224Y-19495958D01*
X4891224Y-19495958D02*
X4853129Y-19495958D01*
X4853129Y-19495958D02*
X4834081Y-19505482D01*
X4834081Y-19505482D02*
X4824557Y-19515006D01*
X4824557Y-19515006D02*
X4815034Y-19534053D01*
X4815034Y-19534053D02*
X4815034Y-19581672D01*
X4815034Y-19581672D02*
X4824557Y-19600720D01*
X4824557Y-19600720D02*
X4834081Y-19610244D01*
X4834081Y-19610244D02*
X4853129Y-19619768D01*
X4853129Y-19619768D02*
X4891224Y-19619768D01*
X4891224Y-19619768D02*
X4910272Y-19610244D01*
X4910272Y-19610244D02*
X4919795Y-19600720D01*
X4919795Y-19600720D02*
X4929319Y-19581672D01*
X5005510Y-19495958D02*
X5005510Y-19534053D01*
X5081700Y-19495958D02*
X5081700Y-19534053D01*
X5376938Y-19772149D02*
X5367415Y-19762625D01*
X5367415Y-19762625D02*
X5348367Y-19734053D01*
X5348367Y-19734053D02*
X5338843Y-19715006D01*
X5338843Y-19715006D02*
X5329319Y-19686434D01*
X5329319Y-19686434D02*
X5319796Y-19638815D01*
X5319796Y-19638815D02*
X5319796Y-19600720D01*
X5319796Y-19600720D02*
X5329319Y-19553101D01*
X5329319Y-19553101D02*
X5338843Y-19524530D01*
X5338843Y-19524530D02*
X5348367Y-19505482D01*
X5348367Y-19505482D02*
X5367415Y-19476911D01*
X5367415Y-19476911D02*
X5376938Y-19467387D01*
X5557891Y-19695958D02*
X5443605Y-19695958D01*
X5500748Y-19695958D02*
X5500748Y-19495958D01*
X5500748Y-19495958D02*
X5481700Y-19524530D01*
X5481700Y-19524530D02*
X5462653Y-19543577D01*
X5462653Y-19543577D02*
X5443605Y-19553101D01*
X5795986Y-19695958D02*
X5795986Y-19495958D01*
X5881700Y-19695958D02*
X5881700Y-19591196D01*
X5881700Y-19591196D02*
X5872176Y-19572149D01*
X5872176Y-19572149D02*
X5853129Y-19562625D01*
X5853129Y-19562625D02*
X5824557Y-19562625D01*
X5824557Y-19562625D02*
X5805510Y-19572149D01*
X5805510Y-19572149D02*
X5795986Y-19581672D01*
X6005510Y-19695958D02*
X5986462Y-19686434D01*
X5986462Y-19686434D02*
X5976938Y-19676911D01*
X5976938Y-19676911D02*
X5967415Y-19657863D01*
X5967415Y-19657863D02*
X5967415Y-19600720D01*
X5967415Y-19600720D02*
X5976938Y-19581672D01*
X5976938Y-19581672D02*
X5986462Y-19572149D01*
X5986462Y-19572149D02*
X6005510Y-19562625D01*
X6005510Y-19562625D02*
X6034081Y-19562625D01*
X6034081Y-19562625D02*
X6053129Y-19572149D01*
X6053129Y-19572149D02*
X6062653Y-19581672D01*
X6062653Y-19581672D02*
X6072176Y-19600720D01*
X6072176Y-19600720D02*
X6072176Y-19657863D01*
X6072176Y-19657863D02*
X6062653Y-19676911D01*
X6062653Y-19676911D02*
X6053129Y-19686434D01*
X6053129Y-19686434D02*
X6034081Y-19695958D01*
X6034081Y-19695958D02*
X6005510Y-19695958D01*
X6186462Y-19695958D02*
X6167415Y-19686434D01*
X6167415Y-19686434D02*
X6157891Y-19667387D01*
X6157891Y-19667387D02*
X6157891Y-19495958D01*
X6338843Y-19686434D02*
X6319796Y-19695958D01*
X6319796Y-19695958D02*
X6281700Y-19695958D01*
X6281700Y-19695958D02*
X6262653Y-19686434D01*
X6262653Y-19686434D02*
X6253129Y-19667387D01*
X6253129Y-19667387D02*
X6253129Y-19591196D01*
X6253129Y-19591196D02*
X6262653Y-19572149D01*
X6262653Y-19572149D02*
X6281700Y-19562625D01*
X6281700Y-19562625D02*
X6319796Y-19562625D01*
X6319796Y-19562625D02*
X6338843Y-19572149D01*
X6338843Y-19572149D02*
X6348367Y-19591196D01*
X6348367Y-19591196D02*
X6348367Y-19610244D01*
X6348367Y-19610244D02*
X6253129Y-19629292D01*
X6415034Y-19772149D02*
X6424557Y-19762625D01*
X6424557Y-19762625D02*
X6443605Y-19734053D01*
X6443605Y-19734053D02*
X6453129Y-19715006D01*
X6453129Y-19715006D02*
X6462653Y-19686434D01*
X6462653Y-19686434D02*
X6472176Y-19638815D01*
X6472176Y-19638815D02*
X6472176Y-19600720D01*
X6472176Y-19600720D02*
X6462653Y-19553101D01*
X6462653Y-19553101D02*
X6453129Y-19524530D01*
X6453129Y-19524530D02*
X6443605Y-19505482D01*
X6443605Y-19505482D02*
X6424557Y-19476911D01*
X6424557Y-19476911D02*
X6415034Y-19467387D01*
X6776938Y-19772149D02*
X6767415Y-19762625D01*
X6767415Y-19762625D02*
X6748367Y-19734053D01*
X6748367Y-19734053D02*
X6738843Y-19715006D01*
X6738843Y-19715006D02*
X6729319Y-19686434D01*
X6729319Y-19686434D02*
X6719796Y-19638815D01*
X6719796Y-19638815D02*
X6719796Y-19600720D01*
X6719796Y-19600720D02*
X6729319Y-19553101D01*
X6729319Y-19553101D02*
X6738843Y-19524530D01*
X6738843Y-19524530D02*
X6748367Y-19505482D01*
X6748367Y-19505482D02*
X6767415Y-19476911D01*
X6767415Y-19476911D02*
X6776938Y-19467387D01*
X6853129Y-19562625D02*
X6853129Y-19695958D01*
X6853129Y-19581672D02*
X6862653Y-19572149D01*
X6862653Y-19572149D02*
X6881700Y-19562625D01*
X6881700Y-19562625D02*
X6910272Y-19562625D01*
X6910272Y-19562625D02*
X6929319Y-19572149D01*
X6929319Y-19572149D02*
X6938843Y-19591196D01*
X6938843Y-19591196D02*
X6938843Y-19695958D01*
X7062653Y-19695958D02*
X7043605Y-19686434D01*
X7043605Y-19686434D02*
X7034081Y-19676911D01*
X7034081Y-19676911D02*
X7024557Y-19657863D01*
X7024557Y-19657863D02*
X7024557Y-19600720D01*
X7024557Y-19600720D02*
X7034081Y-19581672D01*
X7034081Y-19581672D02*
X7043605Y-19572149D01*
X7043605Y-19572149D02*
X7062653Y-19562625D01*
X7062653Y-19562625D02*
X7091224Y-19562625D01*
X7091224Y-19562625D02*
X7110272Y-19572149D01*
X7110272Y-19572149D02*
X7119796Y-19581672D01*
X7119796Y-19581672D02*
X7129319Y-19600720D01*
X7129319Y-19600720D02*
X7129319Y-19657863D01*
X7129319Y-19657863D02*
X7119796Y-19676911D01*
X7119796Y-19676911D02*
X7110272Y-19686434D01*
X7110272Y-19686434D02*
X7091224Y-19695958D01*
X7091224Y-19695958D02*
X7062653Y-19695958D01*
X7186462Y-19562625D02*
X7262653Y-19562625D01*
X7215034Y-19495958D02*
X7215034Y-19667387D01*
X7215034Y-19667387D02*
X7224557Y-19686434D01*
X7224557Y-19686434D02*
X7243605Y-19695958D01*
X7243605Y-19695958D02*
X7262653Y-19695958D01*
X7481700Y-19562625D02*
X7481700Y-19762625D01*
X7481700Y-19572149D02*
X7500748Y-19562625D01*
X7500748Y-19562625D02*
X7538843Y-19562625D01*
X7538843Y-19562625D02*
X7557891Y-19572149D01*
X7557891Y-19572149D02*
X7567415Y-19581672D01*
X7567415Y-19581672D02*
X7576938Y-19600720D01*
X7576938Y-19600720D02*
X7576938Y-19657863D01*
X7576938Y-19657863D02*
X7567415Y-19676911D01*
X7567415Y-19676911D02*
X7557891Y-19686434D01*
X7557891Y-19686434D02*
X7538843Y-19695958D01*
X7538843Y-19695958D02*
X7500748Y-19695958D01*
X7500748Y-19695958D02*
X7481700Y-19686434D01*
X7691224Y-19695958D02*
X7672177Y-19686434D01*
X7672177Y-19686434D02*
X7662653Y-19667387D01*
X7662653Y-19667387D02*
X7662653Y-19495958D01*
X7853129Y-19695958D02*
X7853129Y-19591196D01*
X7853129Y-19591196D02*
X7843605Y-19572149D01*
X7843605Y-19572149D02*
X7824558Y-19562625D01*
X7824558Y-19562625D02*
X7786462Y-19562625D01*
X7786462Y-19562625D02*
X7767415Y-19572149D01*
X7853129Y-19686434D02*
X7834081Y-19695958D01*
X7834081Y-19695958D02*
X7786462Y-19695958D01*
X7786462Y-19695958D02*
X7767415Y-19686434D01*
X7767415Y-19686434D02*
X7757891Y-19667387D01*
X7757891Y-19667387D02*
X7757891Y-19648339D01*
X7757891Y-19648339D02*
X7767415Y-19629292D01*
X7767415Y-19629292D02*
X7786462Y-19619768D01*
X7786462Y-19619768D02*
X7834081Y-19619768D01*
X7834081Y-19619768D02*
X7853129Y-19610244D01*
X7919796Y-19562625D02*
X7995986Y-19562625D01*
X7948367Y-19495958D02*
X7948367Y-19667387D01*
X7948367Y-19667387D02*
X7957891Y-19686434D01*
X7957891Y-19686434D02*
X7976938Y-19695958D01*
X7976938Y-19695958D02*
X7995986Y-19695958D01*
X8138843Y-19686434D02*
X8119796Y-19695958D01*
X8119796Y-19695958D02*
X8081700Y-19695958D01*
X8081700Y-19695958D02*
X8062653Y-19686434D01*
X8062653Y-19686434D02*
X8053129Y-19667387D01*
X8053129Y-19667387D02*
X8053129Y-19591196D01*
X8053129Y-19591196D02*
X8062653Y-19572149D01*
X8062653Y-19572149D02*
X8081700Y-19562625D01*
X8081700Y-19562625D02*
X8119796Y-19562625D01*
X8119796Y-19562625D02*
X8138843Y-19572149D01*
X8138843Y-19572149D02*
X8148367Y-19591196D01*
X8148367Y-19591196D02*
X8148367Y-19610244D01*
X8148367Y-19610244D02*
X8053129Y-19629292D01*
X8319796Y-19695958D02*
X8319796Y-19495958D01*
X8319796Y-19686434D02*
X8300748Y-19695958D01*
X8300748Y-19695958D02*
X8262653Y-19695958D01*
X8262653Y-19695958D02*
X8243605Y-19686434D01*
X8243605Y-19686434D02*
X8234081Y-19676911D01*
X8234081Y-19676911D02*
X8224558Y-19657863D01*
X8224558Y-19657863D02*
X8224558Y-19600720D01*
X8224558Y-19600720D02*
X8234081Y-19581672D01*
X8234081Y-19581672D02*
X8243605Y-19572149D01*
X8243605Y-19572149D02*
X8262653Y-19562625D01*
X8262653Y-19562625D02*
X8300748Y-19562625D01*
X8300748Y-19562625D02*
X8319796Y-19572149D01*
X8395986Y-19772149D02*
X8405510Y-19762625D01*
X8405510Y-19762625D02*
X8424558Y-19734053D01*
X8424558Y-19734053D02*
X8434081Y-19715006D01*
X8434081Y-19715006D02*
X8443605Y-19686434D01*
X8443605Y-19686434D02*
X8453129Y-19638815D01*
X8453129Y-19638815D02*
X8453129Y-19600720D01*
X8453129Y-19600720D02*
X8443605Y-19553101D01*
X8443605Y-19553101D02*
X8434081Y-19524530D01*
X8434081Y-19524530D02*
X8424558Y-19505482D01*
X8424558Y-19505482D02*
X8405510Y-19476911D01*
X8405510Y-19476911D02*
X8395986Y-19467387D01*
X1601875Y-19824474D02*
X1801875Y-20024474D01*
X1801875Y-19824474D02*
X1601875Y-20024474D01*
X1772587Y-19995186D02*
X1772587Y-19853763D01*
X1631164Y-19853763D01*
X1631164Y-19995186D01*
X1772587Y-19995186D01*
X2148367Y-19815958D02*
X2110271Y-19815958D01*
X2110271Y-19815958D02*
X2091224Y-19825482D01*
X2091224Y-19825482D02*
X2081700Y-19835006D01*
X2081700Y-19835006D02*
X2062652Y-19863577D01*
X2062652Y-19863577D02*
X2053128Y-19901672D01*
X2053128Y-19901672D02*
X2053128Y-19977863D01*
X2053128Y-19977863D02*
X2062652Y-19996911D01*
X2062652Y-19996911D02*
X2072176Y-20006434D01*
X2072176Y-20006434D02*
X2091224Y-20015958D01*
X2091224Y-20015958D02*
X2129319Y-20015958D01*
X2129319Y-20015958D02*
X2148367Y-20006434D01*
X2148367Y-20006434D02*
X2157890Y-19996911D01*
X2157890Y-19996911D02*
X2167414Y-19977863D01*
X2167414Y-19977863D02*
X2167414Y-19930244D01*
X2167414Y-19930244D02*
X2157890Y-19911196D01*
X2157890Y-19911196D02*
X2148367Y-19901672D01*
X2148367Y-19901672D02*
X2129319Y-19892149D01*
X2129319Y-19892149D02*
X2091224Y-19892149D01*
X2091224Y-19892149D02*
X2072176Y-19901672D01*
X2072176Y-19901672D02*
X2062652Y-19911196D01*
X2062652Y-19911196D02*
X2053128Y-19930244D01*
X2253129Y-19996911D02*
X2262652Y-20006434D01*
X2262652Y-20006434D02*
X2253129Y-20015958D01*
X2253129Y-20015958D02*
X2243605Y-20006434D01*
X2243605Y-20006434D02*
X2253129Y-19996911D01*
X2253129Y-19996911D02*
X2253129Y-20015958D01*
X2386462Y-19815958D02*
X2405510Y-19815958D01*
X2405510Y-19815958D02*
X2424557Y-19825482D01*
X2424557Y-19825482D02*
X2434081Y-19835006D01*
X2434081Y-19835006D02*
X2443605Y-19854053D01*
X2443605Y-19854053D02*
X2453129Y-19892149D01*
X2453129Y-19892149D02*
X2453129Y-19939768D01*
X2453129Y-19939768D02*
X2443605Y-19977863D01*
X2443605Y-19977863D02*
X2434081Y-19996911D01*
X2434081Y-19996911D02*
X2424557Y-20006434D01*
X2424557Y-20006434D02*
X2405510Y-20015958D01*
X2405510Y-20015958D02*
X2386462Y-20015958D01*
X2386462Y-20015958D02*
X2367414Y-20006434D01*
X2367414Y-20006434D02*
X2357890Y-19996911D01*
X2357890Y-19996911D02*
X2348367Y-19977863D01*
X2348367Y-19977863D02*
X2338843Y-19939768D01*
X2338843Y-19939768D02*
X2338843Y-19892149D01*
X2338843Y-19892149D02*
X2348367Y-19854053D01*
X2348367Y-19854053D02*
X2357890Y-19835006D01*
X2357890Y-19835006D02*
X2367414Y-19825482D01*
X2367414Y-19825482D02*
X2386462Y-19815958D01*
X2576938Y-19815958D02*
X2595986Y-19815958D01*
X2595986Y-19815958D02*
X2615033Y-19825482D01*
X2615033Y-19825482D02*
X2624557Y-19835006D01*
X2624557Y-19835006D02*
X2634081Y-19854053D01*
X2634081Y-19854053D02*
X2643605Y-19892149D01*
X2643605Y-19892149D02*
X2643605Y-19939768D01*
X2643605Y-19939768D02*
X2634081Y-19977863D01*
X2634081Y-19977863D02*
X2624557Y-19996911D01*
X2624557Y-19996911D02*
X2615033Y-20006434D01*
X2615033Y-20006434D02*
X2595986Y-20015958D01*
X2595986Y-20015958D02*
X2576938Y-20015958D01*
X2576938Y-20015958D02*
X2557890Y-20006434D01*
X2557890Y-20006434D02*
X2548367Y-19996911D01*
X2548367Y-19996911D02*
X2538843Y-19977863D01*
X2538843Y-19977863D02*
X2529319Y-19939768D01*
X2529319Y-19939768D02*
X2529319Y-19892149D01*
X2529319Y-19892149D02*
X2538843Y-19854053D01*
X2538843Y-19854053D02*
X2548367Y-19835006D01*
X2548367Y-19835006D02*
X2557890Y-19825482D01*
X2557890Y-19825482D02*
X2576938Y-19815958D01*
X2767414Y-19815958D02*
X2786462Y-19815958D01*
X2786462Y-19815958D02*
X2805509Y-19825482D01*
X2805509Y-19825482D02*
X2815033Y-19835006D01*
X2815033Y-19835006D02*
X2824557Y-19854053D01*
X2824557Y-19854053D02*
X2834081Y-19892149D01*
X2834081Y-19892149D02*
X2834081Y-19939768D01*
X2834081Y-19939768D02*
X2824557Y-19977863D01*
X2824557Y-19977863D02*
X2815033Y-19996911D01*
X2815033Y-19996911D02*
X2805509Y-20006434D01*
X2805509Y-20006434D02*
X2786462Y-20015958D01*
X2786462Y-20015958D02*
X2767414Y-20015958D01*
X2767414Y-20015958D02*
X2748367Y-20006434D01*
X2748367Y-20006434D02*
X2738843Y-19996911D01*
X2738843Y-19996911D02*
X2729319Y-19977863D01*
X2729319Y-19977863D02*
X2719795Y-19939768D01*
X2719795Y-19939768D02*
X2719795Y-19892149D01*
X2719795Y-19892149D02*
X2729319Y-19854053D01*
X2729319Y-19854053D02*
X2738843Y-19835006D01*
X2738843Y-19835006D02*
X2748367Y-19825482D01*
X2748367Y-19825482D02*
X2767414Y-19815958D01*
X2919795Y-20015958D02*
X2919795Y-19882625D01*
X2919795Y-19901672D02*
X2929319Y-19892149D01*
X2929319Y-19892149D02*
X2948367Y-19882625D01*
X2948367Y-19882625D02*
X2976938Y-19882625D01*
X2976938Y-19882625D02*
X2995986Y-19892149D01*
X2995986Y-19892149D02*
X3005509Y-19911196D01*
X3005509Y-19911196D02*
X3005509Y-20015958D01*
X3005509Y-19911196D02*
X3015033Y-19892149D01*
X3015033Y-19892149D02*
X3034081Y-19882625D01*
X3034081Y-19882625D02*
X3062652Y-19882625D01*
X3062652Y-19882625D02*
X3081700Y-19892149D01*
X3081700Y-19892149D02*
X3091224Y-19911196D01*
X3091224Y-19911196D02*
X3091224Y-20015958D01*
X3186462Y-20015958D02*
X3186462Y-19882625D01*
X3186462Y-19901672D02*
X3195986Y-19892149D01*
X3195986Y-19892149D02*
X3215033Y-19882625D01*
X3215033Y-19882625D02*
X3243605Y-19882625D01*
X3243605Y-19882625D02*
X3262652Y-19892149D01*
X3262652Y-19892149D02*
X3272176Y-19911196D01*
X3272176Y-19911196D02*
X3272176Y-20015958D01*
X3272176Y-19911196D02*
X3281700Y-19892149D01*
X3281700Y-19892149D02*
X3300748Y-19882625D01*
X3300748Y-19882625D02*
X3329319Y-19882625D01*
X3329319Y-19882625D02*
X3348367Y-19892149D01*
X3348367Y-19892149D02*
X3357890Y-19911196D01*
X3357890Y-19911196D02*
X3357890Y-20015958D01*
X3748367Y-19806434D02*
X3576938Y-20063577D01*
X4005510Y-19815958D02*
X4024557Y-19815958D01*
X4024557Y-19815958D02*
X4043605Y-19825482D01*
X4043605Y-19825482D02*
X4053129Y-19835006D01*
X4053129Y-19835006D02*
X4062652Y-19854053D01*
X4062652Y-19854053D02*
X4072176Y-19892149D01*
X4072176Y-19892149D02*
X4072176Y-19939768D01*
X4072176Y-19939768D02*
X4062652Y-19977863D01*
X4062652Y-19977863D02*
X4053129Y-19996911D01*
X4053129Y-19996911D02*
X4043605Y-20006434D01*
X4043605Y-20006434D02*
X4024557Y-20015958D01*
X4024557Y-20015958D02*
X4005510Y-20015958D01*
X4005510Y-20015958D02*
X3986462Y-20006434D01*
X3986462Y-20006434D02*
X3976938Y-19996911D01*
X3976938Y-19996911D02*
X3967414Y-19977863D01*
X3967414Y-19977863D02*
X3957891Y-19939768D01*
X3957891Y-19939768D02*
X3957891Y-19892149D01*
X3957891Y-19892149D02*
X3967414Y-19854053D01*
X3967414Y-19854053D02*
X3976938Y-19835006D01*
X3976938Y-19835006D02*
X3986462Y-19825482D01*
X3986462Y-19825482D02*
X4005510Y-19815958D01*
X4157891Y-19996911D02*
X4167414Y-20006434D01*
X4167414Y-20006434D02*
X4157891Y-20015958D01*
X4157891Y-20015958D02*
X4148367Y-20006434D01*
X4148367Y-20006434D02*
X4157891Y-19996911D01*
X4157891Y-19996911D02*
X4157891Y-20015958D01*
X4243605Y-19835006D02*
X4253129Y-19825482D01*
X4253129Y-19825482D02*
X4272176Y-19815958D01*
X4272176Y-19815958D02*
X4319795Y-19815958D01*
X4319795Y-19815958D02*
X4338843Y-19825482D01*
X4338843Y-19825482D02*
X4348367Y-19835006D01*
X4348367Y-19835006D02*
X4357891Y-19854053D01*
X4357891Y-19854053D02*
X4357891Y-19873101D01*
X4357891Y-19873101D02*
X4348367Y-19901672D01*
X4348367Y-19901672D02*
X4234081Y-20015958D01*
X4234081Y-20015958D02*
X4357891Y-20015958D01*
X4424557Y-19815958D02*
X4548367Y-19815958D01*
X4548367Y-19815958D02*
X4481700Y-19892149D01*
X4481700Y-19892149D02*
X4510272Y-19892149D01*
X4510272Y-19892149D02*
X4529319Y-19901672D01*
X4529319Y-19901672D02*
X4538843Y-19911196D01*
X4538843Y-19911196D02*
X4548367Y-19930244D01*
X4548367Y-19930244D02*
X4548367Y-19977863D01*
X4548367Y-19977863D02*
X4538843Y-19996911D01*
X4538843Y-19996911D02*
X4529319Y-20006434D01*
X4529319Y-20006434D02*
X4510272Y-20015958D01*
X4510272Y-20015958D02*
X4453129Y-20015958D01*
X4453129Y-20015958D02*
X4434081Y-20006434D01*
X4434081Y-20006434D02*
X4424557Y-19996911D01*
X4719795Y-19815958D02*
X4681700Y-19815958D01*
X4681700Y-19815958D02*
X4662653Y-19825482D01*
X4662653Y-19825482D02*
X4653129Y-19835006D01*
X4653129Y-19835006D02*
X4634081Y-19863577D01*
X4634081Y-19863577D02*
X4624557Y-19901672D01*
X4624557Y-19901672D02*
X4624557Y-19977863D01*
X4624557Y-19977863D02*
X4634081Y-19996911D01*
X4634081Y-19996911D02*
X4643605Y-20006434D01*
X4643605Y-20006434D02*
X4662653Y-20015958D01*
X4662653Y-20015958D02*
X4700748Y-20015958D01*
X4700748Y-20015958D02*
X4719795Y-20006434D01*
X4719795Y-20006434D02*
X4729319Y-19996911D01*
X4729319Y-19996911D02*
X4738843Y-19977863D01*
X4738843Y-19977863D02*
X4738843Y-19930244D01*
X4738843Y-19930244D02*
X4729319Y-19911196D01*
X4729319Y-19911196D02*
X4719795Y-19901672D01*
X4719795Y-19901672D02*
X4700748Y-19892149D01*
X4700748Y-19892149D02*
X4662653Y-19892149D01*
X4662653Y-19892149D02*
X4643605Y-19901672D01*
X4643605Y-19901672D02*
X4634081Y-19911196D01*
X4634081Y-19911196D02*
X4624557Y-19930244D01*
X4815034Y-19835006D02*
X4824557Y-19825482D01*
X4824557Y-19825482D02*
X4843605Y-19815958D01*
X4843605Y-19815958D02*
X4891224Y-19815958D01*
X4891224Y-19815958D02*
X4910272Y-19825482D01*
X4910272Y-19825482D02*
X4919795Y-19835006D01*
X4919795Y-19835006D02*
X4929319Y-19854053D01*
X4929319Y-19854053D02*
X4929319Y-19873101D01*
X4929319Y-19873101D02*
X4919795Y-19901672D01*
X4919795Y-19901672D02*
X4805510Y-20015958D01*
X4805510Y-20015958D02*
X4929319Y-20015958D01*
X5005510Y-19815958D02*
X5005510Y-19854053D01*
X5081700Y-19815958D02*
X5081700Y-19854053D01*
X5376938Y-20092149D02*
X5367415Y-20082625D01*
X5367415Y-20082625D02*
X5348367Y-20054053D01*
X5348367Y-20054053D02*
X5338843Y-20035006D01*
X5338843Y-20035006D02*
X5329319Y-20006434D01*
X5329319Y-20006434D02*
X5319796Y-19958815D01*
X5319796Y-19958815D02*
X5319796Y-19920720D01*
X5319796Y-19920720D02*
X5329319Y-19873101D01*
X5329319Y-19873101D02*
X5338843Y-19844530D01*
X5338843Y-19844530D02*
X5348367Y-19825482D01*
X5348367Y-19825482D02*
X5367415Y-19796911D01*
X5367415Y-19796911D02*
X5376938Y-19787387D01*
X5538843Y-19882625D02*
X5538843Y-20015958D01*
X5491224Y-19806434D02*
X5443605Y-19949292D01*
X5443605Y-19949292D02*
X5567415Y-19949292D01*
X5795986Y-20015958D02*
X5795986Y-19815958D01*
X5881700Y-20015958D02*
X5881700Y-19911196D01*
X5881700Y-19911196D02*
X5872176Y-19892149D01*
X5872176Y-19892149D02*
X5853129Y-19882625D01*
X5853129Y-19882625D02*
X5824557Y-19882625D01*
X5824557Y-19882625D02*
X5805510Y-19892149D01*
X5805510Y-19892149D02*
X5795986Y-19901672D01*
X6005510Y-20015958D02*
X5986462Y-20006434D01*
X5986462Y-20006434D02*
X5976938Y-19996911D01*
X5976938Y-19996911D02*
X5967415Y-19977863D01*
X5967415Y-19977863D02*
X5967415Y-19920720D01*
X5967415Y-19920720D02*
X5976938Y-19901672D01*
X5976938Y-19901672D02*
X5986462Y-19892149D01*
X5986462Y-19892149D02*
X6005510Y-19882625D01*
X6005510Y-19882625D02*
X6034081Y-19882625D01*
X6034081Y-19882625D02*
X6053129Y-19892149D01*
X6053129Y-19892149D02*
X6062653Y-19901672D01*
X6062653Y-19901672D02*
X6072176Y-19920720D01*
X6072176Y-19920720D02*
X6072176Y-19977863D01*
X6072176Y-19977863D02*
X6062653Y-19996911D01*
X6062653Y-19996911D02*
X6053129Y-20006434D01*
X6053129Y-20006434D02*
X6034081Y-20015958D01*
X6034081Y-20015958D02*
X6005510Y-20015958D01*
X6186462Y-20015958D02*
X6167415Y-20006434D01*
X6167415Y-20006434D02*
X6157891Y-19987387D01*
X6157891Y-19987387D02*
X6157891Y-19815958D01*
X6338843Y-20006434D02*
X6319796Y-20015958D01*
X6319796Y-20015958D02*
X6281700Y-20015958D01*
X6281700Y-20015958D02*
X6262653Y-20006434D01*
X6262653Y-20006434D02*
X6253129Y-19987387D01*
X6253129Y-19987387D02*
X6253129Y-19911196D01*
X6253129Y-19911196D02*
X6262653Y-19892149D01*
X6262653Y-19892149D02*
X6281700Y-19882625D01*
X6281700Y-19882625D02*
X6319796Y-19882625D01*
X6319796Y-19882625D02*
X6338843Y-19892149D01*
X6338843Y-19892149D02*
X6348367Y-19911196D01*
X6348367Y-19911196D02*
X6348367Y-19930244D01*
X6348367Y-19930244D02*
X6253129Y-19949292D01*
X6424557Y-20006434D02*
X6443605Y-20015958D01*
X6443605Y-20015958D02*
X6481700Y-20015958D01*
X6481700Y-20015958D02*
X6500748Y-20006434D01*
X6500748Y-20006434D02*
X6510272Y-19987387D01*
X6510272Y-19987387D02*
X6510272Y-19977863D01*
X6510272Y-19977863D02*
X6500748Y-19958815D01*
X6500748Y-19958815D02*
X6481700Y-19949292D01*
X6481700Y-19949292D02*
X6453129Y-19949292D01*
X6453129Y-19949292D02*
X6434081Y-19939768D01*
X6434081Y-19939768D02*
X6424557Y-19920720D01*
X6424557Y-19920720D02*
X6424557Y-19911196D01*
X6424557Y-19911196D02*
X6434081Y-19892149D01*
X6434081Y-19892149D02*
X6453129Y-19882625D01*
X6453129Y-19882625D02*
X6481700Y-19882625D01*
X6481700Y-19882625D02*
X6500748Y-19892149D01*
X6576938Y-20092149D02*
X6586462Y-20082625D01*
X6586462Y-20082625D02*
X6605510Y-20054053D01*
X6605510Y-20054053D02*
X6615034Y-20035006D01*
X6615034Y-20035006D02*
X6624557Y-20006434D01*
X6624557Y-20006434D02*
X6634081Y-19958815D01*
X6634081Y-19958815D02*
X6634081Y-19920720D01*
X6634081Y-19920720D02*
X6624557Y-19873101D01*
X6624557Y-19873101D02*
X6615034Y-19844530D01*
X6615034Y-19844530D02*
X6605510Y-19825482D01*
X6605510Y-19825482D02*
X6586462Y-19796911D01*
X6586462Y-19796911D02*
X6576938Y-19787387D01*
X6938843Y-20092149D02*
X6929319Y-20082625D01*
X6929319Y-20082625D02*
X6910272Y-20054053D01*
X6910272Y-20054053D02*
X6900748Y-20035006D01*
X6900748Y-20035006D02*
X6891224Y-20006434D01*
X6891224Y-20006434D02*
X6881700Y-19958815D01*
X6881700Y-19958815D02*
X6881700Y-19920720D01*
X6881700Y-19920720D02*
X6891224Y-19873101D01*
X6891224Y-19873101D02*
X6900748Y-19844530D01*
X6900748Y-19844530D02*
X6910272Y-19825482D01*
X6910272Y-19825482D02*
X6929319Y-19796911D01*
X6929319Y-19796911D02*
X6938843Y-19787387D01*
X7015034Y-19882625D02*
X7015034Y-20015958D01*
X7015034Y-19901672D02*
X7024557Y-19892149D01*
X7024557Y-19892149D02*
X7043605Y-19882625D01*
X7043605Y-19882625D02*
X7072177Y-19882625D01*
X7072177Y-19882625D02*
X7091224Y-19892149D01*
X7091224Y-19892149D02*
X7100748Y-19911196D01*
X7100748Y-19911196D02*
X7100748Y-20015958D01*
X7224557Y-20015958D02*
X7205510Y-20006434D01*
X7205510Y-20006434D02*
X7195986Y-19996911D01*
X7195986Y-19996911D02*
X7186462Y-19977863D01*
X7186462Y-19977863D02*
X7186462Y-19920720D01*
X7186462Y-19920720D02*
X7195986Y-19901672D01*
X7195986Y-19901672D02*
X7205510Y-19892149D01*
X7205510Y-19892149D02*
X7224557Y-19882625D01*
X7224557Y-19882625D02*
X7253129Y-19882625D01*
X7253129Y-19882625D02*
X7272177Y-19892149D01*
X7272177Y-19892149D02*
X7281700Y-19901672D01*
X7281700Y-19901672D02*
X7291224Y-19920720D01*
X7291224Y-19920720D02*
X7291224Y-19977863D01*
X7291224Y-19977863D02*
X7281700Y-19996911D01*
X7281700Y-19996911D02*
X7272177Y-20006434D01*
X7272177Y-20006434D02*
X7253129Y-20015958D01*
X7253129Y-20015958D02*
X7224557Y-20015958D01*
X7348367Y-19882625D02*
X7424557Y-19882625D01*
X7376938Y-19815958D02*
X7376938Y-19987387D01*
X7376938Y-19987387D02*
X7386462Y-20006434D01*
X7386462Y-20006434D02*
X7405510Y-20015958D01*
X7405510Y-20015958D02*
X7424557Y-20015958D01*
X7643605Y-19882625D02*
X7643605Y-20082625D01*
X7643605Y-19892149D02*
X7662653Y-19882625D01*
X7662653Y-19882625D02*
X7700748Y-19882625D01*
X7700748Y-19882625D02*
X7719796Y-19892149D01*
X7719796Y-19892149D02*
X7729319Y-19901672D01*
X7729319Y-19901672D02*
X7738843Y-19920720D01*
X7738843Y-19920720D02*
X7738843Y-19977863D01*
X7738843Y-19977863D02*
X7729319Y-19996911D01*
X7729319Y-19996911D02*
X7719796Y-20006434D01*
X7719796Y-20006434D02*
X7700748Y-20015958D01*
X7700748Y-20015958D02*
X7662653Y-20015958D01*
X7662653Y-20015958D02*
X7643605Y-20006434D01*
X7853129Y-20015958D02*
X7834081Y-20006434D01*
X7834081Y-20006434D02*
X7824558Y-19987387D01*
X7824558Y-19987387D02*
X7824558Y-19815958D01*
X8015034Y-20015958D02*
X8015034Y-19911196D01*
X8015034Y-19911196D02*
X8005510Y-19892149D01*
X8005510Y-19892149D02*
X7986462Y-19882625D01*
X7986462Y-19882625D02*
X7948367Y-19882625D01*
X7948367Y-19882625D02*
X7929319Y-19892149D01*
X8015034Y-20006434D02*
X7995986Y-20015958D01*
X7995986Y-20015958D02*
X7948367Y-20015958D01*
X7948367Y-20015958D02*
X7929319Y-20006434D01*
X7929319Y-20006434D02*
X7919796Y-19987387D01*
X7919796Y-19987387D02*
X7919796Y-19968339D01*
X7919796Y-19968339D02*
X7929319Y-19949292D01*
X7929319Y-19949292D02*
X7948367Y-19939768D01*
X7948367Y-19939768D02*
X7995986Y-19939768D01*
X7995986Y-19939768D02*
X8015034Y-19930244D01*
X8081700Y-19882625D02*
X8157891Y-19882625D01*
X8110272Y-19815958D02*
X8110272Y-19987387D01*
X8110272Y-19987387D02*
X8119796Y-20006434D01*
X8119796Y-20006434D02*
X8138843Y-20015958D01*
X8138843Y-20015958D02*
X8157891Y-20015958D01*
X8300748Y-20006434D02*
X8281700Y-20015958D01*
X8281700Y-20015958D02*
X8243605Y-20015958D01*
X8243605Y-20015958D02*
X8224558Y-20006434D01*
X8224558Y-20006434D02*
X8215034Y-19987387D01*
X8215034Y-19987387D02*
X8215034Y-19911196D01*
X8215034Y-19911196D02*
X8224558Y-19892149D01*
X8224558Y-19892149D02*
X8243605Y-19882625D01*
X8243605Y-19882625D02*
X8281700Y-19882625D01*
X8281700Y-19882625D02*
X8300748Y-19892149D01*
X8300748Y-19892149D02*
X8310272Y-19911196D01*
X8310272Y-19911196D02*
X8310272Y-19930244D01*
X8310272Y-19930244D02*
X8215034Y-19949292D01*
X8481701Y-20015958D02*
X8481701Y-19815958D01*
X8481701Y-20006434D02*
X8462653Y-20015958D01*
X8462653Y-20015958D02*
X8424558Y-20015958D01*
X8424558Y-20015958D02*
X8405510Y-20006434D01*
X8405510Y-20006434D02*
X8395986Y-19996911D01*
X8395986Y-19996911D02*
X8386462Y-19977863D01*
X8386462Y-19977863D02*
X8386462Y-19920720D01*
X8386462Y-19920720D02*
X8395986Y-19901672D01*
X8395986Y-19901672D02*
X8405510Y-19892149D01*
X8405510Y-19892149D02*
X8424558Y-19882625D01*
X8424558Y-19882625D02*
X8462653Y-19882625D01*
X8462653Y-19882625D02*
X8481701Y-19892149D01*
X8557891Y-20092149D02*
X8567415Y-20082625D01*
X8567415Y-20082625D02*
X8586462Y-20054053D01*
X8586462Y-20054053D02*
X8595986Y-20035006D01*
X8595986Y-20035006D02*
X8605510Y-20006434D01*
X8605510Y-20006434D02*
X8615034Y-19958815D01*
X8615034Y-19958815D02*
X8615034Y-19920720D01*
X8615034Y-19920720D02*
X8605510Y-19873101D01*
X8605510Y-19873101D02*
X8595986Y-19844530D01*
X8595986Y-19844530D02*
X8586462Y-19825482D01*
X8586462Y-19825482D02*
X8567415Y-19796911D01*
X8567415Y-19796911D02*
X8557891Y-19787387D01*
M02*
