M48
; DRILL file KiCad 10.0.4-10.0.4~ubuntu24.04.1 date 2026-07-12T10:01:39
; FORMAT={-:-/ absolute / metric / decimal}
; #@! TF.CreationDate,2026-07-12T10:01:39+02:00
; #@! TF.GenerationSoftware,Kicad,Pcbnew,10.0.4-10.0.4~ubuntu24.04.1
; #@! TF.FileFunction,Plated,1,2,PTH
FMAT,2
METRIC
; #@! TA.AperFunction,Plated,PTH,ViaDrill
T1C0.300
; #@! TA.AperFunction,Plated,PTH,ViaDrill
T2C0.305
; #@! TA.AperFunction,Plated,PTH,ComponentDrill
T3C0.400
; #@! TA.AperFunction,Plated,PTH,ViaDrill
T4C0.500
; #@! TA.AperFunction,Plated,PTH,ViaDrill
T5C0.508
; #@! TA.AperFunction,Plated,PTH,ComponentDrill
T6C0.600
; #@! TA.AperFunction,Plated,PTH,ComponentDrill
T7C0.800
; #@! TA.AperFunction,Plated,PTH,ComponentDrill
T8C0.950
; #@! TA.AperFunction,Plated,PTH,ComponentDrill
T9C1.000
; #@! TA.AperFunction,Plated,PTH,ComponentDrill
T10C1.100
; #@! TA.AperFunction,Plated,PTH,ComponentDrill
T11C1.500
; #@! TA.AperFunction,Plated,PTH,ComponentDrill
T12C4.000
%
G90
G05
T1
X48.524Y-162.032
X69.606Y-163.302
X69.611Y-167.879
X134.503Y-77.982
X135.265Y-78.49
X135.9Y-67.798
X136.154Y-77.982
X136.916Y-78.49
X139.202Y-74.402
X139.456Y-67.29
X140.218Y-66.528
X140.98Y-67.29
X141.742Y-66.528
X151.902Y-75.926
X151.902Y-77.45
X152.41Y-75.164
X152.41Y-76.688
T2
X22.616Y-162.286
X24.14Y-165.104
X32.854Y-74.402
X40.396Y-166.35
X51.854Y-76.942
X58.176Y-166.35
X69.854Y-73.894
X71.638Y-61.194
X71.638Y-71.354
X88.849Y-74.91
X103.924Y-165.446
X107.854Y-72.624
X122.692Y-161.524
X125.486Y-67.163
X126.854Y-72.116
X127.01Y-166.35
X127.772Y-68.052
X128.28Y-65.258
X130.058Y-64.242
X130.251Y-67.991
X131.582Y-63.48
X133.461Y-72.269
X133.487Y-68.205
X136.916Y-95.992
X137.678Y-77.855
X138.529Y-78.452
X140.726Y-77.882
X143.52Y-76.434
X144.028Y-64.496
X144.492Y-96.354
X144.536Y-95.254
X145.442Y-98.446
X145.806Y-118.296
X146.568Y-167.874
X147.076Y-161.524
X147.838Y-91.166
X153.807Y-72.013
X155.077Y-71.251
X163.332Y-137.296
X165.11Y-161.802
X165.872Y-77.45
X166.38Y-167.946
X172.984Y-64.75
X173.873Y-145.8
X173.873Y-149.057
X174.0Y-77.45
X175.397Y-148.086
X184.16Y-76.688
X202.956Y-75.926
X210.576Y-156.318
X225.619Y-75.221
X251.354Y-95.254
X270.266Y-95.0
X291.572Y-66.268
X321.854Y-66.02
X340.854Y-74.656
X342.044Y-76.712
X342.91Y-77.45
X359.854Y-92.206
T3
X44.644Y-48.271
X44.644Y-49.621
X45.494Y-48.271
X45.494Y-49.621
X46.344Y-48.271
X46.344Y-49.621
X47.194Y-48.271
X47.194Y-49.621
X48.044Y-48.271
X48.044Y-49.621
X48.894Y-48.271
X48.894Y-49.621
X49.744Y-48.271
X49.744Y-49.621
X50.594Y-48.271
X50.594Y-49.621
T4
X51.826Y-53.066
X57.668Y-53.066
T5
X20.044Y-168.946
X23.886Y-67.544
X28.544Y-167.946
X39.888Y-55.352
X41.244Y-158.346
X43.698Y-92.69
X45.222Y-45.7
X45.476Y-106.406
X45.844Y-153.746
X45.984Y-167.898
X47.762Y-45.7
X49.54Y-124.44
X50.048Y-45.7
X53.35Y-57.384
X55.382Y-56.368
X56.144Y-49.256
X56.144Y-59.416
X57.414Y-146.284
X59.192Y-55.098
X63.544Y-167.446
X64.272Y-158.984
X69.86Y-93.198
X72.654Y-149.61
X77.581Y-167.946
X78.75Y-113.772
X78.75Y-162.794
X80.782Y-155.198
X81.036Y-65.766
X83.83Y-134.346
X85.354Y-70.338
X88.91Y-93.452
X91.958Y-68.306
X92.974Y-111.232
X94.752Y-65.512
X95.768Y-150.118
X100.34Y-129.774
X109.044Y-167.946
X109.992Y-162.794
X111.77Y-146.284
X112.024Y-94.976
X113.548Y-66.528
X116.342Y-112.248
X117.104Y-88.626
X122.184Y-149.61
X123.454Y-75.418
X123.454Y-78.466
X124.216Y-130.79
X128.153Y-81.03
X128.254Y-73.767
X128.28Y-160.254
X128.534Y-152.658
X132.217Y-96.754
X132.598Y-168.89
X133.36Y-111.486
X134.884Y-149.61
X135.798Y-74.352
X136.281Y-70.389
X138.186Y-57.384
X138.694Y-71.862
X139.964Y-50.526
X142.044Y-149.446
X142.044Y-152.946
X142.758Y-131.298
X143.774Y-50.526
X147.584Y-78.466
X147.838Y-59.924
X148.6Y-67.036
X151.14Y-112.756
X152.41Y-68.814
X156.22Y-69.83
X160.284Y-63.734
X161.554Y-78.72
X162.824Y-152.15
X163.332Y-60.94
X163.586Y-130.79
X163.84Y-93.706
X165.872Y-69.576
X167.65Y-66.782
X171.968Y-62.21
X172.476Y-87.356
X175.016Y-113.264
X175.27Y-49.002
X175.524Y-68.306
X175.524Y-78.72
X180.858Y-132.06
X184.414Y-93.96
X186.7Y-67.798
X191.526Y-113.264
X199.146Y-131.298
X200.924Y-93.706
X201.432Y-68.052
X207.02Y-113.01
X210.322Y-87.356
X212.608Y-150.348
X217.18Y-131.552
X218.958Y-67.798
X220.736Y-50.272
X222.514Y-60.686
X222.641Y-93.476
X226.832Y-113.01
X232.674Y-162.54
X235.468Y-129.266
X238.262Y-148.062
X240.167Y-93.349
X241.31Y-68.306
X243.596Y-114.026
X256.296Y-162.794
X257.312Y-131.044
X258.328Y-68.052
X262.138Y-94.746
X265.044Y-142.946
X266.202Y-60.686
X270.52Y-85.832
X275.6Y-131.044
X277.632Y-95.484
X277.632Y-110.216
X279.664Y-162.54
X283.474Y-60.94
X283.982Y-73.918
X299.222Y-109.962
X299.73Y-83.546
X302.778Y-147.046
X304.048Y-161.778
X304.81Y-94.976
X306.334Y-60.686
X312.176Y-72.116
X317.764Y-129.012
X319.034Y-68.56
X326.654Y-60.686
X327.416Y-165.08
X327.67Y-72.37
X331.48Y-95.23
X332.496Y-128.25
X333.258Y-149.078
X340.019Y-68.56
X343.926Y-66.274
X344.688Y-165.08
X345.704Y-113.01
X345.958Y-60.432
X346.466Y-88.372
X348.752Y-94.722
X351.038Y-74.402
X352.308Y-148.57
X361.044Y-164.446
X362.468Y-127.488
T6
X102.986Y-68.486
X102.986Y-69.986
T7
X150.021Y-68.486
X154.901Y-68.486
T8
X206.844Y-155.696
X206.844Y-158.196
X206.844Y-160.696
X206.844Y-163.196
T9
X343.926Y-68.814
X343.926Y-71.354
X346.466Y-68.814
X346.466Y-71.354
X349.006Y-68.814
X349.006Y-71.354
T10
X324.344Y-67.798
X324.344Y-72.298
X330.844Y-67.798
X330.844Y-72.298
T11
X26.504Y-61.526
X26.504Y-88.026
X28.879Y-164.026
X31.254Y-107.026
X32.854Y-58.986
X32.854Y-85.486
X33.629Y-126.026
X35.229Y-161.486
X37.604Y-104.486
X38.364Y-145.038
X39.979Y-123.486
X44.714Y-142.498
X45.504Y-88.026
X51.854Y-85.486
X52.629Y-164.026
X55.004Y-107.026
X58.979Y-161.486
X59.754Y-126.026
X61.354Y-104.486
X63.504Y-61.526
X64.504Y-88.026
X66.104Y-123.486
X69.254Y-145.026
X69.854Y-58.986
X70.854Y-85.486
X74.004Y-107.026
X75.604Y-142.486
X76.379Y-164.026
X78.754Y-126.026
X80.354Y-104.486
X82.499Y-61.526
X82.729Y-161.486
X83.504Y-88.026
X85.104Y-123.486
X88.254Y-145.026
X88.849Y-58.986
X89.854Y-85.486
X93.004Y-107.026
X94.604Y-142.486
X97.754Y-126.026
X99.354Y-104.486
X101.504Y-61.526
X102.504Y-88.026
X104.104Y-123.486
X107.254Y-145.026
X107.854Y-58.986
X108.854Y-85.486
X112.004Y-107.026
X113.604Y-142.486
X116.754Y-126.026
X118.354Y-104.486
X120.504Y-61.526
X121.504Y-88.026
X123.104Y-123.486
X126.254Y-145.026
X126.854Y-58.986
X127.854Y-85.486
X131.004Y-107.026
X132.604Y-142.486
X135.754Y-126.026
X137.354Y-104.486
X140.554Y-88.026
X142.104Y-123.486
X145.316Y-145.026
X146.904Y-85.486
X147.609Y-164.082
X149.504Y-61.526
X150.004Y-107.026
X151.666Y-142.486
X153.959Y-161.542
X154.841Y-126.026
X155.854Y-58.986
X156.354Y-104.486
X159.504Y-88.026
X161.191Y-123.486
X164.254Y-145.026
X165.854Y-85.486
X168.504Y-61.526
X169.004Y-107.026
X170.604Y-142.486
X173.891Y-126.026
X174.854Y-58.986
X175.354Y-104.486
X178.504Y-88.026
X180.241Y-123.486
X183.254Y-145.026
X184.854Y-85.486
X187.504Y-61.526
X188.004Y-107.026
X189.604Y-142.486
X192.754Y-126.026
X193.854Y-58.986
X194.354Y-104.486
X197.504Y-88.026
X199.104Y-123.486
X202.254Y-145.026
X203.854Y-85.486
X206.504Y-61.526
X207.004Y-107.026
X208.604Y-142.486
X211.754Y-126.026
X212.854Y-58.986
X213.354Y-104.486
X216.504Y-88.026
X218.104Y-123.486
X218.879Y-164.026
X221.254Y-145.026
X222.854Y-85.486
X225.229Y-161.486
X226.004Y-107.026
X227.604Y-142.486
X230.754Y-126.026
X232.354Y-104.486
X235.504Y-61.526
X235.504Y-88.026
X237.104Y-123.486
X240.254Y-145.026
X241.854Y-58.986
X241.854Y-85.486
X242.629Y-164.026
X245.004Y-107.026
X246.604Y-142.486
X248.979Y-161.486
X249.754Y-126.026
X251.354Y-104.486
X254.504Y-61.526
X254.504Y-88.026
X256.104Y-123.486
X260.854Y-58.986
X260.854Y-85.486
X264.004Y-107.026
X266.379Y-164.026
X270.354Y-104.486
X272.729Y-161.486
X273.504Y-61.526
X275.955Y-145.058
X279.854Y-58.986
X280.654Y-126.084
X282.305Y-142.518
X283.004Y-88.092
X287.004Y-123.544
X287.754Y-107.026
X289.354Y-85.552
X290.129Y-164.026
X292.504Y-61.526
X294.104Y-104.486
X296.479Y-161.486
X298.854Y-58.986
X315.504Y-61.526
X315.504Y-88.026
X315.504Y-107.026
X315.504Y-164.026
X321.854Y-58.986
X321.854Y-85.486
X321.854Y-104.486
X321.854Y-161.486
X334.504Y-61.526
X334.504Y-88.026
X334.504Y-107.026
X334.504Y-144.976
X334.504Y-164.026
X340.854Y-58.986
X340.854Y-85.486
X340.854Y-104.486
X340.854Y-142.436
X340.854Y-161.486
X353.504Y-61.526
X353.504Y-88.026
X353.504Y-107.026
X353.504Y-164.026
X359.854Y-58.986
X359.854Y-85.486
X359.854Y-104.486
X359.854Y-161.486
T12
X50.544Y-67.996
T6
G00X43.294Y-45.661
M15
G01X43.294Y-44.861
M16
G05
G00X43.294Y-49.391
M15
G01X43.294Y-47.891
M16
G05
G00X51.944Y-45.661
M15
G01X51.944Y-44.861
M16
G05
G00X51.944Y-49.391
M15
G01X51.944Y-47.891
M16
G05
M30
