G04 #@! TF.GenerationSoftware,KiCad,Pcbnew,10.0.4-10.0.4~ubuntu24.04.1*
G04 #@! TF.CreationDate,2026-07-12T10:01:39+02:00*
G04 #@! TF.ProjectId,emacstkl,656d6163-7374-46b6-9c2e-6b696361645f,rev?*
G04 #@! TF.SameCoordinates,Original*
G04 #@! TF.FileFunction,Profile,NP*
%FSLAX46Y46*%
G04 Gerber Fmt 4.6, Leading zero omitted, Abs format (unit mm)*
G04 Created by KiCad (PCBNEW 10.0.4-10.0.4~ubuntu24.04.1) date 2026-07-12 10:01:39*
%MOMM*%
%LPD*%
G01*
G04 APERTURE LIST*
G04 #@! TA.AperFunction,Profile*
%ADD10C,0.050000*%
G04 #@! TD*
G04 APERTURE END LIST*
D10*
X18043755Y-47446411D02*
G75*
G02*
X20043755Y-45446415I1999995J1D01*
G01*
X18043755Y-168946411D02*
X18043755Y-47446411D01*
X20043755Y-170946411D02*
G75*
G02*
X18043749Y-168946411I-5J2000001D01*
G01*
X20043755Y-170946411D02*
X46543755Y-170946411D01*
X40043755Y-43946411D02*
G75*
G02*
X41957940Y-41944545I1914185J85761D01*
G01*
X40043755Y-45446411D02*
X20043755Y-45446411D01*
X40043755Y-45446411D02*
X40043755Y-43946411D01*
X42043755Y-41946411D02*
X52043755Y-41946411D01*
X46543755Y-168946411D02*
X46543755Y-170946411D01*
X52043760Y-41946450D02*
G75*
G02*
X54043750Y-43946450I40J-1999950D01*
G01*
X54043755Y-43946411D02*
X54043755Y-45396411D01*
X54043755Y-45396411D02*
X62343755Y-45396411D01*
X55543755Y-168946411D02*
X46543755Y-168946411D01*
X55543755Y-168946411D02*
X55543755Y-170946411D01*
X79043755Y-168946411D02*
X79043755Y-170946411D01*
X79043755Y-170946411D02*
X55543755Y-170946411D01*
X88043755Y-168946411D02*
X79043755Y-168946411D01*
X88043755Y-168946411D02*
X88043755Y-170969744D01*
X110043755Y-168946411D02*
X110043755Y-170946411D01*
X110043755Y-170946411D02*
X88043755Y-170969744D01*
X120043755Y-168946411D02*
X110043755Y-168946411D01*
X120043755Y-168946411D02*
X120043755Y-170946411D01*
X169043755Y-168396411D02*
X169043755Y-170946411D01*
X169043755Y-170946411D02*
X120043755Y-170946411D01*
X183543755Y-168396411D02*
X169043755Y-168396411D01*
X183543755Y-170946411D02*
X183543755Y-168396411D01*
X191043755Y-169896411D02*
X191043755Y-170946411D01*
X191043755Y-170946411D02*
X183543755Y-170946411D01*
X364543755Y-45446411D02*
X62343755Y-45396411D01*
X364543755Y-45446411D02*
G75*
G02*
X366543789Y-47446411I45J-1999989D01*
G01*
X364543755Y-169946411D02*
X191043755Y-169896411D01*
X366543755Y-167946411D02*
X366543755Y-47446411D01*
X366545518Y-167860623D02*
G75*
G02*
X364543753Y-169946356I-2087518J23D01*
G01*
M02*
